<?xml version="1.0" encoding="utf-8"?>
<!-- Generator: Adobe Illustrator 23.0.6, SVG Export Plug-In . SVG Version: 6.00 Build 0)  -->
<svg version="1.1" id="Layer_1" xmlns="http://www.w3.org/2000/svg" xmlns:xlink="http://www.w3.org/1999/xlink" x="0px" y="0px"
	 viewBox="0 0 235.28 235.28" style="enable-background:new 0 0 235.28 235.28;" xml:space="preserve">
<style type="text/css">
	.st0{fill:#7F9CA3;}
	.st1{fill:#2DCDAE;}
	.st2{fill:#4AD8BD;}
	.st3{fill:#FFCE41;}
	.st4{fill:#827EF7;}
	.st5{fill:#26B7D2;}
	.st6{fill:#9C9CEF;}
	.st7{fill:#0B0B0B;}
	.st8{fill:#009790;}
	.st9{opacity:0.2;fill:#5275A0;}
	.st10{fill:#3ECADD;}
	.st11{fill:#FFB9A3;}
	.st12{fill:#0056EC;}
	.st13{fill:#21BFA0;}
	.st14{fill:#EDB732;}
	.st15{fill:#023849;}
	.st16{fill:#024A67;}
</style>
<path class="st0" d="M793.11,151l-33.39,22.26l-14.77,9.85v24.58c0,2.38,1.93,4.31,4.31,4.31h52.23h32.25
	c2.38,0,4.31-1.93,4.31-4.31v-24.58L793.11,151z"/>
<path class="st1" d="M724.05,181.11v24.6c0,2.37-1.92,4.29-4.29,4.29h-84.52c-2.37,0-4.29-1.92-4.29-4.29v-24.6L679.11,149
	L724.05,181.11z"/>
<path class="st2" d="M724.05,181.11v24.6c0,2.37-1.92,4.29-4.29,4.29h-32.27c-24.93-9.18-35.84-25.66-41.77-38.74L679.11,149
	L724.05,181.11z"/>
<path class="st1" d="M687.49,210h-52.25c-2.37,0-4.29-1.92-4.29-4.29v-24.6l14.77-9.85C651.65,184.34,662.56,200.82,687.49,210z"/>
<rect x="687" y="182" class="st3" width="18" height="18"/>
<path class="st4" d="M703,184v14h-4.02c-4.85-5.05-7.88-10.19-9.68-14H703z"/>
<rect x="651" y="184" class="st5" width="15" height="26"/>
<rect x="647.68" y="207" class="st3" width="22.32" height="3"/>
<polygon class="st0" points="727,179.11 727,186.11 679.11,152 628,186.11 628,179.11 679.11,145 "/>
<polygon class="st3" points="727,176.11 727,183.11 679.11,149 628,183.11 628,176.11 679.11,142 "/>
<path class="st6" d="M698.98,198H689v-14h0.3C691.1,187.81,694.13,192.95,698.98,198z"/>
<path class="st1" d="M836.05,181.11v24.58c0,2.38-1.93,4.31-4.31,4.31h-84.48c-2.38,0-4.31-1.93-4.31-4.31v-24.58L791.11,149
	L836.05,181.11z"/>
<path class="st2" d="M836.05,181.11v24.58c0,2.38-1.93,4.31-4.31,4.31h-32.25c-24.93-9.18-35.84-25.66-41.77-38.74L791.11,149
	L836.05,181.11z"/>
<path class="st1" d="M799.49,210h-52.23c-2.38,0-4.31-1.93-4.31-4.31v-24.58l14.77-9.85C763.65,184.34,774.56,200.82,799.49,210z"/>
<rect x="799" y="182" class="st3" width="18" height="18"/>
<path class="st4" d="M815,184v14h-4.02c-4.85-5.05-7.88-10.19-9.68-14H815z"/>
<rect x="763" y="184" class="st5" width="15" height="26"/>
<rect x="759.68" y="207" class="st3" width="22.32" height="3"/>
<path class="st6" d="M810.98,198H801v-14h0.3C803.1,187.81,806.13,192.95,810.98,198z"/>
<rect x="1112" y="180" class="st1" width="6" height="29"/>
<rect x="1202" y="156" transform="matrix(0.1751 0.9846 -0.9846 0.1751 1161.9318 -1045.7402)" class="st1" width="6" height="29"/>
<rect x="1155.5" y="159.5" transform="matrix(-1.836970e-16 1 -1 -1.836970e-16 1364.5 -952.5)" class="st1" width="6" height="93"/>
<g>
	<path class="st0" d="M1035.64,151l-33.39,22.26l-14.77,9.85v24.58c0,2.38,1.93,4.31,4.31,4.31h52.23h32.25
		c2.38,0,4.31-1.93,4.31-4.31v-24.58L1035.64,151z"/>
	<path class="st1" d="M1078.57,181.11v24.58c0,2.38-1.93,4.31-4.31,4.31h-84.48c-2.38,0-4.31-1.93-4.31-4.31v-24.58l48.16-32.11
		L1078.57,181.11z"/>
	<path class="st2" d="M1078.57,181.11v24.58c0,2.38-1.93,4.31-4.31,4.31h-32.25c-24.93-9.18-35.84-25.66-41.77-38.74l33.39-22.26
		L1078.57,181.11z"/>
	<path class="st1" d="M1042.02,210h-52.23c-2.38,0-4.31-1.93-4.31-4.31v-24.58l14.77-9.85
		C1006.18,184.34,1017.08,200.82,1042.02,210z"/>
	<g>
		<path class="st4" d="M1081.32,191.63c2.76,1.01,5.16,4.18,4.61,6.49c-0.62,2.6-2.42,3.72-2.42,3.72l-0.57-1.04
			c0,0,1.43-2.24,1.31-3.3c-0.2-1.7-2.34-2.83-2.34-2.83L1081.32,191.63z"/>
		<path class="st7" d="M1074.52,220.98c0,0-1.7,0.68-2.12,1.07l3.36-0.01l0-1.07L1074.52,220.98z"/>
		<path class="st7" d="M1081.94,220.92c0,0,0.48,0.56,0.57,1.12l-2.29,0c0.04-0.39,0.2-0.76,0.43-1.12L1081.94,220.92z"/>
		<path class="st5" d="M1082.08,220.97l-1.56,0c0.03-1.84-0.35-8.13-0.72-12.82c-0.22-2.75-0.43-4.97-0.55-5.42l0.84-0.18l3.16-0.7
			C1083.79,204.31,1082.54,215.67,1082.08,220.97z"/>
		<path class="st8" d="M1076.33,202.63c-1.22,1.92-1.54,15.82-2.05,18.39l1.48,0.08c0,0,1.7-8.76,5.34-18.61L1076.33,202.63z"/>
		<path class="st9" d="M1081.73,202.5c-0.72,1.95-1.36,3.85-1.93,5.65c-0.22-2.75-0.43-4.97-0.55-5.42l0.84-0.18L1081.73,202.5z"/>
		<path class="st10" d="M1076.33,202.63c-1.22,1.92-1.54,15.82-2.05,18.39l1.48,0.08c0,0,1.7-8.76,5.34-18.61L1076.33,202.63z"/>
		<path class="st11" d="M1077.27,187.12c0,0-0.95,3.62,1.42,3.62l-0.14,0.93l1.8,0.2l-0.39-1.29c0,0,0.36-2.28,0.38-2.69
			C1080.39,187.11,1078.23,185.76,1077.27,187.12z"/>
		<path d="M1071.4,183.06l-0.01,2.96l-0.7,0c0,0,0.01-2.74,0.01-2.96c0-0.22-0.11-0.35-0.11-0.35c-0.12-0.13-0.27-0.15-0.43-0.07
			c-0.07,0.04-0.12,0.08-0.19,0.12c-0.07,0.05-0.13,0.11-0.22,0.12c-0.16,0.02-0.31,0-0.46-0.05c-0.07-0.03-0.11-0.07-0.15-0.13
			c-0.05-0.09-0.08-0.2-0.09-0.3c-0.03-0.25-0.01-0.5,0.12-0.73c0.02-0.02,0.05-0.05,0.07-0.07c0.08-0.02,0.16-0.05,0.24-0.07
			c0.21-0.04,0.4,0.01,0.58,0.12c0.07,0.05,0.15,0.08,0.22,0.13c0.02,0.01,0.04,0.01,0.05-0.01c0,0,0,0,0,0
			c0.07-0.09,0.16-0.13,0.27-0.14c0.29-0.05,0.58-0.09,0.88-0.09c0.28,0.01,0.53,0.09,0.77,0.24c0.02,0.01,0.04,0.03,0.06,0.04
			c0.05,0.04,0.09,0.09,0.14,0.13c0.03,0.04,0.06,0.08,0.09,0.12c0.21,0.28,0.37,0.59,0.5,0.92c0,0.01,0.01,0.02,0.01,0.03
			c-0.09,0.02-0.17,0.04-0.26,0.05c-0.01,0-0.03-0.01-0.04-0.02c-0.04-0.05-0.08-0.1-0.12-0.15c-0.15-0.18-0.3-0.34-0.49-0.47
			c-0.09-0.06-0.19-0.11-0.3-0.12c-0.21-0.03-0.41,0.12-0.44,0.34L1071.4,183.06z"/>
		<path class="st11" d="M1070.51,186.79c-0.02-0.67-0.57-0.49-0.27-1.59c0.19-0.68,1.58,0.11,1.41,0.58
			c-0.17,0.47-0.37,1.21-0.37,1.21L1070.51,186.79z"/>
		<path class="st12" d="M1078.71,191.45c-3.55,0.24-3.78,1.43-5.37,1.24c-2.35-0.28-1.94-4.64-1.65-6.21l-1.4,0
			c0,0-2.53,9.94,5.46,8.11c-0.31,1.74,1.68,4.59-0.25,8.04c3.03,0.82,5.87,1.03,8.29-0.02c-0.42-0.57,0.87-6.35-1.66-10.51
			C1081.63,191.29,1078.97,191.43,1078.71,191.45z"/>
		<path class="st6" d="M1078.71,191.45c-3.55,0.24-3.78,1.43-5.37,1.24c-2.35-0.28-1.94-4.64-1.65-6.21l-1.4,0
			c0,0-2.53,9.94,5.46,8.11c-0.31,1.74,1.68,4.59-0.25,8.04c3.03,0.82,5.87,1.03,8.29-0.02c-0.42-0.57,0.87-6.35-1.66-10.51
			C1081.63,191.29,1078.97,191.43,1078.71,191.45z"/>
		<path class="st3" d="M1078.22,187.81c0.23,0.06,0.5,0.1,0.62,0.3c0.08,0.13,0.07,0.29,0.07,0.43c0.04-0.16,0.21-0.27,0.38-0.25
			c0.17,0.02,0.31,0.17,0.31,0.33c0,0.08-0.02,0.15-0.05,0.22c-0.07,0.18-0.16,0.34-0.26,0.5c0.29,0.11,0.53,0.95,0.68,1.22
			c0.49-0.12,1.57-0.54,1.67-2.27c0.04-0.8-0.2-1.77-1.07-2.3c-0.62-0.38-1.64-0.38-2.34-0.2c-0.57,0.15-1.48,0.72-1.06,1.39
			C1077.37,187.52,1077.83,187.72,1078.22,187.81z"/>
	</g>
</g>
<g>
	<path class="st0" d="M444.62-238.66l-78.14,52.09l-34.57,23.05V-106c0,5.57,4.52,10.09,10.09,10.09h122.23h75.47
		c5.57,0,10.09-4.52,10.09-10.09v-57.52L444.62-238.66z"/>
	<path class="st1" d="M545.11-168.2v57.52c0,5.57-4.52,10.09-10.09,10.09H337.33c-5.57,0-10.09-4.52-10.09-10.09v-57.52
		l112.71-75.15L545.11-168.2z"/>
	<path class="st2" d="M545.11-168.2v57.52c0,5.57-4.52,10.09-10.09,10.09h-75.47c-58.34-21.48-83.87-60.05-97.75-90.66l78.14-52.09
		L545.11-168.2z"/>
	<path class="st1" d="M459.55-100.59H337.33c-5.57,0-10.09-4.52-10.09-10.09v-57.52l34.57-23.05
		C375.68-160.64,401.21-122.07,459.55-100.59z"/>
	<g>
		<path class="st4" d="M551.54-143.57c6.46,2.37,12.07,9.79,10.79,15.18c-1.45,6.09-5.65,8.71-5.65,8.71l-1.32-2.44
			c0,0,3.36-5.25,3.07-7.73c-0.47-3.97-5.48-6.62-5.48-6.62L551.54-143.57z"/>
		<path class="st7" d="M535.63-74.89c0,0-3.97,1.6-4.96,2.51l7.86-0.02l-0.01-2.5L535.63-74.89z"/>
		<path class="st7" d="M553-75.04c0,0,1.13,1.31,1.33,2.61l-5.36,0.01c0.09-0.9,0.48-1.77,1-2.62L553-75.04z"/>
		<path class="st5" d="M553.32-74.92l-3.66,0.01c0.07-4.31-0.82-19.02-1.68-30.01c-0.51-6.45-1.01-11.63-1.3-12.67l1.96-0.43
			l7.4-1.65C557.32-113.89,554.4-87.31,553.32-74.92z"/>
		<path class="st8" d="M539.86-117.83c-2.86,4.5-3.6,37.01-4.79,43.04l3.47,0.2c0,0,3.99-20.5,12.49-43.54L539.86-117.83z"/>
		<path class="st9" d="M552.5-118.14c-1.68,4.55-3.18,9.01-4.51,13.22c-0.51-6.45-1.01-11.63-1.3-12.67l1.96-0.43L552.5-118.14z"/>
		<path class="st10" d="M539.86-117.83c-2.86,4.5-3.6,37.01-4.79,43.04l3.47,0.2c0,0,3.99-20.5,12.49-43.54L539.86-117.83z"/>
		<path class="st11" d="M542.05-154.13c0,0-2.22,8.47,3.33,8.46l-0.33,2.17l4.22,0.46l-0.91-3.02c0,0,0.83-5.33,0.89-6.29
			C549.35-154.15,544.32-157.31,542.05-154.13z"/>
		<path d="M528.33-163.63l-0.01,6.92l-1.64,0c0,0,0.01-6.41,0.01-6.92s-0.26-0.83-0.26-0.83c-0.28-0.31-0.63-0.36-1-0.16
			c-0.15,0.08-0.29,0.19-0.43,0.29c-0.16,0.12-0.31,0.26-0.52,0.28c-0.37,0.05-0.72,0.01-1.07-0.13c-0.15-0.06-0.27-0.17-0.35-0.31
			c-0.12-0.22-0.18-0.46-0.21-0.7c-0.07-0.6-0.02-1.17,0.28-1.71c0.05-0.06,0.11-0.11,0.16-0.17c0.18-0.05,0.36-0.12,0.55-0.16
			c0.49-0.08,0.94,0.01,1.36,0.28c0.17,0.11,0.34,0.2,0.51,0.3c0.05,0.03,0.09,0.03,0.13-0.02c0,0,0,0,0.01-0.01
			c0.15-0.22,0.37-0.29,0.62-0.34c0.68-0.12,1.36-0.22,2.05-0.2c0.65,0.01,1.25,0.21,1.8,0.56c0.04,0.03,0.09,0.06,0.13,0.09
			c0.11,0.1,0.21,0.21,0.32,0.31c0.07,0.09,0.15,0.18,0.22,0.28c0.5,0.66,0.86,1.38,1.17,2.14c0.01,0.02,0.01,0.04,0.02,0.07
			c-0.2,0.04-0.4,0.09-0.6,0.12c-0.03,0.01-0.07-0.01-0.09-0.04c-0.1-0.11-0.19-0.24-0.28-0.35c-0.34-0.41-0.7-0.8-1.15-1.11
			c-0.21-0.15-0.44-0.26-0.7-0.29c-0.5-0.07-0.96,0.28-1.03,0.8L528.33-163.63z"/>
		<path class="st11" d="M526.23-154.91c-0.04-1.57-1.34-1.16-0.63-3.72c0.44-1.58,3.71,0.25,3.3,1.35c-0.41,1.1-0.88,2.83-0.88,2.83
			L526.23-154.91z"/>
		<path class="st12" d="M545.42-144c-8.31,0.55-8.85,3.35-12.57,2.91c-5.5-0.65-4.54-10.86-3.86-14.53l-3.29,0.01
			c0,0-5.92,23.27,12.78,18.97c-0.72,4.08,3.93,10.73-0.58,18.81c7.1,1.93,13.73,2.4,19.4-0.04c-0.99-1.34,2.04-14.86-3.9-24.59
			C552.26-144.36,546.03-144.04,545.42-144z"/>
		<path class="st6" d="M545.42-144c-8.31,0.55-8.85,3.35-12.57,2.91c-5.5-0.65-4.54-10.86-3.86-14.53l-3.29,0.01
			c0,0-5.92,23.27,12.78,18.97c-0.72,4.08,3.93,10.73-0.58,18.81c7.1,1.93,13.73,2.4,19.4-0.04c-0.99-1.34,2.04-14.86-3.9-24.59
			C552.26-144.36,546.03-144.04,545.42-144z"/>
		<path class="st3" d="M544.27-152.51c0.54,0.14,1.17,0.24,1.46,0.7c0.19,0.3,0.17,0.67,0.16,1.02c0.1-0.36,0.5-0.63,0.89-0.58
			c0.39,0.04,0.72,0.39,0.72,0.77c0,0.18-0.06,0.35-0.12,0.51c-0.16,0.41-0.37,0.81-0.62,1.18c0.68,0.25,1.25,2.23,1.59,2.85
			c1.14-0.29,3.68-1.27,3.9-5.31c0.1-1.88-0.47-4.14-2.51-5.39c-1.44-0.89-3.84-0.9-5.49-0.48c-1.34,0.34-3.47,1.68-2.48,3.24
			C542.28-153.2,543.38-152.74,544.27-152.51z"/>
	</g>
</g>
<g>
	<polygon class="st11" points="1221.45,178.01 1220.6,179.71 1222.67,180.55 1222.89,178.6 	"/>
	<path class="st11" d="M1222.69,172.47c-4.69,2.04-2.77,6.99,0.09,6.4c1.39-0.28,2.09-4.75,2.09-4.75L1222.69,172.47z"/>
	<path class="st4" d="M1224.25,171.77c-0.15-0.29-0.3-0.59-0.55-0.8c-0.25-0.2-0.66-0.27-0.89-0.05c-0.32,0.29-0.13,0.84,0.19,1.13
		c-0.27,0.03-0.6-0.16-0.8,0.03c-0.15,0.14-0.1,0.4-0.01,0.59c0.21,0.45,0.54,0.84,0.96,1.1c-0.24,0.14-0.51,0.4-0.37,0.63
		c0.04,0.06,0.11,0.11,0.14,0.17c0.09,0.15,0,0.34-0.09,0.5c-0.15,0.24-0.31,0.48-0.48,0.71c0.16-0.22,0.55-0.13,0.67,0.12
		s0.02,0.55-0.17,0.76c-0.1,0.11-0.23,0.21-0.38,0.24c-0.13,0.03-0.7,1.79-0.25,2.13c0.55,0.43,2.41,0.06,2.68-0.42
		c0.27,0.29,0.66,0.51,1.05,0.44c0.39-0.08,0.69-0.56,0.48-0.9c0.42,0.16,0.93,0.02,1.22-0.33s0.33-0.87,0.1-1.26
		c0.23-0.07,0.28-0.38,0.22-0.61c-0.12-0.47-0.5-0.87-0.97-1c0.24,0,0.43-0.23,0.44-0.47c0.01-0.24-0.11-0.46-0.26-0.64
		c-0.44-0.54-0.96-0.69-1.61-0.77C1224.9,172.98,1224.54,172.31,1224.25,171.77z"/>
	<path class="st7" d="M1219.86,221.95c0,0-2.74,1.32-3.11,1.73c0,0,5.4,0.24,5.82-0.01c0.42-0.25-0.86-1.72-0.86-1.72
		L1219.86,221.95z"/>
	<path class="st7" d="M1230.06,220.46c0,0-2.41,1.86-2.69,2.33c0,0,5.69-0.84,5.69-1.22c0-0.37-1.2-1.5-1.2-1.5L1230.06,220.46z"/>
	<path class="st13" d="M1222.51,196.52c-0.1,0.56-3.86,15.38,6.89,24.27l3.11-0.71c0,0-3.62-3.4-5.33-9.51
		c-1.61-5.78-0.33-6.35,0.64-9.53c1.07-3.52,0.27-6.08,0.27-6.08L1222.51,196.52z"/>
	<path class="st1" d="M1217.38,196.47c-1.7,4.07-4.63,17.94,1.75,25.75l3.18-0.01c0,0-2.51-2.75-2.79-9.12
		c-0.28-6.37,1.34-9.17,2.48-11.28c1.14-2.1,2.2-5.68,2.2-5.68L1217.38,196.47z"/>
	<path class="st14" d="M1215.13,171.24c-0.85,2.98-1.12,8.49,3.11,10.71l2.83-0.69c0,0-5.11-2.68-4.02-9.45L1215.13,171.24z"/>
	<path class="st3" d="M1207.32,169.71l2.2-0.27c0,0-0.26,9.24,10.41,10.02c8.15,0.59,8.79,15.88,8.79,15.88
		c-2.63,1.77-7.03,2.3-12.68,1.9c0,0,0.36-10.9-0.54-13.89C1215.5,183.35,1206.63,180.56,1207.32,169.71z"/>
	<path class="st11" d="M1204.63,168.04c-0.37,0.43,1.18,0.98,2.69,1.68l1.93-0.24c0,0,0.02-0.39,0-0.79
		c-0.02-0.4-0.23-0.63-0.45-0.29c-0.23,0.35-1.21,0.46-1.67,0.15C1206.67,168.23,1205,167.6,1204.63,168.04z"/>
	<path class="st11" d="M1215.13,171.24c-0.71-0.7-0.52-0.65-0.52-0.65l2.16,0.49c0,0,0.47-1.05,0.88-1.08
		c0.4-0.03-0.3,0.73-0.14,1.01c0.16,0.28-0.44,0.81-0.44,0.81L1215.13,171.24z"/>
</g>
<g>
	<path class="st0" d="M909.11,151l-33.39,22.26l-14.77,9.85v24.58c0,2.38,1.93,4.31,4.31,4.31h52.23h32.25
		c2.38,0,4.31-1.93,4.31-4.31v-24.58L909.11,151z"/>
	<path class="st1" d="M952.05,181.11v24.58c0,2.38-1.93,4.31-4.31,4.31h-84.48c-2.38,0-4.31-1.93-4.31-4.31v-24.58L907.11,149
		L952.05,181.11z"/>
	<path class="st2" d="M952.05,181.11v24.58c0,2.38-1.93,4.31-4.31,4.31h-32.25c-24.93-9.18-35.84-25.66-41.77-38.74L907.11,149
		L952.05,181.11z"/>
	<path class="st1" d="M915.49,210h-52.23c-2.38,0-4.31-1.93-4.31-4.31v-24.58l14.77-9.85C879.65,184.34,890.56,200.82,915.49,210z"
		/>
	
		<rect x="879.07" y="184.01" transform="matrix(0.9889 0.1488 -0.1488 0.9889 39.1049 -129.7029)" class="st5" width="15" height="25.09"/>
	<rect x="875.68" y="207" class="st3" width="22.32" height="3"/>
	<g>
		<polygon class="st11" points="876.43,193.37 876.88,194.27 875.78,194.72 875.66,193.68 		"/>
		<path class="st11" d="M875.76,190.43c2.49,1.08,1.47,3.71-0.05,3.4c-0.74-0.15-1.11-2.52-1.11-2.52L875.76,190.43z"/>
		<path class="st3" d="M874.94,190.06c0.08-0.15,0.16-0.31,0.29-0.42s0.35-0.14,0.48-0.02c0.17,0.16,0.07,0.45-0.1,0.6
			c0.15,0.02,0.32-0.08,0.43,0.02c0.08,0.08,0.05,0.21,0.01,0.31c-0.11,0.24-0.29,0.44-0.51,0.58c0.13,0.07,0.27,0.21,0.2,0.33
			c-0.02,0.03-0.06,0.06-0.08,0.09c-0.05,0.08,0,0.18,0.05,0.26c0.08,0.13,0.16,0.26,0.25,0.38c-0.09-0.12-0.29-0.07-0.36,0.06
			c-0.06,0.13-0.01,0.29,0.09,0.4c0.05,0.06,0.12,0.11,0.2,0.13c0.07,0.02,0.37,0.95,0.13,1.13c-0.29,0.23-1.28,0.03-1.42-0.23
			c-0.14,0.16-0.35,0.27-0.56,0.23c-0.21-0.04-0.37-0.3-0.25-0.48c-0.22,0.08-0.5,0.01-0.65-0.17c-0.15-0.18-0.18-0.46-0.05-0.67
			c-0.12-0.04-0.15-0.2-0.12-0.33c0.06-0.25,0.27-0.46,0.51-0.53c-0.13,0-0.23-0.12-0.23-0.25c-0.01-0.13,0.06-0.24,0.14-0.34
			c0.23-0.29,0.51-0.37,0.86-0.41C874.59,190.7,874.78,190.35,874.94,190.06z"/>
		<path class="st7" d="M877.27,216.69c0,0,1.46,0.7,1.65,0.92c0,0-2.86,0.13-3.09-0.01c-0.22-0.14,0.46-0.91,0.46-0.91
			L877.27,216.69z"/>
		<path class="st7" d="M871.85,215.9c0,0,1.28,0.99,1.43,1.24c0,0-3.02-0.45-3.02-0.65s0.64-0.8,0.64-0.8L871.85,215.9z"/>
		<path class="st15" d="M875.86,203.2c0.05,0.3,2.05,8.16-3.66,12.88l-1.65-0.38c0,0,1.92-1.8,2.83-5.05
			c0.86-3.07,0.18-3.37-0.34-5.06c-0.57-1.87-0.15-3.23-0.15-3.23L875.86,203.2z"/>
		<path class="st16" d="M878.59,203.17c0.9,2.16,2.46,9.52-0.93,13.67l-1.69,0c0,0,1.33-1.46,1.48-4.84s-0.71-4.87-1.32-5.99
			c-0.61-1.12-1.17-3.01-1.17-3.01L878.59,203.17z"/>
		<path class="st4" d="M879.78,189.78c0.45,1.58,0.6,4.51-1.65,5.68l-1.5-0.37c0,0,2.71-1.42,2.13-5.02L879.78,189.78z"/>
		<path class="st6" d="M883.92,188.97l-1.17-0.14c0,0,0.14,4.9-5.52,5.32c-4.32,0.32-4.66,8.43-4.66,8.43
			c1.39,0.94,3.73,1.22,6.73,1.01c0,0-0.19-5.79,0.28-7.37C879.58,196.21,884.29,194.72,883.92,188.97z"/>
		<path class="st11" d="M885.35,188.08c0.2,0.23-0.63,0.52-1.43,0.89l-1.03-0.13c0,0-0.01-0.2,0-0.42c0.01-0.21,0.12-0.34,0.24-0.15
			c0.12,0.18,0.64,0.25,0.88,0.08C884.27,188.18,885.15,187.85,885.35,188.08z"/>
		<path class="st11" d="M879.78,189.78c0.38-0.37,0.28-0.35,0.28-0.35l-1.15,0.26c0,0-0.25-0.56-0.47-0.57
			c-0.21-0.02,0.16,0.39,0.08,0.53s0.23,0.43,0.23,0.43L879.78,189.78z"/>
	</g>
</g>
<g>
	<path class="st0" d="M749.41-247.28L666.8-192.2l-36.54,24.37v60.8c0,5.89,4.78,10.67,10.67,10.67h129.21h79.78
		c5.89,0,10.67-4.78,10.67-10.67v-60.8L749.41-247.28z"/>
	<path class="st1" d="M855.64-172.78v60.8c0,5.89-4.78,10.67-10.67,10.67H635.98c-5.89,0-10.67-4.78-10.67-10.67v-60.8l119.15-79.44
		L855.64-172.78z"/>
	<path class="st2" d="M855.64-172.78v60.8c0,5.89-4.78,10.67-10.67,10.67h-79.78c-61.68-22.71-88.67-63.48-103.34-95.84l82.61-55.07
		L855.64-172.78z"/>
	<path class="st1" d="M765.19-101.31H635.98c-5.89,0-10.67-4.78-10.67-10.67v-60.8l36.54-24.37
		C676.52-164.79,703.51-124.02,765.19-101.31z"/>
	
		<rect x="675.08" y="-165.62" transform="matrix(0.9889 0.1488 -0.1488 0.9889 -12.3032 -104.6864)" class="st5" width="37.11" height="62.07"/>
	<rect x="666.71" y="-108.73" class="st3" width="55.21" height="7.42"/>
	<g>
		<polygon class="st11" points="668.55,-142.45 669.66,-140.22 666.94,-139.11 666.65,-141.68 		"/>
		<path class="st11" d="M666.91-149.72c6.16,2.68,3.63,9.17-0.11,8.41c-1.82-0.37-2.75-6.24-2.75-6.24L666.91-149.72z"/>
		<path class="st3" d="M664.86-150.64c0.2-0.38,0.39-0.78,0.73-1.05c0.33-0.27,0.86-0.35,1.18-0.06c0.41,0.39,0.17,1.11-0.25,1.48
			c0.36,0.04,0.79-0.21,1.06,0.04c0.2,0.19,0.13,0.52,0.02,0.77c-0.27,0.59-0.72,1.1-1.26,1.45c0.31,0.18,0.67,0.52,0.49,0.83
			c-0.05,0.08-0.14,0.14-0.19,0.23c-0.12,0.2,0,0.45,0.12,0.65c0.19,0.32,0.4,0.63,0.63,0.93c-0.21-0.29-0.73-0.17-0.88,0.15
			c-0.16,0.32-0.02,0.72,0.22,0.99c0.13,0.15,0.3,0.27,0.5,0.32c0.17,0.04,0.91,2.35,0.33,2.8c-0.72,0.56-3.17,0.07-3.52-0.56
			c-0.35,0.38-0.87,0.67-1.38,0.57c-0.51-0.1-0.9-0.73-0.63-1.18c-0.55,0.2-1.23,0.02-1.6-0.43c-0.38-0.45-0.43-1.15-0.13-1.66
			c-0.3-0.09-0.36-0.5-0.29-0.8c0.16-0.62,0.66-1.14,1.27-1.31c-0.31,0.01-0.56-0.31-0.57-0.62c-0.01-0.31,0.15-0.6,0.34-0.85
			c0.58-0.71,1.26-0.9,2.12-1.01C664.01-149.05,664.48-149.93,664.86-150.64z"/>
		<path class="st7" d="M670.63-84.75c0,0,3.6,1.73,4.08,2.27c0,0-7.09,0.32-7.64-0.02c-0.55-0.33,1.13-2.26,1.13-2.26L670.63-84.75z
			"/>
		<path class="st7" d="M657.23-86.7c0,0,3.17,2.44,3.53,3.06c0,0-7.47-1.11-7.47-1.6c0-0.49,1.58-1.97,1.58-1.97L657.23-86.7z"/>
		<path class="st15" d="M667.15-118.14c0.13,0.73,5.06,20.2-9.05,31.87l-4.09-0.94c0,0,4.76-4.46,7-12.49
			c2.12-7.59,0.44-8.34-0.84-12.52c-1.41-4.63-0.36-7.99-0.36-7.99L667.15-118.14z"/>
		<path class="st16" d="M673.89-118.2c2.24,5.35,6.08,23.56-2.29,33.82l-4.18-0.01c0,0,3.29-3.61,3.66-11.98
			c0.37-8.37-1.76-12.05-3.26-14.81c-1.5-2.76-2.89-7.46-2.89-7.46L673.89-118.2z"/>
		<path class="st4" d="M676.84-151.34c1.11,3.91,1.48,11.15-4.09,14.06l-3.72-0.91c0,0,6.71-3.52,5.27-12.41L676.84-151.34z"/>
		<path class="st6" d="M687.1-153.34l-2.89-0.36c0,0,0.35,12.13-13.67,13.16c-10.7,0.78-11.54,20.85-11.54,20.85
			c3.45,2.32,9.24,3.03,16.65,2.49c0,0-0.47-14.32,0.7-18.24C676.36-135.44,688.01-139.1,687.1-153.34z"/>
		<path class="st11" d="M690.63-155.55c0.49,0.57-1.55,1.29-3.53,2.2l-2.54-0.31c0,0-0.03-0.51,0-1.03c0.03-0.53,0.3-0.83,0.6-0.38
			s1.58,0.61,2.19,0.19C687.95-155.29,690.14-156.11,690.63-155.55z"/>
		<path class="st11" d="M676.84-151.34c0.93-0.91,0.68-0.86,0.68-0.86l-2.83,0.64c0,0-0.62-1.38-1.15-1.42
			c-0.53-0.04,0.4,0.95,0.19,1.32c-0.21,0.37,0.58,1.06,0.58,1.06L676.84-151.34z"/>
	</g>
</g>
<g>
	<path class="st9" d="M808.19,177.93c-4.36-0.17-10.36,3.06-8.23,10.94c-0.05,0.67,0.35,1.14,0.78,1.01
		c0.42-0.13,0.05-1.39,0.05-1.39c0.73-5.86,2.08-6.87,4.39-6.85l5.41-0.01c1.34,0.2,3.76,1.13,4.13,5.82l1.35,0.25
		C816.16,184.31,815.34,178.21,808.19,177.93z"/>
	<path class="st5" d="M808.19,177.25c-4.36-0.17-10.36,3.06-8.23,10.94l0.83-0.38c0.73-5.86,2.08-6.87,4.39-6.85l5.41-0.01
		c1.34,0.2,3.83,1.38,4.19,6.07l1.28,0C816.16,183.62,815.34,177.52,808.19,177.25z"/>
	<path class="st11" d="M807.3,177.37l-0.65,1.42c0,0,0.08,0.8,0.86,0.78s0.89-0.38,0.89-0.38l0.1-1.63L807.3,177.37z"/>
	<path class="st11" d="M810.63,176.19c-0.74,1.3-1.06,1.71-2.03,1.91c-1.25,0.25-2.65-0.59-2-2.67c0.53-1.69,1.34-1.43,2.12-1.37
		C809.51,174.12,811.42,174.78,810.63,176.19z"/>
	<path class="st3" d="M807.69,175.16c-0.2-0.1-0.45-0.02-0.6,0.15c-0.16,0.16-0.23,0.41-0.17,0.63c-0.3,0-0.57,0.3-0.54,0.6
		c-0.21-0.48-0.09-0.98-0.14-1.47c-0.04-0.49,0.01-1.03,0.33-1.41c0.13-0.15,0.3-0.27,0.48-0.37c0.68-0.36,1.53-0.37,2.22-0.03
		c0.14,0.07,0.5,0.3,1,0.18c0.95-0.23,1.51,0.41,0.94,1.02c0.18,0.07,0.39,0.15,0.47,0.32c0.02,0.05,0.03,0.1,0,0.14
		c-0.02,0.03-0.05,0.04-0.09,0.05c-0.16,0.05-0.33,0.07-0.5,0.04c0.06,0.05,0.42,0.08,0.52,0.28c0.28,0.55-0.84,0.27-1.01,0.22
		c0.2,0.04,0.71,0.45,0.54,0.73c-0.03,0.06-0.73,0.46-1.45-0.39c-0.17-0.2-0.38-0.38-0.63-0.45c-0.2-0.05-0.4,0.02-0.59,0.09
		c-0.14,0.05-0.49,0.27-0.6,0.14C807.78,175.49,807.92,175.27,807.69,175.16z"/>
	<path class="st11" d="M814.91,187.01c-0.19,0.66-0.37,0.7-0.15,0.84C815,188,815,188,815,188c0.29,0.35,0.76,1.02,1,1
		c0.32-0.03,0.26-1.2,0.26-1.2s-0.24-0.7-0.41-0.79S814.91,187.01,814.91,187.01z"/>
	<path class="st11" d="M800.79,187.8c0.14,0.35,0.18,0.35,0.38,0.77c0.38,0.81-0.5,2.08-1.05,0.69c-0.15-0.38-0.15-1.08-0.15-1.08
		L800.79,187.8z"/>
</g>
<g>
	<path class="st0" d="M1038.48-239.53l-82.61,55.07l-36.54,24.37v60.8c0,5.89,4.78,10.67,10.67,10.67h129.21h79.78
		c5.89,0,10.67-4.78,10.67-10.67v-60.8L1038.48-239.53z"/>
	<path class="st1" d="M1144.71-165.04v60.8c0,5.89-4.78,10.67-10.67,10.67H925.06c-5.89,0-10.67-4.78-10.67-10.67v-60.8
		l119.15-79.44L1144.71-165.04z"/>
	<path class="st2" d="M1144.71-165.04v60.8c0,5.89-4.78,10.67-10.67,10.67h-79.78c-61.68-22.71-88.67-63.48-103.34-95.84
		l82.61-55.07L1144.71-165.04z"/>
	<path class="st1" d="M1054.27-93.57H925.06c-5.89,0-10.67-4.78-10.67-10.67v-60.8l36.54-24.37
		C965.6-157.05,992.59-116.28,1054.27-93.57z"/>
	<rect x="1053.05" y="-162.84" class="st3" width="44.53" height="44.53"/>
	<path class="st4" d="M1092.64-157.89v34.64h-9.95c-12-12.49-19.49-25.21-23.95-34.64H1092.64z"/>
	<rect x="963.99" y="-157.89" class="st5" width="37.11" height="64.32"/>
	<rect x="955.79" y="-100.99" class="st3" width="55.21" height="7.42"/>
	<path class="st6" d="M1082.69-123.26H1058v-34.64h0.74C1063.2-148.47,1070.69-135.75,1082.69-123.26z"/>
	<g>
		<path class="st9" d="M1075.79-172.9c-10.78-0.41-25.63,7.56-20.36,27.06c-0.11,1.65,0.87,2.82,1.92,2.5
			c1.05-0.32,0.12-3.45,0.12-3.45c1.8-14.5,5.15-17.01,10.85-16.95l13.37-0.03c3.31,0.49,9.31,2.8,10.22,14.4l3.33,0.61
			C1095.51-157.13,1093.48-172.23,1075.79-172.9z"/>
		<path class="st5" d="M1075.79-174.6c-10.78-0.41-25.63,7.56-20.36,27.06l2.05-0.94c1.8-14.5,5.15-17.01,10.85-16.95l13.37-0.03
			c3.31,0.49,9.47,3.42,10.38,15.03l3.17-0.01C1095.51-158.83,1093.48-173.93,1075.79-174.6z"/>
		<path class="st11" d="M1073.58-174.28l-1.6,3.52c0,0,0.19,1.98,2.14,1.94c1.95-0.04,2.21-0.94,2.21-0.94l0.25-4.04L1073.58-174.28
			z"/>
		<path class="st11" d="M1081.81-177.22c-1.83,3.23-2.63,4.23-5.02,4.72c-3.09,0.63-6.56-1.46-4.95-6.6
			c1.31-4.19,3.3-3.54,5.25-3.39C1079.05-182.33,1083.79-180.71,1081.81-177.22z"/>
		<path class="st3" d="M1074.56-179.77c-0.49-0.25-1.11-0.04-1.49,0.36c-0.39,0.41-0.57,1.02-0.41,1.56
			c-0.75,0.01-1.4,0.74-1.33,1.49c-0.51-1.19-0.23-2.43-0.34-3.65c-0.1-1.22,0.03-2.54,0.82-3.48c0.32-0.38,0.74-0.68,1.18-0.91
			c1.68-0.89,3.79-0.92,5.5-0.08c0.35,0.18,1.24,0.73,2.47,0.43c2.36-0.57,3.73,1.02,2.32,2.52c0.45,0.16,0.95,0.37,1.16,0.8
			c0.05,0.11,0.08,0.25,0.01,0.35c-0.05,0.07-0.13,0.11-0.22,0.13c-0.4,0.13-0.83,0.17-1.24,0.1c0.16,0.14,1.03,0.19,1.3,0.7
			c0.7,1.35-2.08,0.67-2.5,0.53c0.48,0.09,1.75,1.1,1.35,1.8c-0.08,0.14-1.8,1.14-3.6-0.96c-0.42-0.49-0.94-0.94-1.56-1.1
			c-0.49-0.13-1,0.05-1.47,0.23c-0.34,0.13-1.22,0.66-1.48,0.35C1074.76-178.95,1075.12-179.49,1074.56-179.77z"/>
		<path class="st11" d="M1092.42-150.44c-0.48,1.64-0.92,1.74-0.38,2.07c0.6,0.37,0.6,0.37,0.6,0.37c0.71,0.86,1.88,2.52,2.47,2.47
			c0.8-0.06,0.65-2.97,0.65-2.97s-0.6-1.74-1.03-1.95C1094.31-150.65,1092.42-150.44,1092.42-150.44z"/>
		<path class="st11" d="M1057.47-148.49c0.35,0.87,0.45,0.87,0.93,1.92c0.93,1.99-1.25,5.15-2.6,1.7c-0.37-0.94-0.38-2.68-0.38-2.68
			L1057.47-148.49z"/>
	</g>
</g>
<g>
	<g>
		<path class="st4" d="M650.99,196.23c2.85,1.05,5.33,4.32,4.76,6.7c-0.64,2.69-2.5,3.85-2.5,3.85l-0.58-1.08
			c0,0,1.48-2.32,1.35-3.41c-0.21-1.75-2.42-2.92-2.42-2.92L650.99,196.23z"/>
		<path class="st7" d="M643.96,226.57c0,0-1.75,0.71-2.19,1.11l3.47-0.01l0-1.1L643.96,226.57z"/>
		<path class="st7" d="M651.63,226.5c0,0,0.5,0.58,0.59,1.15l-2.37,0c0.04-0.4,0.21-0.78,0.44-1.16L651.63,226.5z"/>
		<path class="st5" d="M651.78,226.55l-1.62,0c0.03-1.91-0.36-8.4-0.74-13.26c-0.22-2.85-0.44-5.14-0.57-5.6l0.87-0.19l3.27-0.73
			C653.54,209.34,652.25,221.08,651.78,226.55z"/>
		<path class="st8" d="M645.83,207.6c-1.26,1.99-1.59,16.35-2.12,19.01l1.53,0.09c0,0,1.76-9.05,5.51-19.23L645.83,207.6z"/>
		<path class="st9" d="M651.41,207.46c-0.74,2.01-1.4,3.98-1.99,5.84c-0.22-2.85-0.44-5.14-0.57-5.6l0.87-0.19L651.41,207.46z"/>
		<path class="st10" d="M645.83,207.6c-1.26,1.99-1.59,16.35-2.12,19.01l1.53,0.09c0,0,1.76-9.05,5.51-19.23L645.83,207.6z"/>
		<path class="st11" d="M646.8,191.57c0,0-0.98,3.74,1.47,3.74l-0.15,0.96l1.86,0.2l-0.4-1.33c0,0,0.37-2.35,0.39-2.78
			C650.02,191.56,647.8,190.16,646.8,191.57z"/>
		<g>
			
				<rect x="640.01" y="187.37" transform="matrix(1 -1.973264e-03 1.973264e-03 1 -0.3715 1.264)" class="st7" width="0.72" height="3.05"/>
		</g>
		<path class="st11" d="M639.81,191.22c-0.02-0.69-0.59-0.51-0.28-1.64c0.19-0.7,1.64,0.11,1.46,0.6c-0.18,0.48-0.39,1.25-0.39,1.25
			L639.81,191.22z"/>
		<path class="st12" d="M648.29,196.04c-3.67,0.24-3.91,1.48-5.55,1.29c-2.43-0.29-2-4.8-1.7-6.42l-1.45,0c0,0-2.62,10.28,5.65,8.38
			c-0.32,1.8,1.74,4.74-0.25,8.31c3.14,0.85,6.06,1.06,8.57-0.02c-0.44-0.59,0.9-6.56-1.72-10.86
			C651.31,195.88,648.55,196.02,648.29,196.04z"/>
		<path class="st6" d="M648.29,196.04c-3.67,0.24-3.91,1.48-5.55,1.29c-2.43-0.29-2-4.8-1.7-6.42l-1.45,0c0,0-2.62,10.28,5.65,8.38
			c-0.32,1.8,1.74,4.74-0.25,8.31c3.14,0.85,6.06,1.06,8.57-0.02c-0.44-0.59,0.9-6.56-1.72-10.86
			C651.31,195.88,648.55,196.02,648.29,196.04z"/>
		<path class="st3" d="M647.78,192.28c0.24,0.06,0.52,0.11,0.65,0.31c0.08,0.13,0.08,0.3,0.07,0.45c0.04-0.16,0.22-0.28,0.39-0.26
			c0.17,0.02,0.32,0.17,0.32,0.34c0,0.08-0.02,0.15-0.05,0.23c-0.07,0.18-0.16,0.36-0.27,0.52c0.3,0.11,0.55,0.99,0.7,1.26
			c0.5-0.13,1.63-0.56,1.72-2.34c0.05-0.83-0.21-1.83-1.11-2.38c-0.64-0.39-1.69-0.4-2.42-0.21c-0.59,0.15-1.53,0.74-1.09,1.43
			C646.9,191.98,647.39,192.18,647.78,192.28z"/>
	</g>
	<path class="st6" d="M643.64,187.38h-5.62c-0.54,0-0.98-0.44-0.98-0.98l0,0c0-0.54,0.44-0.98,0.98-0.98h5.62
		c0.54,0,0.98,0.44,0.98,0.98l0,0C644.62,186.94,644.18,187.38,643.64,187.38z"/>
</g>
<g>
	<rect y="-173.16" class="st1" width="11.66" height="56.36"/>
	
		<rect x="174.9" y="-219.8" transform="matrix(0.1751 0.9846 -0.9846 0.1751 -39.571 -336.0246)" class="st1" width="11.66" height="56.36"/>
	
		<rect x="84.54" y="-213" transform="matrix(-1.836970e-16 1 -1 -1.836970e-16 -32.2694 -213.0029)" class="st1" width="11.66" height="180.73"/>
	<g>
		<polygon class="st11" points="212.7,-177.03 211.05,-173.73 215.07,-172.09 215.5,-175.89 		"/>
		<path class="st11" d="M215.12-187.79c-9.11,3.97-5.38,13.58,0.17,12.45c2.7-0.55,4.07-9.24,4.07-9.24L215.12-187.79z"/>
		<path class="st4" d="M218.15-189.16c-0.3-0.56-0.58-1.15-1.08-1.55c-0.49-0.4-1.28-0.52-1.74-0.09c-0.61,0.57-0.25,1.64,0.37,2.2
			c-0.53,0.06-1.17-0.3-1.56,0.06c-0.3,0.28-0.19,0.77-0.02,1.14c0.4,0.87,1.06,1.62,1.87,2.14c-0.46,0.26-1,0.77-0.72,1.22
			c0.08,0.13,0.21,0.21,0.28,0.34c0.18,0.29,0.01,0.67-0.17,0.96c-0.29,0.47-0.6,0.93-0.93,1.38c0.31-0.43,1.08-0.25,1.31,0.23
			c0.23,0.48,0.03,1.07-0.32,1.47c-0.2,0.22-0.45,0.4-0.74,0.47c-0.25,0.06-1.35,3.47-0.49,4.14c1.06,0.83,4.68,0.11,5.21-0.82
			c0.52,0.57,1.29,1,2.05,0.85c0.76-0.15,1.34-1.09,0.93-1.74c0.82,0.3,1.82,0.04,2.37-0.63c0.56-0.67,0.64-1.7,0.2-2.45
			c0.45-0.13,0.54-0.74,0.42-1.19c-0.23-0.92-0.98-1.68-1.89-1.94c0.46,0.01,0.83-0.46,0.85-0.92c0.02-0.46-0.22-0.9-0.51-1.25
			c-0.86-1.05-1.87-1.34-3.13-1.5C219.41-186.81,218.71-188.11,218.15-189.16z"/>
		<path class="st7" d="M209.61-91.65c0,0-5.33,2.56-6.04,3.36c0,0,10.49,0.47,11.31-0.02c0.82-0.49-1.68-3.34-1.68-3.34
			L209.61-91.65z"/>
		<path class="st7" d="M229.44-94.54c0,0-4.68,3.61-5.22,4.54c0,0,11.06-1.64,11.06-2.36c0-0.72-2.33-2.92-2.33-2.92L229.44-94.54z"
			/>
		<path class="st13" d="M214.76-141.06c-0.2,1.08-7.49,29.89,13.39,47.16l6.05-1.39c0,0-7.04-6.6-10.36-18.48
			c-3.14-11.23-0.65-12.34,1.24-18.53c2.08-6.85,0.53-11.82,0.53-11.82L214.76-141.06z"/>
		<path class="st1" d="M204.78-141.15c-3.31,7.91-8.99,34.87,3.39,50.05l6.19-0.01c0,0-4.87-5.34-5.42-17.73s2.6-17.83,4.83-21.91
			c2.22-4.09,4.28-11.03,4.28-11.03L204.78-141.15z"/>
		<path class="st14" d="M200.42-190.19c-1.64,5.79-2.18,16.5,6.05,20.81l5.51-1.34c0,0-9.93-5.21-7.8-18.36L200.42-190.19z"/>
		<path class="st3" d="M185.24-193.16l4.28-0.53c0,0-0.51,17.96,20.22,19.47c15.83,1.15,17.07,30.86,17.07,30.86
			c-5.1,3.44-13.67,4.48-24.64,3.69c0,0,0.7-21.19-1.04-26.99C201.13-166.66,183.9-172.08,185.24-193.16z"/>
		<path class="st11" d="M180.02-196.41c-0.72,0.84,2.3,1.9,5.23,3.26l3.75-0.46c0,0,0.04-0.75,0-1.53
			c-0.05-0.78-0.44-1.23-0.88-0.56c-0.45,0.67-2.34,0.9-3.24,0.29C183.98-196.03,180.74-197.25,180.02-196.41z"/>
		<path class="st11" d="M200.42-190.19c-1.37-1.35-1.01-1.27-1.01-1.27l4.19,0.95c0,0,0.92-2.05,1.7-2.1
			c0.78-0.06-0.59,1.41-0.28,1.95c0.31,0.54-0.86,1.57-0.86,1.57L200.42-190.19z"/>
	</g>
</g>
<g>
	<path class="st1" d="M228.26,108.78v58.47c0,5.63-4.56,10.19-10.19,10.19H17.2c-5.63,0-10.19-4.56-10.19-10.19v-58.47l114.45-76.31
		L228.26,108.78z"/>
	<path class="st2" d="M228.26,108.78v58.47c0,5.63-4.56,10.19-10.19,10.19h-76.69c-59.25-21.82-85.17-60.98-99.27-92.07l79.35-52.9
		L228.26,108.78z"/>
	<path class="st1" d="M141.38,177.44H17.2c-5.63,0-10.19-4.56-10.19-10.19v-58.47l35.1-23.41
		C56.2,116.45,82.13,155.62,141.38,177.44z"/>
	<rect x="140.21" y="110.89" class="st3" width="42.78" height="42.78"/>
	<path class="st4" d="M178.24,115.65v33.27h-9.55c-11.53-12-18.73-24.22-23-33.27H178.24z"/>
	<rect x="54.66" y="115.65" class="st5" width="35.65" height="61.79"/>
	<rect x="46.78" y="170.31" class="st3" width="53.03" height="7.13"/>
	<polygon class="st0" points="235.28,104.02 235.28,120.66 121.46,39.6 0,120.66 0,104.02 121.46,22.96 	"/>
	<polygon class="st3" points="235.28,96.89 235.28,113.53 121.46,32.47 0,113.53 0,96.89 121.46,15.83 	"/>
	<path class="st6" d="M168.69,148.92h-23.72v-33.27h0.71C149.96,124.7,157.16,136.92,168.69,148.92z"/>
	<g>
		<g>
			<path class="st4" d="M54.63,144.71c6.78,2.49,12.68,10.28,11.32,15.93c-1.53,6.39-5.94,9.15-5.94,9.15l-1.39-2.57
				c0,0,3.52-5.51,3.22-8.11c-0.49-4.17-5.75-6.95-5.75-6.95L54.63,144.71z"/>
			<path class="st7" d="M37.93,216.81c0,0-4.17,1.68-5.21,2.63l8.25-0.02l-0.01-2.62L37.93,216.81z"/>
			<path class="st7" d="M56.17,216.65c0,0,1.18,1.37,1.4,2.74l-5.63,0.01c0.1-0.95,0.5-1.86,1.05-2.75L56.17,216.65z"/>
			<path class="st5" d="M56.51,216.77l-3.84,0.01c0.08-4.53-0.86-19.96-1.76-31.5c-0.53-6.77-1.06-12.2-1.36-13.3l2.06-0.45
				l7.77-1.73C60.71,175.87,57.63,203.77,56.51,216.77z"/>
			<path class="st8" d="M42.38,171.73c-3,4.72-3.77,38.85-5.03,45.18l3.65,0.21c0,0,4.19-21.52,13.11-45.71L42.38,171.73z"/>
			<path class="st9" d="M55.64,171.4c-1.76,4.78-3.34,9.45-4.73,13.87c-0.53-6.77-1.06-12.2-1.36-13.3l2.06-0.45L55.64,171.4z"/>
			<path class="st10" d="M42.38,171.73c-3,4.72-3.77,38.85-5.03,45.18l3.65,0.21c0,0,4.19-21.52,13.11-45.71L42.38,171.73z"/>
			<path class="st11" d="M44.67,133.63c0,0-2.33,8.89,3.5,8.88l-0.35,2.27l4.43,0.48l-0.96-3.17c0,0,0.88-5.59,0.93-6.6
				C52.34,133.61,47.05,130.29,44.67,133.63z"/>
			<g>
				
					<rect x="28.54" y="123.66" transform="matrix(1 -1.973264e-03 1.973264e-03 1 -0.2511 0.0583)" class="st7" width="1.72" height="7.26"/>
			</g>
			<path class="st11" d="M28.07,132.81c-0.05-1.65-1.4-1.22-0.66-3.9c0.46-1.66,3.89,0.27,3.47,1.42c-0.43,1.15-0.92,2.97-0.92,2.97
				L28.07,132.81z"/>
			<path class="st12" d="M48.21,144.26c-8.72,0.58-9.29,3.52-13.19,3.06c-5.77-0.68-4.76-11.4-4.05-15.25l-3.45,0.01
				c0,0-6.22,24.43,13.42,19.91c-0.75,4.28,4.13,11.27-0.61,19.75c7.45,2.02,14.41,2.52,20.37-0.04c-1.04-1.4,2.14-15.6-4.09-25.82
				C55.39,143.88,48.85,144.22,48.21,144.26z"/>
			<path class="st6" d="M48.21,144.26c-8.72,0.58-9.29,3.52-13.19,3.06c-5.77-0.68-4.76-11.4-4.05-15.25l-3.45,0.01
				c0,0-6.22,24.43,13.42,19.91c-0.75,4.28,4.13,11.27-0.61,19.75c7.45,2.02,14.41,2.52,20.37-0.04c-1.04-1.4,2.14-15.6-4.09-25.82
				C55.39,143.88,48.85,144.22,48.21,144.26z"/>
			<path class="st3" d="M47.01,135.33c0.57,0.15,1.23,0.25,1.53,0.74c0.2,0.31,0.18,0.7,0.16,1.07c0.1-0.38,0.53-0.66,0.94-0.61
				c0.41,0.05,0.75,0.41,0.76,0.81c0,0.19-0.06,0.37-0.13,0.54c-0.17,0.43-0.39,0.85-0.65,1.23c0.71,0.26,1.31,2.35,1.67,2.99
				c1.2-0.3,3.86-1.33,4.09-5.57c0.11-1.98-0.49-4.34-2.64-5.66c-1.51-0.93-4.03-0.94-5.76-0.5c-1.41,0.36-3.65,1.76-2.6,3.4
				C44.92,134.6,46.07,135.09,47.01,135.33z"/>
		</g>
		<path class="st6" d="M38.52,123.67H22.48c-0.54,0-0.98-0.44-0.98-0.98v-2.69c0-0.54,0.44-0.98,0.98-0.98h16.04
			c0.54,0,0.98,0.44,0.98,0.98v2.69C39.5,123.24,39.06,123.67,38.52,123.67z"/>
	</g>
</g>
</svg>
