<?xml version="1.0" encoding="utf-8"?>
<!-- Generator: Adobe Illustrator 23.0.6, SVG Export Plug-In . SVG Version: 6.00 Build 0)  -->
<svg version="1.1" id="Layer_1" xmlns="http://www.w3.org/2000/svg" xmlns:xlink="http://www.w3.org/1999/xlink" x="0px" y="0px"
	 viewBox="0 0 235.28 235.28" style="enable-background:new 0 0 235.28 235.28;" xml:space="preserve">
<style type="text/css">
	.st0{fill:#7F9CA3;}
	.st1{fill:#2DCDAE;}
	.st2{fill:#4AD8BD;}
	.st3{fill:#FFCE41;}
	.st4{fill:#827EF7;}
	.st5{fill:#26B7D2;}
	.st6{fill:#9C9CEF;}
	.st7{fill:#0B0B0B;}
	.st8{fill:#009790;}
	.st9{opacity:0.2;fill:#5275A0;}
	.st10{fill:#3ECADD;}
	.st11{fill:#FFB9A3;}
	.st12{fill:#0056EC;}
	.st13{fill:#21BFA0;}
	.st14{fill:#EDB732;}
	.st15{fill:#023849;}
	.st16{fill:#024A67;}
</style>
<path class="st0" d="M1035.64,151l-33.39,22.26l-14.77,9.85v24.58c0,2.38,1.93,4.31,4.31,4.31h52.23h32.25
	c2.38,0,4.31-1.93,4.31-4.31v-24.58L1035.64,151z"/>
<path class="st1" d="M1078.57,181.11v24.58c0,2.38-1.93,4.31-4.31,4.31h-84.48c-2.38,0-4.31-1.93-4.31-4.31v-24.58l48.16-32.11
	L1078.57,181.11z"/>
<path class="st2" d="M1078.57,181.11v24.58c0,2.38-1.93,4.31-4.31,4.31h-32.25c-24.93-9.18-35.84-25.66-41.77-38.74l33.39-22.26
	L1078.57,181.11z"/>
<path class="st1" d="M1042.02,210h-52.23c-2.38,0-4.31-1.93-4.31-4.31v-24.58l14.77-9.85C1006.18,184.34,1017.08,200.82,1042.02,210
	z"/>
<path class="st0" d="M793.11,151l-33.39,22.26l-14.77,9.85v24.58c0,2.38,1.93,4.31,4.31,4.31h52.23h32.25
	c2.38,0,4.31-1.93,4.31-4.31v-24.58L793.11,151z"/>
<path class="st1" d="M724.05,181.11v24.6c0,2.37-1.92,4.29-4.29,4.29h-84.52c-2.37,0-4.29-1.92-4.29-4.29v-24.6L679.11,149
	L724.05,181.11z"/>
<path class="st2" d="M724.05,181.11v24.6c0,2.37-1.92,4.29-4.29,4.29h-32.27c-24.93-9.18-35.84-25.66-41.77-38.74L679.11,149
	L724.05,181.11z"/>
<path class="st1" d="M687.49,210h-52.25c-2.37,0-4.29-1.92-4.29-4.29v-24.6l14.77-9.85C651.65,184.34,662.56,200.82,687.49,210z"/>
<rect x="687" y="182" class="st3" width="18" height="18"/>
<path class="st4" d="M703,184v14h-4.02c-4.85-5.05-7.88-10.19-9.68-14H703z"/>
<rect x="651" y="184" class="st5" width="15" height="26"/>
<rect x="647.68" y="207" class="st3" width="22.32" height="3"/>
<polygon class="st0" points="727,179.11 727,186.11 679.11,152 628,186.11 628,179.11 679.11,145 "/>
<polygon class="st3" points="727,176.11 727,183.11 679.11,149 628,183.11 628,176.11 679.11,142 "/>
<path class="st6" d="M698.98,198H689v-14h0.3C691.1,187.81,694.13,192.95,698.98,198z"/>
<path class="st1" d="M836.05,181.11v24.58c0,2.38-1.93,4.31-4.31,4.31h-84.48c-2.38,0-4.31-1.93-4.31-4.31v-24.58L791.11,149
	L836.05,181.11z"/>
<path class="st2" d="M836.05,181.11v24.58c0,2.38-1.93,4.31-4.31,4.31h-32.25c-24.93-9.18-35.84-25.66-41.77-38.74L791.11,149
	L836.05,181.11z"/>
<path class="st1" d="M799.49,210h-52.23c-2.38,0-4.31-1.93-4.31-4.31v-24.58l14.77-9.85C763.65,184.34,774.56,200.82,799.49,210z"/>
<rect x="799" y="182" class="st3" width="18" height="18"/>
<path class="st4" d="M815,184v14h-4.02c-4.85-5.05-7.88-10.19-9.68-14H815z"/>
<rect x="763" y="184" class="st5" width="15" height="26"/>
<rect x="759.68" y="207" class="st3" width="22.32" height="3"/>
<path class="st6" d="M810.98,198H801v-14h0.3C803.1,187.81,806.13,192.95,810.98,198z"/>
<path class="st0" d="M909.11,151l-33.39,22.26l-14.77,9.85v24.58c0,2.38,1.93,4.31,4.31,4.31h52.23h32.25
	c2.38,0,4.31-1.93,4.31-4.31v-24.58L909.11,151z"/>
<path class="st1" d="M952.05,181.11v24.58c0,2.38-1.93,4.31-4.31,4.31h-84.48c-2.38,0-4.31-1.93-4.31-4.31v-24.58L907.11,149
	L952.05,181.11z"/>
<path class="st2" d="M952.05,181.11v24.58c0,2.38-1.93,4.31-4.31,4.31h-32.25c-24.93-9.18-35.84-25.66-41.77-38.74L907.11,149
	L952.05,181.11z"/>
<path class="st1" d="M915.49,210h-52.23c-2.38,0-4.31-1.93-4.31-4.31v-24.58l14.77-9.85C879.65,184.34,890.56,200.82,915.49,210z"/>
<rect x="879.07" y="184.01" transform="matrix(0.9889 0.1488 -0.1488 0.9889 39.1049 -129.7029)" class="st5" width="15" height="25.09"/>
<rect x="875.68" y="207" class="st3" width="22.32" height="3"/>
<rect x="1112" y="180" class="st1" width="6" height="29"/>
<rect x="1202" y="156" transform="matrix(0.1751 0.9846 -0.9846 0.1751 1161.9318 -1045.7402)" class="st1" width="6" height="29"/>
<rect x="1155.5" y="159.5" transform="matrix(-1.836970e-16 1 -1 -1.836970e-16 1364.5 -952.5)" class="st1" width="6" height="93"/>
<g>
	<path class="st4" d="M1081.32,191.63c2.76,1.01,5.16,4.18,4.61,6.49c-0.62,2.6-2.42,3.72-2.42,3.72l-0.57-1.04
		c0,0,1.43-2.24,1.31-3.3c-0.2-1.7-2.34-2.83-2.34-2.83L1081.32,191.63z"/>
	<path class="st7" d="M1074.52,220.98c0,0-1.7,0.68-2.12,1.07l3.36-0.01l0-1.07L1074.52,220.98z"/>
	<path class="st7" d="M1081.94,220.92c0,0,0.48,0.56,0.57,1.12l-2.29,0c0.04-0.39,0.2-0.76,0.43-1.12L1081.94,220.92z"/>
	<path class="st5" d="M1082.08,220.97l-1.56,0c0.03-1.84-0.35-8.13-0.72-12.82c-0.22-2.75-0.43-4.97-0.55-5.42l0.84-0.18l3.16-0.7
		C1083.79,204.31,1082.54,215.67,1082.08,220.97z"/>
	<path class="st8" d="M1076.33,202.63c-1.22,1.92-1.54,15.82-2.05,18.39l1.48,0.08c0,0,1.7-8.76,5.34-18.61L1076.33,202.63z"/>
	<path class="st9" d="M1081.73,202.5c-0.72,1.95-1.36,3.85-1.93,5.65c-0.22-2.75-0.43-4.97-0.55-5.42l0.84-0.18L1081.73,202.5z"/>
	<path class="st10" d="M1076.33,202.63c-1.22,1.92-1.54,15.82-2.05,18.39l1.48,0.08c0,0,1.7-8.76,5.34-18.61L1076.33,202.63z"/>
	<path class="st11" d="M1077.27,187.12c0,0-0.95,3.62,1.42,3.62l-0.14,0.93l1.8,0.2l-0.39-1.29c0,0,0.36-2.28,0.38-2.69
		C1080.39,187.11,1078.23,185.76,1077.27,187.12z"/>
	<path d="M1071.4,183.06l-0.01,2.96l-0.7,0c0,0,0.01-2.74,0.01-2.96c0-0.22-0.11-0.35-0.11-0.35c-0.12-0.13-0.27-0.15-0.43-0.07
		c-0.07,0.04-0.12,0.08-0.19,0.12c-0.07,0.05-0.13,0.11-0.22,0.12c-0.16,0.02-0.31,0-0.46-0.05c-0.07-0.03-0.11-0.07-0.15-0.13
		c-0.05-0.09-0.08-0.2-0.09-0.3c-0.03-0.25-0.01-0.5,0.12-0.73c0.02-0.02,0.05-0.05,0.07-0.07c0.08-0.02,0.16-0.05,0.24-0.07
		c0.21-0.04,0.4,0.01,0.58,0.12c0.07,0.05,0.15,0.08,0.22,0.13c0.02,0.01,0.04,0.01,0.05-0.01c0,0,0,0,0,0
		c0.07-0.09,0.16-0.13,0.27-0.14c0.29-0.05,0.58-0.09,0.88-0.09c0.28,0.01,0.53,0.09,0.77,0.24c0.02,0.01,0.04,0.03,0.06,0.04
		c0.05,0.04,0.09,0.09,0.14,0.13c0.03,0.04,0.06,0.08,0.09,0.12c0.21,0.28,0.37,0.59,0.5,0.92c0,0.01,0.01,0.02,0.01,0.03
		c-0.09,0.02-0.17,0.04-0.26,0.05c-0.01,0-0.03-0.01-0.04-0.02c-0.04-0.05-0.08-0.1-0.12-0.15c-0.15-0.18-0.3-0.34-0.49-0.47
		c-0.09-0.06-0.19-0.11-0.3-0.12c-0.21-0.03-0.41,0.12-0.44,0.34L1071.4,183.06z"/>
	<path class="st11" d="M1070.51,186.79c-0.02-0.67-0.57-0.49-0.27-1.59c0.19-0.68,1.58,0.11,1.41,0.58
		c-0.17,0.47-0.37,1.21-0.37,1.21L1070.51,186.79z"/>
	<path class="st12" d="M1078.71,191.45c-3.55,0.24-3.78,1.43-5.37,1.24c-2.35-0.28-1.94-4.64-1.65-6.21l-1.4,0
		c0,0-2.53,9.94,5.46,8.11c-0.31,1.74,1.68,4.59-0.25,8.04c3.03,0.82,5.87,1.03,8.29-0.02c-0.42-0.57,0.87-6.35-1.66-10.51
		C1081.63,191.29,1078.97,191.43,1078.71,191.45z"/>
	<path class="st6" d="M1078.71,191.45c-3.55,0.24-3.78,1.43-5.37,1.24c-2.35-0.28-1.94-4.64-1.65-6.21l-1.4,0
		c0,0-2.53,9.94,5.46,8.11c-0.31,1.74,1.68,4.59-0.25,8.04c3.03,0.82,5.87,1.03,8.29-0.02c-0.42-0.57,0.87-6.35-1.66-10.51
		C1081.63,191.29,1078.97,191.43,1078.71,191.45z"/>
	<path class="st3" d="M1078.22,187.81c0.23,0.06,0.5,0.1,0.62,0.3c0.08,0.13,0.07,0.29,0.07,0.43c0.04-0.16,0.21-0.27,0.38-0.25
		c0.17,0.02,0.31,0.17,0.31,0.33c0,0.08-0.02,0.15-0.05,0.22c-0.07,0.18-0.16,0.34-0.26,0.5c0.29,0.11,0.53,0.95,0.68,1.22
		c0.49-0.12,1.57-0.54,1.67-2.27c0.04-0.8-0.2-1.77-1.07-2.3c-0.62-0.38-1.64-0.38-2.34-0.2c-0.57,0.15-1.48,0.72-1.06,1.39
		C1077.37,187.52,1077.83,187.72,1078.22,187.81z"/>
</g>
<g>
	<path class="st4" d="M691.16,202.97c3.98,1.46,7.44,6.03,6.64,9.35c-0.9,3.75-3.48,5.37-3.48,5.37l-0.81-1.51
		c0,0,2.07-3.23,1.89-4.76c-0.29-2.44-3.37-4.08-3.37-4.08L691.16,202.97z"/>
	<path class="st7" d="M681.36,245.27c0,0-2.44,0.99-3.06,1.54l4.84-0.01l0-1.54L681.36,245.27z"/>
	<path class="st7" d="M692.06,245.18c0,0,0.69,0.8,0.82,1.61l-3.3,0.01c0.06-0.56,0.29-1.09,0.62-1.61L692.06,245.18z"/>
	<path class="st5" d="M692.26,245.25l-2.26,0c0.05-2.66-0.5-11.71-1.03-18.48c-0.31-3.97-0.62-7.16-0.8-7.8l1.21-0.27l4.56-1.01
		C694.72,221.25,692.92,237.62,692.26,245.25z"/>
	<path class="st8" d="M683.97,218.82c-1.76,2.77-2.21,22.79-2.95,26.5l2.14,0.12c0,0,2.46-12.62,7.69-26.81L683.97,218.82z"/>
	<path class="st9" d="M691.75,218.63c-1.03,2.8-1.96,5.55-2.78,8.14c-0.31-3.97-0.62-7.16-0.8-7.8l1.21-0.27L691.75,218.63z"/>
	<path class="st10" d="M683.97,218.82c-1.76,2.77-2.21,22.79-2.95,26.5l2.14,0.12c0,0,2.46-12.62,7.69-26.81L683.97,218.82z"/>
	<path class="st11" d="M685.31,196.47c0,0-1.37,5.22,2.05,5.21l-0.2,1.33l2.6,0.28l-0.56-1.86c0,0,0.51-3.28,0.55-3.87
		C689.81,196.46,686.71,194.51,685.31,196.47z"/>
	<g>
		
			<rect x="675.85" y="190.62" transform="matrix(1 -1.973264e-03 1.973264e-03 1 -0.379 1.335)" class="st7" width="1.01" height="4.26"/>
	</g>
	<path class="st11" d="M675.58,195.99c-0.03-0.97-0.82-0.71-0.39-2.29c0.27-0.97,2.28,0.16,2.03,0.83
		c-0.25,0.68-0.54,1.74-0.54,1.74L675.58,195.99z"/>
	<path class="st12" d="M687.39,202.71c-5.11,0.34-5.45,2.06-7.74,1.79c-3.39-0.4-2.79-6.69-2.38-8.95l-2.02,0
		c0,0-3.65,14.33,7.87,11.68c-0.44,2.51,2.42,6.61-0.36,11.59c4.37,1.19,8.45,1.48,11.95-0.02c-0.61-0.82,1.25-9.15-2.4-15.15
		C691.6,202.49,687.76,202.68,687.39,202.71z"/>
	<path class="st6" d="M687.39,202.71c-5.11,0.34-5.45,2.06-7.74,1.79c-3.39-0.4-2.79-6.69-2.38-8.95l-2.02,0
		c0,0-3.65,14.33,7.87,11.68c-0.44,2.51,2.42,6.61-0.36,11.59c4.37,1.19,8.45,1.48,11.95-0.02c-0.61-0.82,1.25-9.15-2.4-15.15
		C691.6,202.49,687.76,202.68,687.39,202.71z"/>
	<path class="st3" d="M686.68,197.47c0.33,0.09,0.72,0.15,0.9,0.43c0.12,0.18,0.11,0.41,0.1,0.63c0.06-0.22,0.31-0.39,0.55-0.36
		c0.24,0.03,0.44,0.24,0.45,0.47c0,0.11-0.03,0.21-0.07,0.32c-0.1,0.25-0.23,0.5-0.38,0.72c0.42,0.15,0.77,1.38,0.98,1.76
		c0.7-0.18,2.27-0.78,2.4-3.27c0.06-1.16-0.29-2.55-1.55-3.32c-0.89-0.55-2.36-0.55-3.38-0.29c-0.82,0.21-2.14,1.03-1.53,2
		C685.46,197.04,686.13,197.33,686.68,197.47z"/>
</g>
<g>
	<polygon class="st11" points="1221.45,178.01 1220.6,179.71 1222.67,180.55 1222.89,178.6 	"/>
	<path class="st11" d="M1222.69,172.47c-4.69,2.04-2.77,6.99,0.09,6.4c1.39-0.28,2.09-4.75,2.09-4.75L1222.69,172.47z"/>
	<path class="st4" d="M1224.25,171.77c-0.15-0.29-0.3-0.59-0.55-0.8c-0.25-0.2-0.66-0.27-0.89-0.05c-0.32,0.29-0.13,0.84,0.19,1.13
		c-0.27,0.03-0.6-0.16-0.8,0.03c-0.15,0.14-0.1,0.4-0.01,0.59c0.21,0.45,0.54,0.84,0.96,1.1c-0.24,0.14-0.51,0.4-0.37,0.63
		c0.04,0.06,0.11,0.11,0.14,0.17c0.09,0.15,0,0.34-0.09,0.5c-0.15,0.24-0.31,0.48-0.48,0.71c0.16-0.22,0.55-0.13,0.67,0.12
		s0.02,0.55-0.17,0.76c-0.1,0.11-0.23,0.21-0.38,0.24c-0.13,0.03-0.7,1.79-0.25,2.13c0.55,0.43,2.41,0.06,2.68-0.42
		c0.27,0.29,0.66,0.51,1.05,0.44c0.39-0.08,0.69-0.56,0.48-0.9c0.42,0.16,0.93,0.02,1.22-0.33s0.33-0.87,0.1-1.26
		c0.23-0.07,0.28-0.38,0.22-0.61c-0.12-0.47-0.5-0.87-0.97-1c0.24,0,0.43-0.23,0.44-0.47c0.01-0.24-0.11-0.46-0.26-0.64
		c-0.44-0.54-0.96-0.69-1.61-0.77C1224.9,172.98,1224.54,172.31,1224.25,171.77z"/>
	<path class="st7" d="M1219.86,221.95c0,0-2.74,1.32-3.11,1.73c0,0,5.4,0.24,5.82-0.01c0.42-0.25-0.86-1.72-0.86-1.72
		L1219.86,221.95z"/>
	<path class="st7" d="M1230.06,220.46c0,0-2.41,1.86-2.69,2.33c0,0,5.69-0.84,5.69-1.22c0-0.37-1.2-1.5-1.2-1.5L1230.06,220.46z"/>
	<path class="st13" d="M1222.51,196.52c-0.1,0.56-3.86,15.38,6.89,24.27l3.11-0.71c0,0-3.62-3.4-5.33-9.51
		c-1.61-5.78-0.33-6.35,0.64-9.53c1.07-3.52,0.27-6.08,0.27-6.08L1222.51,196.52z"/>
	<path class="st1" d="M1217.38,196.47c-1.7,4.07-4.63,17.94,1.75,25.75l3.18-0.01c0,0-2.51-2.75-2.79-9.12
		c-0.28-6.37,1.34-9.17,2.48-11.28c1.14-2.1,2.2-5.68,2.2-5.68L1217.38,196.47z"/>
	<path class="st14" d="M1215.13,171.24c-0.85,2.98-1.12,8.49,3.11,10.71l2.83-0.69c0,0-5.11-2.68-4.02-9.45L1215.13,171.24z"/>
	<path class="st3" d="M1207.32,169.71l2.2-0.27c0,0-0.26,9.24,10.41,10.02c8.15,0.59,8.79,15.88,8.79,15.88
		c-2.63,1.77-7.03,2.3-12.68,1.9c0,0,0.36-10.9-0.54-13.89C1215.5,183.35,1206.63,180.56,1207.32,169.71z"/>
	<path class="st11" d="M1204.63,168.04c-0.37,0.43,1.18,0.98,2.69,1.68l1.93-0.24c0,0,0.02-0.39,0-0.79
		c-0.02-0.4-0.23-0.63-0.45-0.29c-0.23,0.35-1.21,0.46-1.67,0.15C1206.67,168.23,1205,167.6,1204.63,168.04z"/>
	<path class="st11" d="M1215.13,171.24c-0.71-0.7-0.52-0.65-0.52-0.65l2.16,0.49c0,0,0.47-1.05,0.88-1.08
		c0.4-0.03-0.3,0.73-0.14,1.01c0.16,0.28-0.44,0.81-0.44,0.81L1215.13,171.24z"/>
</g>
<g>
	<polygon class="st11" points="876.43,193.37 876.88,194.27 875.78,194.72 875.66,193.68 	"/>
	<path class="st11" d="M875.76,190.43c2.49,1.08,1.47,3.71-0.05,3.4c-0.74-0.15-1.11-2.52-1.11-2.52L875.76,190.43z"/>
	<path class="st3" d="M874.94,190.06c0.08-0.15,0.16-0.31,0.29-0.42s0.35-0.14,0.48-0.02c0.17,0.16,0.07,0.45-0.1,0.6
		c0.15,0.02,0.32-0.08,0.43,0.02c0.08,0.08,0.05,0.21,0.01,0.31c-0.11,0.24-0.29,0.44-0.51,0.58c0.13,0.07,0.27,0.21,0.2,0.33
		c-0.02,0.03-0.06,0.06-0.08,0.09c-0.05,0.08,0,0.18,0.05,0.26c0.08,0.13,0.16,0.26,0.25,0.38c-0.09-0.12-0.29-0.07-0.36,0.06
		c-0.06,0.13-0.01,0.29,0.09,0.4c0.05,0.06,0.12,0.11,0.2,0.13c0.07,0.02,0.37,0.95,0.13,1.13c-0.29,0.23-1.28,0.03-1.42-0.23
		c-0.14,0.16-0.35,0.27-0.56,0.23c-0.21-0.04-0.37-0.3-0.25-0.48c-0.22,0.08-0.5,0.01-0.65-0.17c-0.15-0.18-0.18-0.46-0.05-0.67
		c-0.12-0.04-0.15-0.2-0.12-0.33c0.06-0.25,0.27-0.46,0.51-0.53c-0.13,0-0.23-0.12-0.23-0.25c-0.01-0.13,0.06-0.24,0.14-0.34
		c0.23-0.29,0.51-0.37,0.86-0.41C874.59,190.7,874.78,190.35,874.94,190.06z"/>
	<path class="st7" d="M877.27,216.69c0,0,1.46,0.7,1.65,0.92c0,0-2.86,0.13-3.09-0.01c-0.22-0.14,0.46-0.91,0.46-0.91L877.27,216.69
		z"/>
	<path class="st7" d="M871.85,215.9c0,0,1.28,0.99,1.43,1.24c0,0-3.02-0.45-3.02-0.65s0.64-0.8,0.64-0.8L871.85,215.9z"/>
	<path class="st15" d="M875.86,203.2c0.05,0.3,2.05,8.16-3.66,12.88l-1.65-0.38c0,0,1.92-1.8,2.83-5.05
		c0.86-3.07,0.18-3.37-0.34-5.06c-0.57-1.87-0.15-3.23-0.15-3.23L875.86,203.2z"/>
	<path class="st16" d="M878.59,203.17c0.9,2.16,2.46,9.52-0.93,13.67l-1.69,0c0,0,1.33-1.46,1.48-4.84s-0.71-4.87-1.32-5.99
		c-0.61-1.12-1.17-3.01-1.17-3.01L878.59,203.17z"/>
	<path class="st4" d="M879.78,189.78c0.45,1.58,0.6,4.51-1.65,5.68l-1.5-0.37c0,0,2.71-1.42,2.13-5.02L879.78,189.78z"/>
	<path class="st6" d="M883.92,188.97l-1.17-0.14c0,0,0.14,4.9-5.52,5.32c-4.32,0.32-4.66,8.43-4.66,8.43
		c1.39,0.94,3.73,1.22,6.73,1.01c0,0-0.19-5.79,0.28-7.37C879.58,196.21,884.29,194.72,883.92,188.97z"/>
	<path class="st11" d="M885.35,188.08c0.2,0.23-0.63,0.52-1.43,0.89l-1.03-0.13c0,0-0.01-0.2,0-0.42c0.01-0.21,0.12-0.34,0.24-0.15
		c0.12,0.18,0.64,0.25,0.88,0.08C884.27,188.18,885.15,187.85,885.35,188.08z"/>
	<path class="st11" d="M879.78,189.78c0.38-0.37,0.28-0.35,0.28-0.35l-1.15,0.26c0,0-0.25-0.56-0.47-0.57
		c-0.21-0.02,0.16,0.39,0.08,0.53s0.23,0.43,0.23,0.43L879.78,189.78z"/>
</g>
<g>
	<path class="st9" d="M808.19,177.93c-4.36-0.17-10.36,3.06-8.23,10.94c-0.05,0.67,0.35,1.14,0.78,1.01
		c0.42-0.13,0.05-1.39,0.05-1.39c0.73-5.86,2.08-6.87,4.39-6.85l5.41-0.01c1.34,0.2,3.76,1.13,4.13,5.82l1.35,0.25
		C816.16,184.31,815.34,178.21,808.19,177.93z"/>
	<path class="st5" d="M808.19,177.25c-4.36-0.17-10.36,3.06-8.23,10.94l0.83-0.38c0.73-5.86,2.08-6.87,4.39-6.85l5.41-0.01
		c1.34,0.2,3.83,1.38,4.19,6.07l1.28,0C816.16,183.62,815.34,177.52,808.19,177.25z"/>
	<path class="st11" d="M807.3,177.37l-0.65,1.42c0,0,0.08,0.8,0.86,0.78s0.89-0.38,0.89-0.38l0.1-1.63L807.3,177.37z"/>
	<path class="st11" d="M810.63,176.19c-0.74,1.3-1.06,1.71-2.03,1.91c-1.25,0.25-2.65-0.59-2-2.67c0.53-1.69,1.34-1.43,2.12-1.37
		C809.51,174.12,811.42,174.78,810.63,176.19z"/>
	<path class="st3" d="M807.69,175.16c-0.2-0.1-0.45-0.02-0.6,0.15c-0.16,0.16-0.23,0.41-0.17,0.63c-0.3,0-0.57,0.3-0.54,0.6
		c-0.21-0.48-0.09-0.98-0.14-1.47c-0.04-0.49,0.01-1.03,0.33-1.41c0.13-0.15,0.3-0.27,0.48-0.37c0.68-0.36,1.53-0.37,2.22-0.03
		c0.14,0.07,0.5,0.3,1,0.18c0.95-0.23,1.51,0.41,0.94,1.02c0.18,0.07,0.39,0.15,0.47,0.32c0.02,0.05,0.03,0.1,0,0.14
		c-0.02,0.03-0.05,0.04-0.09,0.05c-0.16,0.05-0.33,0.07-0.5,0.04c0.06,0.05,0.42,0.08,0.52,0.28c0.28,0.55-0.84,0.27-1.01,0.22
		c0.2,0.04,0.71,0.45,0.54,0.73c-0.03,0.06-0.73,0.46-1.45-0.39c-0.17-0.2-0.38-0.38-0.63-0.45c-0.2-0.05-0.4,0.02-0.59,0.09
		c-0.14,0.05-0.49,0.27-0.6,0.14C807.78,175.49,807.92,175.27,807.69,175.16z"/>
	<path class="st11" d="M814.91,187.01c-0.19,0.66-0.37,0.7-0.15,0.84C815,188,815,188,815,188c0.29,0.35,0.76,1.02,1,1
		c0.32-0.03,0.26-1.2,0.26-1.2s-0.24-0.7-0.41-0.79S814.91,187.01,814.91,187.01z"/>
	<path class="st11" d="M800.79,187.8c0.14,0.35,0.18,0.35,0.38,0.77c0.38,0.81-0.5,2.08-1.05,0.69c-0.15-0.38-0.15-1.08-0.15-1.08
		L800.79,187.8z"/>
</g>
<path class="st6" d="M679.16,190.63h-5.62c-0.54,0-0.98-0.44-0.98-0.98l0,0c0-0.54,0.44-0.98,0.98-0.98h5.62
	c0.54,0,0.98,0.44,0.98,0.98l0,0C680.14,190.19,679.7,190.63,679.16,190.63z"/>
<g>
	<rect y="89.67" class="st1" width="11.66" height="56.36"/>
	
		<rect x="174.9" y="43.03" transform="matrix(0.1751 0.9846 -0.9846 0.1751 219.2015 -119.2025)" class="st1" width="11.66" height="56.36"/>
	
		<rect x="84.54" y="49.83" transform="matrix(-1.836970e-16 1 -1 -1.836970e-16 230.5613 49.8278)" class="st1" width="11.66" height="180.73"/>
	<g>
		<polygon class="st11" points="212.7,85.8 211.05,89.1 215.07,90.74 215.5,86.94 		"/>
		<path class="st11" d="M215.12,75.04c-9.11,3.97-5.38,13.58,0.17,12.45c2.7-0.55,4.07-9.24,4.07-9.24L215.12,75.04z"/>
		<path class="st4" d="M218.15,73.67c-0.3-0.56-0.58-1.15-1.08-1.55c-0.49-0.4-1.28-0.52-1.74-0.09c-0.61,0.57-0.25,1.64,0.37,2.2
			c-0.53,0.06-1.17-0.3-1.56,0.06c-0.3,0.28-0.19,0.77-0.02,1.14c0.4,0.87,1.06,1.62,1.87,2.14c-0.46,0.26-1,0.77-0.72,1.22
			c0.08,0.13,0.21,0.21,0.28,0.34c0.18,0.29,0.01,0.67-0.17,0.96c-0.29,0.47-0.6,0.93-0.93,1.38c0.31-0.43,1.08-0.25,1.31,0.23
			c0.23,0.48,0.03,1.07-0.32,1.47c-0.2,0.22-0.45,0.4-0.74,0.47c-0.25,0.06-1.35,3.47-0.49,4.14c1.06,0.83,4.68,0.11,5.21-0.82
			c0.52,0.57,1.29,1,2.05,0.85c0.76-0.15,1.34-1.09,0.93-1.74c0.82,0.3,1.82,0.04,2.37-0.63c0.56-0.67,0.64-1.7,0.2-2.45
			c0.45-0.13,0.54-0.74,0.42-1.19c-0.23-0.92-0.98-1.68-1.89-1.94c0.46,0.01,0.83-0.46,0.85-0.92c0.02-0.46-0.22-0.9-0.51-1.25
			c-0.86-1.05-1.87-1.34-3.13-1.5C219.41,76.02,218.71,74.72,218.15,73.67z"/>
		<path class="st7" d="M209.61,171.18c0,0-5.33,2.56-6.04,3.36c0,0,10.49,0.47,11.31-0.02c0.82-0.49-1.68-3.34-1.68-3.34
			L209.61,171.18z"/>
		<path class="st7" d="M229.44,168.29c0,0-4.68,3.61-5.22,4.54c0,0,11.06-1.64,11.06-2.36c0-0.72-2.33-2.92-2.33-2.92L229.44,168.29
			z"/>
		<path class="st13" d="M214.76,121.77c-0.2,1.08-7.49,29.89,13.39,47.16l6.05-1.39c0,0-7.04-6.6-10.36-18.48
			c-3.14-11.23-0.65-12.34,1.24-18.53c2.08-6.85,0.53-11.82,0.53-11.82L214.76,121.77z"/>
		<path class="st1" d="M204.78,121.68c-3.31,7.91-8.99,34.87,3.39,50.05l6.19-0.01c0,0-4.87-5.34-5.42-17.73s2.6-17.83,4.83-21.91
			c2.22-4.09,4.28-11.03,4.28-11.03L204.78,121.68z"/>
		<path class="st14" d="M200.42,72.64c-1.64,5.79-2.18,16.5,6.05,20.81l5.51-1.34c0,0-9.93-5.21-7.8-18.36L200.42,72.64z"/>
		<path class="st3" d="M185.24,69.67l4.28-0.53c0,0-0.51,17.96,20.22,19.47c15.83,1.15,17.07,30.86,17.07,30.86
			c-5.1,3.44-13.67,4.48-24.64,3.69c0,0,0.7-21.19-1.04-26.99C201.13,96.17,183.9,90.75,185.24,69.67z"/>
		<path class="st11" d="M180.02,66.42c-0.72,0.84,2.3,1.9,5.23,3.26l3.75-0.46c0,0,0.04-0.75,0-1.53s-0.44-1.23-0.88-0.56
			c-0.45,0.67-2.34,0.9-3.24,0.29C183.98,66.8,180.74,65.58,180.02,66.42z"/>
		<path class="st11" d="M200.42,72.64c-1.37-1.35-1.01-1.27-1.01-1.27l4.19,0.95c0,0,0.92-2.05,1.7-2.1
			c0.78-0.06-0.59,1.41-0.28,1.95c0.31,0.54-0.86,1.57-0.86,1.57L200.42,72.64z"/>
	</g>
</g>
</svg>
