<?xml version="1.0" encoding="utf-8"?>
<!-- Generator: Adobe Illustrator 23.1.0, SVG Export Plug-In . SVG Version: 6.00 Build 0)  -->
<svg version="1.1" id="Layer_1" xmlns="http://www.w3.org/2000/svg" xmlns:xlink="http://www.w3.org/1999/xlink" x="0px" y="0px"
	 viewBox="0 0 226 157" style="enable-background:new 0 0 226 157;" xml:space="preserve">
<style type="text/css">
	.st0{fill:#2DCDAE;}
	.st1{opacity:0.55;fill:url(#SVGID_1_);}
	.st2{opacity:0.55;fill:url(#SVGID_2_);}
	.st3{opacity:0.55;fill:url(#SVGID_3_);}
	.st4{fill:#827EF7;}
	.st5{fill:#7F9CA3;}
	.st6{fill:#FFCE41;}
	.st7{fill:#FFD773;}
</style>
<g>
	<path d="M89.2,67.1v-4.3h0.5v4.3H89.2z"/>
	<path d="M93,67.1V65c0-0.3-0.1-0.5-0.2-0.6s-0.3-0.2-0.6-0.2c-0.3,0-0.6,0.1-0.7,0.3s-0.2,0.5-0.2,0.9v1.7h-0.5v-3.2h0.4l0.1,0.4h0
		c0.1-0.2,0.2-0.3,0.4-0.4s0.4-0.1,0.6-0.1c0.4,0,0.7,0.1,0.9,0.3s0.3,0.5,0.3,0.9v2.1H93z"/>
	<path d="M96.6,66.2c0,0.3-0.1,0.5-0.3,0.7s-0.5,0.2-0.9,0.2c-0.4,0-0.8-0.1-1-0.2v-0.5c0.2,0.1,0.3,0.1,0.5,0.2s0.3,0.1,0.5,0.1
		c0.3,0,0.4,0,0.6-0.1s0.2-0.2,0.2-0.4c0-0.1-0.1-0.2-0.2-0.3s-0.3-0.2-0.6-0.3c-0.3-0.1-0.5-0.2-0.6-0.3s-0.2-0.2-0.3-0.3
		s-0.1-0.2-0.1-0.4c0-0.3,0.1-0.5,0.3-0.6s0.5-0.2,0.9-0.2c0.3,0,0.7,0.1,1,0.2l-0.2,0.4c-0.3-0.1-0.6-0.2-0.9-0.2
		c-0.2,0-0.4,0-0.5,0.1s-0.2,0.2-0.2,0.3c0,0.1,0,0.2,0.1,0.2S94.9,65,95,65s0.3,0.1,0.6,0.2c0.4,0.1,0.6,0.3,0.8,0.4
		S96.6,66,96.6,66.2z"/>
	<path d="M97.8,63.9V66c0,0.3,0.1,0.5,0.2,0.6s0.3,0.2,0.6,0.2c0.3,0,0.6-0.1,0.7-0.3s0.2-0.5,0.2-0.9v-1.7h0.5v3.2h-0.4l-0.1-0.4h0
		c-0.1,0.2-0.2,0.3-0.4,0.4s-0.4,0.1-0.6,0.1c-0.4,0-0.7-0.1-0.9-0.3s-0.3-0.5-0.3-0.9v-2.1H97.8z"/>
	<path d="M102.5,64.2h-0.8v2.8h-0.5v-2.8h-0.6V64l0.6-0.2v-0.2c0-0.8,0.3-1.2,1-1.2c0.2,0,0.4,0,0.6,0.1l-0.1,0.4
		c-0.2-0.1-0.3-0.1-0.5-0.1c-0.2,0-0.3,0.1-0.4,0.2s-0.1,0.3-0.1,0.6v0.2h0.8V64.2z M104.5,64.2h-0.8v2.8h-0.5v-2.8h-0.6V64l0.6-0.2
		v-0.2c0-0.8,0.3-1.2,1-1.2c0.2,0,0.4,0,0.6,0.1l-0.1,0.4c-0.2-0.1-0.3-0.1-0.5-0.1c-0.2,0-0.3,0.1-0.4,0.2s-0.1,0.3-0.1,0.6v0.2
		h0.8V64.2z M105.1,63c0-0.1,0-0.2,0.1-0.2s0.1-0.1,0.2-0.1c0.1,0,0.1,0,0.2,0.1s0.1,0.1,0.1,0.2s0,0.2-0.1,0.2s-0.1,0.1-0.2,0.1
		c-0.1,0-0.2,0-0.2-0.1S105.1,63.1,105.1,63z M105.6,67.1h-0.5v-3.2h0.5V67.1z"/>
	<path d="M107.9,67.1c-0.5,0-0.8-0.1-1.1-0.4s-0.4-0.7-0.4-1.2c0-0.5,0.1-1,0.4-1.2s0.6-0.4,1.1-0.4c0.2,0,0.3,0,0.5,0
		s0.3,0.1,0.4,0.1l-0.1,0.4c-0.1,0-0.2-0.1-0.4-0.1s-0.2,0-0.3,0c-0.7,0-1,0.4-1,1.2c0,0.4,0.1,0.7,0.2,0.9s0.4,0.3,0.7,0.3
		c0.3,0,0.5-0.1,0.8-0.2V67C108.5,67.1,108.2,67.1,107.9,67.1z"/>
	<path d="M109.4,63c0-0.1,0-0.2,0.1-0.2s0.1-0.1,0.2-0.1c0.1,0,0.1,0,0.2,0.1s0.1,0.1,0.1,0.2s0,0.2-0.1,0.2s-0.1,0.1-0.2,0.1
		c-0.1,0-0.2,0-0.2-0.1S109.4,63.1,109.4,63z M110,67.1h-0.5v-3.2h0.5V67.1z"/>
	<path d="M112.4,67.1c-0.5,0-0.8-0.1-1.1-0.4s-0.4-0.7-0.4-1.2c0-0.5,0.1-0.9,0.4-1.2s0.6-0.5,1-0.5c0.4,0,0.7,0.1,1,0.4
		s0.4,0.6,0.4,1v0.3h-2.2c0,0.4,0.1,0.7,0.3,0.9s0.4,0.3,0.8,0.3c0.3,0,0.7-0.1,1-0.2v0.4c-0.2,0.1-0.3,0.1-0.5,0.2
		S112.6,67.1,112.4,67.1z M112.2,64.2c-0.3,0-0.5,0.1-0.6,0.3s-0.2,0.4-0.3,0.7h1.7c0-0.3-0.1-0.5-0.2-0.7S112.5,64.2,112.2,64.2z"
		/>
	<path d="M116.6,67.1V65c0-0.3-0.1-0.5-0.2-0.6s-0.3-0.2-0.6-0.2c-0.3,0-0.6,0.1-0.7,0.3s-0.2,0.5-0.2,0.9v1.7h-0.5v-3.2h0.4
		l0.1,0.4h0c0.1-0.2,0.2-0.3,0.4-0.4s0.4-0.1,0.6-0.1c0.4,0,0.7,0.1,0.9,0.3s0.3,0.5,0.3,0.9v2.1H116.6z"/>
	<path d="M119.1,66.7c0.1,0,0.2,0,0.2,0s0.1,0,0.2,0V67c-0.1,0-0.1,0-0.2,0.1c-0.1,0-0.2,0-0.3,0c-0.6,0-0.9-0.3-0.9-1v-1.9h-0.5V64
		l0.5-0.2l0.2-0.7h0.3v0.7h0.9v0.4h-0.9v1.9c0,0.2,0,0.3,0.1,0.4S118.9,66.7,119.1,66.7z"/>
	<path d="M123.7,67.1l-0.1-0.5h0c-0.2,0.2-0.3,0.3-0.5,0.4s-0.4,0.1-0.6,0.1c-0.3,0-0.6-0.1-0.7-0.2c-0.2-0.2-0.3-0.4-0.3-0.7
		c0-0.6,0.5-1,1.6-1l0.5,0V65c0-0.3-0.1-0.4-0.2-0.6c-0.1-0.1-0.3-0.2-0.5-0.2c-0.3,0-0.6,0.1-0.9,0.2l-0.1-0.4
		c0.2-0.1,0.3-0.2,0.5-0.2c0.2,0,0.4-0.1,0.6-0.1c0.4,0,0.7,0.1,0.9,0.3c0.2,0.2,0.3,0.4,0.3,0.8v2.2H123.7z M122.6,66.7
		c0.3,0,0.5-0.1,0.7-0.2c0.2-0.2,0.3-0.4,0.3-0.7v-0.3l-0.5,0c-0.4,0-0.7,0.1-0.8,0.2S122,66,122,66.2c0,0.2,0.1,0.3,0.2,0.4
		C122.3,66.7,122.4,66.7,122.6,66.7z"/>
	<path d="M126.3,67.1c-0.5,0-0.8-0.1-1.1-0.4c-0.3-0.3-0.4-0.7-0.4-1.2c0-0.5,0.1-1,0.4-1.2s0.6-0.4,1.1-0.4c0.2,0,0.3,0,0.5,0
		s0.3,0.1,0.4,0.1l-0.1,0.4c-0.1,0-0.2-0.1-0.4-0.1s-0.2,0-0.3,0c-0.7,0-1,0.4-1,1.2c0,0.4,0.1,0.7,0.2,0.9c0.2,0.2,0.4,0.3,0.7,0.3
		c0.3,0,0.5-0.1,0.8-0.2V67C126.9,67.1,126.7,67.1,126.3,67.1z"/>
	<path d="M129.2,67.1c-0.5,0-0.8-0.1-1.1-0.4c-0.3-0.3-0.4-0.7-0.4-1.2c0-0.5,0.1-1,0.4-1.2s0.6-0.4,1.1-0.4c0.2,0,0.3,0,0.5,0
		s0.3,0.1,0.4,0.1l-0.1,0.4c-0.1,0-0.2-0.1-0.4-0.1s-0.2,0-0.3,0c-0.7,0-1,0.4-1,1.2c0,0.4,0.1,0.7,0.2,0.9c0.2,0.2,0.4,0.3,0.7,0.3
		c0.3,0,0.5-0.1,0.8-0.2V67C129.8,67.1,129.5,67.1,129.2,67.1z"/>
	<path d="M132.1,67.1c-0.5,0-0.8-0.1-1.1-0.4s-0.4-0.7-0.4-1.2c0-0.5,0.1-0.9,0.4-1.2c0.3-0.3,0.6-0.5,1-0.5c0.4,0,0.7,0.1,1,0.4
		s0.4,0.6,0.4,1v0.3h-2.2c0,0.4,0.1,0.7,0.3,0.9c0.2,0.2,0.4,0.3,0.8,0.3c0.3,0,0.7-0.1,1-0.2v0.4c-0.2,0.1-0.3,0.1-0.5,0.2
		C132.5,67.1,132.3,67.1,132.1,67.1z M132,64.2c-0.3,0-0.5,0.1-0.6,0.3s-0.2,0.4-0.3,0.7h1.7c0-0.3-0.1-0.5-0.2-0.7
		S132.2,64.2,132,64.2z"/>
	<path d="M136.2,66.2c0,0.3-0.1,0.5-0.3,0.7s-0.5,0.2-0.9,0.2c-0.4,0-0.8-0.1-1-0.2v-0.5c0.2,0.1,0.3,0.1,0.5,0.2
		c0.2,0,0.3,0.1,0.5,0.1c0.3,0,0.4,0,0.6-0.1s0.2-0.2,0.2-0.4c0-0.1-0.1-0.2-0.2-0.3c-0.1-0.1-0.3-0.2-0.6-0.3
		c-0.3-0.1-0.5-0.2-0.6-0.3c-0.1-0.1-0.2-0.2-0.3-0.3c-0.1-0.1-0.1-0.2-0.1-0.4c0-0.3,0.1-0.5,0.3-0.6s0.5-0.2,0.9-0.2
		c0.3,0,0.7,0.1,1,0.2l-0.2,0.4c-0.3-0.1-0.6-0.2-0.9-0.2c-0.2,0-0.4,0-0.5,0.1s-0.2,0.2-0.2,0.3c0,0.1,0,0.2,0.1,0.2
		c0,0.1,0.1,0.1,0.2,0.2s0.3,0.1,0.6,0.2c0.4,0.1,0.6,0.3,0.8,0.4C136.1,65.8,136.2,66,136.2,66.2z"/>
	<path d="M139.1,66.2c0,0.3-0.1,0.5-0.3,0.7s-0.5,0.2-0.9,0.2c-0.4,0-0.8-0.1-1-0.2v-0.5c0.2,0.1,0.3,0.1,0.5,0.2
		c0.2,0,0.3,0.1,0.5,0.1c0.3,0,0.4,0,0.6-0.1s0.2-0.2,0.2-0.4c0-0.1-0.1-0.2-0.2-0.3c-0.1-0.1-0.3-0.2-0.6-0.3
		c-0.3-0.1-0.5-0.2-0.6-0.3c-0.1-0.1-0.2-0.2-0.3-0.3c-0.1-0.1-0.1-0.2-0.1-0.4c0-0.3,0.1-0.5,0.3-0.6s0.5-0.2,0.9-0.2
		c0.3,0,0.7,0.1,1,0.2l-0.2,0.4c-0.3-0.1-0.6-0.2-0.9-0.2c-0.2,0-0.4,0-0.5,0.1s-0.2,0.2-0.2,0.3c0,0.1,0,0.2,0.1,0.2
		c0,0.1,0.1,0.1,0.2,0.2s0.3,0.1,0.6,0.2c0.4,0.1,0.6,0.3,0.8,0.4C139,65.8,139.1,66,139.1,66.2z"/>
	<path d="M142.5,66.7c0.1,0,0.2,0,0.2,0s0.1,0,0.2,0V67c-0.1,0-0.1,0-0.2,0.1c-0.1,0-0.2,0-0.3,0c-0.6,0-0.9-0.3-0.9-1v-1.9H141V64
		l0.5-0.2l0.2-0.7h0.3v0.7h0.9v0.4h-0.9v1.9c0,0.2,0,0.3,0.1,0.4S142.3,66.7,142.5,66.7z"/>
	<path d="M146.3,65.5c0,0.5-0.1,0.9-0.4,1.2s-0.6,0.4-1.1,0.4c-0.3,0-0.5-0.1-0.8-0.2s-0.4-0.3-0.5-0.6s-0.2-0.5-0.2-0.9
		c0-0.5,0.1-0.9,0.4-1.2s0.6-0.4,1.1-0.4c0.4,0,0.8,0.1,1.1,0.4C146.2,64.6,146.3,65,146.3,65.5z M143.9,65.5c0,0.4,0.1,0.7,0.2,0.9
		s0.4,0.3,0.7,0.3s0.6-0.1,0.7-0.3s0.2-0.5,0.2-0.9c0-0.4-0.1-0.7-0.2-0.9s-0.4-0.3-0.7-0.3c-0.3,0-0.6,0.1-0.7,0.3
		S143.9,65.1,143.9,65.5z"/>
	<path d="M150.2,63.8c0.1,0,0.3,0,0.4,0l-0.1,0.5c-0.1,0-0.3,0-0.4,0c-0.3,0-0.5,0.1-0.7,0.3c-0.2,0.2-0.3,0.5-0.3,0.8v1.7h-0.5
		v-3.2h0.4l0.1,0.6h0c0.1-0.2,0.3-0.4,0.4-0.5S150,63.8,150.2,63.8z"/>
	<path d="M152.5,67.1c-0.5,0-0.8-0.1-1.1-0.4S151,66,151,65.5c0-0.5,0.1-0.9,0.4-1.2c0.3-0.3,0.6-0.5,1-0.5c0.4,0,0.7,0.1,1,0.4
		s0.4,0.6,0.4,1v0.3h-2.2c0,0.4,0.1,0.7,0.3,0.9c0.2,0.2,0.4,0.3,0.8,0.3c0.3,0,0.7-0.1,1-0.2v0.4c-0.2,0.1-0.3,0.1-0.5,0.2
		C152.9,67.1,152.7,67.1,152.5,67.1z M152.4,64.2c-0.3,0-0.5,0.1-0.6,0.3s-0.2,0.4-0.3,0.7h1.7c0-0.3-0.1-0.5-0.2-0.7
		S152.6,64.2,152.4,64.2z"/>
	<path d="M155.8,67.1c-0.5,0-0.8-0.1-1.1-0.4c-0.3-0.3-0.4-0.7-0.4-1.2c0-0.5,0.1-1,0.4-1.2s0.6-0.4,1.1-0.4c0.2,0,0.3,0,0.5,0
		s0.3,0.1,0.4,0.1l-0.1,0.4c-0.1,0-0.2-0.1-0.4-0.1s-0.2,0-0.3,0c-0.7,0-1,0.4-1,1.2c0,0.4,0.1,0.7,0.2,0.9c0.2,0.2,0.4,0.3,0.7,0.3
		c0.3,0,0.5-0.1,0.8-0.2V67C156.4,67.1,156.1,67.1,155.8,67.1z"/>
	<path d="M156.9,63.9h0.5l0.7,1.8c0.2,0.4,0.3,0.7,0.3,0.9h0c0-0.1,0.1-0.3,0.2-0.5c0.1-0.2,0.3-1,0.8-2.2h0.5l-1.4,3.7
		c-0.1,0.4-0.3,0.6-0.5,0.8s-0.4,0.2-0.7,0.2c-0.1,0-0.3,0-0.4,0v-0.4c0.1,0,0.2,0,0.4,0c0.3,0,0.6-0.2,0.7-0.6l0.2-0.5L156.9,63.9z
		"/>
	<path d="M161.7,67.1c-0.5,0-0.8-0.1-1.1-0.4c-0.3-0.3-0.4-0.7-0.4-1.2c0-0.5,0.1-1,0.4-1.2s0.6-0.4,1.1-0.4c0.2,0,0.3,0,0.5,0
		s0.3,0.1,0.4,0.1l-0.1,0.4c-0.1,0-0.2-0.1-0.4-0.1s-0.2,0-0.3,0c-0.7,0-1,0.4-1,1.2c0,0.4,0.1,0.7,0.2,0.9c0.2,0.2,0.4,0.3,0.7,0.3
		c0.3,0,0.5-0.1,0.8-0.2V67C162.3,67.1,162,67.1,161.7,67.1z"/>
	<path d="M163.8,67.1h-0.5v-4.6h0.5V67.1z"/>
	<path d="M164.7,63c0-0.1,0-0.2,0.1-0.2s0.1-0.1,0.2-0.1c0.1,0,0.1,0,0.2,0.1s0.1,0.1,0.1,0.2s0,0.2-0.1,0.2s-0.1,0.1-0.2,0.1
		c-0.1,0-0.2,0-0.2-0.1S164.7,63.1,164.7,63z M165.3,67.1h-0.5v-3.2h0.5V67.1z"/>
	<path d="M168.5,67.1V65c0-0.3-0.1-0.5-0.2-0.6s-0.3-0.2-0.6-0.2c-0.3,0-0.6,0.1-0.7,0.3s-0.2,0.5-0.2,0.9v1.7h-0.5v-3.2h0.4
		l0.1,0.4h0c0.1-0.2,0.2-0.3,0.4-0.4s0.4-0.1,0.6-0.1c0.4,0,0.7,0.1,0.9,0.3s0.3,0.5,0.3,0.9v2.1H168.5z"/>
	<path d="M172.6,63.9v0.3l-0.6,0.1c0.1,0.1,0.1,0.2,0.1,0.3s0.1,0.2,0.1,0.4c0,0.3-0.1,0.6-0.3,0.8s-0.5,0.3-0.9,0.3
		c-0.1,0-0.2,0-0.3,0c-0.2,0.1-0.3,0.2-0.3,0.4c0,0.1,0,0.2,0.1,0.2s0.2,0.1,0.4,0.1h0.6c0.3,0,0.6,0.1,0.8,0.2s0.3,0.4,0.3,0.6
		c0,0.4-0.1,0.6-0.4,0.8s-0.7,0.3-1.2,0.3c-0.4,0-0.7-0.1-1-0.2s-0.3-0.4-0.3-0.7c0-0.2,0.1-0.4,0.2-0.5s0.3-0.2,0.5-0.3
		c-0.1,0-0.2-0.1-0.2-0.2c-0.1-0.1-0.1-0.2-0.1-0.3c0-0.1,0-0.2,0.1-0.3s0.2-0.2,0.3-0.3c-0.2-0.1-0.3-0.2-0.4-0.3
		c-0.1-0.2-0.2-0.4-0.2-0.6c0-0.4,0.1-0.6,0.3-0.8s0.5-0.3,0.9-0.3c0.2,0,0.3,0,0.5,0.1H172.6z M170.1,67.6c0,0.2,0.1,0.3,0.2,0.4
		s0.4,0.1,0.6,0.1c0.4,0,0.7-0.1,0.9-0.2c0.2-0.1,0.3-0.3,0.3-0.5c0-0.2-0.1-0.3-0.2-0.4s-0.3-0.1-0.6-0.1h-0.6
		c-0.2,0-0.4,0.1-0.5,0.2S170.1,67.4,170.1,67.6z M170.3,64.9c0,0.2,0.1,0.4,0.2,0.5s0.3,0.2,0.5,0.2c0.5,0,0.7-0.2,0.7-0.7
		c0-0.5-0.2-0.7-0.7-0.7c-0.2,0-0.4,0.1-0.5,0.2S170.3,64.7,170.3,64.9z"/>
	<path d="M176.3,63.8c0.4,0,0.7,0.1,1,0.4s0.4,0.7,0.4,1.2s-0.1,0.9-0.4,1.2c-0.2,0.3-0.6,0.4-1,0.4c-0.2,0-0.4,0-0.6-0.1
		c-0.2-0.1-0.3-0.2-0.4-0.4h0l-0.1,0.4h-0.3v-4.6h0.5v1.1c0,0.2,0,0.5,0,0.7h0C175.5,64,175.9,63.8,176.3,63.8z M176.3,64.2
		c-0.3,0-0.6,0.1-0.7,0.3s-0.2,0.5-0.2,1s0.1,0.8,0.2,1s0.4,0.3,0.7,0.3c0.3,0,0.5-0.1,0.7-0.3s0.2-0.5,0.2-0.9
		c0-0.4-0.1-0.7-0.2-0.9S176.6,64.2,176.3,64.2z"/>
	<path d="M178.5,63c0-0.1,0-0.2,0.1-0.2s0.1-0.1,0.2-0.1c0.1,0,0.1,0,0.2,0.1s0.1,0.1,0.1,0.2s0,0.2-0.1,0.2s-0.1,0.1-0.2,0.1
		c-0.1,0-0.2,0-0.2-0.1S178.5,63.1,178.5,63z M179,67.1h-0.5v-3.2h0.5V67.1z"/>
	<path d="M182.2,67.1V65c0-0.3-0.1-0.5-0.2-0.6s-0.3-0.2-0.6-0.2c-0.3,0-0.6,0.1-0.7,0.3s-0.2,0.5-0.2,0.9v1.7H180v-3.2h0.4l0.1,0.4
		h0c0.1-0.2,0.2-0.3,0.4-0.4s0.4-0.1,0.6-0.1c0.4,0,0.7,0.1,0.9,0.3s0.3,0.5,0.3,0.9v2.1H182.2z"/>
	<path d="M185.8,66.2c0,0.3-0.1,0.5-0.3,0.7s-0.5,0.2-0.9,0.2c-0.4,0-0.8-0.1-1-0.2v-0.5c0.2,0.1,0.3,0.1,0.5,0.2
		c0.2,0,0.3,0.1,0.5,0.1c0.3,0,0.4,0,0.6-0.1s0.2-0.2,0.2-0.4c0-0.1-0.1-0.2-0.2-0.3c-0.1-0.1-0.3-0.2-0.6-0.3
		c-0.3-0.1-0.5-0.2-0.6-0.3c-0.1-0.1-0.2-0.2-0.3-0.3c-0.1-0.1-0.1-0.2-0.1-0.4c0-0.3,0.1-0.5,0.3-0.6s0.5-0.2,0.9-0.2
		c0.3,0,0.7,0.1,1,0.2l-0.2,0.4c-0.3-0.1-0.6-0.2-0.9-0.2c-0.2,0-0.4,0-0.5,0.1s-0.2,0.2-0.2,0.3c0,0.1,0,0.2,0.1,0.2
		c0,0.1,0.1,0.1,0.2,0.2s0.3,0.1,0.6,0.2c0.4,0.1,0.6,0.3,0.8,0.4C185.7,65.8,185.8,66,185.8,66.2z"/>
	<path d="M187.9,65.7v-0.4h1.4v0.4H187.9z"/>
	<path d="M193.1,64.2h-0.8v2.8h-0.5v-2.8h-0.6V64l0.6-0.2v-0.2c0-0.8,0.3-1.2,1-1.2c0.2,0,0.4,0,0.6,0.1l-0.1,0.4
		c-0.2-0.1-0.3-0.1-0.5-0.1c-0.2,0-0.3,0.1-0.4,0.2s-0.1,0.3-0.1,0.6v0.2h0.8V64.2z"/>
	<path d="M195.1,63.8c0.1,0,0.3,0,0.4,0l-0.1,0.5c-0.1,0-0.3,0-0.4,0c-0.3,0-0.5,0.1-0.7,0.3c-0.2,0.2-0.3,0.5-0.3,0.8v1.7h-0.5
		v-3.2h0.4l0.1,0.6h0c0.1-0.2,0.3-0.4,0.4-0.5S194.9,63.8,195.1,63.8z"/>
	<path d="M196.6,63.9V66c0,0.3,0.1,0.5,0.2,0.6s0.3,0.2,0.6,0.2c0.3,0,0.6-0.1,0.7-0.3c0.2-0.2,0.2-0.5,0.2-0.9v-1.7h0.5v3.2h-0.4
		l-0.1-0.4h0c-0.1,0.2-0.2,0.3-0.4,0.4s-0.4,0.1-0.6,0.1c-0.4,0-0.7-0.1-0.9-0.3s-0.3-0.5-0.3-0.9v-2.1H196.6z"/>
	<path d="M201.9,66.2c0,0.3-0.1,0.5-0.3,0.7s-0.5,0.2-0.9,0.2c-0.4,0-0.8-0.1-1-0.2v-0.5c0.2,0.1,0.3,0.1,0.5,0.2
		c0.2,0,0.3,0.1,0.5,0.1c0.3,0,0.4,0,0.6-0.1s0.2-0.2,0.2-0.4c0-0.1-0.1-0.2-0.2-0.3c-0.1-0.1-0.3-0.2-0.6-0.3
		c-0.3-0.1-0.5-0.2-0.6-0.3c-0.1-0.1-0.2-0.2-0.3-0.3c-0.1-0.1-0.1-0.2-0.1-0.4c0-0.3,0.1-0.5,0.3-0.6s0.5-0.2,0.9-0.2
		c0.3,0,0.7,0.1,1,0.2l-0.2,0.4c-0.3-0.1-0.6-0.2-0.9-0.2c-0.2,0-0.4,0-0.5,0.1s-0.2,0.2-0.2,0.3c0,0.1,0,0.2,0.1,0.2
		c0,0.1,0.1,0.1,0.2,0.2s0.3,0.1,0.6,0.2c0.4,0.1,0.6,0.3,0.8,0.4C201.8,65.8,201.9,66,201.9,66.2z"/>
	<path d="M203.7,66.7c0.1,0,0.2,0,0.2,0s0.1,0,0.2,0V67c-0.1,0-0.1,0-0.2,0.1c-0.1,0-0.2,0-0.3,0c-0.6,0-0.9-0.3-0.9-1v-1.9h-0.5V64
		l0.5-0.2l0.2-0.7h0.3v0.7h0.9v0.4h-0.9v1.9c0,0.2,0,0.3,0.1,0.4S203.5,66.7,203.7,66.7z"/>
	<path d="M206.2,63.8c0.1,0,0.3,0,0.4,0l-0.1,0.5c-0.1,0-0.3,0-0.4,0c-0.3,0-0.5,0.1-0.7,0.3c-0.2,0.2-0.3,0.5-0.3,0.8v1.7h-0.5
		v-3.2h0.4l0.1,0.6h0c0.1-0.2,0.3-0.4,0.4-0.5S206,63.8,206.2,63.8z"/>
	<path d="M209.2,67.1l-0.1-0.5h0c-0.2,0.2-0.3,0.3-0.5,0.4s-0.4,0.1-0.6,0.1c-0.3,0-0.6-0.1-0.7-0.2c-0.2-0.2-0.3-0.4-0.3-0.7
		c0-0.6,0.5-1,1.6-1l0.5,0V65c0-0.3-0.1-0.4-0.2-0.6c-0.1-0.1-0.3-0.2-0.5-0.2c-0.3,0-0.6,0.1-0.9,0.2l-0.1-0.4
		c0.2-0.1,0.3-0.2,0.5-0.2c0.2,0,0.4-0.1,0.6-0.1c0.4,0,0.7,0.1,0.9,0.3c0.2,0.2,0.3,0.4,0.3,0.8v2.2H209.2z M208.1,66.7
		c0.3,0,0.5-0.1,0.7-0.2c0.2-0.2,0.3-0.4,0.3-0.7v-0.3l-0.5,0c-0.4,0-0.7,0.1-0.8,0.2s-0.3,0.3-0.3,0.5c0,0.2,0.1,0.3,0.2,0.4
		C207.8,66.7,207.9,66.7,208.1,66.7z"/>
	<path d="M211.6,66.7c0.1,0,0.2,0,0.2,0s0.1,0,0.2,0V67c-0.1,0-0.1,0-0.2,0.1c-0.1,0-0.2,0-0.3,0c-0.6,0-0.9-0.3-0.9-1v-1.9h-0.5V64
		l0.5-0.2l0.2-0.7h0.3v0.7h0.9v0.4h-0.9v1.9c0,0.2,0,0.3,0.1,0.4S211.4,66.7,211.6,66.7z"/>
	<path d="M214,67.1c-0.5,0-0.8-0.1-1.1-0.4s-0.4-0.7-0.4-1.2c0-0.5,0.1-0.9,0.4-1.2c0.3-0.3,0.6-0.5,1-0.5c0.4,0,0.7,0.1,1,0.4
		s0.4,0.6,0.4,1v0.3H213c0,0.4,0.1,0.7,0.3,0.9c0.2,0.2,0.4,0.3,0.8,0.3c0.3,0,0.7-0.1,1-0.2v0.4c-0.2,0.1-0.3,0.1-0.5,0.2
		C214.4,67.1,214.2,67.1,214,67.1z M213.9,64.2c-0.3,0-0.5,0.1-0.6,0.3s-0.2,0.4-0.3,0.7h1.7c0-0.3-0.1-0.5-0.2-0.7
		S214.2,64.2,213.9,64.2z"/>
	<path d="M218.2,66.6L218.2,66.6c-0.3,0.3-0.6,0.5-1,0.5c-0.4,0-0.7-0.1-1-0.4c-0.2-0.3-0.4-0.7-0.4-1.2s0.1-0.9,0.4-1.2
		s0.6-0.4,1-0.4c0.4,0,0.8,0.2,1,0.5h0l0-0.2l0-0.2v-1.3h0.5v4.6h-0.4L218.2,66.6z M217.3,66.7c0.3,0,0.6-0.1,0.7-0.3
		c0.1-0.2,0.2-0.5,0.2-0.9v-0.1c0-0.5-0.1-0.8-0.2-1s-0.4-0.3-0.7-0.3c-0.3,0-0.5,0.1-0.7,0.3c-0.2,0.2-0.2,0.5-0.2,0.9
		c0,0.4,0.1,0.7,0.2,0.9S217,66.7,217.3,66.7z"/>
	<path d="M90.6,71c0.4,0,0.7,0.1,1,0.4s0.4,0.7,0.4,1.2s-0.1,0.9-0.4,1.2s-0.6,0.4-1,0.4c-0.2,0-0.4,0-0.6-0.1s-0.3-0.2-0.4-0.4h0
		l-0.1,0.4h-0.3v-4.6h0.5v1.1c0,0.2,0,0.5,0,0.7h0C89.8,71.2,90.2,71,90.6,71z M90.6,71.4c-0.3,0-0.6,0.1-0.7,0.3s-0.2,0.5-0.2,1
		s0.1,0.8,0.2,1s0.4,0.3,0.7,0.3c0.3,0,0.5-0.1,0.7-0.3s0.2-0.5,0.2-0.9c0-0.4-0.1-0.7-0.2-0.9S90.9,71.4,90.6,71.4z"/>
	<path d="M92.3,71.1h0.5l0.7,1.8c0.2,0.4,0.3,0.7,0.3,0.9h0c0-0.1,0.1-0.3,0.2-0.5s0.3-1,0.8-2.2h0.5l-1.4,3.7
		c-0.1,0.4-0.3,0.6-0.5,0.8s-0.4,0.2-0.7,0.2c-0.1,0-0.3,0-0.4,0v-0.4c0.1,0,0.2,0,0.4,0c0.3,0,0.6-0.2,0.7-0.6l0.2-0.5L92.3,71.1z"
		/>
	<path d="M98.4,73.9c0.1,0,0.2,0,0.2,0s0.1,0,0.2,0v0.4c-0.1,0-0.1,0-0.2,0.1s-0.2,0-0.3,0c-0.6,0-0.9-0.3-0.9-1v-1.9H97v-0.2
		l0.5-0.2l0.2-0.7h0.3v0.7h0.9v0.4h-0.9v1.9c0,0.2,0,0.3,0.1,0.4S98.3,73.9,98.4,73.9z"/>
	<path d="M101.7,74.3v-2.1c0-0.3-0.1-0.5-0.2-0.6s-0.3-0.2-0.6-0.2c-0.3,0-0.6,0.1-0.7,0.3s-0.2,0.5-0.2,0.9v1.7h-0.5v-4.6h0.5v1.4
		c0,0.2,0,0.3,0,0.4h0c0.1-0.2,0.2-0.3,0.4-0.4s0.4-0.1,0.6-0.1c0.4,0,0.7,0.1,0.9,0.3s0.3,0.5,0.3,0.9v2.1H101.7z"/>
	<path d="M104.5,74.3c-0.5,0-0.8-0.1-1.1-0.4s-0.4-0.7-0.4-1.2c0-0.5,0.1-0.9,0.4-1.2s0.6-0.5,1-0.5c0.4,0,0.7,0.1,1,0.4
		s0.4,0.6,0.4,1v0.3h-2.2c0,0.4,0.1,0.7,0.3,0.9s0.4,0.3,0.8,0.3c0.3,0,0.7-0.1,1-0.2v0.4c-0.2,0.1-0.3,0.1-0.5,0.2
		S104.8,74.3,104.5,74.3z M104.4,71.4c-0.3,0-0.5,0.1-0.6,0.3s-0.2,0.4-0.3,0.7h1.7c0-0.3-0.1-0.5-0.2-0.7S104.7,71.4,104.4,71.4z"
		/>
	<path d="M110.2,73.4c0,0.3-0.1,0.5-0.3,0.7s-0.5,0.2-0.9,0.2c-0.4,0-0.8-0.1-1-0.2v-0.5c0.2,0.1,0.3,0.1,0.5,0.2s0.3,0.1,0.5,0.1
		c0.3,0,0.4,0,0.6-0.1s0.2-0.2,0.2-0.4c0-0.1-0.1-0.2-0.2-0.3s-0.3-0.2-0.6-0.3c-0.3-0.1-0.5-0.2-0.6-0.3s-0.2-0.2-0.3-0.3
		s-0.1-0.2-0.1-0.4c0-0.3,0.1-0.5,0.3-0.6s0.5-0.2,0.9-0.2c0.3,0,0.7,0.1,1,0.2l-0.2,0.4c-0.3-0.1-0.6-0.2-0.9-0.2
		c-0.2,0-0.4,0-0.5,0.1s-0.2,0.2-0.2,0.3c0,0.1,0,0.2,0.1,0.2s0.1,0.1,0.2,0.2s0.3,0.1,0.6,0.2c0.4,0.1,0.6,0.3,0.8,0.4
		S110.2,73.2,110.2,73.4z"/>
	<path d="M112.3,74.3c-0.5,0-0.8-0.1-1.1-0.4s-0.4-0.7-0.4-1.2c0-0.5,0.1-1,0.4-1.2s0.6-0.4,1.1-0.4c0.2,0,0.3,0,0.5,0
		s0.3,0.1,0.4,0.1l-0.1,0.4c-0.1,0-0.2-0.1-0.4-0.1s-0.2,0-0.3,0c-0.7,0-1,0.4-1,1.2c0,0.4,0.1,0.7,0.2,0.9s0.4,0.3,0.7,0.3
		c0.3,0,0.5-0.1,0.8-0.2v0.4C112.9,74.3,112.6,74.3,112.3,74.3z"/>
	<path d="M115.8,74.3l-0.1-0.5h0c-0.2,0.2-0.3,0.3-0.5,0.4c-0.2,0.1-0.4,0.1-0.6,0.1c-0.3,0-0.6-0.1-0.7-0.2s-0.3-0.4-0.3-0.7
		c0-0.6,0.5-1,1.6-1l0.5,0v-0.2c0-0.3-0.1-0.4-0.2-0.6c-0.1-0.1-0.3-0.2-0.5-0.2c-0.3,0-0.6,0.1-0.9,0.2l-0.1-0.4
		c0.2-0.1,0.3-0.2,0.5-0.2c0.2,0,0.4-0.1,0.6-0.1c0.4,0,0.7,0.1,0.9,0.3c0.2,0.2,0.3,0.4,0.3,0.8v2.2H115.8z M114.7,73.9
		c0.3,0,0.5-0.1,0.7-0.2c0.2-0.2,0.3-0.4,0.3-0.7v-0.3l-0.5,0c-0.4,0-0.7,0.1-0.8,0.2c-0.2,0.1-0.3,0.3-0.3,0.5
		c0,0.2,0.1,0.3,0.2,0.4S114.5,73.9,114.7,73.9z"/>
	<path d="M118.6,71c0.1,0,0.3,0,0.4,0l-0.1,0.5c-0.1,0-0.3,0-0.4,0c-0.3,0-0.5,0.1-0.7,0.3c-0.2,0.2-0.3,0.5-0.3,0.8v1.7h-0.5v-3.2
		h0.4l0.1,0.6h0c0.1-0.2,0.3-0.4,0.4-0.5S118.4,71,118.6,71z"/>
	<path d="M120.9,74.3c-0.5,0-0.8-0.1-1.1-0.4c-0.3-0.3-0.4-0.7-0.4-1.2c0-0.5,0.1-1,0.4-1.2s0.6-0.4,1.1-0.4c0.2,0,0.3,0,0.5,0
		s0.3,0.1,0.4,0.1l-0.1,0.4c-0.1,0-0.2-0.1-0.4-0.1s-0.2,0-0.3,0c-0.7,0-1,0.4-1,1.2c0,0.4,0.1,0.7,0.2,0.9c0.2,0.2,0.4,0.3,0.7,0.3
		c0.3,0,0.5-0.1,0.8-0.2v0.4C121.5,74.3,121.2,74.3,120.9,74.3z"/>
	<path d="M122.4,70.2c0-0.1,0-0.2,0.1-0.2s0.1-0.1,0.2-0.1c0.1,0,0.1,0,0.2,0.1s0.1,0.1,0.1,0.2s0,0.2-0.1,0.2s-0.1,0.1-0.2,0.1
		c-0.1,0-0.2,0-0.2-0.1S122.4,70.3,122.4,70.2z M123,74.3h-0.5v-3.2h0.5V74.3z"/>
	<path d="M125,73.9c0.1,0,0.2,0,0.2,0s0.1,0,0.2,0v0.4c-0.1,0-0.1,0-0.2,0.1c-0.1,0-0.2,0-0.3,0c-0.6,0-0.9-0.3-0.9-1v-1.9h-0.5
		v-0.2L124,71l0.2-0.7h0.3v0.7h0.9v0.4h-0.9v1.9c0,0.2,0,0.3,0.1,0.4S124.9,73.9,125,73.9z"/>
	<path d="M125.6,71.1h0.5l0.7,1.8c0.2,0.4,0.3,0.7,0.3,0.9h0c0-0.1,0.1-0.3,0.2-0.5c0.1-0.2,0.3-1,0.8-2.2h0.5l-1.4,3.7
		c-0.1,0.4-0.3,0.6-0.5,0.8s-0.4,0.2-0.7,0.2c-0.1,0-0.3,0-0.4,0v-0.4c0.1,0,0.2,0,0.4,0c0.3,0,0.6-0.2,0.7-0.6l0.2-0.5L125.6,71.1z
		"/>
	<path d="M132.7,74.3l-0.1-0.5h0c-0.2,0.2-0.3,0.3-0.5,0.4s-0.4,0.1-0.6,0.1c-0.3,0-0.6-0.1-0.7-0.2c-0.2-0.2-0.3-0.4-0.3-0.7
		c0-0.6,0.5-1,1.6-1l0.5,0v-0.2c0-0.3-0.1-0.4-0.2-0.6c-0.1-0.1-0.3-0.2-0.5-0.2c-0.3,0-0.6,0.1-0.9,0.2l-0.1-0.4
		c0.2-0.1,0.3-0.2,0.5-0.2c0.2,0,0.4-0.1,0.6-0.1c0.4,0,0.7,0.1,0.9,0.3c0.2,0.2,0.3,0.4,0.3,0.8v2.2H132.7z M131.6,73.9
		c0.3,0,0.5-0.1,0.7-0.2c0.2-0.2,0.3-0.4,0.3-0.7v-0.3l-0.5,0c-0.4,0-0.7,0.1-0.8,0.2s-0.3,0.3-0.3,0.5c0,0.2,0.1,0.3,0.2,0.4
		C131.2,73.9,131.4,73.9,131.6,73.9z"/>
	<path d="M136.2,74.3v-2.1c0-0.3-0.1-0.5-0.2-0.6s-0.3-0.2-0.6-0.2c-0.3,0-0.6,0.1-0.7,0.3s-0.2,0.5-0.2,0.9v1.7H134v-3.2h0.4
		l0.1,0.4h0c0.1-0.2,0.2-0.3,0.4-0.4s0.4-0.1,0.6-0.1c0.4,0,0.7,0.1,0.9,0.3s0.3,0.5,0.3,0.9v2.1H136.2z"/>
	<path d="M139.9,73.8L139.9,73.8c-0.3,0.3-0.6,0.5-1,0.5c-0.4,0-0.7-0.1-1-0.4c-0.2-0.3-0.4-0.7-0.4-1.2s0.1-0.9,0.4-1.2
		s0.6-0.4,1-0.4c0.4,0,0.8,0.2,1,0.5h0l0-0.2l0-0.2v-1.3h0.5v4.6H140L139.9,73.8z M138.9,73.9c0.3,0,0.6-0.1,0.7-0.3
		c0.1-0.2,0.2-0.5,0.2-0.9v-0.1c0-0.5-0.1-0.8-0.2-1s-0.4-0.3-0.7-0.3c-0.3,0-0.5,0.1-0.7,0.3c-0.2,0.2-0.2,0.5-0.2,0.9
		c0,0.4,0.1,0.7,0.2,0.9S138.6,73.9,138.9,73.9z"/>
	<path d="M142.9,70.2c0-0.1,0-0.2,0.1-0.2s0.1-0.1,0.2-0.1c0.1,0,0.1,0,0.2,0.1s0.1,0.1,0.1,0.2s0,0.2-0.1,0.2s-0.1,0.1-0.2,0.1
		c-0.1,0-0.2,0-0.2-0.1S142.9,70.3,142.9,70.2z M143.4,74.3h-0.5v-3.2h0.5V74.3z"/>
	<path d="M146.7,74.3v-2.1c0-0.3-0.1-0.5-0.2-0.6s-0.3-0.2-0.6-0.2c-0.3,0-0.6,0.1-0.7,0.3s-0.2,0.5-0.2,0.9v1.7h-0.5v-3.2h0.4
		l0.1,0.4h0c0.1-0.2,0.2-0.3,0.4-0.4s0.4-0.1,0.6-0.1c0.4,0,0.7,0.1,0.9,0.3s0.3,0.5,0.3,0.9v2.1H146.7z"/>
	<path d="M149.4,74.3c-0.5,0-0.8-0.1-1.1-0.4c-0.3-0.3-0.4-0.7-0.4-1.2c0-0.5,0.1-1,0.4-1.2s0.6-0.4,1.1-0.4c0.2,0,0.3,0,0.5,0
		s0.3,0.1,0.4,0.1l-0.1,0.4c-0.1,0-0.2-0.1-0.4-0.1s-0.2,0-0.3,0c-0.7,0-1,0.4-1,1.2c0,0.4,0.1,0.7,0.2,0.9c0.2,0.2,0.4,0.3,0.7,0.3
		c0.3,0,0.5-0.1,0.8-0.2v0.4C150,74.3,149.8,74.3,149.4,74.3z"/>
	<path d="M153.8,72.7c0,0.5-0.1,0.9-0.4,1.2s-0.6,0.4-1.1,0.4c-0.3,0-0.5-0.1-0.8-0.2s-0.4-0.3-0.5-0.6s-0.2-0.5-0.2-0.9
		c0-0.5,0.1-0.9,0.4-1.2s0.6-0.4,1.1-0.4c0.4,0,0.8,0.1,1.1,0.4C153.6,71.8,153.8,72.2,153.8,72.7z M151.3,72.7
		c0,0.4,0.1,0.7,0.2,0.9s0.4,0.3,0.7,0.3s0.6-0.1,0.7-0.3s0.2-0.5,0.2-0.9c0-0.4-0.1-0.7-0.2-0.9s-0.4-0.3-0.7-0.3
		c-0.3,0-0.6,0.1-0.7,0.3S151.3,72.3,151.3,72.7z"/>
	<path d="M156.8,74.3v-2.1c0-0.3-0.1-0.5-0.2-0.6s-0.3-0.2-0.6-0.2c-0.3,0-0.6,0.1-0.7,0.3s-0.2,0.5-0.2,0.9v1.7h-0.5v-3.2h0.4
		l0.1,0.4h0c0.1-0.2,0.2-0.3,0.4-0.4s0.4-0.1,0.6-0.1c0.4,0,0.7,0.1,0.9,0.3s0.3,0.5,0.3,0.9v2.1H156.8z"/>
	<path d="M159,74.3l-1.2-3.2h0.5L159,73c0.2,0.4,0.2,0.7,0.3,0.9h0c0-0.1,0.1-0.3,0.2-0.6c0.1-0.3,0.4-1,0.8-2.1h0.5l-1.2,3.2H159z"
		/>
	<path d="M162.7,74.3c-0.5,0-0.8-0.1-1.1-0.4s-0.4-0.7-0.4-1.2c0-0.5,0.1-0.9,0.4-1.2c0.3-0.3,0.6-0.5,1-0.5c0.4,0,0.7,0.1,1,0.4
		s0.4,0.6,0.4,1v0.3h-2.2c0,0.4,0.1,0.7,0.3,0.9c0.2,0.2,0.4,0.3,0.8,0.3c0.3,0,0.7-0.1,1-0.2v0.4c-0.2,0.1-0.3,0.1-0.5,0.2
		C163.1,74.3,162.9,74.3,162.7,74.3z M162.5,71.4c-0.3,0-0.5,0.1-0.6,0.3s-0.2,0.4-0.3,0.7h1.7c0-0.3-0.1-0.5-0.2-0.7
		S162.8,71.4,162.5,71.4z"/>
	<path d="M166.9,74.3v-2.1c0-0.3-0.1-0.5-0.2-0.6s-0.3-0.2-0.6-0.2c-0.3,0-0.6,0.1-0.7,0.3s-0.2,0.5-0.2,0.9v1.7h-0.5v-3.2h0.4
		l0.1,0.4h0c0.1-0.2,0.2-0.3,0.4-0.4s0.4-0.1,0.6-0.1c0.4,0,0.7,0.1,0.9,0.3s0.3,0.5,0.3,0.9v2.1H166.9z"/>
	<path d="M168.3,70.2c0-0.1,0-0.2,0.1-0.2s0.1-0.1,0.2-0.1c0.1,0,0.1,0,0.2,0.1s0.1,0.1,0.1,0.2s0,0.2-0.1,0.2s-0.1,0.1-0.2,0.1
		c-0.1,0-0.2,0-0.2-0.1S168.3,70.3,168.3,70.2z M168.8,74.3h-0.5v-3.2h0.5V74.3z"/>
	<path d="M171.2,74.3c-0.5,0-0.8-0.1-1.1-0.4s-0.4-0.7-0.4-1.2c0-0.5,0.1-0.9,0.4-1.2c0.3-0.3,0.6-0.5,1-0.5c0.4,0,0.7,0.1,1,0.4
		s0.4,0.6,0.4,1v0.3h-2.2c0,0.4,0.1,0.7,0.3,0.9c0.2,0.2,0.4,0.3,0.8,0.3c0.3,0,0.7-0.1,1-0.2v0.4c-0.2,0.1-0.3,0.1-0.5,0.2
		C171.6,74.3,171.5,74.3,171.2,74.3z M171.1,71.4c-0.3,0-0.5,0.1-0.6,0.3s-0.2,0.4-0.3,0.7h1.7c0-0.3-0.1-0.5-0.2-0.7
		S171.4,71.4,171.1,71.4z"/>
	<path d="M175.4,74.3v-2.1c0-0.3-0.1-0.5-0.2-0.6s-0.3-0.2-0.6-0.2c-0.3,0-0.6,0.1-0.7,0.3s-0.2,0.5-0.2,0.9v1.7h-0.5v-3.2h0.4
		l0.1,0.4h0c0.1-0.2,0.2-0.3,0.4-0.4s0.4-0.1,0.6-0.1c0.4,0,0.7,0.1,0.9,0.3s0.3,0.5,0.3,0.9v2.1H175.4z"/>
	<path d="M178.2,74.3c-0.5,0-0.8-0.1-1.1-0.4c-0.3-0.3-0.4-0.7-0.4-1.2c0-0.5,0.1-1,0.4-1.2s0.6-0.4,1.1-0.4c0.2,0,0.3,0,0.5,0
		s0.3,0.1,0.4,0.1l-0.1,0.4c-0.1,0-0.2-0.1-0.4-0.1s-0.2,0-0.3,0c-0.7,0-1,0.4-1,1.2c0,0.4,0.1,0.7,0.2,0.9c0.2,0.2,0.4,0.3,0.7,0.3
		c0.3,0,0.5-0.1,0.8-0.2v0.4C178.8,74.3,178.5,74.3,178.2,74.3z"/>
	<path d="M181.1,74.3c-0.5,0-0.8-0.1-1.1-0.4s-0.4-0.7-0.4-1.2c0-0.5,0.1-0.9,0.4-1.2c0.3-0.3,0.6-0.5,1-0.5c0.4,0,0.7,0.1,1,0.4
		s0.4,0.6,0.4,1v0.3h-2.2c0,0.4,0.1,0.7,0.3,0.9c0.2,0.2,0.4,0.3,0.8,0.3c0.3,0,0.7-0.1,1-0.2v0.4c-0.2,0.1-0.3,0.1-0.5,0.2
		C181.5,74.3,181.4,74.3,181.1,74.3z M181,71.4c-0.3,0-0.5,0.1-0.6,0.3s-0.2,0.4-0.3,0.7h1.7c0-0.3-0.1-0.5-0.2-0.7
		S181.3,71.4,181,71.4z"/>
	<path d="M187.5,72.7c0,0.5-0.1,0.9-0.4,1.2s-0.6,0.4-1.1,0.4c-0.3,0-0.5-0.1-0.8-0.2s-0.4-0.3-0.5-0.6s-0.2-0.5-0.2-0.9
		c0-0.5,0.1-0.9,0.4-1.2s0.6-0.4,1.1-0.4c0.4,0,0.8,0.1,1.1,0.4C187.3,71.8,187.5,72.2,187.5,72.7z M185,72.7c0,0.4,0.1,0.7,0.2,0.9
		s0.4,0.3,0.7,0.3s0.6-0.1,0.7-0.3s0.2-0.5,0.2-0.9c0-0.4-0.1-0.7-0.2-0.9s-0.4-0.3-0.7-0.3c-0.3,0-0.6,0.1-0.7,0.3
		S185,72.3,185,72.7z"/>
	<path d="M189.8,71.4H189v2.8h-0.5v-2.8h-0.6v-0.2l0.6-0.2v-0.2c0-0.8,0.3-1.2,1-1.2c0.2,0,0.4,0,0.6,0.1l-0.1,0.4
		c-0.2-0.1-0.3-0.1-0.5-0.1c-0.2,0-0.3,0.1-0.4,0.2s-0.1,0.3-0.1,0.6v0.2h0.8V71.4z"/>
	<path d="M193.4,71c0.1,0,0.3,0,0.4,0l-0.1,0.5c-0.1,0-0.3,0-0.4,0c-0.3,0-0.5,0.1-0.7,0.3c-0.2,0.2-0.3,0.5-0.3,0.8v1.7h-0.5v-3.2
		h0.4l0.1,0.6h0c0.1-0.2,0.3-0.4,0.4-0.5S193.2,71,193.4,71z"/>
	<path d="M195.7,74.3c-0.5,0-0.8-0.1-1.1-0.4s-0.4-0.7-0.4-1.2c0-0.5,0.1-0.9,0.4-1.2c0.3-0.3,0.6-0.5,1-0.5c0.4,0,0.7,0.1,1,0.4
		s0.4,0.6,0.4,1v0.3h-2.2c0,0.4,0.1,0.7,0.3,0.9c0.2,0.2,0.4,0.3,0.8,0.3c0.3,0,0.7-0.1,1-0.2v0.4c-0.2,0.1-0.3,0.1-0.5,0.2
		C196.1,74.3,195.9,74.3,195.7,74.3z M195.6,71.4c-0.3,0-0.5,0.1-0.6,0.3s-0.2,0.4-0.3,0.7h1.7c0-0.3-0.1-0.5-0.2-0.7
		S195.9,71.4,195.6,71.4z"/>
	<path d="M199,74.3c-0.5,0-0.8-0.1-1.1-0.4c-0.3-0.3-0.4-0.7-0.4-1.2c0-0.5,0.1-1,0.4-1.2s0.6-0.4,1.1-0.4c0.2,0,0.3,0,0.5,0
		s0.3,0.1,0.4,0.1l-0.1,0.4c-0.1,0-0.2-0.1-0.4-0.1s-0.2,0-0.3,0c-0.7,0-1,0.4-1,1.2c0,0.4,0.1,0.7,0.2,0.9c0.2,0.2,0.4,0.3,0.7,0.3
		c0.3,0,0.5-0.1,0.8-0.2v0.4C199.6,74.3,199.4,74.3,199,74.3z"/>
	<path d="M200.1,71.1h0.5l0.7,1.8c0.2,0.4,0.3,0.7,0.3,0.9h0c0-0.1,0.1-0.3,0.2-0.5c0.1-0.2,0.3-1,0.8-2.2h0.5l-1.4,3.7
		c-0.1,0.4-0.3,0.6-0.5,0.8s-0.4,0.2-0.7,0.2c-0.1,0-0.3,0-0.4,0v-0.4c0.1,0,0.2,0,0.4,0c0.3,0,0.6-0.2,0.7-0.6l0.2-0.5L200.1,71.1z
		"/>
	<path d="M204.9,74.3c-0.5,0-0.8-0.1-1.1-0.4c-0.3-0.3-0.4-0.7-0.4-1.2c0-0.5,0.1-1,0.4-1.2s0.6-0.4,1.1-0.4c0.2,0,0.3,0,0.5,0
		s0.3,0.1,0.4,0.1l-0.1,0.4c-0.1,0-0.2-0.1-0.4-0.1s-0.2,0-0.3,0c-0.7,0-1,0.4-1,1.2c0,0.4,0.1,0.7,0.2,0.9c0.2,0.2,0.4,0.3,0.7,0.3
		c0.3,0,0.5-0.1,0.8-0.2v0.4C205.5,74.3,205.2,74.3,204.9,74.3z"/>
	<path d="M207,74.3h-0.5v-4.6h0.5V74.3z"/>
	<path d="M208,70.2c0-0.1,0-0.2,0.1-0.2s0.1-0.1,0.2-0.1c0.1,0,0.1,0,0.2,0.1s0.1,0.1,0.1,0.2s0,0.2-0.1,0.2s-0.1,0.1-0.2,0.1
		c-0.1,0-0.2,0-0.2-0.1S208,70.3,208,70.2z M208.5,74.3H208v-3.2h0.5V74.3z"/>
	<path d="M211.7,74.3v-2.1c0-0.3-0.1-0.5-0.2-0.6s-0.3-0.2-0.6-0.2c-0.3,0-0.6,0.1-0.7,0.3s-0.2,0.5-0.2,0.9v1.7h-0.5v-3.2h0.4
		l0.1,0.4h0c0.1-0.2,0.2-0.3,0.4-0.4s0.4-0.1,0.6-0.1c0.4,0,0.7,0.1,0.9,0.3s0.3,0.5,0.3,0.9v2.1H211.7z"/>
	<path d="M215.8,71.1v0.3l-0.6,0.1c0.1,0.1,0.1,0.2,0.1,0.3s0.1,0.2,0.1,0.4c0,0.3-0.1,0.6-0.3,0.8s-0.5,0.3-0.9,0.3
		c-0.1,0-0.2,0-0.3,0c-0.2,0.1-0.3,0.2-0.3,0.4c0,0.1,0,0.2,0.1,0.2s0.2,0.1,0.4,0.1h0.6c0.3,0,0.6,0.1,0.8,0.2s0.3,0.4,0.3,0.6
		c0,0.4-0.1,0.6-0.4,0.8s-0.7,0.3-1.2,0.3c-0.4,0-0.7-0.1-1-0.2s-0.3-0.4-0.3-0.7c0-0.2,0.1-0.4,0.2-0.5s0.3-0.2,0.5-0.3
		c-0.1,0-0.2-0.1-0.2-0.2c-0.1-0.1-0.1-0.2-0.1-0.3c0-0.1,0-0.2,0.1-0.3s0.2-0.2,0.3-0.3c-0.2-0.1-0.3-0.2-0.4-0.3
		c-0.1-0.2-0.2-0.4-0.2-0.6c0-0.4,0.1-0.6,0.3-0.8s0.5-0.3,0.9-0.3c0.2,0,0.3,0,0.5,0.1H215.8z M213.3,74.8c0,0.2,0.1,0.3,0.2,0.4
		s0.4,0.1,0.6,0.1c0.4,0,0.7-0.1,0.9-0.2c0.2-0.1,0.3-0.3,0.3-0.5c0-0.2-0.1-0.3-0.2-0.4s-0.3-0.1-0.6-0.1H214
		c-0.2,0-0.4,0.1-0.5,0.2S213.3,74.6,213.3,74.8z M213.5,72.1c0,0.2,0.1,0.4,0.2,0.5s0.3,0.2,0.5,0.2c0.5,0,0.7-0.2,0.7-0.7
		c0-0.5-0.2-0.7-0.7-0.7c-0.2,0-0.4,0.1-0.5,0.2S213.5,71.9,213.5,72.1z"/>
	<path d="M90.6,78.2c0.4,0,0.7,0.1,1,0.4s0.4,0.7,0.4,1.2s-0.1,0.9-0.4,1.2s-0.6,0.4-1,0.4c-0.2,0-0.4,0-0.6-0.1s-0.3-0.2-0.4-0.4h0
		l-0.1,0.4h-0.3v-4.6h0.5V78c0,0.2,0,0.5,0,0.7h0C89.8,78.4,90.2,78.2,90.6,78.2z M90.6,78.6c-0.3,0-0.6,0.1-0.7,0.3
		c-0.1,0.2-0.2,0.5-0.2,1s0.1,0.8,0.2,1s0.4,0.3,0.7,0.3c0.3,0,0.5-0.1,0.7-0.3s0.2-0.5,0.2-0.9c0-0.4-0.1-0.7-0.2-0.9
		S90.9,78.6,90.6,78.6z"/>
	<path d="M92.8,77.4c0-0.1,0-0.2,0.1-0.2s0.1-0.1,0.2-0.1c0.1,0,0.1,0,0.2,0.1s0.1,0.1,0.1,0.2s0,0.2-0.1,0.2s-0.1,0.1-0.2,0.1
		c-0.1,0-0.2,0-0.2-0.1S92.8,77.5,92.8,77.4z M93.3,81.5h-0.5v-3.2h0.5V81.5z"/>
	<path d="M96.5,81.5v-2.1c0-0.3-0.1-0.5-0.2-0.6s-0.3-0.2-0.6-0.2c-0.3,0-0.6,0.1-0.7,0.3s-0.2,0.5-0.2,0.9v1.7h-0.5v-3.2h0.4
		l0.1,0.4h0c0.1-0.2,0.2-0.3,0.4-0.4s0.4-0.1,0.6-0.1c0.4,0,0.7,0.1,0.9,0.3S97,79,97,79.4v2.1H96.5z"/>
	<path d="M100.1,80.6c0,0.3-0.1,0.5-0.3,0.7s-0.5,0.2-0.9,0.2c-0.4,0-0.8-0.1-1-0.2v-0.5c0.2,0.1,0.3,0.1,0.5,0.2s0.3,0.1,0.5,0.1
		c0.3,0,0.4,0,0.6-0.1s0.2-0.2,0.2-0.4c0-0.1-0.1-0.2-0.2-0.3s-0.3-0.2-0.6-0.3c-0.3-0.1-0.5-0.2-0.6-0.3s-0.2-0.2-0.3-0.3
		s-0.1-0.2-0.1-0.4c0-0.3,0.1-0.5,0.3-0.6s0.5-0.2,0.9-0.2c0.3,0,0.7,0.1,1,0.2l-0.2,0.4c-0.3-0.1-0.6-0.2-0.9-0.2
		c-0.2,0-0.4,0-0.5,0.1s-0.2,0.2-0.2,0.3c0,0.1,0,0.2,0.1,0.2s0.1,0.1,0.2,0.2s0.3,0.1,0.6,0.2c0.4,0.1,0.6,0.3,0.8,0.4
		S100.1,80.4,100.1,80.6z"/>
	<path d="M104.4,81.5l-0.1-0.5h0c-0.2,0.2-0.3,0.3-0.5,0.4s-0.4,0.1-0.6,0.1c-0.3,0-0.6-0.1-0.7-0.2s-0.3-0.4-0.3-0.7
		c0-0.6,0.5-1,1.6-1l0.5,0v-0.2c0-0.3-0.1-0.4-0.2-0.6s-0.3-0.2-0.5-0.2c-0.3,0-0.6,0.1-0.9,0.2l-0.1-0.4c0.2-0.1,0.3-0.2,0.5-0.2
		s0.4-0.1,0.6-0.1c0.4,0,0.7,0.1,0.9,0.3s0.3,0.4,0.3,0.8v2.2H104.4z M103.3,81.1c0.3,0,0.5-0.1,0.7-0.2s0.3-0.4,0.3-0.7v-0.3
		l-0.5,0c-0.4,0-0.7,0.1-0.8,0.2s-0.3,0.3-0.3,0.5c0,0.2,0.1,0.3,0.2,0.4S103.1,81.1,103.3,81.1z"/>
	<path d="M107.2,78.2c0.1,0,0.3,0,0.4,0l-0.1,0.5c-0.1,0-0.3,0-0.4,0c-0.3,0-0.5,0.1-0.7,0.3s-0.3,0.5-0.3,0.8v1.7h-0.5v-3.2h0.4
		l0.1,0.6h0c0.1-0.2,0.3-0.4,0.4-0.5S107,78.2,107.2,78.2z"/>
	<path d="M111,79.9c0,0.5-0.1,0.9-0.4,1.2s-0.6,0.4-1.1,0.4c-0.3,0-0.5-0.1-0.8-0.2s-0.4-0.3-0.5-0.6s-0.2-0.5-0.2-0.9
		c0-0.5,0.1-0.9,0.4-1.2s0.6-0.4,1.1-0.4c0.4,0,0.8,0.1,1.1,0.4S111,79.4,111,79.9z M108.5,79.9c0,0.4,0.1,0.7,0.2,0.9
		s0.4,0.3,0.7,0.3s0.6-0.1,0.7-0.3s0.2-0.5,0.2-0.9c0-0.4-0.1-0.7-0.2-0.9c-0.2-0.2-0.4-0.3-0.7-0.3c-0.3,0-0.6,0.1-0.7,0.3
		S108.5,79.5,108.5,79.9z"/>
	<path d="M112.3,78.3v2.1c0,0.3,0.1,0.5,0.2,0.6s0.3,0.2,0.6,0.2c0.3,0,0.6-0.1,0.7-0.3s0.2-0.5,0.2-0.9v-1.7h0.5v3.2h-0.4L114,81h0
		c-0.1,0.2-0.2,0.3-0.4,0.4s-0.4,0.1-0.6,0.1c-0.4,0-0.7-0.1-0.9-0.3s-0.3-0.5-0.3-0.9v-2.1H112.3z"/>
	<path d="M117.7,81.5v-2.1c0-0.3-0.1-0.5-0.2-0.6s-0.3-0.2-0.6-0.2c-0.3,0-0.6,0.1-0.7,0.3s-0.2,0.5-0.2,0.9v1.7h-0.5v-3.2h0.4
		l0.1,0.4h0c0.1-0.2,0.2-0.3,0.4-0.4s0.4-0.1,0.6-0.1c0.4,0,0.7,0.1,0.9,0.3s0.3,0.5,0.3,0.9v2.1H117.7z"/>
	<path d="M121.4,81L121.4,81c-0.3,0.3-0.6,0.5-1,0.5c-0.4,0-0.7-0.1-1-0.4c-0.2-0.3-0.4-0.7-0.4-1.2s0.1-0.9,0.4-1.2s0.6-0.4,1-0.4
		c0.4,0,0.8,0.2,1,0.5h0l0-0.2l0-0.2v-1.3h0.5v4.6h-0.4L121.4,81z M120.4,81.1c0.3,0,0.6-0.1,0.7-0.3c0.1-0.2,0.2-0.5,0.2-0.9v-0.1
		c0-0.5-0.1-0.8-0.2-1c-0.2-0.2-0.4-0.3-0.7-0.3c-0.3,0-0.5,0.1-0.7,0.3c-0.2,0.2-0.2,0.5-0.2,0.9c0,0.4,0.1,0.7,0.2,0.9
		S120.1,81.1,120.4,81.1z"/>
	<path d="M125.5,81.1c0.1,0,0.2,0,0.2,0s0.1,0,0.2,0v0.4c-0.1,0-0.1,0-0.2,0.1c-0.1,0-0.2,0-0.3,0c-0.6,0-0.9-0.3-0.9-1v-1.9H124
		v-0.2l0.5-0.2l0.2-0.7h0.3v0.7h0.9v0.4H125v1.9c0,0.2,0,0.3,0.1,0.4S125.3,81.1,125.5,81.1z"/>
	<path d="M128.8,81.5v-2.1c0-0.3-0.1-0.5-0.2-0.6s-0.3-0.2-0.6-0.2c-0.3,0-0.6,0.1-0.7,0.3c-0.2,0.2-0.2,0.5-0.2,0.9v1.7h-0.5v-4.6
		h0.5v1.4c0,0.2,0,0.3,0,0.4h0c0.1-0.2,0.2-0.3,0.4-0.4s0.4-0.1,0.6-0.1c0.4,0,0.7,0.1,0.9,0.3c0.2,0.2,0.3,0.5,0.3,0.9v2.1H128.8z"
		/>
	<path d="M131.6,81.5c-0.5,0-0.8-0.1-1.1-0.4s-0.4-0.7-0.4-1.2c0-0.5,0.1-0.9,0.4-1.2c0.3-0.3,0.6-0.5,1-0.5c0.4,0,0.7,0.1,1,0.4
		s0.4,0.6,0.4,1V80h-2.2c0,0.4,0.1,0.7,0.3,0.9c0.2,0.2,0.4,0.3,0.8,0.3c0.3,0,0.7-0.1,1-0.2v0.4c-0.2,0.1-0.3,0.1-0.5,0.2
		C132,81.5,131.8,81.5,131.6,81.5z M131.5,78.6c-0.3,0-0.5,0.1-0.6,0.3s-0.2,0.4-0.3,0.7h1.7c0-0.3-0.1-0.5-0.2-0.7
		C131.9,78.7,131.7,78.6,131.5,78.6z"/>
	<path d="M136.4,81.5c-0.5,0-0.8-0.1-1.1-0.4c-0.3-0.3-0.4-0.7-0.4-1.2c0-0.5,0.1-1,0.4-1.2s0.6-0.4,1.1-0.4c0.2,0,0.3,0,0.5,0
		s0.3,0.1,0.4,0.1l-0.1,0.4c-0.1,0-0.2-0.1-0.4-0.1s-0.2,0-0.3,0c-0.7,0-1,0.4-1,1.2c0,0.4,0.1,0.7,0.2,0.9c0.2,0.2,0.4,0.3,0.7,0.3
		c0.3,0,0.5-0.1,0.8-0.2v0.4C137,81.5,136.8,81.5,136.4,81.5z"/>
	<path d="M138,77.4c0-0.1,0-0.2,0.1-0.2s0.1-0.1,0.2-0.1c0.1,0,0.1,0,0.2,0.1s0.1,0.1,0.1,0.2s0,0.2-0.1,0.2s-0.1,0.1-0.2,0.1
		c-0.1,0-0.2,0-0.2-0.1S138,77.5,138,77.4z M138.5,81.5H138v-3.2h0.5V81.5z"/>
	<path d="M140.6,81.1c0.1,0,0.2,0,0.2,0s0.1,0,0.2,0v0.4c-0.1,0-0.1,0-0.2,0.1c-0.1,0-0.2,0-0.3,0c-0.6,0-0.9-0.3-0.9-1v-1.9h-0.5
		v-0.2l0.5-0.2l0.2-0.7h0.3v0.7h0.9v0.4h-0.9v1.9c0,0.2,0,0.3,0.1,0.4S140.4,81.1,140.6,81.1z"/>
	<path d="M141.1,78.3h0.5l0.7,1.8c0.2,0.4,0.3,0.7,0.3,0.9h0c0-0.1,0.1-0.3,0.2-0.5c0.1-0.2,0.3-1,0.8-2.2h0.5l-1.4,3.7
		c-0.1,0.4-0.3,0.6-0.5,0.8s-0.4,0.2-0.7,0.2c-0.1,0-0.3,0-0.4,0v-0.4c0.1,0,0.2,0,0.4,0c0.3,0,0.6-0.2,0.7-0.6l0.2-0.5L141.1,78.3z
		"/>
	<path d="M146.2,77.4c0-0.1,0-0.2,0.1-0.2s0.1-0.1,0.2-0.1c0.1,0,0.1,0,0.2,0.1s0.1,0.1,0.1,0.2s0,0.2-0.1,0.2s-0.1,0.1-0.2,0.1
		c-0.1,0-0.2,0-0.2-0.1S146.2,77.5,146.2,77.4z M146.7,81.5h-0.5v-3.2h0.5V81.5z"/>
	<path d="M150,81.5v-2.1c0-0.3-0.1-0.5-0.2-0.6s-0.3-0.2-0.6-0.2c-0.3,0-0.6,0.1-0.7,0.3s-0.2,0.5-0.2,0.9v1.7h-0.5v-3.2h0.4
		l0.1,0.4h0c0.1-0.2,0.2-0.3,0.4-0.4s0.4-0.1,0.6-0.1c0.4,0,0.7,0.1,0.9,0.3s0.3,0.5,0.3,0.9v2.1H150z"/>
	<path d="M154.3,81.5c-0.5,0-0.8-0.1-1.1-0.4c-0.3-0.3-0.4-0.7-0.4-1.2c0-0.5,0.1-1,0.4-1.2s0.6-0.4,1.1-0.4c0.2,0,0.3,0,0.5,0
		s0.3,0.1,0.4,0.1l-0.1,0.4c-0.1,0-0.2-0.1-0.4-0.1s-0.2,0-0.3,0c-0.7,0-1,0.4-1,1.2c0,0.4,0.1,0.7,0.2,0.9c0.2,0.2,0.4,0.3,0.7,0.3
		c0.3,0,0.5-0.1,0.8-0.2v0.4C154.9,81.5,154.6,81.5,154.3,81.5z"/>
	<path d="M157.2,81.5c-0.5,0-0.8-0.1-1.1-0.4s-0.4-0.7-0.4-1.2c0-0.5,0.1-0.9,0.4-1.2c0.3-0.3,0.6-0.5,1-0.5c0.4,0,0.7,0.1,1,0.4
		s0.4,0.6,0.4,1V80h-2.2c0,0.4,0.1,0.7,0.3,0.9c0.2,0.2,0.4,0.3,0.8,0.3c0.3,0,0.7-0.1,1-0.2v0.4c-0.2,0.1-0.3,0.1-0.5,0.2
		C157.6,81.5,157.4,81.5,157.2,81.5z M157.1,78.6c-0.3,0-0.5,0.1-0.6,0.3s-0.2,0.4-0.3,0.7h1.7c0-0.3-0.1-0.5-0.2-0.7
		C157.5,78.7,157.3,78.6,157.1,78.6z"/>
	<path d="M160.7,78.2c0.1,0,0.3,0,0.4,0l-0.1,0.5c-0.1,0-0.3,0-0.4,0c-0.3,0-0.5,0.1-0.7,0.3c-0.2,0.2-0.3,0.5-0.3,0.8v1.7h-0.5
		v-3.2h0.4l0.1,0.6h0c0.1-0.2,0.3-0.4,0.4-0.5S160.5,78.2,160.7,78.2z"/>
	<path d="M162.7,81.1c0.1,0,0.2,0,0.2,0s0.1,0,0.2,0v0.4c-0.1,0-0.1,0-0.2,0.1c-0.1,0-0.2,0-0.3,0c-0.6,0-0.9-0.3-0.9-1v-1.9h-0.5
		v-0.2l0.5-0.2l0.2-0.7h0.3v0.7h0.9v0.4h-0.9v1.9c0,0.2,0,0.3,0.1,0.4S162.5,81.1,162.7,81.1z"/>
	<path d="M165.8,81.5l-0.1-0.5h0c-0.2,0.2-0.3,0.3-0.5,0.4s-0.4,0.1-0.6,0.1c-0.3,0-0.6-0.1-0.7-0.2c-0.2-0.2-0.3-0.4-0.3-0.7
		c0-0.6,0.5-1,1.6-1l0.5,0v-0.2c0-0.3-0.1-0.4-0.2-0.6c-0.1-0.1-0.3-0.2-0.5-0.2c-0.3,0-0.6,0.1-0.9,0.2l-0.1-0.4
		c0.2-0.1,0.3-0.2,0.5-0.2c0.2,0,0.4-0.1,0.6-0.1c0.4,0,0.7,0.1,0.9,0.3c0.2,0.2,0.3,0.4,0.3,0.8v2.2H165.8z M164.7,81.1
		c0.3,0,0.5-0.1,0.7-0.2c0.2-0.2,0.3-0.4,0.3-0.7v-0.3l-0.5,0c-0.4,0-0.7,0.1-0.8,0.2s-0.3,0.3-0.3,0.5c0,0.2,0.1,0.3,0.2,0.4
		C164.3,81.1,164.5,81.1,164.7,81.1z"/>
	<path d="M167.1,77.4c0-0.1,0-0.2,0.1-0.2s0.1-0.1,0.2-0.1c0.1,0,0.1,0,0.2,0.1s0.1,0.1,0.1,0.2s0,0.2-0.1,0.2s-0.1,0.1-0.2,0.1
		c-0.1,0-0.2,0-0.2-0.1S167.1,77.5,167.1,77.4z M167.6,81.5h-0.5v-3.2h0.5V81.5z"/>
	<path d="M170.8,81.5v-2.1c0-0.3-0.1-0.5-0.2-0.6s-0.3-0.2-0.6-0.2c-0.3,0-0.6,0.1-0.7,0.3s-0.2,0.5-0.2,0.9v1.7h-0.5v-3.2h0.4
		l0.1,0.4h0c0.1-0.2,0.2-0.3,0.4-0.4s0.4-0.1,0.6-0.1c0.4,0,0.7,0.1,0.9,0.3s0.3,0.5,0.3,0.9v2.1H170.8z"/>
	<path d="M175.9,81.5l-0.1-0.5h0c-0.2,0.2-0.3,0.3-0.5,0.4s-0.4,0.1-0.6,0.1c-0.3,0-0.6-0.1-0.7-0.2c-0.2-0.2-0.3-0.4-0.3-0.7
		c0-0.6,0.5-1,1.6-1l0.5,0v-0.2c0-0.3-0.1-0.4-0.2-0.6c-0.1-0.1-0.3-0.2-0.5-0.2c-0.3,0-0.6,0.1-0.9,0.2l-0.1-0.4
		c0.2-0.1,0.3-0.2,0.5-0.2c0.2,0,0.4-0.1,0.6-0.1c0.4,0,0.7,0.1,0.9,0.3c0.2,0.2,0.3,0.4,0.3,0.8v2.2H175.9z M174.8,81.1
		c0.3,0,0.5-0.1,0.7-0.2c0.2-0.2,0.3-0.4,0.3-0.7v-0.3l-0.5,0c-0.4,0-0.7,0.1-0.8,0.2s-0.3,0.3-0.3,0.5c0,0.2,0.1,0.3,0.2,0.4
		C174.4,81.1,174.6,81.1,174.8,81.1z"/>
	<path d="M178.7,78.2c0.1,0,0.3,0,0.4,0l-0.1,0.5c-0.1,0-0.3,0-0.4,0c-0.3,0-0.5,0.1-0.7,0.3c-0.2,0.2-0.3,0.5-0.3,0.8v1.7h-0.5
		v-3.2h0.4l0.1,0.6h0c0.1-0.2,0.3-0.4,0.4-0.5S178.5,78.2,178.7,78.2z"/>
	<path d="M181,81.5c-0.5,0-0.8-0.1-1.1-0.4s-0.4-0.7-0.4-1.2c0-0.5,0.1-0.9,0.4-1.2c0.3-0.3,0.6-0.5,1-0.5c0.4,0,0.7,0.1,1,0.4
		s0.4,0.6,0.4,1V80H180c0,0.4,0.1,0.7,0.3,0.9c0.2,0.2,0.4,0.3,0.8,0.3c0.3,0,0.7-0.1,1-0.2v0.4c-0.2,0.1-0.3,0.1-0.5,0.2
		C181.4,81.5,181.2,81.5,181,81.5z M180.9,78.6c-0.3,0-0.5,0.1-0.6,0.3s-0.2,0.4-0.3,0.7h1.7c0-0.3-0.1-0.5-0.2-0.7
		C181.3,78.7,181.1,78.6,180.9,78.6z"/>
	<path d="M185,81.5l-0.1-0.5h0c-0.2,0.2-0.3,0.3-0.5,0.4s-0.4,0.1-0.6,0.1c-0.3,0-0.6-0.1-0.7-0.2c-0.2-0.2-0.3-0.4-0.3-0.7
		c0-0.6,0.5-1,1.6-1l0.5,0v-0.2c0-0.3-0.1-0.4-0.2-0.6c-0.1-0.1-0.3-0.2-0.5-0.2c-0.3,0-0.6,0.1-0.9,0.2l-0.1-0.4
		c0.2-0.1,0.3-0.2,0.5-0.2c0.2,0,0.4-0.1,0.6-0.1c0.4,0,0.7,0.1,0.9,0.3c0.2,0.2,0.3,0.4,0.3,0.8v2.2H185z M183.9,81.1
		c0.3,0,0.5-0.1,0.7-0.2c0.2-0.2,0.3-0.4,0.3-0.7v-0.3l-0.5,0c-0.4,0-0.7,0.1-0.8,0.2s-0.3,0.3-0.3,0.5c0,0.2,0.1,0.3,0.2,0.4
		C183.6,81.1,183.7,81.1,183.9,81.1z"/>
	<path d="M188.4,80.6c0,0.3-0.1,0.5-0.3,0.7s-0.5,0.2-0.9,0.2c-0.4,0-0.8-0.1-1-0.2v-0.5c0.2,0.1,0.3,0.1,0.5,0.2
		c0.2,0,0.3,0.1,0.5,0.1c0.3,0,0.4,0,0.6-0.1s0.2-0.2,0.2-0.4c0-0.1-0.1-0.2-0.2-0.3c-0.1-0.1-0.3-0.2-0.6-0.3
		c-0.3-0.1-0.5-0.2-0.6-0.3c-0.1-0.1-0.2-0.2-0.3-0.3c-0.1-0.1-0.1-0.2-0.1-0.4c0-0.3,0.1-0.5,0.3-0.6s0.5-0.2,0.9-0.2
		c0.3,0,0.7,0.1,1,0.2l-0.2,0.4c-0.3-0.1-0.6-0.2-0.9-0.2c-0.2,0-0.4,0-0.5,0.1s-0.2,0.2-0.2,0.3c0,0.1,0,0.2,0.1,0.2
		c0,0.1,0.1,0.1,0.2,0.2s0.3,0.1,0.6,0.2c0.4,0.1,0.6,0.3,0.8,0.4C188.4,80.2,188.4,80.4,188.4,80.6z"/>
	<path d="M189.7,80.8L189.7,80.8c0,0.3-0.1,0.5-0.2,0.7s-0.2,0.5-0.3,0.7h-0.4c0.1-0.2,0.1-0.5,0.2-0.8c0.1-0.3,0.1-0.5,0.1-0.7
		H189.7z"/>
	<path d="M93.2,88.7v-2.1c0-0.3-0.1-0.4-0.2-0.6s-0.3-0.2-0.5-0.2c-0.3,0-0.5,0.1-0.7,0.3s-0.2,0.4-0.2,0.8v1.8h-0.5v-2.1
		c0-0.3-0.1-0.4-0.2-0.6s-0.3-0.2-0.5-0.2c-0.3,0-0.5,0.1-0.7,0.3s-0.2,0.5-0.2,0.9v1.7h-0.5v-3.2h0.4l0.1,0.4h0
		c0.1-0.2,0.2-0.3,0.4-0.4s0.4-0.1,0.6-0.1c0.5,0,0.8,0.2,1,0.5h0c0.1-0.2,0.2-0.3,0.4-0.4s0.4-0.1,0.6-0.1c0.4,0,0.6,0.1,0.8,0.3
		s0.3,0.5,0.3,0.9v2.1H93.2z"/>
	<path d="M94.7,84.6c0-0.1,0-0.2,0.1-0.2s0.1-0.1,0.2-0.1c0.1,0,0.1,0,0.2,0.1s0.1,0.1,0.1,0.2s0,0.2-0.1,0.2S95,84.9,95,84.9
		c-0.1,0-0.2,0-0.2-0.1S94.7,84.7,94.7,84.6z M95.2,88.7h-0.5v-3.2h0.5V88.7z"/>
	<path d="M96.7,88.7h-0.5v-4.6h0.5V88.7z"/>
	<path d="M98.2,88.7h-0.5v-4.6h0.5V88.7z"/>
	<path d="M100.6,88.7c-0.5,0-0.8-0.1-1.1-0.4s-0.4-0.7-0.4-1.2c0-0.5,0.1-0.9,0.4-1.2s0.6-0.5,1-0.5c0.4,0,0.7,0.1,1,0.4
		s0.4,0.6,0.4,1v0.3h-2.2c0,0.4,0.1,0.7,0.3,0.9s0.4,0.3,0.8,0.3c0.3,0,0.7-0.1,1-0.2v0.4c-0.2,0.1-0.3,0.1-0.5,0.2
		S100.8,88.7,100.6,88.7z M100.5,85.8c-0.3,0-0.5,0.1-0.6,0.3s-0.2,0.4-0.3,0.7h1.7c0-0.3-0.1-0.5-0.2-0.7S100.7,85.8,100.5,85.8z"
		/>
	<path d="M104.8,88.7v-2.1c0-0.3-0.1-0.5-0.2-0.6s-0.3-0.2-0.6-0.2c-0.3,0-0.6,0.1-0.7,0.3s-0.2,0.5-0.2,0.9v1.7h-0.5v-3.2h0.4
		l0.1,0.4h0c0.1-0.2,0.2-0.3,0.4-0.4s0.4-0.1,0.6-0.1c0.4,0,0.7,0.1,0.9,0.3s0.3,0.5,0.3,0.9v2.1H104.8z"/>
	<path d="M108.5,88.7v-2.1c0-0.3-0.1-0.5-0.2-0.6s-0.3-0.2-0.6-0.2c-0.3,0-0.6,0.1-0.7,0.3s-0.2,0.5-0.2,0.9v1.7h-0.5v-3.2h0.4
		l0.1,0.4h0c0.1-0.2,0.2-0.3,0.4-0.4s0.4-0.1,0.6-0.1c0.4,0,0.7,0.1,0.9,0.3s0.3,0.5,0.3,0.9v2.1H108.5z"/>
	<path d="M110,84.6c0-0.1,0-0.2,0.1-0.2s0.1-0.1,0.2-0.1c0.1,0,0.1,0,0.2,0.1s0.1,0.1,0.1,0.2s0,0.2-0.1,0.2s-0.1,0.1-0.2,0.1
		c-0.1,0-0.2,0-0.2-0.1S110,84.7,110,84.6z M110.5,88.7H110v-3.2h0.5V88.7z"/>
	<path d="M113.5,88.7l-0.1-0.5h0c-0.2,0.2-0.3,0.3-0.5,0.4s-0.4,0.1-0.6,0.1c-0.3,0-0.6-0.1-0.7-0.2s-0.3-0.4-0.3-0.7
		c0-0.6,0.5-1,1.6-1l0.5,0v-0.2c0-0.3-0.1-0.4-0.2-0.6s-0.3-0.2-0.5-0.2c-0.3,0-0.6,0.1-0.9,0.2l-0.1-0.4c0.2-0.1,0.3-0.2,0.5-0.2
		s0.4-0.1,0.6-0.1c0.4,0,0.7,0.1,0.9,0.3s0.3,0.4,0.3,0.8v2.2H113.5z M112.4,88.3c0.3,0,0.5-0.1,0.7-0.2s0.3-0.4,0.3-0.7v-0.3
		l-0.5,0c-0.4,0-0.7,0.1-0.8,0.2s-0.3,0.3-0.3,0.5c0,0.2,0.1,0.3,0.2,0.4S112.2,88.3,112.4,88.3z"/>
	<path d="M115.3,88.7h-0.5v-4.6h0.5V88.7z"/>
	<path d="M118.4,87.8c0,0.3-0.1,0.5-0.3,0.7s-0.5,0.2-0.9,0.2c-0.4,0-0.8-0.1-1-0.2v-0.5c0.2,0.1,0.3,0.1,0.5,0.2
		c0.2,0,0.3,0.1,0.5,0.1c0.3,0,0.4,0,0.6-0.1s0.2-0.2,0.2-0.4c0-0.1-0.1-0.2-0.2-0.3c-0.1-0.1-0.3-0.2-0.6-0.3
		c-0.3-0.1-0.5-0.2-0.6-0.3c-0.1-0.1-0.2-0.2-0.3-0.3c-0.1-0.1-0.1-0.2-0.1-0.4c0-0.3,0.1-0.5,0.3-0.6s0.5-0.2,0.9-0.2
		c0.3,0,0.7,0.1,1,0.2l-0.2,0.4c-0.3-0.1-0.6-0.2-0.9-0.2c-0.2,0-0.4,0-0.5,0.1s-0.2,0.2-0.2,0.3c0,0.1,0,0.2,0.1,0.2
		c0,0.1,0.1,0.1,0.2,0.2s0.3,0.1,0.6,0.2c0.4,0.1,0.6,0.3,0.8,0.4C118.4,87.4,118.4,87.6,118.4,87.8z"/>
	<path d="M122.2,85.8h-0.8v2.8h-0.5v-2.8h-0.6v-0.2l0.6-0.2v-0.2c0-0.8,0.3-1.2,1-1.2c0.2,0,0.4,0,0.6,0.1l-0.1,0.4
		c-0.2-0.1-0.3-0.1-0.5-0.1c-0.2,0-0.3,0.1-0.4,0.2s-0.1,0.3-0.1,0.6v0.2h0.8V85.8z"/>
	<path d="M124.2,88.7c-0.5,0-0.8-0.1-1.1-0.4s-0.4-0.7-0.4-1.2c0-0.5,0.1-0.9,0.4-1.2c0.3-0.3,0.6-0.5,1-0.5c0.4,0,0.7,0.1,1,0.4
		s0.4,0.6,0.4,1v0.3h-2.2c0,0.4,0.1,0.7,0.3,0.9c0.2,0.2,0.4,0.3,0.8,0.3c0.3,0,0.7-0.1,1-0.2v0.4c-0.2,0.1-0.3,0.1-0.5,0.2
		C124.6,88.7,124.4,88.7,124.2,88.7z M124,85.8c-0.3,0-0.5,0.1-0.6,0.3s-0.2,0.4-0.3,0.7h1.7c0-0.3-0.1-0.5-0.2-0.7
		S124.3,85.8,124,85.8z"/>
	<path d="M127.5,88.7c-0.5,0-0.8-0.1-1.1-0.4s-0.4-0.7-0.4-1.2c0-0.5,0.1-0.9,0.4-1.2c0.3-0.3,0.6-0.5,1-0.5c0.4,0,0.7,0.1,1,0.4
		s0.4,0.6,0.4,1v0.3h-2.2c0,0.4,0.1,0.7,0.3,0.9c0.2,0.2,0.4,0.3,0.8,0.3c0.3,0,0.7-0.1,1-0.2v0.4c-0.2,0.1-0.3,0.1-0.5,0.2
		C127.9,88.7,127.8,88.7,127.5,88.7z M127.4,85.8c-0.3,0-0.5,0.1-0.6,0.3s-0.2,0.4-0.3,0.7h1.7c0-0.3-0.1-0.5-0.2-0.7
		S127.7,85.8,127.4,85.8z"/>
	<path d="M130,88.7h-0.5v-4.6h0.5V88.7z"/>
	<path d="M133.7,88.3c0.1,0,0.2,0,0.2,0s0.1,0,0.2,0v0.4c-0.1,0-0.1,0-0.2,0.1c-0.1,0-0.2,0-0.3,0c-0.6,0-0.9-0.3-0.9-1v-1.9h-0.5
		v-0.2l0.5-0.2l0.2-0.7h0.3v0.7h0.9v0.4h-0.9v1.9c0,0.2,0,0.3,0.1,0.4S133.5,88.3,133.7,88.3z"/>
	<path d="M136.9,88.7v-2.1c0-0.3-0.1-0.5-0.2-0.6s-0.3-0.2-0.6-0.2c-0.3,0-0.6,0.1-0.7,0.3c-0.2,0.2-0.2,0.5-0.2,0.9v1.7h-0.5v-4.6
		h0.5v1.4c0,0.2,0,0.3,0,0.4h0c0.1-0.2,0.2-0.3,0.4-0.4s0.4-0.1,0.6-0.1c0.4,0,0.7,0.1,0.9,0.3c0.2,0.2,0.3,0.5,0.3,0.9v2.1H136.9z"
		/>
	<path d="M140.4,88.7l-0.1-0.5h0c-0.2,0.2-0.3,0.3-0.5,0.4s-0.4,0.1-0.6,0.1c-0.3,0-0.6-0.1-0.7-0.2c-0.2-0.2-0.3-0.4-0.3-0.7
		c0-0.6,0.5-1,1.6-1l0.5,0v-0.2c0-0.3-0.1-0.4-0.2-0.6c-0.1-0.1-0.3-0.2-0.5-0.2c-0.3,0-0.6,0.1-0.9,0.2l-0.1-0.4
		c0.2-0.1,0.3-0.2,0.5-0.2c0.2,0,0.4-0.1,0.6-0.1c0.4,0,0.7,0.1,0.9,0.3c0.2,0.2,0.3,0.4,0.3,0.8v2.2H140.4z M139.3,88.3
		c0.3,0,0.5-0.1,0.7-0.2c0.2-0.2,0.3-0.4,0.3-0.7v-0.3l-0.5,0c-0.4,0-0.7,0.1-0.8,0.2s-0.3,0.3-0.3,0.5c0,0.2,0.1,0.3,0.2,0.4
		C139,88.3,139.1,88.3,139.3,88.3z"/>
	<path d="M142.8,88.3c0.1,0,0.2,0,0.2,0s0.1,0,0.2,0v0.4c-0.1,0-0.1,0-0.2,0.1c-0.1,0-0.2,0-0.3,0c-0.6,0-0.9-0.3-0.9-1v-1.9h-0.5
		v-0.2l0.5-0.2l0.2-0.7h0.3v0.7h0.9v0.4h-0.9v1.9c0,0.2,0,0.3,0.1,0.4S142.6,88.3,142.8,88.3z"/>
	<path d="M146.9,85.4c0.4,0,0.7,0.1,1,0.4s0.4,0.7,0.4,1.2s-0.1,0.9-0.4,1.2c-0.2,0.3-0.6,0.4-1,0.4c-0.2,0-0.4,0-0.6-0.1
		c-0.2-0.1-0.3-0.2-0.4-0.4h0l-0.1,0.4h-0.3v-4.6h0.5v1.1c0,0.2,0,0.5,0,0.7h0C146.2,85.6,146.5,85.4,146.9,85.4z M146.9,85.8
		c-0.3,0-0.6,0.1-0.7,0.3s-0.2,0.5-0.2,1s0.1,0.8,0.2,1s0.4,0.3,0.7,0.3c0.3,0,0.5-0.1,0.7-0.3s0.2-0.5,0.2-0.9
		c0-0.4-0.1-0.7-0.2-0.9S147.2,85.8,146.9,85.8z"/>
	<path d="M150.5,88.7c-0.5,0-0.8-0.1-1.1-0.4s-0.4-0.7-0.4-1.2c0-0.5,0.1-0.9,0.4-1.2c0.3-0.3,0.6-0.5,1-0.5c0.4,0,0.7,0.1,1,0.4
		s0.4,0.6,0.4,1v0.3h-2.2c0,0.4,0.1,0.7,0.3,0.9c0.2,0.2,0.4,0.3,0.8,0.3c0.3,0,0.7-0.1,1-0.2v0.4c-0.2,0.1-0.3,0.1-0.5,0.2
		C150.9,88.7,150.7,88.7,150.5,88.7z M150.3,85.8c-0.3,0-0.5,0.1-0.6,0.3s-0.2,0.4-0.3,0.7h1.7c0-0.3-0.1-0.5-0.2-0.7
		S150.6,85.8,150.3,85.8z"/>
	<path d="M153.8,88.7c-0.5,0-0.8-0.1-1.1-0.4c-0.3-0.3-0.4-0.7-0.4-1.2c0-0.5,0.1-1,0.4-1.2s0.6-0.4,1.1-0.4c0.2,0,0.3,0,0.5,0
		s0.3,0.1,0.4,0.1l-0.1,0.4c-0.1,0-0.2-0.1-0.4-0.1s-0.2,0-0.3,0c-0.7,0-1,0.4-1,1.2c0,0.4,0.1,0.7,0.2,0.9c0.2,0.2,0.4,0.3,0.7,0.3
		c0.3,0,0.5-0.1,0.8-0.2v0.4C154.4,88.7,154.1,88.7,153.8,88.7z"/>
	<path d="M157.3,88.7l-0.1-0.5h0c-0.2,0.2-0.3,0.3-0.5,0.4s-0.4,0.1-0.6,0.1c-0.3,0-0.6-0.1-0.7-0.2c-0.2-0.2-0.3-0.4-0.3-0.7
		c0-0.6,0.5-1,1.6-1l0.5,0v-0.2c0-0.3-0.1-0.4-0.2-0.6c-0.1-0.1-0.3-0.2-0.5-0.2c-0.3,0-0.6,0.1-0.9,0.2l-0.1-0.4
		c0.2-0.1,0.3-0.2,0.5-0.2c0.2,0,0.4-0.1,0.6-0.1c0.4,0,0.7,0.1,0.9,0.3c0.2,0.2,0.3,0.4,0.3,0.8v2.2H157.3z M156.2,88.3
		c0.3,0,0.5-0.1,0.7-0.2c0.2-0.2,0.3-0.4,0.3-0.7v-0.3l-0.5,0c-0.4,0-0.7,0.1-0.8,0.2s-0.3,0.3-0.3,0.5c0,0.2,0.1,0.3,0.2,0.4
		C155.9,88.3,156,88.3,156.2,88.3z"/>
	<path d="M159.1,85.5v2.1c0,0.3,0.1,0.5,0.2,0.6s0.3,0.2,0.6,0.2c0.3,0,0.6-0.1,0.7-0.3c0.2-0.2,0.2-0.5,0.2-0.9v-1.7h0.5v3.2h-0.4
		l-0.1-0.4h0c-0.1,0.2-0.2,0.3-0.4,0.4s-0.4,0.1-0.6,0.1c-0.4,0-0.7-0.1-0.9-0.3s-0.3-0.5-0.3-0.9v-2.1H159.1z"/>
	<path d="M164.4,87.8c0,0.3-0.1,0.5-0.3,0.7s-0.5,0.2-0.9,0.2c-0.4,0-0.8-0.1-1-0.2v-0.5c0.2,0.1,0.3,0.1,0.5,0.2
		c0.2,0,0.3,0.1,0.5,0.1c0.3,0,0.4,0,0.6-0.1s0.2-0.2,0.2-0.4c0-0.1-0.1-0.2-0.2-0.3c-0.1-0.1-0.3-0.2-0.6-0.3
		c-0.3-0.1-0.5-0.2-0.6-0.3c-0.1-0.1-0.2-0.2-0.3-0.3c-0.1-0.1-0.1-0.2-0.1-0.4c0-0.3,0.1-0.5,0.3-0.6s0.5-0.2,0.9-0.2
		c0.3,0,0.7,0.1,1,0.2l-0.2,0.4c-0.3-0.1-0.6-0.2-0.9-0.2c-0.2,0-0.4,0-0.5,0.1s-0.2,0.2-0.2,0.3c0,0.1,0,0.2,0.1,0.2
		c0,0.1,0.1,0.1,0.2,0.2s0.3,0.1,0.6,0.2c0.4,0.1,0.6,0.3,0.8,0.4C164.4,87.4,164.4,87.6,164.4,87.8z"/>
	<path d="M166.6,88.7c-0.5,0-0.8-0.1-1.1-0.4s-0.4-0.7-0.4-1.2c0-0.5,0.1-0.9,0.4-1.2c0.3-0.3,0.6-0.5,1-0.5c0.4,0,0.7,0.1,1,0.4
		s0.4,0.6,0.4,1v0.3h-2.2c0,0.4,0.1,0.7,0.3,0.9c0.2,0.2,0.4,0.3,0.8,0.3c0.3,0,0.7-0.1,1-0.2v0.4c-0.2,0.1-0.3,0.1-0.5,0.2
		C167,88.7,166.8,88.7,166.6,88.7z M166.4,85.8c-0.3,0-0.5,0.1-0.6,0.3s-0.2,0.4-0.3,0.7h1.7c0-0.3-0.1-0.5-0.2-0.7
		S166.7,85.8,166.4,85.8z"/>
	<path d="M171.6,85.4c0.4,0,0.7,0.1,1,0.4s0.4,0.7,0.4,1.2s-0.1,0.9-0.4,1.2c-0.2,0.3-0.6,0.4-1,0.4c-0.2,0-0.4,0-0.6-0.1
		c-0.2-0.1-0.3-0.2-0.4-0.4h0l-0.1,0.4h-0.3v-4.6h0.5v1.1c0,0.2,0,0.5,0,0.7h0C170.9,85.6,171.2,85.4,171.6,85.4z M171.6,85.8
		c-0.3,0-0.6,0.1-0.7,0.3s-0.2,0.5-0.2,1s0.1,0.8,0.2,1s0.4,0.3,0.7,0.3c0.3,0,0.5-0.1,0.7-0.3s0.2-0.5,0.2-0.9
		c0-0.4-0.1-0.7-0.2-0.9S171.9,85.8,171.6,85.8z"/>
	<path d="M173.8,84.6c0-0.1,0-0.2,0.1-0.2s0.1-0.1,0.2-0.1c0.1,0,0.1,0,0.2,0.1s0.1,0.1,0.1,0.2s0,0.2-0.1,0.2s-0.1,0.1-0.2,0.1
		c-0.1,0-0.2,0-0.2-0.1S173.8,84.7,173.8,84.6z M174.3,88.7h-0.5v-3.2h0.5V88.7z"/>
	<path d="M177.5,88.7v-2.1c0-0.3-0.1-0.5-0.2-0.6s-0.3-0.2-0.6-0.2c-0.3,0-0.6,0.1-0.7,0.3s-0.2,0.5-0.2,0.9v1.7h-0.5v-3.2h0.4
		l0.1,0.4h0c0.1-0.2,0.2-0.3,0.4-0.4s0.4-0.1,0.6-0.1c0.4,0,0.7,0.1,0.9,0.3s0.3,0.5,0.3,0.9v2.1H177.5z"/>
	<path d="M181.1,87.8c0,0.3-0.1,0.5-0.3,0.7s-0.5,0.2-0.9,0.2c-0.4,0-0.8-0.1-1-0.2v-0.5c0.2,0.1,0.3,0.1,0.5,0.2
		c0.2,0,0.3,0.1,0.5,0.1c0.3,0,0.4,0,0.6-0.1s0.2-0.2,0.2-0.4c0-0.1-0.1-0.2-0.2-0.3c-0.1-0.1-0.3-0.2-0.6-0.3
		c-0.3-0.1-0.5-0.2-0.6-0.3c-0.1-0.1-0.2-0.2-0.3-0.3c-0.1-0.1-0.1-0.2-0.1-0.4c0-0.3,0.1-0.5,0.3-0.6s0.5-0.2,0.9-0.2
		c0.3,0,0.7,0.1,1,0.2l-0.2,0.4c-0.3-0.1-0.6-0.2-0.9-0.2c-0.2,0-0.4,0-0.5,0.1s-0.2,0.2-0.2,0.3c0,0.1,0,0.2,0.1,0.2
		c0,0.1,0.1,0.1,0.2,0.2s0.3,0.1,0.6,0.2c0.4,0.1,0.6,0.3,0.8,0.4C181,87.4,181.1,87.6,181.1,87.8z"/>
	<path d="M185.4,88.7l-0.1-0.5h0c-0.2,0.2-0.3,0.3-0.5,0.4s-0.4,0.1-0.6,0.1c-0.3,0-0.6-0.1-0.7-0.2c-0.2-0.2-0.3-0.4-0.3-0.7
		c0-0.6,0.5-1,1.6-1l0.5,0v-0.2c0-0.3-0.1-0.4-0.2-0.6c-0.1-0.1-0.3-0.2-0.5-0.2c-0.3,0-0.6,0.1-0.9,0.2l-0.1-0.4
		c0.2-0.1,0.3-0.2,0.5-0.2c0.2,0,0.4-0.1,0.6-0.1c0.4,0,0.7,0.1,0.9,0.3c0.2,0.2,0.3,0.4,0.3,0.8v2.2H185.4z M184.3,88.3
		c0.3,0,0.5-0.1,0.7-0.2c0.2-0.2,0.3-0.4,0.3-0.7v-0.3l-0.5,0c-0.4,0-0.7,0.1-0.8,0.2s-0.3,0.3-0.3,0.5c0,0.2,0.1,0.3,0.2,0.4
		C184,88.3,184.1,88.3,184.3,88.3z"/>
	<path d="M188.2,85.4c0.1,0,0.3,0,0.4,0l-0.1,0.5c-0.1,0-0.3,0-0.4,0c-0.3,0-0.5,0.1-0.7,0.3c-0.2,0.2-0.3,0.5-0.3,0.8v1.7h-0.5
		v-3.2h0.4l0.1,0.6h0c0.1-0.2,0.3-0.4,0.4-0.5S188,85.4,188.2,85.4z"/>
	<path d="M190.6,88.7c-0.5,0-0.8-0.1-1.1-0.4s-0.4-0.7-0.4-1.2c0-0.5,0.1-0.9,0.4-1.2c0.3-0.3,0.6-0.5,1-0.5c0.4,0,0.7,0.1,1,0.4
		s0.4,0.6,0.4,1v0.3h-2.2c0,0.4,0.1,0.7,0.3,0.9c0.2,0.2,0.4,0.3,0.8,0.3c0.3,0,0.7-0.1,1-0.2v0.4c-0.2,0.1-0.3,0.1-0.5,0.2
		C191,88.7,190.8,88.7,190.6,88.7z M190.5,85.8c-0.3,0-0.5,0.1-0.6,0.3s-0.2,0.4-0.3,0.7h1.7c0-0.3-0.1-0.5-0.2-0.7
		S190.7,85.8,190.5,85.8z"/>
	<path d="M196.4,88.7v-2.1c0-0.3-0.1-0.5-0.2-0.6s-0.3-0.2-0.6-0.2c-0.3,0-0.6,0.1-0.7,0.3s-0.2,0.5-0.2,0.9v1.7h-0.5v-3.2h0.4
		l0.1,0.4h0c0.1-0.2,0.2-0.3,0.4-0.4s0.4-0.1,0.6-0.1c0.4,0,0.7,0.1,0.9,0.3s0.3,0.5,0.3,0.9v2.1H196.4z"/>
	<path d="M200.6,87.1c0,0.5-0.1,0.9-0.4,1.2s-0.6,0.4-1.1,0.4c-0.3,0-0.5-0.1-0.8-0.2s-0.4-0.3-0.5-0.6s-0.2-0.5-0.2-0.9
		c0-0.5,0.1-0.9,0.4-1.2s0.6-0.4,1.1-0.4c0.4,0,0.8,0.1,1.1,0.4C200.5,86.2,200.6,86.6,200.6,87.1z M198.2,87.1
		c0,0.4,0.1,0.7,0.2,0.9s0.4,0.3,0.7,0.3s0.6-0.1,0.7-0.3s0.2-0.5,0.2-0.9c0-0.4-0.1-0.7-0.2-0.9s-0.4-0.3-0.7-0.3
		c-0.3,0-0.6,0.1-0.7,0.3S198.2,86.7,198.2,87.1z"/>
	<path d="M202.5,88.3c0.1,0,0.2,0,0.2,0s0.1,0,0.2,0v0.4c-0.1,0-0.1,0-0.2,0.1c-0.1,0-0.2,0-0.3,0c-0.6,0-0.9-0.3-0.9-1v-1.9H201
		v-0.2l0.5-0.2l0.2-0.7h0.3v0.7h0.9v0.4H202v1.9c0,0.2,0,0.3,0.1,0.4S202.3,88.3,202.5,88.3z"/>
	<path d="M88.7,93.1L88.7,93.1c0-0.2,0.1-0.5,0.2-0.7s0.2-0.5,0.3-0.7h0.4c-0.1,0.5-0.2,1-0.3,1.5H88.7z M89.8,93.1L89.8,93.1
		c0.1-0.5,0.2-1,0.5-1.5h0.4c-0.1,0.2-0.1,0.5-0.2,0.8c-0.1,0.3-0.1,0.5-0.1,0.7H89.8z"/>
	<path d="M92.7,92.6c0.1,0,0.3,0,0.4,0L93,93.1c-0.1,0-0.3,0-0.4,0c-0.3,0-0.5,0.1-0.7,0.3s-0.3,0.5-0.3,0.8v1.7h-0.5v-3.2h0.4
		l0.1,0.6h0c0.1-0.2,0.3-0.4,0.4-0.5S92.5,92.6,92.7,92.6z"/>
	<path d="M95,95.9c-0.5,0-0.8-0.1-1.1-0.4s-0.4-0.7-0.4-1.2c0-0.5,0.1-0.9,0.4-1.2s0.6-0.5,1-0.5c0.4,0,0.7,0.1,1,0.4
		c0.2,0.3,0.4,0.6,0.4,1v0.3H94c0,0.4,0.1,0.7,0.3,0.9s0.4,0.3,0.8,0.3c0.3,0,0.7-0.1,1-0.2v0.4c-0.2,0.1-0.3,0.1-0.5,0.2
		C95.4,95.9,95.2,95.9,95,95.9z M94.9,93c-0.3,0-0.5,0.1-0.6,0.3S94,93.7,94,94h1.7c0-0.3-0.1-0.5-0.2-0.7S95.2,93,94.9,93z"/>
	<path d="M99,95.9l-0.1-0.5h0c-0.2,0.2-0.3,0.3-0.5,0.4c-0.2,0.1-0.4,0.1-0.6,0.1c-0.3,0-0.6-0.1-0.7-0.2s-0.3-0.4-0.3-0.7
		c0-0.6,0.5-1,1.6-1l0.5,0v-0.2c0-0.3-0.1-0.4-0.2-0.6c-0.1-0.1-0.3-0.2-0.5-0.2c-0.3,0-0.6,0.1-0.9,0.2l-0.1-0.4
		c0.2-0.1,0.3-0.2,0.5-0.2s0.4-0.1,0.6-0.1c0.4,0,0.7,0.1,0.9,0.3s0.3,0.4,0.3,0.8v2.2H99z M97.9,95.5c0.3,0,0.5-0.1,0.7-0.2
		s0.3-0.4,0.3-0.7v-0.3l-0.5,0c-0.4,0-0.7,0.1-0.8,0.2c-0.2,0.1-0.3,0.3-0.3,0.5c0,0.2,0.1,0.3,0.2,0.4S97.7,95.5,97.9,95.5z"/>
	<path d="M102.6,95.4L102.6,95.4c-0.3,0.3-0.6,0.5-1,0.5c-0.4,0-0.7-0.1-1-0.4s-0.4-0.7-0.4-1.2s0.1-0.9,0.4-1.2s0.6-0.4,1-0.4
		c0.4,0,0.8,0.2,1,0.5h0l0-0.2l0-0.2v-1.3h0.5v4.6h-0.4L102.6,95.4z M101.6,95.5c0.3,0,0.6-0.1,0.7-0.3s0.2-0.5,0.2-0.9v-0.1
		c0-0.5-0.1-0.8-0.2-1s-0.4-0.3-0.7-0.3c-0.3,0-0.5,0.1-0.7,0.3s-0.2,0.5-0.2,0.9c0,0.4,0.1,0.7,0.2,0.9S101.3,95.5,101.6,95.5z"/>
	<path d="M104,91.8c0-0.1,0-0.2,0.1-0.2c0.1-0.1,0.1-0.1,0.2-0.1c0.1,0,0.1,0,0.2,0.1s0.1,0.1,0.1,0.2s0,0.2-0.1,0.2
		s-0.1,0.1-0.2,0.1c-0.1,0-0.2,0-0.2-0.1S104,91.9,104,91.8z M104.5,95.9h-0.5v-3.2h0.5V95.9z"/>
	<path d="M106.1,95.9h-0.5v-4.6h0.5V95.9z"/>
	<path d="M106.6,92.7h0.5l0.7,1.8c0.2,0.4,0.3,0.7,0.3,0.9h0c0-0.1,0.1-0.3,0.2-0.5c0.1-0.2,0.3-1,0.8-2.2h0.5l-1.4,3.7
		c-0.1,0.4-0.3,0.6-0.5,0.8c-0.2,0.2-0.4,0.2-0.7,0.2c-0.1,0-0.3,0-0.4,0v-0.4c0.1,0,0.2,0,0.4,0c0.3,0,0.6-0.2,0.7-0.6l0.2-0.5
		L106.6,92.7z"/>
	<path d="M113.6,95.9l-0.1-0.5h0c-0.2,0.2-0.3,0.3-0.5,0.4c-0.2,0.1-0.4,0.1-0.6,0.1c-0.3,0-0.6-0.1-0.7-0.2s-0.3-0.4-0.3-0.7
		c0-0.6,0.5-1,1.6-1l0.5,0v-0.2c0-0.3-0.1-0.4-0.2-0.6c-0.1-0.1-0.3-0.2-0.5-0.2c-0.3,0-0.6,0.1-0.9,0.2l-0.1-0.4
		c0.2-0.1,0.3-0.2,0.5-0.2s0.4-0.1,0.6-0.1c0.4,0,0.7,0.1,0.9,0.3s0.3,0.4,0.3,0.8v2.2H113.6z M112.5,95.5c0.3,0,0.5-0.1,0.7-0.2
		s0.3-0.4,0.3-0.7v-0.3l-0.5,0c-0.4,0-0.7,0.1-0.8,0.2c-0.2,0.1-0.3,0.3-0.3,0.5c0,0.2,0.1,0.3,0.2,0.4S112.4,95.5,112.5,95.5z"/>
	<path d="M115.7,95.9l-1.2-3.2h0.5l0.7,1.9c0.2,0.4,0.2,0.7,0.3,0.9h0c0-0.1,0.1-0.3,0.2-0.6c0.1-0.3,0.4-1,0.8-2.1h0.5l-1.2,3.2
		H115.7z"/>
	<path d="M120,95.9l-0.1-0.5h0c-0.2,0.2-0.3,0.3-0.5,0.4c-0.2,0.1-0.4,0.1-0.6,0.1c-0.3,0-0.6-0.1-0.7-0.2c-0.2-0.2-0.3-0.4-0.3-0.7
		c0-0.6,0.5-1,1.6-1l0.5,0v-0.2c0-0.3-0.1-0.4-0.2-0.6c-0.1-0.1-0.3-0.2-0.5-0.2c-0.3,0-0.6,0.1-0.9,0.2l-0.1-0.4
		c0.2-0.1,0.3-0.2,0.5-0.2c0.2,0,0.4-0.1,0.6-0.1c0.4,0,0.7,0.1,0.9,0.3c0.2,0.2,0.3,0.4,0.3,0.8v2.2H120z M118.9,95.5
		c0.3,0,0.5-0.1,0.7-0.2c0.2-0.2,0.3-0.4,0.3-0.7v-0.3l-0.5,0c-0.4,0-0.7,0.1-0.8,0.2c-0.2,0.1-0.3,0.3-0.3,0.5
		c0,0.2,0.1,0.3,0.2,0.4C118.6,95.5,118.7,95.5,118.9,95.5z"/>
	<path d="M121.3,91.8c0-0.1,0-0.2,0.1-0.2c0.1-0.1,0.1-0.1,0.2-0.1c0.1,0,0.1,0,0.2,0.1s0.1,0.1,0.1,0.2s0,0.2-0.1,0.2
		s-0.1,0.1-0.2,0.1c-0.1,0-0.2,0-0.2-0.1S121.3,91.9,121.3,91.8z M121.8,95.9h-0.5v-3.2h0.5V95.9z"/>
	<path d="M123.4,95.9h-0.5v-4.6h0.5V95.9z"/>
	<path d="M126.4,95.9l-0.1-0.5h0c-0.2,0.2-0.3,0.3-0.5,0.4c-0.2,0.1-0.4,0.1-0.6,0.1c-0.3,0-0.6-0.1-0.7-0.2
		c-0.2-0.2-0.3-0.4-0.3-0.7c0-0.6,0.5-1,1.6-1l0.5,0v-0.2c0-0.3-0.1-0.4-0.2-0.6c-0.1-0.1-0.3-0.2-0.5-0.2c-0.3,0-0.6,0.1-0.9,0.2
		l-0.1-0.4c0.2-0.1,0.3-0.2,0.5-0.2c0.2,0,0.4-0.1,0.6-0.1c0.4,0,0.7,0.1,0.9,0.3c0.2,0.2,0.3,0.4,0.3,0.8v2.2H126.4z M125.3,95.5
		c0.3,0,0.5-0.1,0.7-0.2c0.2-0.2,0.3-0.4,0.3-0.7v-0.3l-0.5,0c-0.4,0-0.7,0.1-0.8,0.2c-0.2,0.1-0.3,0.3-0.3,0.5
		c0,0.2,0.1,0.3,0.2,0.4C124.9,95.5,125.1,95.5,125.3,95.5z"/>
	<path d="M129.2,92.6c0.4,0,0.7,0.1,1,0.4c0.2,0.3,0.4,0.7,0.4,1.2s-0.1,0.9-0.4,1.2c-0.2,0.3-0.6,0.4-1,0.4c-0.2,0-0.4,0-0.6-0.1
		c-0.2-0.1-0.3-0.2-0.4-0.4h0l-0.1,0.4h-0.3v-4.6h0.5v1.1c0,0.2,0,0.5,0,0.7h0C128.4,92.8,128.8,92.6,129.2,92.6z M129.1,93
		c-0.3,0-0.6,0.1-0.7,0.3c-0.1,0.2-0.2,0.5-0.2,1s0.1,0.8,0.2,1c0.2,0.2,0.4,0.3,0.7,0.3c0.3,0,0.5-0.1,0.7-0.3
		c0.1-0.2,0.2-0.5,0.2-0.9c0-0.4-0.1-0.7-0.2-0.9S129.5,93,129.1,93z"/>
	<path d="M131.9,95.9h-0.5v-4.6h0.5V95.9z"/>
	<path d="M134.3,95.9c-0.5,0-0.8-0.1-1.1-0.4s-0.4-0.7-0.4-1.2c0-0.5,0.1-0.9,0.4-1.2c0.3-0.3,0.6-0.5,1-0.5c0.4,0,0.7,0.1,1,0.4
		c0.2,0.3,0.4,0.6,0.4,1v0.3h-2.2c0,0.4,0.1,0.7,0.3,0.9c0.2,0.2,0.4,0.3,0.8,0.3c0.3,0,0.7-0.1,1-0.2v0.4c-0.2,0.1-0.3,0.1-0.5,0.2
		C134.7,95.9,134.5,95.9,134.3,95.9z M134.1,93c-0.3,0-0.5,0.1-0.6,0.3s-0.2,0.4-0.3,0.7h1.7c0-0.3-0.1-0.5-0.2-0.7
		S134.4,93,134.1,93z"/>
	<path d="M136.7,91.6L136.7,91.6c0,0.3-0.1,0.5-0.2,0.7s-0.2,0.5-0.3,0.7h-0.4c0.1-0.6,0.2-1,0.3-1.5H136.7z M137.8,91.6L137.8,91.6
		c0,0.2-0.1,0.5-0.2,0.7s-0.2,0.5-0.3,0.7h-0.4c0.1-0.2,0.1-0.4,0.2-0.7s0.1-0.5,0.1-0.7H137.8z"/>
	<path d="M138.9,95.2L138.9,95.2c0,0.3-0.1,0.5-0.2,0.7c-0.1,0.3-0.2,0.5-0.3,0.7h-0.4c0.1-0.2,0.1-0.5,0.2-0.8
		c0.1-0.3,0.1-0.5,0.1-0.7H138.9z"/>
	<path d="M142.5,95.5c0.1,0,0.2,0,0.2,0s0.1,0,0.2,0v0.4c-0.1,0-0.1,0-0.2,0.1c-0.1,0-0.2,0-0.3,0c-0.6,0-0.9-0.3-0.9-1V93H141v-0.2
		l0.5-0.2l0.2-0.7h0.3v0.7h0.9V93h-0.9v1.9c0,0.2,0,0.3,0.1,0.4S142.3,95.5,142.5,95.5z"/>
	<path d="M145.7,95.9v-2.1c0-0.3-0.1-0.5-0.2-0.6S145.2,93,145,93c-0.3,0-0.6,0.1-0.7,0.3c-0.2,0.2-0.2,0.5-0.2,0.9v1.7h-0.5v-4.6
		h0.5v1.4c0,0.2,0,0.3,0,0.4h0c0.1-0.2,0.2-0.3,0.4-0.4c0.2-0.1,0.4-0.1,0.6-0.1c0.4,0,0.7,0.1,0.9,0.3c0.2,0.2,0.3,0.5,0.3,0.9v2.1
		H145.7z"/>
	<path d="M148.6,95.9c-0.5,0-0.8-0.1-1.1-0.4s-0.4-0.7-0.4-1.2c0-0.5,0.1-0.9,0.4-1.2c0.3-0.3,0.6-0.5,1-0.5c0.4,0,0.7,0.1,1,0.4
		c0.2,0.3,0.4,0.6,0.4,1v0.3h-2.2c0,0.4,0.1,0.7,0.3,0.9c0.2,0.2,0.4,0.3,0.8,0.3c0.3,0,0.7-0.1,1-0.2v0.4c-0.2,0.1-0.3,0.1-0.5,0.2
		C149,95.9,148.8,95.9,148.6,95.9z M148.4,93c-0.3,0-0.5,0.1-0.6,0.3s-0.2,0.4-0.3,0.7h1.7c0-0.3-0.1-0.5-0.2-0.7S148.7,93,148.4,93
		z"/>
	<path d="M150.1,92.7h0.5l0.7,1.8c0.2,0.4,0.3,0.7,0.3,0.9h0c0-0.1,0.1-0.3,0.2-0.5c0.1-0.2,0.3-1,0.8-2.2h0.5l-1.4,3.7
		c-0.1,0.4-0.3,0.6-0.5,0.8c-0.2,0.2-0.4,0.2-0.7,0.2c-0.1,0-0.3,0-0.4,0v-0.4c0.1,0,0.2,0,0.4,0c0.3,0,0.6-0.2,0.7-0.6l0.2-0.5
		L150.1,92.7z"/>
	<path d="M155.7,95.9h-0.5v-4.6h0.5V95.9z"/>
	<path d="M159.5,94.3c0,0.5-0.1,0.9-0.4,1.2c-0.3,0.3-0.6,0.4-1.1,0.4c-0.3,0-0.5-0.1-0.8-0.2s-0.4-0.3-0.5-0.6s-0.2-0.5-0.2-0.9
		c0-0.5,0.1-0.9,0.4-1.2c0.3-0.3,0.6-0.4,1.1-0.4c0.4,0,0.8,0.1,1.1,0.4C159.3,93.4,159.5,93.8,159.5,94.3z M157,94.3
		c0,0.4,0.1,0.7,0.2,0.9s0.4,0.3,0.7,0.3s0.6-0.1,0.7-0.3c0.2-0.2,0.2-0.5,0.2-0.9c0-0.4-0.1-0.7-0.2-0.9c-0.2-0.2-0.4-0.3-0.7-0.3
		c-0.3,0-0.6,0.1-0.7,0.3S157,93.9,157,94.3z"/>
	<path d="M162.4,95c0,0.3-0.1,0.5-0.3,0.7s-0.5,0.2-0.9,0.2c-0.4,0-0.8-0.1-1-0.2v-0.5c0.2,0.1,0.3,0.1,0.5,0.2
		c0.2,0,0.3,0.1,0.5,0.1c0.3,0,0.4,0,0.6-0.1c0.1-0.1,0.2-0.2,0.2-0.4c0-0.1-0.1-0.2-0.2-0.3c-0.1-0.1-0.3-0.2-0.6-0.3
		c-0.3-0.1-0.5-0.2-0.6-0.3c-0.1-0.1-0.2-0.2-0.3-0.3c-0.1-0.1-0.1-0.2-0.1-0.4c0-0.3,0.1-0.5,0.3-0.6c0.2-0.2,0.5-0.2,0.9-0.2
		c0.3,0,0.7,0.1,1,0.2l-0.2,0.4c-0.3-0.1-0.6-0.2-0.9-0.2c-0.2,0-0.4,0-0.5,0.1s-0.2,0.2-0.2,0.3c0,0.1,0,0.2,0.1,0.2
		c0,0.1,0.1,0.1,0.2,0.2s0.3,0.1,0.6,0.2c0.4,0.1,0.6,0.3,0.8,0.4C162.3,94.6,162.4,94.8,162.4,95z"/>
	<path d="M164.5,95.9c-0.5,0-0.8-0.1-1.1-0.4s-0.4-0.7-0.4-1.2c0-0.5,0.1-0.9,0.4-1.2c0.3-0.3,0.6-0.5,1-0.5c0.4,0,0.7,0.1,1,0.4
		c0.2,0.3,0.4,0.6,0.4,1v0.3h-2.2c0,0.4,0.1,0.7,0.3,0.9c0.2,0.2,0.4,0.3,0.8,0.3c0.3,0,0.7-0.1,1-0.2v0.4c-0.2,0.1-0.3,0.1-0.5,0.2
		C164.9,95.9,164.7,95.9,164.5,95.9z M164.4,93c-0.3,0-0.5,0.1-0.6,0.3s-0.2,0.4-0.3,0.7h1.7c0-0.3-0.1-0.5-0.2-0.7
		S164.6,93,164.4,93z"/>
	<path d="M169.1,95.5c0.1,0,0.2,0,0.2,0s0.1,0,0.2,0v0.4c-0.1,0-0.1,0-0.2,0.1c-0.1,0-0.2,0-0.3,0c-0.6,0-0.9-0.3-0.9-1V93h-0.5
		v-0.2l0.5-0.2l0.2-0.7h0.3v0.7h0.9V93h-0.9v1.9c0,0.2,0,0.3,0.1,0.4S169,95.5,169.1,95.5z"/>
	<path d="M172.4,95.9v-2.1c0-0.3-0.1-0.5-0.2-0.6s-0.3-0.2-0.6-0.2c-0.3,0-0.6,0.1-0.7,0.3c-0.2,0.2-0.2,0.5-0.2,0.9v1.7h-0.5v-4.6
		h0.5v1.4c0,0.2,0,0.3,0,0.4h0c0.1-0.2,0.2-0.3,0.4-0.4c0.2-0.1,0.4-0.1,0.6-0.1c0.4,0,0.7,0.1,0.9,0.3c0.2,0.2,0.3,0.5,0.3,0.9v2.1
		H172.4z"/>
	<path d="M175.3,95.9c-0.5,0-0.8-0.1-1.1-0.4s-0.4-0.7-0.4-1.2c0-0.5,0.1-0.9,0.4-1.2c0.3-0.3,0.6-0.5,1-0.5c0.4,0,0.7,0.1,1,0.4
		c0.2,0.3,0.4,0.6,0.4,1v0.3h-2.2c0,0.4,0.1,0.7,0.3,0.9c0.2,0.2,0.4,0.3,0.8,0.3c0.3,0,0.7-0.1,1-0.2v0.4c-0.2,0.1-0.3,0.1-0.5,0.2
		C175.7,95.9,175.5,95.9,175.3,95.9z M175.1,93c-0.3,0-0.5,0.1-0.6,0.3s-0.2,0.4-0.3,0.7h1.7c0-0.3-0.1-0.5-0.2-0.7
		S175.4,93,175.1,93z"/>
	<path d="M177.2,91.8c0-0.1,0-0.2,0.1-0.2c0.1-0.1,0.1-0.1,0.2-0.1c0.1,0,0.1,0,0.2,0.1s0.1,0.1,0.1,0.2s0,0.2-0.1,0.2
		s-0.1,0.1-0.2,0.1c-0.1,0-0.2,0-0.2-0.1S177.2,91.9,177.2,91.8z M177.7,95.9h-0.5v-3.2h0.5V95.9z"/>
	<path d="M180.2,92.6c0.1,0,0.3,0,0.4,0l-0.1,0.5c-0.1,0-0.3,0-0.4,0c-0.3,0-0.5,0.1-0.7,0.3c-0.2,0.2-0.3,0.5-0.3,0.8v1.7h-0.5
		v-3.2h0.4l0.1,0.6h0c0.1-0.2,0.3-0.4,0.4-0.5S180,92.6,180.2,92.6z"/>
	<path d="M182.4,93.1L182.4,93.1c0-0.2,0.1-0.5,0.2-0.7s0.2-0.5,0.3-0.7h0.4c-0.1,0.5-0.2,1-0.3,1.5H182.4z M183.5,93.1L183.5,93.1
		c0.1-0.5,0.2-1,0.5-1.5h0.4c-0.1,0.2-0.1,0.5-0.2,0.8c-0.1,0.3-0.1,0.5-0.1,0.7H183.5z"/>
	<path d="M186.2,95.9c-0.5,0-0.8-0.1-1.1-0.4c-0.3-0.3-0.4-0.7-0.4-1.2c0-0.5,0.1-1,0.4-1.2s0.6-0.4,1.1-0.4c0.2,0,0.3,0,0.5,0
		s0.3,0.1,0.4,0.1l-0.1,0.4c-0.1,0-0.2-0.1-0.4-0.1c-0.1,0-0.2,0-0.3,0c-0.7,0-1,0.4-1,1.2c0,0.4,0.1,0.7,0.2,0.9
		c0.2,0.2,0.4,0.3,0.7,0.3c0.3,0,0.5-0.1,0.8-0.2v0.4C186.8,95.9,186.5,95.9,186.2,95.9z"/>
	<path d="M189.9,95.9v-2.1c0-0.3-0.1-0.5-0.2-0.6s-0.3-0.2-0.6-0.2c-0.3,0-0.6,0.1-0.7,0.3c-0.2,0.2-0.2,0.5-0.2,0.9v1.7h-0.5v-4.6
		h0.5v1.4c0,0.2,0,0.3,0,0.4h0c0.1-0.2,0.2-0.3,0.4-0.4c0.2-0.1,0.4-0.1,0.6-0.1c0.4,0,0.7,0.1,0.9,0.3c0.2,0.2,0.3,0.5,0.3,0.9v2.1
		H189.9z"/>
	<path d="M194.2,94.3c0,0.5-0.1,0.9-0.4,1.2c-0.3,0.3-0.6,0.4-1.1,0.4c-0.3,0-0.5-0.1-0.8-0.2s-0.4-0.3-0.5-0.6s-0.2-0.5-0.2-0.9
		c0-0.5,0.1-0.9,0.4-1.2c0.3-0.3,0.6-0.4,1.1-0.4c0.4,0,0.8,0.1,1.1,0.4C194.1,93.4,194.2,93.8,194.2,94.3z M191.8,94.3
		c0,0.4,0.1,0.7,0.2,0.9s0.4,0.3,0.7,0.3s0.6-0.1,0.7-0.3c0.2-0.2,0.2-0.5,0.2-0.9c0-0.4-0.1-0.7-0.2-0.9c-0.2-0.2-0.4-0.3-0.7-0.3
		c-0.3,0-0.6,0.1-0.7,0.3S191.8,93.9,191.8,94.3z"/>
	<path d="M195,91.8c0-0.1,0-0.2,0.1-0.2c0.1-0.1,0.1-0.1,0.2-0.1c0.1,0,0.1,0,0.2,0.1s0.1,0.1,0.1,0.2s0,0.2-0.1,0.2
		s-0.1,0.1-0.2,0.1c-0.1,0-0.2,0-0.2-0.1S195,91.9,195,91.8z M195.5,95.9H195v-3.2h0.5V95.9z"/>
	<path d="M197.8,95.9c-0.5,0-0.8-0.1-1.1-0.4c-0.3-0.3-0.4-0.7-0.4-1.2c0-0.5,0.1-1,0.4-1.2s0.6-0.4,1.1-0.4c0.2,0,0.3,0,0.5,0
		s0.3,0.1,0.4,0.1l-0.1,0.4c-0.1,0-0.2-0.1-0.4-0.1c-0.1,0-0.2,0-0.3,0c-0.7,0-1,0.4-1,1.2c0,0.4,0.1,0.7,0.2,0.9
		c0.2,0.2,0.4,0.3,0.7,0.3c0.3,0,0.5-0.1,0.8-0.2v0.4C198.4,95.9,198.2,95.9,197.8,95.9z"/>
	<path d="M200.8,95.9c-0.5,0-0.8-0.1-1.1-0.4s-0.4-0.7-0.4-1.2c0-0.5,0.1-0.9,0.4-1.2c0.3-0.3,0.6-0.5,1-0.5c0.4,0,0.7,0.1,1,0.4
		c0.2,0.3,0.4,0.6,0.4,1v0.3h-2.2c0,0.4,0.1,0.7,0.3,0.9c0.2,0.2,0.4,0.3,0.8,0.3c0.3,0,0.7-0.1,1-0.2v0.4c-0.2,0.1-0.3,0.1-0.5,0.2
		C201.2,95.9,201,95.9,200.8,95.9z M200.6,93c-0.3,0-0.5,0.1-0.6,0.3s-0.2,0.4-0.3,0.7h1.7c0-0.3-0.1-0.5-0.2-0.7S200.9,93,200.6,93
		z"/>
	<path d="M203.2,91.6L203.2,91.6c0,0.3-0.1,0.5-0.2,0.7s-0.2,0.5-0.3,0.7h-0.4c0.1-0.6,0.2-1,0.3-1.5H203.2z M204.3,91.6L204.3,91.6
		c0,0.2-0.1,0.5-0.2,0.7s-0.2,0.5-0.3,0.7h-0.4c0.1-0.2,0.1-0.4,0.2-0.7s0.1-0.5,0.1-0.7H204.3z"/>
	<path d="M207.5,95.5c0.1,0,0.2,0,0.2,0s0.1,0,0.2,0v0.4c-0.1,0-0.1,0-0.2,0.1c-0.1,0-0.2,0-0.3,0c-0.6,0-0.9-0.3-0.9-1V93H206v-0.2
		l0.5-0.2l0.2-0.7h0.3v0.7h0.9V93H207v1.9c0,0.2,0,0.3,0.1,0.4S207.3,95.5,207.5,95.5z"/>
	<path d="M211.3,94.3c0,0.5-0.1,0.9-0.4,1.2c-0.3,0.3-0.6,0.4-1.1,0.4c-0.3,0-0.5-0.1-0.8-0.2s-0.4-0.3-0.5-0.6s-0.2-0.5-0.2-0.9
		c0-0.5,0.1-0.9,0.4-1.2c0.3-0.3,0.6-0.4,1.1-0.4c0.4,0,0.8,0.1,1.1,0.4C211.2,93.4,211.3,93.8,211.3,94.3z M208.9,94.3
		c0,0.4,0.1,0.7,0.2,0.9s0.4,0.3,0.7,0.3s0.6-0.1,0.7-0.3c0.2-0.2,0.2-0.5,0.2-0.9c0-0.4-0.1-0.7-0.2-0.9c-0.2-0.2-0.4-0.3-0.7-0.3
		c-0.3,0-0.6,0.1-0.7,0.3S208.9,93.9,208.9,94.3z"/>
	<path d="M90.6,99.8c0.1,0,0.3,0,0.4,0l-0.1,0.5c-0.1,0-0.3,0-0.4,0c-0.3,0-0.5,0.1-0.7,0.3s-0.3,0.5-0.3,0.8v1.7h-0.5v-3.2h0.4
		l0.1,0.6h0c0.1-0.2,0.3-0.4,0.4-0.5S90.4,99.8,90.6,99.8z"/>
	<path d="M92.9,103.1c-0.5,0-0.8-0.1-1.1-0.4s-0.4-0.7-0.4-1.2c0-0.5,0.1-0.9,0.4-1.2s0.6-0.5,1-0.5c0.4,0,0.7,0.1,1,0.4
		c0.2,0.3,0.4,0.6,0.4,1v0.3h-2.2c0,0.4,0.1,0.7,0.3,0.9s0.4,0.3,0.8,0.3c0.3,0,0.7-0.1,1-0.2v0.4c-0.2,0.1-0.3,0.1-0.5,0.2
		C93.3,103.1,93.1,103.1,92.9,103.1z M92.8,100.2c-0.3,0-0.5,0.1-0.6,0.3s-0.2,0.4-0.3,0.7h1.7c0-0.3-0.1-0.5-0.2-0.7
		S93.1,100.2,92.8,100.2z"/>
	<path d="M96.2,103.1c-0.5,0-0.8-0.1-1.1-0.4c-0.3-0.3-0.4-0.7-0.4-1.2c0-0.5,0.1-1,0.4-1.2s0.6-0.4,1.1-0.4c0.2,0,0.3,0,0.5,0
		s0.3,0.1,0.4,0.1l-0.1,0.4c-0.1,0-0.2-0.1-0.4-0.1c-0.1,0-0.2,0-0.3,0c-0.7,0-1,0.4-1,1.2c0,0.4,0.1,0.7,0.2,0.9s0.4,0.3,0.7,0.3
		c0.3,0,0.5-0.1,0.8-0.2v0.4C96.8,103.1,96.6,103.1,96.2,103.1z"/>
	<path d="M97.3,99.9h0.5l0.7,1.8c0.2,0.4,0.3,0.7,0.3,0.9h0c0-0.1,0.1-0.3,0.2-0.5c0.1-0.2,0.3-1,0.8-2.2h0.5l-1.4,3.7
		c-0.1,0.4-0.3,0.6-0.5,0.8c-0.2,0.2-0.4,0.2-0.7,0.2c-0.1,0-0.3,0-0.4,0v-0.4c0.1,0,0.2,0,0.4,0c0.3,0,0.6-0.2,0.7-0.6l0.2-0.5
		L97.3,99.9z"/>
	<path d="M102.1,103.1c-0.5,0-0.8-0.1-1.1-0.4c-0.3-0.3-0.4-0.7-0.4-1.2c0-0.5,0.1-1,0.4-1.2s0.6-0.4,1.1-0.4c0.2,0,0.3,0,0.5,0
		s0.3,0.1,0.4,0.1l-0.1,0.4c-0.1,0-0.2-0.1-0.4-0.1c-0.1,0-0.2,0-0.3,0c-0.7,0-1,0.4-1,1.2c0,0.4,0.1,0.7,0.2,0.9s0.4,0.3,0.7,0.3
		c0.3,0,0.5-0.1,0.8-0.2v0.4C102.7,103.1,102.4,103.1,102.1,103.1z"/>
	<path d="M104.2,103.1h-0.5v-4.6h0.5V103.1z"/>
	<path d="M106.6,103.1c-0.5,0-0.8-0.1-1.1-0.4s-0.4-0.7-0.4-1.2c0-0.5,0.1-0.9,0.4-1.2s0.6-0.5,1-0.5c0.4,0,0.7,0.1,1,0.4
		c0.2,0.3,0.4,0.6,0.4,1v0.3h-2.2c0,0.4,0.1,0.7,0.3,0.9s0.4,0.3,0.8,0.3c0.3,0,0.7-0.1,1-0.2v0.4c-0.2,0.1-0.3,0.1-0.5,0.2
		C107,103.1,106.8,103.1,106.6,103.1z M106.4,100.2c-0.3,0-0.5,0.1-0.6,0.3s-0.2,0.4-0.3,0.7h1.7c0-0.3-0.1-0.5-0.2-0.7
		S106.7,100.2,106.4,100.2z"/>
	<path d="M108.5,102.8c0-0.1,0-0.2,0.1-0.3c0.1-0.1,0.1-0.1,0.3-0.1c0.1,0,0.2,0,0.3,0.1c0.1,0.1,0.1,0.2,0.1,0.3
		c0,0.1,0,0.2-0.1,0.3s-0.2,0.1-0.3,0.1c-0.1,0-0.2,0-0.2-0.1C108.5,103,108.5,102.9,108.5,102.8z"/>
</g>
<g>
	<path class="st0" d="M89.7,54.1v-8.6h1.8v8.6H89.7z"/>
	<path class="st0" d="M101.3,54.1H99l-3.7-6.5h-0.1c0.1,1.1,0.1,2,0.1,2.4v4h-1.6v-8.6H96l3.7,6.4h0c-0.1-1.1-0.1-1.9-0.1-2.4v-4.1
		h1.6V54.1z"/>
	<path class="st0" d="M108.5,51.7c0,0.8-0.3,1.4-0.8,1.8s-1.3,0.7-2.3,0.7c-0.9,0-1.7-0.2-2.4-0.5V52c0.6,0.3,1.1,0.4,1.5,0.5
		s0.8,0.2,1.1,0.2c0.4,0,0.7-0.1,0.9-0.2s0.3-0.4,0.3-0.7c0-0.2,0-0.3-0.1-0.4s-0.2-0.3-0.4-0.4s-0.6-0.3-1.1-0.6
		c-0.5-0.2-0.9-0.5-1.2-0.7s-0.5-0.5-0.6-0.8s-0.2-0.7-0.2-1.1c0-0.8,0.3-1.4,0.8-1.8s1.2-0.7,2.1-0.7c0.4,0,0.9,0.1,1.3,0.2
		s0.8,0.3,1.3,0.4l-0.6,1.4c-0.5-0.2-0.8-0.3-1.1-0.4s-0.6-0.1-0.9-0.1c-0.3,0-0.6,0.1-0.8,0.2s-0.3,0.4-0.3,0.6
		c0,0.2,0,0.3,0.1,0.4s0.2,0.2,0.4,0.3s0.5,0.3,1.2,0.6c0.8,0.4,1.3,0.8,1.6,1.2S108.5,51.1,108.5,51.7z"/>
	<path class="st0" d="M117.1,45.5v5.5c0,0.6-0.1,1.2-0.4,1.7s-0.7,0.8-1.2,1.1s-1.2,0.4-1.9,0.4c-1.1,0-2-0.3-2.6-0.8S110,52,110,51
		v-5.5h1.8v5.2c0,0.7,0.1,1.1,0.4,1.5s0.7,0.5,1.3,0.5c0.6,0,1-0.2,1.3-0.5s0.4-0.8,0.4-1.5v-5.2H117.1z"/>
	<path class="st0" d="M120.9,54.1h-1.8v-8.6h4.9V47h-3.1v2.2h2.9v1.5h-2.9V54.1z"/>
	<path class="st0" d="M127.5,54.1h-1.8v-8.6h4.9V47h-3.1v2.2h2.9v1.5h-2.9V54.1z"/>
	<path class="st0" d="M132.3,54.1v-8.6h1.8v8.6H132.3z"/>
	<path class="st0" d="M139.9,46.9c-0.7,0-1.2,0.3-1.6,0.8s-0.6,1.2-0.6,2.1c0,1.9,0.7,2.9,2.2,2.9c0.6,0,1.3-0.2,2.2-0.5v1.5
		c-0.7,0.3-1.5,0.4-2.4,0.4c-1.2,0-2.2-0.4-2.9-1.1s-1-1.8-1-3.3c0-0.9,0.2-1.7,0.5-2.3s0.8-1.2,1.4-1.5s1.3-0.5,2.1-0.5
		c0.8,0,1.7,0.2,2.5,0.6l-0.6,1.5c-0.3-0.2-0.6-0.3-1-0.4S140.3,46.9,139.9,46.9z"/>
	<path class="st0" d="M143.9,54.1v-8.6h1.8v8.6H143.9z"/>
	<path class="st0" d="M152.9,54.1h-4.9v-8.6h4.9V47h-3.1v1.9h2.9v1.5h-2.9v2.2h3.1V54.1z"/>
	<path class="st0" d="M162.2,54.1h-2.3l-3.7-6.5h-0.1c0.1,1.1,0.1,2,0.1,2.4v4h-1.6v-8.6h2.3l3.7,6.4h0c-0.1-1.1-0.1-1.9-0.1-2.4
		v-4.1h1.6V54.1z"/>
	<path class="st0" d="M167.7,54.1h-1.8V47h-2.3v-1.5h6.5V47h-2.3V54.1z"/>
	<path class="st0" d="M179.7,54.1l-0.6-2H176l-0.6,2h-2l3-8.6h2.2l3,8.6H179.7z M178.7,50.5c-0.6-1.8-0.9-2.9-1-3.1
		s-0.1-0.4-0.2-0.6c-0.1,0.5-0.5,1.7-1.1,3.7H178.7z"/>
	<path class="st0" d="M186.4,46.9c-0.7,0-1.2,0.3-1.6,0.8s-0.6,1.2-0.6,2.1c0,1.9,0.7,2.9,2.2,2.9c0.6,0,1.3-0.2,2.2-0.5v1.5
		c-0.7,0.3-1.5,0.4-2.4,0.4c-1.2,0-2.2-0.4-2.9-1.1s-1-1.8-1-3.3c0-0.9,0.2-1.7,0.5-2.3s0.8-1.2,1.4-1.5s1.3-0.5,2.1-0.5
		c0.8,0,1.7,0.2,2.5,0.6l-0.6,1.5c-0.3-0.2-0.6-0.3-1-0.4S186.7,46.9,186.4,46.9z"/>
	<path class="st0" d="M194,46.9c-0.7,0-1.2,0.3-1.6,0.8s-0.6,1.2-0.6,2.1c0,1.9,0.7,2.9,2.2,2.9c0.6,0,1.3-0.2,2.2-0.5v1.5
		c-0.7,0.3-1.5,0.4-2.4,0.4c-1.2,0-2.2-0.4-2.9-1.1s-1-1.8-1-3.3c0-0.9,0.2-1.7,0.5-2.3s0.8-1.2,1.4-1.5s1.3-0.5,2.1-0.5
		c0.8,0,1.7,0.2,2.5,0.6l-0.6,1.5c-0.3-0.2-0.6-0.3-1-0.4S194.3,46.9,194,46.9z"/>
	<path class="st0" d="M203,54.1H198v-8.6h4.9V47h-3.1v1.9h2.9v1.5h-2.9v2.2h3.1V54.1z"/>
	<path class="st0" d="M209.8,51.7c0,0.8-0.3,1.4-0.8,1.8s-1.3,0.7-2.3,0.7c-0.9,0-1.7-0.2-2.4-0.5V52c0.6,0.3,1.1,0.4,1.5,0.5
		s0.8,0.2,1.1,0.2c0.4,0,0.7-0.1,0.9-0.2s0.3-0.4,0.3-0.7c0-0.2,0-0.3-0.1-0.4s-0.2-0.3-0.4-0.4s-0.6-0.3-1.1-0.6
		c-0.5-0.2-0.9-0.5-1.2-0.7s-0.5-0.5-0.6-0.8s-0.2-0.7-0.2-1.1c0-0.8,0.3-1.4,0.8-1.8s1.2-0.7,2.1-0.7c0.4,0,0.9,0.1,1.3,0.2
		s0.8,0.3,1.3,0.4l-0.6,1.4c-0.5-0.2-0.8-0.3-1.1-0.4s-0.6-0.1-0.9-0.1c-0.3,0-0.6,0.1-0.8,0.2s-0.3,0.4-0.3,0.6
		c0,0.2,0,0.3,0.1,0.4s0.2,0.2,0.4,0.3s0.5,0.3,1.2,0.6c0.8,0.4,1.3,0.8,1.6,1.2S209.8,51.1,209.8,51.7z"/>
	<path class="st0" d="M216.4,51.7c0,0.8-0.3,1.4-0.8,1.8s-1.3,0.7-2.3,0.7c-0.9,0-1.7-0.2-2.4-0.5V52c0.6,0.3,1.1,0.4,1.5,0.5
		s0.8,0.2,1.1,0.2c0.4,0,0.7-0.1,0.9-0.2s0.3-0.4,0.3-0.7c0-0.2,0-0.3-0.1-0.4s-0.2-0.3-0.4-0.4s-0.6-0.3-1.1-0.6
		c-0.5-0.2-0.9-0.5-1.2-0.7s-0.5-0.5-0.6-0.8s-0.2-0.7-0.2-1.1c0-0.8,0.3-1.4,0.8-1.8s1.2-0.7,2.1-0.7c0.4,0,0.9,0.1,1.3,0.2
		s0.8,0.3,1.3,0.4l-0.6,1.4c-0.5-0.2-0.8-0.3-1.1-0.4s-0.6-0.1-0.9-0.1c-0.3,0-0.6,0.1-0.8,0.2s-0.3,0.4-0.3,0.6
		c0,0.2,0,0.3,0.1,0.4s0.2,0.2,0.4,0.3s0.5,0.3,1.2,0.6c0.8,0.4,1.3,0.8,1.6,1.2S216.4,51.1,216.4,51.7z"/>
</g>
<g>
	<linearGradient id="SVGID_1_" gradientUnits="userSpaceOnUse" x1="46.568" y1="87.0291" x2="-12.4656" y2="46.3347">
		<stop  offset="0" style="stop-color:#2DCDAE;stop-opacity:0.8"/>
		<stop  offset="1" style="stop-color:#26B7D2"/>
	</linearGradient>
	<path class="st1" d="M70.9,89.4c-0.3,0.3-0.7,0.5-1,0.8c-1.3,1-3.5,1.9-5.9,3.1c-2.9,1.5-6.3,3.3-9,6.1c-2.1,2.2-4.1,4.4-6,6.4
		c-12.3-8-32.5-29.1-40-39.8C8,63.7,7.4,61.3,7,59c-0.7-4.3-0.5-8.2,1.2-11.2C19.8,50.8,53.7,72.9,70.9,89.4z"/>
	<linearGradient id="SVGID_2_" gradientUnits="userSpaceOnUse" x1="49.2409" y1="116.2818" x2="2.1211" y2="78.8002">
		<stop  offset="0" style="stop-color:#2DCDAE;stop-opacity:0.8"/>
		<stop  offset="0.306" style="stop-color:#2BC7B8;stop-opacity:0.8579"/>
		<stop  offset="1" style="stop-color:#26B7D2"/>
	</linearGradient>
	<path class="st2" d="M48.9,105.9c-3.6,3.8-7.2,6.9-11.6,8c-14,3.4-17.5-1.3-20.9-10.7c-3.3-9-0.3-19.8-5.2-31.1
		c-0.9-2-1.6-4-2.3-5.9C16.3,76.8,36.5,97.9,48.9,105.9z"/>
	<linearGradient id="SVGID_3_" gradientUnits="userSpaceOnUse" x1="34.3604" y1="43.637" x2="71.5222" y2="98.8451">
		<stop  offset="0" style="stop-color:#2DCDAE;stop-opacity:0.8"/>
		<stop  offset="1" style="stop-color:#26B7D2"/>
	</linearGradient>
	<path class="st3" d="M70.9,89.4C53.7,72.9,19.8,50.8,8.2,47.8c1.6-2.8,4.6-4.8,9.5-5.5c1.3-0.2,2.7-0.3,4.1-0.3c5,0,22,7.7,26.3,9
		c9.7,2.8,18,3.1,22,5.4c5.4,3.1,7.9,9.2,9,15C80.6,79.1,78,83.8,70.9,89.4z"/>
	<g>
		<path class="st0" d="M59.9,96.7c-2.8-1.5-5.1-2.7-6.9-3.6c-1.9-0.9-3.2-1.6-4.4-1.9c-1.2-0.3-2.2-0.2-3.2,0.3c-1,0.5-2,1.5-3,2.8
			c-0.1,0.2-0.3,0.4-0.4,0.6c-0.1,0.1-0.1,0.3-0.2,0.4c1.7,0.7,3.7,1.5,5.7,2.1c1,0.3,2.1,0.5,3.2,0.7c1.1,0.1,2.1,0.2,3.1,0.2
			c0.3,0,0.5,0.3,0.1,0.4c-1.4,0.3-3.3,0.6-5.4,0.5c-2.1,0-4.5-0.4-7-1c0,0.2,0.1,0.4,0.1,0.7c0.4,1.8,1.5,3.4,3.6,4.7
			c1.1,0.7,2.2,1.1,3.5,1.3c1.2,0.2,2.6,0.1,3.9-0.2c1.5-0.4,3.1-1,4.5-1.8c1.4-0.7,2.7-1.6,3.8-2.3c1.1-0.8,1.9-1.5,2.6-2
			c0.6-0.5,1-0.8,1-0.8C62.9,97.9,62.1,97.7,59.9,96.7z"/>
	</g>
	<path class="st4" d="M24.2,49.3c-1.2-2.2-3.8-3.3-6.1-2.3c-1.1,0.5-1.8,1.2-2,2.4c-0.4,2.1,3.2,4.5-0.4,7c-3.6,2.5-5.3,7.2,1.1,7.6
		c6.4,0.4,10.4-4.8,8.8-10.9C25.3,51.5,24.8,50.2,24.2,49.3z"/>
	<g>
		<path class="st5" d="M57.8,48.1c-5.1-3.8-12.3-2.8-16.2,2.3c-3.3,4.4-3,10.3,0.3,14.3L19.6,93.8c-0.9,1.2-0.7,3,0.5,3.9l0,0
			c1.2,0.9,3,0.7,3.9-0.5l1.9-2.4l3.4,2.6c1.2,0.9,3,0.7,3.9-0.5c0.9-1.2,0.7-3-0.5-3.9l-3.4-2.6l1.9-2.4l3.4,2.6
			c1.2,0.9,3,0.7,3.9-0.5c0.9-1.2,0.7-3-0.5-3.9l-3.4-2.5L46.4,68c4.7,2,10.4,0.6,13.6-3.7C63.9,59.2,62.9,51.9,57.8,48.1z
			 M56.3,61.5c-2.3,3.1-6.7,3.7-9.7,1.4s-3.7-6.7-1.4-9.7c2.3-3.1,6.7-3.7,9.7-1.4C58,54.1,58.7,58.4,56.3,61.5z"/>
		<path class="st5" d="M57.8,48.1c-3.3-2.5-7.5-2.9-11.1-1.6c-0.1,1.5-0.4,3.5-0.7,5.9c2.4-2.4,6.3-2.7,9.1-0.6
			c3.1,2.3,3.7,6.7,1.4,9.7c-2.3,3.1-6.7,3.7-9.7,1.4c-1-0.8-1.7-1.7-2.2-2.8c-1.5,6.4-4.1,14-8.2,21.2L46.4,68
			c4.7,2,10.4,0.6,13.6-3.7C63.9,59.2,62.9,51.9,57.8,48.1z M37.9,85.9l-3.1-2.3c-1,1.6-2,3.1-3.2,4.6l2.9,2.2
			c1.2,0.9,3,0.7,3.9-0.5C39.4,88.6,39.2,86.9,37.9,85.9z M32.7,92.8l-3-2.3c-2.3,2.8-5,5.3-8,7.7c0.9,0,1.8-0.3,2.4-1.1l1.9-2.4
			l3.4,2.6c1.2,0.9,3,0.7,3.9-0.5C34.2,95.5,34,93.8,32.7,92.8z"/>
		<g>
			<path class="st6" d="M57,47.2c-5.1-3.8-12.3-2.8-16.2,2.3S38,61.8,43.1,65.6s12.3,2.8,16.2-2.3S62.1,51,57,47.2z M45.9,61.9
				c-3.1-2.3-3.7-6.7-1.4-9.7c2.3-3.1,6.7-3.7,9.7-1.4c3.1,2.3,3.7,6.7,1.4,9.7C53.3,63.6,49,64.2,45.9,61.9z"/>
			<path class="st6" d="M19.4,96.7L19.4,96.7c-1.2-0.9-1.5-2.7-0.5-3.9L42.5,62l4.5,3.4L23.4,96.2C22.4,97.4,20.7,97.7,19.4,96.7z"
				/>
			<path class="st6" d="M32.6,95.8L32.6,95.8c-0.9,1.2-2.7,1.5-3.9,0.5l-5.5-4.1l3.4-4.5l5.5,4.1C33.2,92.8,33.5,94.6,32.6,95.8z"/>
			<path class="st6" d="M37.8,88.9L37.8,88.9c-0.9,1.2-2.7,1.5-3.9,0.5l-5.5-4.1l3.4-4.5l5.5,4.1C38.4,85.9,38.7,87.7,37.8,88.9z"/>
		</g>
		<path class="st7" d="M45.2,51.5c-0.2,0.2-0.5,0.5-0.7,0.8c-1.5,2.1-1.8,4.7-0.8,6.9c-1.5,6.4-4.1,14-8.2,21.2l-1.7,2.2l0.3,0.2
			c-1,1.6-2,3.1-3.2,4.6c-0.6,0.8-1.3,1.6-1.9,2.4c-2.3,2.8-5,5.3-8,7.7c-0.1,0-0.1,0-0.2,0c-0.5-0.1-0.9-0.2-1.3-0.5
			c-1.2-0.9-1.5-2.7-0.5-3.9l22.3-29.1c-3.3-4-3.6-10-0.3-14.3c1.3-1.8,3.1-3.1,5.1-3.8C45.8,47.1,45.6,49.1,45.2,51.5z"/>
		<path class="st6" d="M34.6,83.4l1.7-2.2c-0.5,0.8-0.9,1.6-1.4,2.4L34.6,83.4z"/>
	</g>
</g>
</svg>
