<?xml version="1.0" encoding="utf-8"?>
<!-- Generator: Adobe Illustrator 23.1.0, SVG Export Plug-In . SVG Version: 6.00 Build 0)  -->
<svg version="1.1" id="Layer_1" xmlns="http://www.w3.org/2000/svg" xmlns:xlink="http://www.w3.org/1999/xlink" x="0px" y="0px"
	 viewBox="0 0 226 157" style="enable-background:new 0 0 226 157;" xml:space="preserve">
<style type="text/css">
	.st0{opacity:0.55;fill:url(#SVGID_1_);}
	.st1{opacity:0.55;fill:url(#SVGID_2_);}
	.st2{opacity:0.55;fill:url(#SVGID_3_);}
	.st3{opacity:0.55;fill:url(#SVGID_4_);}
	.st4{opacity:0.33;fill:#7F9CA3;}
	.st5{fill:#ECD29D;}
	.st6{fill:#26B7D2;}
	.st7{fill:#F2E1BE;}
	.st8{fill:#3D3D3D;}
	.st9{fill:#3ECADD;}
	.st10{fill:#FFCE41;}
	.st11{fill:#FBFBFB;}
	.st12{fill:#2DCDAE;}
	.st13{opacity:0.55;fill:url(#SVGID_5_);}
	.st14{fill:#9C9CEF;}
	.st15{fill:#827EF7;}
</style>
<g>
	<linearGradient id="SVGID_1_" gradientUnits="userSpaceOnUse" x1="46.6133" y1="87.0487" x2="-12.4507" y2="46.3334">
		<stop  offset="0" style="stop-color:#2DCDAE;stop-opacity:0.8"/>
		<stop  offset="1" style="stop-color:#26B7D2"/>
	</linearGradient>
	<path class="st0" d="M70.9,89.4c-0.3,0.3-0.7,0.5-1,0.8c-1.3,1-3.5,1.9-6,3.1c-2.9,1.5-6.3,3.3-9,6.1c-2.1,2.2-4.1,4.4-6,6.4
		c-12.3-8-32.6-29-40.1-39.8C8,63.7,7.4,61.3,7,59.1c-0.7-4.3-0.5-8.2,1.2-11.2C19.8,50.9,53.8,72.9,70.9,89.4z"/>
	<linearGradient id="SVGID_2_" gradientUnits="userSpaceOnUse" x1="49.2673" y1="116.309" x2="2.1323" y2="78.8152">
		<stop  offset="0" style="stop-color:#2DCDAE;stop-opacity:0.8"/>
		<stop  offset="0.306" style="stop-color:#2BC7B8;stop-opacity:0.8579"/>
		<stop  offset="1" style="stop-color:#26B7D2"/>
	</linearGradient>
	<path class="st1" d="M48.9,105.9c-3.6,3.8-7.2,6.9-11.6,8c-14,3.4-17.5-1.3-21-10.7c-3.3-9-0.3-19.8-5.2-31.1c-0.9-2-1.6-4-2.3-5.9
		C16.4,76.8,36.6,97.9,48.9,105.9z"/>
	<linearGradient id="SVGID_3_" gradientUnits="userSpaceOnUse" x1="34.3893" y1="43.6594" x2="71.5584" y2="98.8783">
		<stop  offset="0" style="stop-color:#2DCDAE;stop-opacity:0.8"/>
		<stop  offset="1" style="stop-color:#26B7D2"/>
	</linearGradient>
	<path class="st2" d="M70.9,89.4C53.8,72.9,19.8,50.9,8.2,47.9c1.6-2.8,4.6-4.8,9.5-5.5c1.3-0.2,2.7-0.3,4.1-0.3
		c5,0,22.1,7.7,26.3,9c9.8,2.8,18,3.1,22,5.4c5.4,3.1,7.9,9.2,9.1,15C80.6,79.1,78,83.8,70.9,89.4z"/>
	<g>
		<linearGradient id="SVGID_4_" gradientUnits="userSpaceOnUse" x1="29.5806" y1="60.2684" x2="57.9701" y2="60.2684">
			<stop  offset="0" style="stop-color:#2DCDAE;stop-opacity:0.8"/>
			<stop  offset="1" style="stop-color:#26B7D2"/>
		</linearGradient>
		<path class="st3" d="M56.4,55.4c0-0.2,0-0.4,0-0.6v0c0,0,0,0,0,0c-0.1-0.4-0.2-0.7-0.5-0.9c-0.3-0.3-0.8-0.5-1.4-0.7
			c-0.6-0.1-1.2-0.3-1.8-0.4l-20.8-0.3c-0.7,0.8-1.5,1.7-2.3,2.5v0.4h0v0.1l0,6.2c0,0.2,0.1,0.4,0.2,0.6c0.8,1.3,4.5,5.9,15.7,6
			c3-3.1,6.2-6.3,8.6-9.2c0.4,2,0.7,4.1,0.6,4.6c-0.1,0.5-0.2,1.1-0.5,1.4c-0.6,0.8-1.3,1.6-2.1,2.4c1.3-0.3,2.4-0.6,3.4-1
			c0.8-0.3,1.5-0.7,2.1-1c0.1-0.3,0.2-0.7,0.2-1.1C58,63.4,56.3,56.4,56.4,55.4z M47.6,58.5c0,0.1-0.1,0.2-0.1,0.3
			c-0.1,0.1-0.1,0.2-0.2,0.3c-0.5,0.6-0.9,1.3-1.7,1.6c-0.2,0.1-0.5,0.1-0.8,0.1c-0.1,0-0.2-0.1-0.4-0.1c-0.9-0.2-1.8-0.4-2.8-0.6
			c-1.4-0.3-2.8-0.7-4.2-1c-1.4-0.3-2.8-0.7-4.2-1.1c-0.9-0.2-0.9-0.5-0.4-1.3c0.9-1.4,2-1.8,3.7-1.4c3.4,0.9,6.9,1.7,10.4,2.6
			C47.5,58,47.7,58.1,47.6,58.5z"/>
		<path class="st4" d="M56.9,56.3c0-0.2,0-0.4,0-0.6v0c0,0,0,0,0,0c-0.1-0.4-0.2-0.7-0.5-1c-0.3-0.3-0.8-0.5-1.4-0.7
			c-5.9-1.3-11.7-2.6-17.6-3.9c-1.3-0.3-2.2,0-3,1c-4.7,5.2-9.3,10.5-14.1,15.6c-1.6,1.7-2.5,3.6-2.9,5.8c-0.7,3.6,0.9,7.7,4.9,8.7
			c0.8,0.2,1.6,0.5,2.4,0.8c4.9,1.4,9.7,2.8,14.6,4.3c0.8,0.2,1.5,0.2,2.1-0.5c4.9-5.9,11.7-12.8,16.6-18.7c0.3-0.4,0.4-1,0.4-1.5
			C58.5,64.3,56.8,57.4,56.9,56.3z M33,58.3c0,0.2,0.2,0.4,0.7,0.5c0.8,0.2,1.6,0.4,2.4,0.6c-0.8-0.2-1.6-0.4-2.4-0.6
			C33.3,58.7,33,58.5,33,58.3z M45.3,61.6c-0.7-0.1-1.4-0.3-2.1-0.5C43.9,61.3,44.6,61.5,45.3,61.6c1.3,0.1,1.8-0.9,2.5-1.6
			c0.1-0.1,0.2-0.3,0.3-0.4c-0.1,0.1-0.1,0.2-0.3,0.4C47.1,60.7,46.6,61.7,45.3,61.6z M34.9,56.2C34.9,56.2,34.9,56.2,34.9,56.2
			C34.9,56.2,34.9,56.2,34.9,56.2z M35,56.1c0,0,0.1,0,0.1,0C35.1,56.1,35,56.1,35,56.1z M35.1,56.1c0.1,0,0.2-0.1,0.4-0.1
			C35.3,56.1,35.2,56.1,35.1,56.1z M47.8,58.9c-0.1,0-0.2-0.1-0.4-0.1c-0.6-0.2-1.3-0.3-1.9-0.5c0.6,0.2,1.3,0.3,1.9,0.5
			C47.5,58.8,47.7,58.8,47.8,58.9z"/>
		<g>
			<path class="st5" d="M55.4,78.1l1.5,4.6l-3.6-0.4c0.1-0.3,0.1-0.7,0-1c-0.1-0.4-0.4-0.6-0.7-0.8L55.4,78.1z"/>
			<path class="st6" d="M55.7,79.1l20.4-6.7l0.8,2.6c0.2,0.6-0.2,1.2-0.8,1.4l-19.2,6.3L55.7,79.1z"/>
			<path class="st7" d="M55.4,78.1l0.3,0.9l-2.7,1.7c-0.1-0.1-0.2-0.2-0.3-0.2"/>
			<path class="st8" d="M51.3,82.1l2,0.2c0.1-0.3,0.1-0.7,0-1c-0.1-0.2-0.2-0.4-0.4-0.6c-0.1-0.1-0.2-0.2-0.3-0.2l-1.5,1.3
				C51.1,81.9,51.1,82.1,51.3,82.1z"/>
			<path class="st9" d="M55.4,78.1l19.2-6.3c0.6-0.2,1.3,0.1,1.5,0.6l0,0l-20.4,6.7L55.4,78.1z"/>
		</g>
		<g>
			<path class="st10" d="M55.6,66.5c-1,0.4-2.1,0.7-3.4,1c-4.1,4.7-9.1,9.8-12.8,14.2c-0.2,0.2-0.6,0.3-0.9,0.3
				c-5.2-1.5-10.4-3-15.6-4.6c-2.6-0.8-3.7-2.6-3.2-5.3c0.2-1.2,1-1.8,2.3-1.6c0.6,0.1,1.1,0.2,1.6,0.4c4.5,1.3,9.1,2.5,13.6,3.9
				c1.2,0.4,2,0.1,2.8-0.9c1.5-1.8,3.4-3.7,5.3-5.7c-11.1,0-14.9-4.7-15.7-6c-0.1-0.2-0.2-0.4-0.2-0.6l0-6.2v-0.1h0v-0.4
				c-3.3,3.7-6.5,7.3-9.8,10.9c-1.6,1.7-2.5,3.6-2.9,5.8c-0.7,3.6,0.9,7.7,4.9,8.7c0.8,0.2,1.6,0.5,2.4,0.8
				c4.9,1.4,9.7,2.8,14.6,4.3c0.8,0.2,1.5,0.2,2.1-0.5c4.9-5.9,11.7-12.8,16.6-18.7c0.1-0.1,0.2-0.3,0.2-0.5
				C57.2,65.8,56.5,66.2,55.6,66.5z M36.9,49.1c-1.3-0.3-2.2,0-3,1c-0.7,0.7-1.3,1.5-2,2.2l20.8,0.3C47.4,51.5,42.1,50.4,36.9,49.1z
				 M47.5,58.7c0.1-0.1,0.1-0.2,0.1-0.3C47.6,58.6,47.5,58.6,47.5,58.7z"/>
			<path class="st11" d="M54.7,63.7c-0.1,0.5-0.2,1.1-0.5,1.4c-0.6,0.8-1.3,1.6-2.1,2.4c-4.1,4.7-9.1,9.8-12.8,14.2
				c-0.2,0.2-0.6,0.3-0.9,0.3c-5.2-1.5-10.4-3-15.6-4.6c-2.6-0.8-3.7-2.6-3.2-5.3c0.2-1.2,1-1.8,2.3-1.6c0.6,0.1,1.1,0.2,1.6,0.4
				c4.5,1.3,9.1,2.5,13.6,3.9c1.2,0.4,2,0.1,2.8-0.9c1.5-1.8,3.4-3.7,5.3-5.7c3-3.1,6.2-6.3,8.6-9.2C54.4,61.1,54.8,63.1,54.7,63.7z
				"/>
			<path class="st12" d="M47.6,58.5c0,0.1-0.1,0.2-0.1,0.3c-0.1,0.1-0.1,0.2-0.2,0.3c-0.5,0.6-0.9,1.3-1.7,1.6
				c-0.2,0.1-0.5,0.1-0.8,0.1c-0.1,0-0.2-0.1-0.4-0.1c-0.9-0.2-1.8-0.4-2.8-0.6c-1.4-0.3-2.8-0.7-4.2-1c-1.4-0.3-2.8-0.7-4.2-1.1
				c-0.9-0.2-0.9-0.5-0.4-1.3c0.9-1.4,2-1.8,3.7-1.4c3.4,0.9,6.9,1.7,10.4,2.6C47.5,58,47.7,58.1,47.6,58.5z"/>
		</g>
		<path class="st12" d="M61.5,51.9l0,8.8c0,0.2-0.1,0.5-0.2,0.7c-0.5,0.8-2.2,2.8-5.9,4.3c-0.6,0.2-1.3,0.5-2,0.7
			c-1.9,0.5-4.2,0.9-7,1c-0.4,0-0.8,0-1.2,0c-11.2,0-14.9-4.7-15.7-6c-0.1-0.2-0.2-0.4-0.2-0.6l0-6.2v-0.1h0l0-3L61.5,51.9z"/>
		<path class="st12" d="M29.6,52.3l2.2,0c-0.7,0.8-1.5,1.7-2.3,2.5L29.6,52.3z"/>
		<path class="st12" d="M45.6,60.6c-0.2,0.1-0.5,0.1-0.8,0.1c-0.1,0-0.2-0.1-0.4-0.1c-0.9-0.2-1.8-0.4-2.8-0.6
			c-1.4-0.3-2.8-0.7-4.2-1c-1.4-0.3-2.8-0.7-4.2-1.1c-0.9-0.2-0.9-0.5-0.4-1.3c0.9-1.4,2-1.8,3.7-1.4c3.4,0.9,6.9,1.7,10.4,2.6
			c0.6,0.1,0.8,0.3,0.7,0.7c0,0.1-0.1,0.2-0.1,0.3c-0.1,0.1-0.1,0.2-0.2,0.3C46.8,59.6,46.4,60.4,45.6,60.6z"/>
		<linearGradient id="SVGID_5_" gradientUnits="userSpaceOnUse" x1="45.4497" y1="67.2275" x2="53.3252" y2="67.2275">
			<stop  offset="0" style="stop-color:#2DCDAE;stop-opacity:0.8"/>
			<stop  offset="1" style="stop-color:#26B7D2"/>
		</linearGradient>
		<path class="st13" d="M53.3,66.3c-0.4,0.4-0.7,0.9-1.1,1.3c-1.9,0.4-4.1,0.7-6.7,0.7h0c0.3-0.3,0.6-0.6,0.9-0.9
			C49.1,67.2,51.4,66.8,53.3,66.3z"/>
		<path class="st12" d="M54.7,63.7c-0.1,0.5-0.2,1.1-0.5,1.4c-0.3,0.4-0.6,0.8-0.9,1.1c-1.9,0.5-4.2,0.9-7,1
			c2.7-2.8,5.5-5.7,7.7-8.2C54.4,61.1,54.8,63.1,54.7,63.7z"/>
		<path class="st4" d="M61.5,51.9l0,2.2l-14.4,6.7c-0.1,0.1-0.3,0.1-0.4,0l-17.4-6.5l0-3L61.5,51.9z"/>
		<path class="st14" d="M52.9,56.1l-7.1,2.5c-0.1,0.1-0.3,0.1-0.4,0l-22.6-7.4c-0.6-0.2-0.6-1.1,0-1.3l6.6-2.3
			C36.7,53.4,45,55.7,52.9,56.1z"/>
		<path class="st15" d="M68,50.8l-15.2,5.3c-7.9-0.4-16.2-2.7-23.6-8.5l16-5.5c0.1,0,0.3,0,0.4,0L68,49.5
			C68.6,49.7,68.6,50.6,68,50.8z"/>
	</g>
	<g>
		<path class="st12" d="M64,96c-2.8-1.5-5.1-2.7-7-3.6c-1.9-0.9-3.2-1.6-4.4-1.9c-1.2-0.3-2.2-0.2-3.2,0.3c-1,0.5-2,1.5-3,2.8
			c-0.1,0.2-0.3,0.4-0.4,0.6c-0.1,0.1-0.1,0.3-0.2,0.4c1.7,0.7,3.7,1.5,5.7,2.1c1,0.3,2.1,0.5,3.2,0.7c1.1,0.1,2.1,0.2,3.1,0.2
			c0.3,0,0.5,0.3,0.1,0.4c-1.4,0.3-3.3,0.6-5.4,0.5c-2.1,0-4.5-0.4-7-1c0,0.2,0.1,0.4,0.1,0.7c0.4,1.8,1.5,3.4,3.6,4.7
			c1.1,0.7,2.2,1.1,3.5,1.3c1.2,0.2,2.6,0.1,3.9-0.2c1.5-0.4,3.1-1,4.5-1.8c1.4-0.7,2.7-1.6,3.8-2.3c1.1-0.8,1.9-1.5,2.6-2
			c0.6-0.5,1-0.8,1-0.8C67,97.3,66.2,97.1,64,96z"/>
	</g>
	<path class="st15" d="M21.6,90.9c-1-2-3.2-3-5-2.1c-0.9,0.4-1.5,1.1-1.6,2.2c-0.3,1.9,2.6,4.2-0.3,6.4s-4.3,6.6,0.9,7
		c5.2,0.4,8.6-4.4,7.3-10.1C22.4,92.9,22,91.7,21.6,90.9z"/>
</g>
<g>
	<path d="M89.2,67.1v-4.3h0.5v4.3H89.2z"/>
	<path d="M93,67.1V65c0-0.3-0.1-0.5-0.2-0.6s-0.3-0.2-0.6-0.2c-0.3,0-0.6,0.1-0.7,0.3s-0.2,0.5-0.2,0.9v1.7h-0.5v-3.2h0.4l0.1,0.4h0
		c0.1-0.2,0.2-0.3,0.4-0.4s0.4-0.1,0.6-0.1c0.4,0,0.7,0.1,0.9,0.3s0.3,0.5,0.3,0.9v2.1H93z"/>
	<path d="M96.5,67.1l-0.1-0.5h0C96.2,66.8,96,67,95.9,67s-0.4,0.1-0.6,0.1c-0.3,0-0.6-0.1-0.7-0.2s-0.3-0.4-0.3-0.7
		c0-0.6,0.5-1,1.6-1l0.5,0V65c0-0.3-0.1-0.4-0.2-0.6s-0.3-0.2-0.5-0.2c-0.3,0-0.6,0.1-0.9,0.2l-0.1-0.4c0.2-0.1,0.3-0.2,0.5-0.2
		s0.4-0.1,0.6-0.1c0.4,0,0.7,0.1,0.9,0.3s0.3,0.4,0.3,0.8v2.2H96.5z M95.4,66.7c0.3,0,0.5-0.1,0.7-0.2s0.3-0.4,0.3-0.7v-0.3l-0.5,0
		c-0.4,0-0.7,0.1-0.8,0.2s-0.3,0.3-0.3,0.5c0,0.2,0.1,0.3,0.2,0.4S95.2,66.7,95.4,66.7z"/>
	<path d="M100,66.6L100,66.6c-0.3,0.3-0.6,0.5-1,0.5c-0.4,0-0.7-0.1-1-0.4s-0.4-0.7-0.4-1.2s0.1-0.9,0.4-1.2s0.6-0.4,1-0.4
		c0.4,0,0.8,0.2,1,0.5h0l0-0.2l0-0.2v-1.3h0.5v4.6h-0.4L100,66.6z M99,66.7c0.3,0,0.6-0.1,0.7-0.3s0.2-0.5,0.2-0.9v-0.1
		c0-0.5-0.1-0.8-0.2-1s-0.4-0.3-0.7-0.3c-0.3,0-0.5,0.1-0.7,0.3s-0.2,0.5-0.2,0.9c0,0.4,0.1,0.7,0.2,0.9S98.7,66.7,99,66.7z"/>
	<path d="M102.9,67.1c-0.5,0-0.8-0.1-1.1-0.4s-0.4-0.7-0.4-1.2c0-0.5,0.1-0.9,0.4-1.2s0.6-0.5,1-0.5c0.4,0,0.7,0.1,1,0.4
		s0.4,0.6,0.4,1v0.3h-2.2c0,0.4,0.1,0.7,0.3,0.9s0.4,0.3,0.8,0.3c0.3,0,0.7-0.1,1-0.2v0.4c-0.2,0.1-0.3,0.1-0.5,0.2
		S103.1,67.1,102.9,67.1z M102.7,64.2c-0.3,0-0.5,0.1-0.6,0.3s-0.2,0.4-0.3,0.7h1.7c0-0.3-0.1-0.5-0.2-0.7S103,64.2,102.7,64.2z"/>
	<path d="M106,67.1c-0.4,0-0.7-0.1-1-0.4s-0.3-0.7-0.3-1.2c0-0.5,0.1-0.9,0.4-1.2s0.6-0.4,1-0.4c0.4,0,0.8,0.2,1,0.5h0l0.1-0.4h0.4
		v4.7H107v-1.4c0-0.2,0-0.4,0-0.5h0C106.8,67,106.5,67.1,106,67.1z M106.1,66.7c0.3,0,0.6-0.1,0.7-0.3s0.2-0.5,0.2-0.9v-0.1
		c0-0.4-0.1-0.8-0.2-1s-0.4-0.3-0.7-0.3c-0.3,0-0.5,0.1-0.7,0.3s-0.2,0.5-0.2,0.9s0.1,0.7,0.2,0.9S105.8,66.7,106.1,66.7z"/>
	<path d="M109,63.9V66c0,0.3,0.1,0.5,0.2,0.6s0.3,0.2,0.6,0.2c0.3,0,0.6-0.1,0.7-0.3s0.2-0.5,0.2-0.9v-1.7h0.5v3.2h-0.4l-0.1-0.4h0
		c-0.1,0.2-0.2,0.3-0.4,0.4s-0.4,0.1-0.6,0.1c-0.4,0-0.7-0.1-0.9-0.3s-0.3-0.5-0.3-0.9v-2.1H109z"/>
	<path d="M114.2,67.1l-0.1-0.5h0c-0.2,0.2-0.3,0.3-0.5,0.4s-0.4,0.1-0.6,0.1c-0.3,0-0.6-0.1-0.7-0.2s-0.3-0.4-0.3-0.7
		c0-0.6,0.5-1,1.6-1l0.5,0V65c0-0.3-0.1-0.4-0.2-0.6s-0.3-0.2-0.5-0.2c-0.3,0-0.6,0.1-0.9,0.2l-0.1-0.4c0.2-0.1,0.3-0.2,0.5-0.2
		s0.4-0.1,0.6-0.1c0.4,0,0.7,0.1,0.9,0.3s0.3,0.4,0.3,0.8v2.2H114.2z M113.1,66.7c0.3,0,0.5-0.1,0.7-0.2s0.3-0.4,0.3-0.7v-0.3
		l-0.5,0c-0.4,0-0.7,0.1-0.8,0.2s-0.3,0.3-0.3,0.5c0,0.2,0.1,0.3,0.2,0.4S112.9,66.7,113.1,66.7z"/>
	<path d="M116.6,66.7c0.1,0,0.2,0,0.2,0s0.1,0,0.2,0V67c-0.1,0-0.1,0-0.2,0.1c-0.1,0-0.2,0-0.3,0c-0.6,0-0.9-0.3-0.9-1v-1.9h-0.5V64
		l0.5-0.2l0.2-0.7h0.3v0.7h0.9v0.4h-0.9v1.9c0,0.2,0,0.3,0.1,0.4S116.4,66.7,116.6,66.7z"/>
	<path d="M119,67.1c-0.5,0-0.8-0.1-1.1-0.4s-0.4-0.7-0.4-1.2c0-0.5,0.1-0.9,0.4-1.2c0.3-0.3,0.6-0.5,1-0.5c0.4,0,0.7,0.1,1,0.4
		s0.4,0.6,0.4,1v0.3H118c0,0.4,0.1,0.7,0.3,0.9c0.2,0.2,0.4,0.3,0.8,0.3c0.3,0,0.7-0.1,1-0.2v0.4c-0.2,0.1-0.3,0.1-0.5,0.2
		C119.4,67.1,119.3,67.1,119,67.1z M118.9,64.2c-0.3,0-0.5,0.1-0.6,0.3s-0.2,0.4-0.3,0.7h1.7c0-0.3-0.1-0.5-0.2-0.7
		S119.2,64.2,118.9,64.2z"/>
	<path d="M124,67.1c-0.5,0-0.8-0.1-1.1-0.4s-0.4-0.7-0.4-1.2c0-0.5,0.1-0.9,0.4-1.2c0.3-0.3,0.6-0.5,1-0.5c0.4,0,0.7,0.1,1,0.4
		s0.4,0.6,0.4,1v0.3h-2.2c0,0.4,0.1,0.7,0.3,0.9c0.2,0.2,0.4,0.3,0.8,0.3c0.3,0,0.7-0.1,1-0.2v0.4c-0.2,0.1-0.3,0.1-0.5,0.2
		C124.4,67.1,124.2,67.1,124,67.1z M123.8,64.2c-0.3,0-0.5,0.1-0.6,0.3s-0.2,0.4-0.3,0.7h1.7c0-0.3-0.1-0.5-0.2-0.7
		S124.1,64.2,123.8,64.2z"/>
	<path d="M128.2,66.6L128.2,66.6c-0.3,0.3-0.6,0.5-1,0.5c-0.4,0-0.7-0.1-1-0.4c-0.2-0.3-0.4-0.7-0.4-1.2s0.1-0.9,0.4-1.2
		s0.6-0.4,1-0.4c0.4,0,0.8,0.2,1,0.5h0l0-0.2l0-0.2v-1.3h0.5v4.6h-0.4L128.2,66.6z M127.2,66.7c0.3,0,0.6-0.1,0.7-0.3
		c0.1-0.2,0.2-0.5,0.2-0.9v-0.1c0-0.5-0.1-0.8-0.2-1s-0.4-0.3-0.7-0.3c-0.3,0-0.5,0.1-0.7,0.3c-0.2,0.2-0.2,0.5-0.2,0.9
		c0,0.4,0.1,0.7,0.2,0.9S126.9,66.7,127.2,66.7z"/>
	<path d="M130.1,63.9V66c0,0.3,0.1,0.5,0.2,0.6s0.3,0.2,0.6,0.2c0.3,0,0.6-0.1,0.7-0.3c0.2-0.2,0.2-0.5,0.2-0.9v-1.7h0.5v3.2h-0.4
		l-0.1-0.4h0c-0.1,0.2-0.2,0.3-0.4,0.4s-0.4,0.1-0.6,0.1c-0.4,0-0.7-0.1-0.9-0.3s-0.3-0.5-0.3-0.9v-2.1H130.1z"/>
	<path d="M134.6,67.1c-0.5,0-0.8-0.1-1.1-0.4c-0.3-0.3-0.4-0.7-0.4-1.2c0-0.5,0.1-1,0.4-1.2s0.6-0.4,1.1-0.4c0.2,0,0.3,0,0.5,0
		s0.3,0.1,0.4,0.1l-0.1,0.4c-0.1,0-0.2-0.1-0.4-0.1s-0.2,0-0.3,0c-0.7,0-1,0.4-1,1.2c0,0.4,0.1,0.7,0.2,0.9c0.2,0.2,0.4,0.3,0.7,0.3
		c0.3,0,0.5-0.1,0.8-0.2V67C135.2,67.1,134.9,67.1,134.6,67.1z"/>
	<path d="M138.2,67.1l-0.1-0.5h0c-0.2,0.2-0.3,0.3-0.5,0.4s-0.4,0.1-0.6,0.1c-0.3,0-0.6-0.1-0.7-0.2c-0.2-0.2-0.3-0.4-0.3-0.7
		c0-0.6,0.5-1,1.6-1l0.5,0V65c0-0.3-0.1-0.4-0.2-0.6c-0.1-0.1-0.3-0.2-0.5-0.2c-0.3,0-0.6,0.1-0.9,0.2l-0.1-0.4
		c0.2-0.1,0.3-0.2,0.5-0.2c0.2,0,0.4-0.1,0.6-0.1c0.4,0,0.7,0.1,0.9,0.3c0.2,0.2,0.3,0.4,0.3,0.8v2.2H138.2z M137.1,66.7
		c0.3,0,0.5-0.1,0.7-0.2c0.2-0.2,0.3-0.4,0.3-0.7v-0.3l-0.5,0c-0.4,0-0.7,0.1-0.8,0.2s-0.3,0.3-0.3,0.5c0,0.2,0.1,0.3,0.2,0.4
		C136.7,66.7,136.9,66.7,137.1,66.7z"/>
	<path d="M140.6,66.7c0.1,0,0.2,0,0.2,0s0.1,0,0.2,0V67c-0.1,0-0.1,0-0.2,0.1c-0.1,0-0.2,0-0.3,0c-0.6,0-0.9-0.3-0.9-1v-1.9h-0.5V64
		l0.5-0.2l0.2-0.7h0.3v0.7h0.9v0.4H140v1.9c0,0.2,0,0.3,0.1,0.4S140.4,66.7,140.6,66.7z"/>
	<path d="M141.6,63c0-0.1,0-0.2,0.1-0.2s0.1-0.1,0.2-0.1c0.1,0,0.1,0,0.2,0.1s0.1,0.1,0.1,0.2s0,0.2-0.1,0.2s-0.1,0.1-0.2,0.1
		c-0.1,0-0.2,0-0.2-0.1S141.6,63.1,141.6,63z M142.1,67.1h-0.5v-3.2h0.5V67.1z"/>
	<path d="M145.9,65.5c0,0.5-0.1,0.9-0.4,1.2s-0.6,0.4-1.1,0.4c-0.3,0-0.5-0.1-0.8-0.2s-0.4-0.3-0.5-0.6s-0.2-0.5-0.2-0.9
		c0-0.5,0.1-0.9,0.4-1.2s0.6-0.4,1.1-0.4c0.4,0,0.8,0.1,1.1,0.4C145.8,64.6,145.9,65,145.9,65.5z M143.5,65.5c0,0.4,0.1,0.7,0.2,0.9
		s0.4,0.3,0.7,0.3s0.6-0.1,0.7-0.3s0.2-0.5,0.2-0.9c0-0.4-0.1-0.7-0.2-0.9s-0.4-0.3-0.7-0.3c-0.3,0-0.6,0.1-0.7,0.3
		S143.5,65.1,143.5,65.5z"/>
	<path d="M149,67.1V65c0-0.3-0.1-0.5-0.2-0.6s-0.3-0.2-0.6-0.2c-0.3,0-0.6,0.1-0.7,0.3s-0.2,0.5-0.2,0.9v1.7h-0.5v-3.2h0.4l0.1,0.4
		h0c0.1-0.2,0.2-0.3,0.4-0.4s0.4-0.1,0.6-0.1c0.4,0,0.7,0.1,0.9,0.3s0.3,0.5,0.3,0.9v2.1H149z"/>
	<path d="M154,67.1l-0.1-0.5h0c-0.2,0.2-0.3,0.3-0.5,0.4s-0.4,0.1-0.6,0.1c-0.3,0-0.6-0.1-0.7-0.2c-0.2-0.2-0.3-0.4-0.3-0.7
		c0-0.6,0.5-1,1.6-1l0.5,0V65c0-0.3-0.1-0.4-0.2-0.6c-0.1-0.1-0.3-0.2-0.5-0.2c-0.3,0-0.6,0.1-0.9,0.2l-0.1-0.4
		c0.2-0.1,0.3-0.2,0.5-0.2c0.2,0,0.4-0.1,0.6-0.1c0.4,0,0.7,0.1,0.9,0.3c0.2,0.2,0.3,0.4,0.3,0.8v2.2H154z M152.9,66.7
		c0.3,0,0.5-0.1,0.7-0.2c0.2-0.2,0.3-0.4,0.3-0.7v-0.3l-0.5,0c-0.4,0-0.7,0.1-0.8,0.2s-0.3,0.3-0.3,0.5c0,0.2,0.1,0.3,0.2,0.4
		C152.6,66.7,152.7,66.7,152.9,66.7z"/>
	<path d="M157.6,67.1V65c0-0.3-0.1-0.5-0.2-0.6s-0.3-0.2-0.6-0.2c-0.3,0-0.6,0.1-0.7,0.3s-0.2,0.5-0.2,0.9v1.7h-0.5v-3.2h0.4
		l0.1,0.4h0c0.1-0.2,0.2-0.3,0.4-0.4s0.4-0.1,0.6-0.1c0.4,0,0.7,0.1,0.9,0.3s0.3,0.5,0.3,0.9v2.1H157.6z"/>
	<path d="M161.2,66.6L161.2,66.6c-0.3,0.3-0.6,0.5-1,0.5c-0.4,0-0.7-0.1-1-0.4c-0.2-0.3-0.4-0.7-0.4-1.2s0.1-0.9,0.4-1.2
		s0.6-0.4,1-0.4c0.4,0,0.8,0.2,1,0.5h0l0-0.2l0-0.2v-1.3h0.5v4.6h-0.4L161.2,66.6z M160.3,66.7c0.3,0,0.6-0.1,0.7-0.3
		c0.1-0.2,0.2-0.5,0.2-0.9v-0.1c0-0.5-0.1-0.8-0.2-1s-0.4-0.3-0.7-0.3c-0.3,0-0.5,0.1-0.7,0.3c-0.2,0.2-0.2,0.5-0.2,0.9
		c0,0.4,0.1,0.7,0.2,0.9S160,66.7,160.3,66.7z"/>
	<path d="M164.8,65.4c0.1-0.1,0.2-0.3,0.4-0.5l1-1.1h0.6l-1.3,1.4l1.4,1.8h-0.6l-1.1-1.5l-0.4,0.3v1.2h-0.5v-4.6h0.5v2.4
		C164.8,65,164.7,65.2,164.8,65.4L164.8,65.4z"/>
	<path d="M169.6,67.1V65c0-0.3-0.1-0.5-0.2-0.6s-0.3-0.2-0.6-0.2c-0.3,0-0.6,0.1-0.7,0.3s-0.2,0.5-0.2,0.9v1.7h-0.5v-3.2h0.4
		l0.1,0.4h0c0.1-0.2,0.2-0.3,0.4-0.4s0.4-0.1,0.6-0.1c0.4,0,0.7,0.1,0.9,0.3s0.3,0.5,0.3,0.9v2.1H169.6z"/>
	<path d="M173.9,65.5c0,0.5-0.1,0.9-0.4,1.2s-0.6,0.4-1.1,0.4c-0.3,0-0.5-0.1-0.8-0.2s-0.4-0.3-0.5-0.6s-0.2-0.5-0.2-0.9
		c0-0.5,0.1-0.9,0.4-1.2s0.6-0.4,1.1-0.4c0.4,0,0.8,0.1,1.1,0.4C173.7,64.6,173.9,65,173.9,65.5z M171.4,65.5c0,0.4,0.1,0.7,0.2,0.9
		s0.4,0.3,0.7,0.3s0.6-0.1,0.7-0.3s0.2-0.5,0.2-0.9c0-0.4-0.1-0.7-0.2-0.9s-0.4-0.3-0.7-0.3c-0.3,0-0.6,0.1-0.7,0.3
		S171.4,65.1,171.4,65.5z"/>
	<path d="M177.4,67.1l-0.6-1.9c0-0.1-0.1-0.4-0.2-0.8h0c-0.1,0.3-0.1,0.6-0.2,0.8l-0.6,1.9h-0.6l-0.9-3.2h0.5
		c0.2,0.8,0.4,1.4,0.5,1.8c0.1,0.4,0.2,0.7,0.2,0.9h0c0-0.1,0.1-0.3,0.1-0.4s0.1-0.3,0.1-0.4l0.6-1.8h0.5l0.6,1.8
		c0.1,0.3,0.2,0.6,0.2,0.8h0c0-0.1,0-0.2,0.1-0.3c0-0.1,0.2-0.9,0.6-2.4h0.5l-0.9,3.2H177.4z"/>
	<path d="M179.9,67.1h-0.5v-4.6h0.5V67.1z"/>
	<path d="M182.3,67.1c-0.5,0-0.8-0.1-1.1-0.4s-0.4-0.7-0.4-1.2c0-0.5,0.1-0.9,0.4-1.2c0.3-0.3,0.6-0.5,1-0.5c0.4,0,0.7,0.1,1,0.4
		s0.4,0.6,0.4,1v0.3h-2.2c0,0.4,0.1,0.7,0.3,0.9c0.2,0.2,0.4,0.3,0.8,0.3c0.3,0,0.7-0.1,1-0.2v0.4c-0.2,0.1-0.3,0.1-0.5,0.2
		C182.7,67.1,182.5,67.1,182.3,67.1z M182.1,64.2c-0.3,0-0.5,0.1-0.6,0.3s-0.2,0.4-0.3,0.7h1.7c0-0.3-0.1-0.5-0.2-0.7
		S182.4,64.2,182.1,64.2z"/>
	<path d="M186.5,66.6L186.5,66.6c-0.3,0.3-0.6,0.5-1,0.5c-0.4,0-0.7-0.1-1-0.4c-0.2-0.3-0.4-0.7-0.4-1.2s0.1-0.9,0.4-1.2
		s0.6-0.4,1-0.4c0.4,0,0.8,0.2,1,0.5h0l0-0.2l0-0.2v-1.3h0.5v4.6h-0.4L186.5,66.6z M185.5,66.7c0.3,0,0.6-0.1,0.7-0.3
		c0.1-0.2,0.2-0.5,0.2-0.9v-0.1c0-0.5-0.1-0.8-0.2-1s-0.4-0.3-0.7-0.3c-0.3,0-0.5,0.1-0.7,0.3c-0.2,0.2-0.2,0.5-0.2,0.9
		c0,0.4,0.1,0.7,0.2,0.9S185.2,66.7,185.5,66.7z"/>
	<path d="M190.6,63.9v0.3l-0.6,0.1c0.1,0.1,0.1,0.2,0.1,0.3s0.1,0.2,0.1,0.4c0,0.3-0.1,0.6-0.3,0.8s-0.5,0.3-0.9,0.3
		c-0.1,0-0.2,0-0.3,0c-0.2,0.1-0.3,0.2-0.3,0.4c0,0.1,0,0.2,0.1,0.2s0.2,0.1,0.4,0.1h0.6c0.3,0,0.6,0.1,0.8,0.2s0.3,0.4,0.3,0.6
		c0,0.4-0.1,0.6-0.4,0.8s-0.7,0.3-1.2,0.3c-0.4,0-0.7-0.1-1-0.2s-0.3-0.4-0.3-0.7c0-0.2,0.1-0.4,0.2-0.5s0.3-0.2,0.5-0.3
		c-0.1,0-0.2-0.1-0.2-0.2c-0.1-0.1-0.1-0.2-0.1-0.3c0-0.1,0-0.2,0.1-0.3s0.2-0.2,0.3-0.3c-0.2-0.1-0.3-0.2-0.4-0.3
		c-0.1-0.2-0.2-0.4-0.2-0.6c0-0.4,0.1-0.6,0.3-0.8s0.5-0.3,0.9-0.3c0.2,0,0.3,0,0.5,0.1H190.6z M188,67.6c0,0.2,0.1,0.3,0.2,0.4
		s0.4,0.1,0.6,0.1c0.4,0,0.7-0.1,0.9-0.2c0.2-0.1,0.3-0.3,0.3-0.5c0-0.2-0.1-0.3-0.2-0.4s-0.3-0.1-0.6-0.1h-0.6
		c-0.2,0-0.4,0.1-0.5,0.2S188,67.4,188,67.6z M188.3,64.9c0,0.2,0.1,0.4,0.2,0.5s0.3,0.2,0.5,0.2c0.5,0,0.7-0.2,0.7-0.7
		c0-0.5-0.2-0.7-0.7-0.7c-0.2,0-0.4,0.1-0.5,0.2S188.3,64.7,188.3,64.9z"/>
	<path d="M192.6,67.1c-0.5,0-0.8-0.1-1.1-0.4s-0.4-0.7-0.4-1.2c0-0.5,0.1-0.9,0.4-1.2c0.3-0.3,0.6-0.5,1-0.5c0.4,0,0.7,0.1,1,0.4
		s0.4,0.6,0.4,1v0.3h-2.2c0,0.4,0.1,0.7,0.3,0.9c0.2,0.2,0.4,0.3,0.8,0.3c0.3,0,0.7-0.1,1-0.2v0.4c-0.2,0.1-0.3,0.1-0.5,0.2
		C193,67.1,192.8,67.1,192.6,67.1z M192.5,64.2c-0.3,0-0.5,0.1-0.6,0.3s-0.2,0.4-0.3,0.7h1.7c0-0.3-0.1-0.5-0.2-0.7
		S192.7,64.2,192.5,64.2z"/>
	<path d="M198.1,67.1l-0.1-0.5h0c-0.2,0.2-0.3,0.3-0.5,0.4s-0.4,0.1-0.6,0.1c-0.3,0-0.6-0.1-0.7-0.2c-0.2-0.2-0.3-0.4-0.3-0.7
		c0-0.6,0.5-1,1.6-1l0.5,0V65c0-0.3-0.1-0.4-0.2-0.6c-0.1-0.1-0.3-0.2-0.5-0.2c-0.3,0-0.6,0.1-0.9,0.2l-0.1-0.4
		c0.2-0.1,0.3-0.2,0.5-0.2c0.2,0,0.4-0.1,0.6-0.1c0.4,0,0.7,0.1,0.9,0.3c0.2,0.2,0.3,0.4,0.3,0.8v2.2H198.1z M197,66.7
		c0.3,0,0.5-0.1,0.7-0.2c0.2-0.2,0.3-0.4,0.3-0.7v-0.3l-0.5,0c-0.4,0-0.7,0.1-0.8,0.2s-0.3,0.3-0.3,0.5c0,0.2,0.1,0.3,0.2,0.4
		C196.7,66.7,196.9,66.7,197,66.7z"/>
	<path d="M201,63.8c0.4,0,0.7,0.1,1,0.4s0.4,0.7,0.4,1.2s-0.1,0.9-0.4,1.2c-0.2,0.3-0.6,0.4-1,0.4c-0.2,0-0.4,0-0.6-0.1
		c-0.2-0.1-0.3-0.2-0.4-0.4h0l-0.1,0.4h-0.3v-4.6h0.5v1.1c0,0.2,0,0.5,0,0.7h0C200.2,64,200.6,63.8,201,63.8z M200.9,64.2
		c-0.3,0-0.6,0.1-0.7,0.3s-0.2,0.5-0.2,1s0.1,0.8,0.2,1s0.4,0.3,0.7,0.3c0.3,0,0.5-0.1,0.7-0.3s0.2-0.5,0.2-0.9
		c0-0.4-0.1-0.7-0.2-0.9S201.2,64.2,200.9,64.2z"/>
	<path d="M206,65.5c0,0.5-0.1,0.9-0.4,1.2s-0.6,0.4-1.1,0.4c-0.3,0-0.5-0.1-0.8-0.2s-0.4-0.3-0.5-0.6s-0.2-0.5-0.2-0.9
		c0-0.5,0.1-0.9,0.4-1.2s0.6-0.4,1.1-0.4c0.4,0,0.8,0.1,1.1,0.4C205.8,64.6,206,65,206,65.5z M203.5,65.5c0,0.4,0.1,0.7,0.2,0.9
		s0.4,0.3,0.7,0.3s0.6-0.1,0.7-0.3s0.2-0.5,0.2-0.9c0-0.4-0.1-0.7-0.2-0.9s-0.4-0.3-0.7-0.3c-0.3,0-0.6,0.1-0.7,0.3
		S203.5,65.1,203.5,65.5z"/>
	<path d="M207.3,63.9V66c0,0.3,0.1,0.5,0.2,0.6s0.3,0.2,0.6,0.2c0.3,0,0.6-0.1,0.7-0.3c0.2-0.2,0.2-0.5,0.2-0.9v-1.7h0.5v3.2h-0.4
		l-0.1-0.4h0c-0.1,0.2-0.2,0.3-0.4,0.4s-0.4,0.1-0.6,0.1c-0.4,0-0.7-0.1-0.9-0.3s-0.3-0.5-0.3-0.9v-2.1H207.3z"/>
	<path d="M211.5,66.7c0.1,0,0.2,0,0.2,0s0.1,0,0.2,0V67c-0.1,0-0.1,0-0.2,0.1c-0.1,0-0.2,0-0.3,0c-0.6,0-0.9-0.3-0.9-1v-1.9h-0.5V64
		l0.5-0.2l0.2-0.7h0.3v0.7h0.9v0.4H211v1.9c0,0.2,0,0.3,0.1,0.4S211.4,66.7,211.5,66.7z"/>
	<path d="M90.2,73.9c0.1,0,0.2,0,0.2,0s0.1,0,0.2,0v0.4c-0.1,0-0.1,0-0.2,0.1s-0.2,0-0.3,0c-0.6,0-0.9-0.3-0.9-1v-1.9h-0.5v-0.2
		l0.5-0.2l0.2-0.7h0.3v0.7h0.9v0.4h-0.9v1.9c0,0.2,0,0.3,0.1,0.4S90,73.9,90.2,73.9z"/>
	<path d="M93.4,74.3v-2.1c0-0.3-0.1-0.5-0.2-0.6s-0.3-0.2-0.6-0.2c-0.3,0-0.6,0.1-0.7,0.3s-0.2,0.5-0.2,0.9v1.7h-0.5v-4.6h0.5v1.4
		c0,0.2,0,0.3,0,0.4h0c0.1-0.2,0.2-0.3,0.4-0.4s0.4-0.1,0.6-0.1c0.4,0,0.7,0.1,0.9,0.3s0.3,0.5,0.3,0.9v2.1H93.4z"/>
	<path d="M96.3,74.3c-0.5,0-0.8-0.1-1.1-0.4s-0.4-0.7-0.4-1.2c0-0.5,0.1-0.9,0.4-1.2s0.6-0.5,1-0.5c0.4,0,0.7,0.1,1,0.4
		s0.4,0.6,0.4,1v0.3h-2.2c0,0.4,0.1,0.7,0.3,0.9s0.4,0.3,0.8,0.3c0.3,0,0.7-0.1,1-0.2v0.4c-0.2,0.1-0.3,0.1-0.5,0.2
		S96.5,74.3,96.3,74.3z M96.2,71.4c-0.3,0-0.5,0.1-0.6,0.3s-0.2,0.4-0.3,0.7h1.7c0-0.3-0.1-0.5-0.2-0.7S96.4,71.4,96.2,71.4z"/>
	<path d="M101.3,71c0.1,0,0.3,0,0.4,0l-0.1,0.5c-0.1,0-0.3,0-0.4,0c-0.3,0-0.5,0.1-0.7,0.3s-0.3,0.5-0.3,0.8v1.7h-0.5v-3.2h0.4
		l0.1,0.6h0c0.1-0.2,0.3-0.4,0.4-0.5S101.1,71,101.3,71z"/>
	<path d="M103.7,74.3c-0.5,0-0.8-0.1-1.1-0.4s-0.4-0.7-0.4-1.2c0-0.5,0.1-0.9,0.4-1.2s0.6-0.5,1-0.5c0.4,0,0.7,0.1,1,0.4
		s0.4,0.6,0.4,1v0.3h-2.2c0,0.4,0.1,0.7,0.3,0.9s0.4,0.3,0.8,0.3c0.3,0,0.7-0.1,1-0.2v0.4c-0.2,0.1-0.3,0.1-0.5,0.2
		S103.9,74.3,103.7,74.3z M103.5,71.4c-0.3,0-0.5,0.1-0.6,0.3s-0.2,0.4-0.3,0.7h1.7c0-0.3-0.1-0.5-0.2-0.7S103.8,71.4,103.5,71.4z"
		/>
	<path d="M107,74.3c-0.5,0-0.8-0.1-1.1-0.4s-0.4-0.7-0.4-1.2c0-0.5,0.1-1,0.4-1.2s0.6-0.4,1.1-0.4c0.2,0,0.3,0,0.5,0
		s0.3,0.1,0.4,0.1l-0.1,0.4c-0.1,0-0.2-0.1-0.4-0.1s-0.2,0-0.3,0c-0.7,0-1,0.4-1,1.2c0,0.4,0.1,0.7,0.2,0.9s0.4,0.3,0.7,0.3
		c0.3,0,0.5-0.1,0.8-0.2v0.4C107.5,74.3,107.3,74.3,107,74.3z"/>
	<path d="M108,71.1h0.5l0.7,1.8c0.2,0.4,0.3,0.7,0.3,0.9h0c0-0.1,0.1-0.3,0.2-0.5s0.3-1,0.8-2.2h0.5l-1.4,3.7
		c-0.1,0.4-0.3,0.6-0.5,0.8s-0.4,0.2-0.7,0.2c-0.1,0-0.3,0-0.4,0v-0.4c0.1,0,0.2,0,0.4,0c0.3,0,0.6-0.2,0.7-0.6l0.2-0.5L108,71.1z"
		/>
	<path d="M112.8,74.3c-0.5,0-0.8-0.1-1.1-0.4s-0.4-0.7-0.4-1.2c0-0.5,0.1-1,0.4-1.2s0.6-0.4,1.1-0.4c0.2,0,0.3,0,0.5,0
		s0.3,0.1,0.4,0.1l-0.1,0.4c-0.1,0-0.2-0.1-0.4-0.1s-0.2,0-0.3,0c-0.7,0-1,0.4-1,1.2c0,0.4,0.1,0.7,0.2,0.9s0.4,0.3,0.7,0.3
		c0.3,0,0.5-0.1,0.8-0.2v0.4C113.4,74.3,113.2,74.3,112.8,74.3z"/>
	<path d="M114.9,74.3h-0.5v-4.6h0.5V74.3z"/>
	<path d="M117.9,74.3l-0.1-0.5h0c-0.2,0.2-0.3,0.3-0.5,0.4s-0.4,0.1-0.6,0.1c-0.3,0-0.6-0.1-0.7-0.2c-0.2-0.2-0.3-0.4-0.3-0.7
		c0-0.6,0.5-1,1.6-1l0.5,0v-0.2c0-0.3-0.1-0.4-0.2-0.6c-0.1-0.1-0.3-0.2-0.5-0.2c-0.3,0-0.6,0.1-0.9,0.2l-0.1-0.4
		c0.2-0.1,0.3-0.2,0.5-0.2c0.2,0,0.4-0.1,0.6-0.1c0.4,0,0.7,0.1,0.9,0.3c0.2,0.2,0.3,0.4,0.3,0.8v2.2H117.9z M116.8,73.9
		c0.3,0,0.5-0.1,0.7-0.2c0.2-0.2,0.3-0.4,0.3-0.7v-0.3l-0.5,0c-0.4,0-0.7,0.1-0.8,0.2s-0.3,0.3-0.3,0.5c0,0.2,0.1,0.3,0.2,0.4
		C116.5,73.9,116.6,73.9,116.8,73.9z"/>
	<path d="M120.8,71c0.4,0,0.7,0.1,1,0.4s0.4,0.7,0.4,1.2s-0.1,0.9-0.4,1.2c-0.2,0.3-0.6,0.4-1,0.4c-0.2,0-0.4,0-0.6-0.1
		c-0.2-0.1-0.3-0.2-0.4-0.4h0l-0.1,0.4h-0.3v-4.6h0.5v1.1c0,0.2,0,0.5,0,0.7h0C120,71.2,120.3,71,120.8,71z M120.7,71.4
		c-0.3,0-0.6,0.1-0.7,0.3s-0.2,0.5-0.2,1s0.1,0.8,0.2,1s0.4,0.3,0.7,0.3c0.3,0,0.5-0.1,0.7-0.3s0.2-0.5,0.2-0.9
		c0-0.4-0.1-0.7-0.2-0.9S121,71.4,120.7,71.4z"/>
	<path d="M122.9,70.2c0-0.1,0-0.2,0.1-0.2s0.1-0.1,0.2-0.1c0.1,0,0.1,0,0.2,0.1s0.1,0.1,0.1,0.2s0,0.2-0.1,0.2s-0.1,0.1-0.2,0.1
		c-0.1,0-0.2,0-0.2-0.1S122.9,70.3,122.9,70.2z M123.4,74.3h-0.5v-3.2h0.5V74.3z"/>
	<path d="M124.9,74.3h-0.5v-4.6h0.5V74.3z"/>
	<path d="M125.9,70.2c0-0.1,0-0.2,0.1-0.2s0.1-0.1,0.2-0.1c0.1,0,0.1,0,0.2,0.1s0.1,0.1,0.1,0.2s0,0.2-0.1,0.2s-0.1,0.1-0.2,0.1
		c-0.1,0-0.2,0-0.2-0.1S125.9,70.3,125.9,70.2z M126.5,74.3H126v-3.2h0.5V74.3z"/>
	<path d="M128.5,73.9c0.1,0,0.2,0,0.2,0s0.1,0,0.2,0v0.4c-0.1,0-0.1,0-0.2,0.1c-0.1,0-0.2,0-0.3,0c-0.6,0-0.9-0.3-0.9-1v-1.9h-0.5
		v-0.2l0.5-0.2l0.2-0.7h0.3v0.7h0.9v0.4H128v1.9c0,0.2,0,0.3,0.1,0.4S128.4,73.9,128.5,73.9z"/>
	<path d="M129.1,71.1h0.5l0.7,1.8c0.2,0.4,0.3,0.7,0.3,0.9h0c0-0.1,0.1-0.3,0.2-0.5c0.1-0.2,0.3-1,0.8-2.2h0.5l-1.4,3.7
		c-0.1,0.4-0.3,0.6-0.5,0.8s-0.4,0.2-0.7,0.2c-0.1,0-0.3,0-0.4,0v-0.4c0.1,0,0.2,0,0.4,0c0.3,0,0.6-0.2,0.7-0.6l0.2-0.5L129.1,71.1z
		"/>
	<path d="M137,72.7c0,0.5-0.1,0.9-0.4,1.2s-0.6,0.4-1.1,0.4c-0.3,0-0.5-0.1-0.8-0.2s-0.4-0.3-0.5-0.6S134,73,134,72.7
		c0-0.5,0.1-0.9,0.4-1.2s0.6-0.4,1.1-0.4c0.4,0,0.8,0.1,1.1,0.4C136.8,71.8,137,72.2,137,72.7z M134.5,72.7c0,0.4,0.1,0.7,0.2,0.9
		s0.4,0.3,0.7,0.3s0.6-0.1,0.7-0.3s0.2-0.5,0.2-0.9c0-0.4-0.1-0.7-0.2-0.9s-0.4-0.3-0.7-0.3c-0.3,0-0.6,0.1-0.7,0.3
		S134.5,72.3,134.5,72.7z"/>
	<path d="M139.3,71.4h-0.8v2.8H138v-2.8h-0.6v-0.2L138,71v-0.2c0-0.8,0.3-1.2,1-1.2c0.2,0,0.4,0,0.6,0.1l-0.1,0.4
		c-0.2-0.1-0.3-0.1-0.5-0.1c-0.2,0-0.3,0.1-0.4,0.2s-0.1,0.3-0.1,0.6v0.2h0.8V71.4z"/>
	<path d="M142.9,74.3c-0.2,0-0.4,0-0.6-0.1c-0.2-0.1-0.3-0.2-0.4-0.4h0c0,0.2,0,0.4,0,0.5v1.3h-0.5v-4.7h0.4l0.1,0.4h0
		c0.1-0.2,0.3-0.3,0.4-0.4s0.4-0.1,0.6-0.1c0.4,0,0.8,0.1,1,0.4c0.2,0.3,0.3,0.7,0.3,1.2c0,0.5-0.1,0.9-0.4,1.2
		C143.6,74.2,143.3,74.3,142.9,74.3z M142.8,71.4c-0.3,0-0.6,0.1-0.7,0.3s-0.2,0.5-0.2,0.9v0.1c0,0.5,0.1,0.8,0.2,1s0.4,0.3,0.7,0.3
		c0.3,0,0.5-0.1,0.7-0.3c0.2-0.2,0.2-0.5,0.2-0.9c0-0.4-0.1-0.7-0.2-0.9C143.3,71.5,143.1,71.4,142.8,71.4z"/>
	<path d="M146.5,71c0.1,0,0.3,0,0.4,0l-0.1,0.5c-0.1,0-0.3,0-0.4,0c-0.3,0-0.5,0.1-0.7,0.3c-0.2,0.2-0.3,0.5-0.3,0.8v1.7h-0.5v-3.2
		h0.4l0.1,0.6h0c0.1-0.2,0.3-0.4,0.4-0.5S146.3,71,146.5,71z"/>
	<path d="M150.3,72.7c0,0.5-0.1,0.9-0.4,1.2s-0.6,0.4-1.1,0.4c-0.3,0-0.5-0.1-0.8-0.2s-0.4-0.3-0.5-0.6s-0.2-0.5-0.2-0.9
		c0-0.5,0.1-0.9,0.4-1.2s0.6-0.4,1.1-0.4c0.4,0,0.8,0.1,1.1,0.4C150.2,71.8,150.3,72.2,150.3,72.7z M147.9,72.7
		c0,0.4,0.1,0.7,0.2,0.9s0.4,0.3,0.7,0.3s0.6-0.1,0.7-0.3s0.2-0.5,0.2-0.9c0-0.4-0.1-0.7-0.2-0.9s-0.4-0.3-0.7-0.3
		c-0.3,0-0.6,0.1-0.7,0.3S147.9,72.3,147.9,72.7z"/>
	<path d="M153.3,73.8L153.3,73.8c-0.3,0.3-0.6,0.5-1,0.5c-0.4,0-0.7-0.1-1-0.4c-0.2-0.3-0.4-0.7-0.4-1.2s0.1-0.9,0.4-1.2
		s0.6-0.4,1-0.4c0.4,0,0.8,0.2,1,0.5h0l0-0.2l0-0.2v-1.3h0.5v4.6h-0.4L153.3,73.8z M152.4,73.9c0.3,0,0.6-0.1,0.7-0.3
		c0.1-0.2,0.2-0.5,0.2-0.9v-0.1c0-0.5-0.1-0.8-0.2-1s-0.4-0.3-0.7-0.3c-0.3,0-0.5,0.1-0.7,0.3c-0.2,0.2-0.2,0.5-0.2,0.9
		c0,0.4,0.1,0.7,0.2,0.9S152.1,73.9,152.4,73.9z"/>
	<path d="M155.3,71.1v2.1c0,0.3,0.1,0.5,0.2,0.6s0.3,0.2,0.6,0.2c0.3,0,0.6-0.1,0.7-0.3c0.2-0.2,0.2-0.5,0.2-0.9v-1.7h0.5v3.2h-0.4
		l-0.1-0.4h0c-0.1,0.2-0.2,0.3-0.4,0.4s-0.4,0.1-0.6,0.1c-0.4,0-0.7-0.1-0.9-0.3s-0.3-0.5-0.3-0.9v-2.1H155.3z"/>
	<path d="M159.8,74.3c-0.5,0-0.8-0.1-1.1-0.4c-0.3-0.3-0.4-0.7-0.4-1.2c0-0.5,0.1-1,0.4-1.2s0.6-0.4,1.1-0.4c0.2,0,0.3,0,0.5,0
		s0.3,0.1,0.4,0.1l-0.1,0.4c-0.1,0-0.2-0.1-0.4-0.1s-0.2,0-0.3,0c-0.7,0-1,0.4-1,1.2c0,0.4,0.1,0.7,0.2,0.9c0.2,0.2,0.4,0.3,0.7,0.3
		c0.3,0,0.5-0.1,0.8-0.2v0.4C160.4,74.3,160.1,74.3,159.8,74.3z"/>
	<path d="M162.4,73.9c0.1,0,0.2,0,0.2,0s0.1,0,0.2,0v0.4c-0.1,0-0.1,0-0.2,0.1c-0.1,0-0.2,0-0.3,0c-0.6,0-0.9-0.3-0.9-1v-1.9h-0.5
		v-0.2l0.5-0.2l0.2-0.7h0.3v0.7h0.9v0.4h-0.9v1.9c0,0.2,0,0.3,0.1,0.4S162.2,73.9,162.4,73.9z"/>
	<path d="M165.6,73.4c0,0.3-0.1,0.5-0.3,0.7s-0.5,0.2-0.9,0.2c-0.4,0-0.8-0.1-1-0.2v-0.5c0.2,0.1,0.3,0.1,0.5,0.2
		c0.2,0,0.3,0.1,0.5,0.1c0.3,0,0.4,0,0.6-0.1s0.2-0.2,0.2-0.4c0-0.1-0.1-0.2-0.2-0.3c-0.1-0.1-0.3-0.2-0.6-0.3
		c-0.3-0.1-0.5-0.2-0.6-0.3c-0.1-0.1-0.2-0.2-0.3-0.3c-0.1-0.1-0.1-0.2-0.1-0.4c0-0.3,0.1-0.5,0.3-0.6s0.5-0.2,0.9-0.2
		c0.3,0,0.7,0.1,1,0.2l-0.2,0.4c-0.3-0.1-0.6-0.2-0.9-0.2c-0.2,0-0.4,0-0.5,0.1s-0.2,0.2-0.2,0.3c0,0.1,0,0.2,0.1,0.2
		c0,0.1,0.1,0.1,0.2,0.2s0.3,0.1,0.6,0.2c0.4,0.1,0.6,0.3,0.8,0.4C165.5,73,165.6,73.2,165.6,73.4z"/>
	<path d="M167.6,72.9v-0.4h1.4v0.4H167.6z"/>
	<path d="M175.5,74.3v-2.1c0-0.3-0.1-0.4-0.2-0.6s-0.3-0.2-0.5-0.2c-0.3,0-0.5,0.1-0.7,0.3s-0.2,0.4-0.2,0.8v1.8h-0.5v-2.1
		c0-0.3-0.1-0.4-0.2-0.6s-0.3-0.2-0.5-0.2c-0.3,0-0.5,0.1-0.7,0.3c-0.1,0.2-0.2,0.5-0.2,0.9v1.7h-0.5v-3.2h0.4l0.1,0.4h0
		c0.1-0.2,0.2-0.3,0.4-0.4c0.2-0.1,0.4-0.1,0.6-0.1c0.5,0,0.8,0.2,1,0.5h0c0.1-0.2,0.2-0.3,0.4-0.4s0.4-0.1,0.6-0.1
		c0.4,0,0.6,0.1,0.8,0.3c0.2,0.2,0.3,0.5,0.3,0.9v2.1H175.5z"/>
	<path d="M176.9,70.2c0-0.1,0-0.2,0.1-0.2s0.1-0.1,0.2-0.1c0.1,0,0.1,0,0.2,0.1s0.1,0.1,0.1,0.2s0,0.2-0.1,0.2s-0.1,0.1-0.2,0.1
		c-0.1,0-0.2,0-0.2-0.1S176.9,70.3,176.9,70.2z M177.5,74.3H177v-3.2h0.5V74.3z"/>
	<path d="M179,74.3h-0.5v-4.6h0.5V74.3z"/>
	<path d="M180.5,74.3H180v-4.6h0.5V74.3z"/>
	<path d="M182.9,74.3c-0.5,0-0.8-0.1-1.1-0.4s-0.4-0.7-0.4-1.2c0-0.5,0.1-0.9,0.4-1.2c0.3-0.3,0.6-0.5,1-0.5c0.4,0,0.7,0.1,1,0.4
		s0.4,0.6,0.4,1v0.3h-2.2c0,0.4,0.1,0.7,0.3,0.9c0.2,0.2,0.4,0.3,0.8,0.3c0.3,0,0.7-0.1,1-0.2v0.4c-0.2,0.1-0.3,0.1-0.5,0.2
		C183.3,74.3,183.1,74.3,182.9,74.3z M182.8,71.4c-0.3,0-0.5,0.1-0.6,0.3s-0.2,0.4-0.3,0.7h1.7c0-0.3-0.1-0.5-0.2-0.7
		S183,71.4,182.8,71.4z"/>
	<path d="M187.1,74.3v-2.1c0-0.3-0.1-0.5-0.2-0.6s-0.3-0.2-0.6-0.2c-0.3,0-0.6,0.1-0.7,0.3s-0.2,0.5-0.2,0.9v1.7h-0.5v-3.2h0.4
		l0.1,0.4h0c0.1-0.2,0.2-0.3,0.4-0.4s0.4-0.1,0.6-0.1c0.4,0,0.7,0.1,0.9,0.3s0.3,0.5,0.3,0.9v2.1H187.1z"/>
	<path d="M190.8,74.3v-2.1c0-0.3-0.1-0.5-0.2-0.6s-0.3-0.2-0.6-0.2c-0.3,0-0.6,0.1-0.7,0.3s-0.2,0.5-0.2,0.9v1.7h-0.5v-3.2h0.4
		l0.1,0.4h0c0.1-0.2,0.2-0.3,0.4-0.4s0.4-0.1,0.6-0.1c0.4,0,0.7,0.1,0.9,0.3s0.3,0.5,0.3,0.9v2.1H190.8z"/>
	<path d="M192.2,70.2c0-0.1,0-0.2,0.1-0.2s0.1-0.1,0.2-0.1c0.1,0,0.1,0,0.2,0.1s0.1,0.1,0.1,0.2s0,0.2-0.1,0.2s-0.1,0.1-0.2,0.1
		c-0.1,0-0.2,0-0.2-0.1S192.2,70.3,192.2,70.2z M192.8,74.3h-0.5v-3.2h0.5V74.3z"/>
	<path d="M195.8,74.3l-0.1-0.5h0c-0.2,0.2-0.3,0.3-0.5,0.4s-0.4,0.1-0.6,0.1c-0.3,0-0.6-0.1-0.7-0.2c-0.2-0.2-0.3-0.4-0.3-0.7
		c0-0.6,0.5-1,1.6-1l0.5,0v-0.2c0-0.3-0.1-0.4-0.2-0.6c-0.1-0.1-0.3-0.2-0.5-0.2c-0.3,0-0.6,0.1-0.9,0.2l-0.1-0.4
		c0.2-0.1,0.3-0.2,0.5-0.2c0.2,0,0.4-0.1,0.6-0.1c0.4,0,0.7,0.1,0.9,0.3c0.2,0.2,0.3,0.4,0.3,0.8v2.2H195.8z M194.7,73.9
		c0.3,0,0.5-0.1,0.7-0.2c0.2-0.2,0.3-0.4,0.3-0.7v-0.3l-0.5,0c-0.4,0-0.7,0.1-0.8,0.2s-0.3,0.3-0.3,0.5c0,0.2,0.1,0.3,0.2,0.4
		C194.3,73.9,194.5,73.9,194.7,73.9z"/>
	<path d="M197.6,74.3h-0.5v-4.6h0.5V74.3z"/>
	<path d="M200.7,73.4c0,0.3-0.1,0.5-0.3,0.7s-0.5,0.2-0.9,0.2c-0.4,0-0.8-0.1-1-0.2v-0.5c0.2,0.1,0.3,0.1,0.5,0.2
		c0.2,0,0.3,0.1,0.5,0.1c0.3,0,0.4,0,0.6-0.1s0.2-0.2,0.2-0.4c0-0.1-0.1-0.2-0.2-0.3c-0.1-0.1-0.3-0.2-0.6-0.3
		c-0.3-0.1-0.5-0.2-0.6-0.3c-0.1-0.1-0.2-0.2-0.3-0.3c-0.1-0.1-0.1-0.2-0.1-0.4c0-0.3,0.1-0.5,0.3-0.6s0.5-0.2,0.9-0.2
		c0.3,0,0.7,0.1,1,0.2l-0.2,0.4c-0.3-0.1-0.6-0.2-0.9-0.2c-0.2,0-0.4,0-0.5,0.1s-0.2,0.2-0.2,0.3c0,0.1,0,0.2,0.1,0.2
		c0,0.1,0.1,0.1,0.2,0.2s0.3,0.1,0.6,0.2c0.4,0.1,0.6,0.3,0.8,0.4C200.6,73,200.7,73.2,200.7,73.4z"/>
	<path d="M205,74.3l-0.1-0.5h0c-0.2,0.2-0.3,0.3-0.5,0.4s-0.4,0.1-0.6,0.1c-0.3,0-0.6-0.1-0.7-0.2c-0.2-0.2-0.3-0.4-0.3-0.7
		c0-0.6,0.5-1,1.6-1l0.5,0v-0.2c0-0.3-0.1-0.4-0.2-0.6c-0.1-0.1-0.3-0.2-0.5-0.2c-0.3,0-0.6,0.1-0.9,0.2l-0.1-0.4
		c0.2-0.1,0.3-0.2,0.5-0.2c0.2,0,0.4-0.1,0.6-0.1c0.4,0,0.7,0.1,0.9,0.3c0.2,0.2,0.3,0.4,0.3,0.8v2.2H205z M203.9,73.9
		c0.3,0,0.5-0.1,0.7-0.2c0.2-0.2,0.3-0.4,0.3-0.7v-0.3l-0.5,0c-0.4,0-0.7,0.1-0.8,0.2s-0.3,0.3-0.3,0.5c0,0.2,0.1,0.3,0.2,0.4
		C203.6,73.9,203.7,73.9,203.9,73.9z"/>
	<path d="M207.9,71c0.1,0,0.3,0,0.4,0l-0.1,0.5c-0.1,0-0.3,0-0.4,0c-0.3,0-0.5,0.1-0.7,0.3c-0.2,0.2-0.3,0.5-0.3,0.8v1.7h-0.5v-3.2
		h0.4l0.1,0.6h0c0.1-0.2,0.3-0.4,0.4-0.5S207.7,71,207.9,71z"/>
	<path d="M210.2,74.3c-0.5,0-0.8-0.1-1.1-0.4s-0.4-0.7-0.4-1.2c0-0.5,0.1-0.9,0.4-1.2c0.3-0.3,0.6-0.5,1-0.5c0.4,0,0.7,0.1,1,0.4
		s0.4,0.6,0.4,1v0.3h-2.2c0,0.4,0.1,0.7,0.3,0.9c0.2,0.2,0.4,0.3,0.8,0.3c0.3,0,0.7-0.1,1-0.2v0.4c-0.2,0.1-0.3,0.1-0.5,0.2
		C210.6,74.3,210.4,74.3,210.2,74.3z M210.1,71.4c-0.3,0-0.5,0.1-0.6,0.3s-0.2,0.4-0.3,0.7h1.7c0-0.3-0.1-0.5-0.2-0.7
		S210.3,71.4,210.1,71.4z"/>
	<path d="M89.6,78.3v2.1c0,0.3,0.1,0.5,0.2,0.6s0.3,0.2,0.6,0.2c0.3,0,0.6-0.1,0.7-0.3s0.2-0.5,0.2-0.9v-1.7h0.5v3.2h-0.4L91.3,81h0
		c-0.1,0.2-0.2,0.3-0.4,0.4s-0.4,0.1-0.6,0.1c-0.4,0-0.7-0.1-0.9-0.3s-0.3-0.5-0.3-0.9v-2.1H89.6z"/>
	<path d="M95,81.5v-2.1c0-0.3-0.1-0.5-0.2-0.6s-0.3-0.2-0.6-0.2c-0.3,0-0.6,0.1-0.7,0.3s-0.2,0.5-0.2,0.9v1.7h-0.5v-3.2h0.4l0.1,0.4
		h0c0.1-0.2,0.2-0.3,0.4-0.4s0.4-0.1,0.6-0.1c0.4,0,0.7,0.1,0.9,0.3s0.3,0.5,0.3,0.9v2.1H95z"/>
	<path d="M98.5,81.5L98.4,81h0c-0.2,0.2-0.3,0.3-0.5,0.4s-0.4,0.1-0.6,0.1c-0.3,0-0.6-0.1-0.7-0.2s-0.3-0.4-0.3-0.7
		c0-0.6,0.5-1,1.6-1l0.5,0v-0.2c0-0.3-0.1-0.4-0.2-0.6s-0.3-0.2-0.5-0.2c-0.3,0-0.6,0.1-0.9,0.2l-0.1-0.4c0.2-0.1,0.3-0.2,0.5-0.2
		s0.4-0.1,0.6-0.1c0.4,0,0.7,0.1,0.9,0.3s0.3,0.4,0.3,0.8v2.2H98.5z M97.4,81.1c0.3,0,0.5-0.1,0.7-0.2s0.3-0.4,0.3-0.7v-0.3l-0.5,0
		c-0.4,0-0.7,0.1-0.8,0.2s-0.3,0.3-0.3,0.5c0,0.2,0.1,0.3,0.2,0.4S97.2,81.1,97.4,81.1z"/>
	<path d="M101.3,78.2c0.4,0,0.7,0.1,1,0.4s0.4,0.7,0.4,1.2s-0.1,0.9-0.4,1.2s-0.6,0.4-1,0.4c-0.2,0-0.4,0-0.6-0.1s-0.3-0.2-0.4-0.4
		h0l-0.1,0.4h-0.3v-4.6h0.5V78c0,0.2,0,0.5,0,0.7h0C100.5,78.4,100.9,78.2,101.3,78.2z M101.3,78.6c-0.3,0-0.6,0.1-0.7,0.3
		c-0.1,0.2-0.2,0.5-0.2,1s0.1,0.8,0.2,1s0.4,0.3,0.7,0.3c0.3,0,0.5-0.1,0.7-0.3s0.2-0.5,0.2-0.9c0-0.4-0.1-0.7-0.2-0.9
		S101.6,78.6,101.3,78.6z"/>
	<path d="M104,81.5h-0.5v-4.6h0.5V81.5z"/>
	<path d="M106.4,81.5c-0.5,0-0.8-0.1-1.1-0.4s-0.4-0.7-0.4-1.2c0-0.5,0.1-0.9,0.4-1.2s0.6-0.5,1-0.5c0.4,0,0.7,0.1,1,0.4
		s0.4,0.6,0.4,1V80h-2.2c0,0.4,0.1,0.7,0.3,0.9s0.4,0.3,0.8,0.3c0.3,0,0.7-0.1,1-0.2v0.4c-0.2,0.1-0.3,0.1-0.5,0.2
		S106.6,81.5,106.4,81.5z M106.2,78.6c-0.3,0-0.5,0.1-0.6,0.3s-0.2,0.4-0.3,0.7h1.7c0-0.3-0.1-0.5-0.2-0.7
		C106.7,78.7,106.5,78.6,106.2,78.6z"/>
	<path d="M111,81.1c0.1,0,0.2,0,0.2,0s0.1,0,0.2,0v0.4c-0.1,0-0.1,0-0.2,0.1s-0.2,0-0.3,0c-0.6,0-0.9-0.3-0.9-1v-1.9h-0.5v-0.2
		l0.5-0.2l0.2-0.7h0.3v0.7h0.9v0.4h-0.9v1.9c0,0.2,0,0.3,0.1,0.4S110.8,81.1,111,81.1z"/>
	<path d="M114.8,79.9c0,0.5-0.1,0.9-0.4,1.2s-0.6,0.4-1.1,0.4c-0.3,0-0.5-0.1-0.8-0.2s-0.4-0.3-0.5-0.6s-0.2-0.5-0.2-0.9
		c0-0.5,0.1-0.9,0.4-1.2s0.6-0.4,1.1-0.4c0.4,0,0.8,0.1,1.1,0.4S114.8,79.4,114.8,79.9z M112.4,79.9c0,0.4,0.1,0.7,0.2,0.9
		s0.4,0.3,0.7,0.3s0.6-0.1,0.7-0.3s0.2-0.5,0.2-0.9c0-0.4-0.1-0.7-0.2-0.9c-0.2-0.2-0.4-0.3-0.7-0.3c-0.3,0-0.6,0.1-0.7,0.3
		S112.4,79.5,112.4,79.9z"/>
	<path d="M118.5,81.5c-0.5,0-0.8-0.1-1.1-0.4c-0.3-0.3-0.4-0.7-0.4-1.2c0-0.5,0.1-1,0.4-1.2s0.6-0.4,1.1-0.4c0.2,0,0.3,0,0.5,0
		s0.3,0.1,0.4,0.1l-0.1,0.4c-0.1,0-0.2-0.1-0.4-0.1s-0.2,0-0.3,0c-0.7,0-1,0.4-1,1.2c0,0.4,0.1,0.7,0.2,0.9c0.2,0.2,0.4,0.3,0.7,0.3
		c0.3,0,0.5-0.1,0.8-0.2v0.4C119.1,81.5,118.9,81.5,118.5,81.5z"/>
	<path d="M121.6,78.2c0.1,0,0.3,0,0.4,0l-0.1,0.5c-0.1,0-0.3,0-0.4,0c-0.3,0-0.5,0.1-0.7,0.3c-0.2,0.2-0.3,0.5-0.3,0.8v1.7h-0.5
		v-3.2h0.4l0.1,0.6h0c0.1-0.2,0.3-0.4,0.4-0.5S121.4,78.2,121.6,78.2z"/>
	<path d="M123.9,81.5c-0.5,0-0.8-0.1-1.1-0.4s-0.4-0.7-0.4-1.2c0-0.5,0.1-0.9,0.4-1.2c0.3-0.3,0.6-0.5,1-0.5c0.4,0,0.7,0.1,1,0.4
		s0.4,0.6,0.4,1V80h-2.2c0,0.4,0.1,0.7,0.3,0.9c0.2,0.2,0.4,0.3,0.8,0.3c0.3,0,0.7-0.1,1-0.2v0.4c-0.2,0.1-0.3,0.1-0.5,0.2
		C124.3,81.5,124.1,81.5,123.9,81.5z M123.8,78.6c-0.3,0-0.5,0.1-0.6,0.3s-0.2,0.4-0.3,0.7h1.7c0-0.3-0.1-0.5-0.2-0.7
		C124.2,78.7,124,78.6,123.8,78.6z"/>
	<path d="M127.9,81.5l-0.1-0.5h0c-0.2,0.2-0.3,0.3-0.5,0.4s-0.4,0.1-0.6,0.1c-0.3,0-0.6-0.1-0.7-0.2c-0.2-0.2-0.3-0.4-0.3-0.7
		c0-0.6,0.5-1,1.6-1l0.5,0v-0.2c0-0.3-0.1-0.4-0.2-0.6c-0.1-0.1-0.3-0.2-0.5-0.2c-0.3,0-0.6,0.1-0.9,0.2l-0.1-0.4
		c0.2-0.1,0.3-0.2,0.5-0.2c0.2,0,0.4-0.1,0.6-0.1c0.4,0,0.7,0.1,0.9,0.3c0.2,0.2,0.3,0.4,0.3,0.8v2.2H127.9z M126.8,81.1
		c0.3,0,0.5-0.1,0.7-0.2c0.2-0.2,0.3-0.4,0.3-0.7v-0.3l-0.5,0c-0.4,0-0.7,0.1-0.8,0.2s-0.3,0.3-0.3,0.5c0,0.2,0.1,0.3,0.2,0.4
		C126.5,81.1,126.6,81.1,126.8,81.1z"/>
	<path d="M130.3,81.1c0.1,0,0.2,0,0.2,0s0.1,0,0.2,0v0.4c-0.1,0-0.1,0-0.2,0.1c-0.1,0-0.2,0-0.3,0c-0.6,0-0.9-0.3-0.9-1v-1.9h-0.5
		v-0.2l0.5-0.2l0.2-0.7h0.3v0.7h0.9v0.4h-0.9v1.9c0,0.2,0,0.3,0.1,0.4S130.1,81.1,130.3,81.1z"/>
	<path d="M132.7,81.5c-0.5,0-0.8-0.1-1.1-0.4s-0.4-0.7-0.4-1.2c0-0.5,0.1-0.9,0.4-1.2c0.3-0.3,0.6-0.5,1-0.5c0.4,0,0.7,0.1,1,0.4
		s0.4,0.6,0.4,1V80h-2.2c0,0.4,0.1,0.7,0.3,0.9c0.2,0.2,0.4,0.3,0.8,0.3c0.3,0,0.7-0.1,1-0.2v0.4c-0.2,0.1-0.3,0.1-0.5,0.2
		C133.1,81.5,132.9,81.5,132.7,81.5z M132.6,78.6c-0.3,0-0.5,0.1-0.6,0.3s-0.2,0.4-0.3,0.7h1.7c0-0.3-0.1-0.5-0.2-0.7
		C133,78.7,132.9,78.6,132.6,78.6z"/>
	<path d="M138.3,81.5l-0.1-0.5h0c-0.2,0.2-0.3,0.3-0.5,0.4s-0.4,0.1-0.6,0.1c-0.3,0-0.6-0.1-0.7-0.2c-0.2-0.2-0.3-0.4-0.3-0.7
		c0-0.6,0.5-1,1.6-1l0.5,0v-0.2c0-0.3-0.1-0.4-0.2-0.6c-0.1-0.1-0.3-0.2-0.5-0.2c-0.3,0-0.6,0.1-0.9,0.2l-0.1-0.4
		c0.2-0.1,0.3-0.2,0.5-0.2c0.2,0,0.4-0.1,0.6-0.1c0.4,0,0.7,0.1,0.9,0.3c0.2,0.2,0.3,0.4,0.3,0.8v2.2H138.3z M137.2,81.1
		c0.3,0,0.5-0.1,0.7-0.2c0.2-0.2,0.3-0.4,0.3-0.7v-0.3l-0.5,0c-0.4,0-0.7,0.1-0.8,0.2s-0.3,0.3-0.3,0.5c0,0.2,0.1,0.3,0.2,0.4
		C136.8,81.1,137,81.1,137.2,81.1z"/>
	<path d="M141.8,81.5v-2.1c0-0.3-0.1-0.5-0.2-0.6s-0.3-0.2-0.6-0.2c-0.3,0-0.6,0.1-0.7,0.3s-0.2,0.5-0.2,0.9v1.7h-0.5v-3.2h0.4
		l0.1,0.4h0c0.1-0.2,0.2-0.3,0.4-0.4s0.4-0.1,0.6-0.1c0.4,0,0.7,0.1,0.9,0.3s0.3,0.5,0.3,0.9v2.1H141.8z"/>
	<path d="M144.5,78.7L144.5,78.7c0-0.2,0.1-0.5,0.2-0.7s0.2-0.5,0.3-0.7h0.4c-0.1,0.5-0.2,1-0.3,1.5H144.5z M145.6,78.7L145.6,78.7
		c0.1-0.5,0.2-1,0.5-1.5h0.4c-0.1,0.2-0.1,0.5-0.2,0.8c-0.1,0.3-0.1,0.5-0.1,0.7H145.6z"/>
	<path d="M146.9,77.4c0-0.1,0-0.2,0.1-0.2s0.1-0.1,0.2-0.1c0.1,0,0.1,0,0.2,0.1s0.1,0.1,0.1,0.2s0,0.2-0.1,0.2s-0.1,0.1-0.2,0.1
		c-0.1,0-0.2,0-0.2-0.1S146.9,77.5,146.9,77.4z M147.5,81.5H147v-3.2h0.5V81.5z"/>
	<path d="M152.6,81.5v-2.1c0-0.3-0.1-0.4-0.2-0.6s-0.3-0.2-0.5-0.2c-0.3,0-0.5,0.1-0.7,0.3s-0.2,0.4-0.2,0.8v1.8h-0.5v-2.1
		c0-0.3-0.1-0.4-0.2-0.6s-0.3-0.2-0.5-0.2c-0.3,0-0.5,0.1-0.7,0.3c-0.1,0.2-0.2,0.5-0.2,0.9v1.7h-0.5v-3.2h0.4l0.1,0.4h0
		c0.1-0.2,0.2-0.3,0.4-0.4c0.2-0.1,0.4-0.1,0.6-0.1c0.5,0,0.8,0.2,1,0.5h0c0.1-0.2,0.2-0.3,0.4-0.4s0.4-0.1,0.6-0.1
		c0.4,0,0.6,0.1,0.8,0.3c0.2,0.2,0.3,0.5,0.3,0.9v2.1H152.6z"/>
	<path d="M155.6,81.5c-0.2,0-0.4,0-0.6-0.1c-0.2-0.1-0.3-0.2-0.4-0.4h0c0,0.2,0,0.4,0,0.5v1.3h-0.5v-4.7h0.4l0.1,0.4h0
		c0.1-0.2,0.3-0.3,0.4-0.4s0.4-0.1,0.6-0.1c0.4,0,0.8,0.1,1,0.4c0.2,0.3,0.3,0.7,0.3,1.2c0,0.5-0.1,0.9-0.4,1.2
		C156.3,81.4,156,81.5,155.6,81.5z M155.5,78.6c-0.3,0-0.6,0.1-0.7,0.3s-0.2,0.5-0.2,0.9v0.1c0,0.5,0.1,0.8,0.2,1s0.4,0.3,0.7,0.3
		c0.3,0,0.5-0.1,0.7-0.3c0.2-0.2,0.2-0.5,0.2-0.9c0-0.4-0.1-0.7-0.2-0.9C156,78.7,155.8,78.6,155.5,78.6z"/>
	<path d="M159.7,81.5l-0.1-0.5h0c-0.2,0.2-0.3,0.3-0.5,0.4s-0.4,0.1-0.6,0.1c-0.3,0-0.6-0.1-0.7-0.2c-0.2-0.2-0.3-0.4-0.3-0.7
		c0-0.6,0.5-1,1.6-1l0.5,0v-0.2c0-0.3-0.1-0.4-0.2-0.6c-0.1-0.1-0.3-0.2-0.5-0.2c-0.3,0-0.6,0.1-0.9,0.2l-0.1-0.4
		c0.2-0.1,0.3-0.2,0.5-0.2c0.2,0,0.4-0.1,0.6-0.1c0.4,0,0.7,0.1,0.9,0.3c0.2,0.2,0.3,0.4,0.3,0.8v2.2H159.7z M158.6,81.1
		c0.3,0,0.5-0.1,0.7-0.2c0.2-0.2,0.3-0.4,0.3-0.7v-0.3l-0.5,0c-0.4,0-0.7,0.1-0.8,0.2s-0.3,0.3-0.3,0.5c0,0.2,0.1,0.3,0.2,0.4
		C158.3,81.1,158.4,81.1,158.6,81.1z"/>
	<path d="M162.4,81.5c-0.5,0-0.8-0.1-1.1-0.4c-0.3-0.3-0.4-0.7-0.4-1.2c0-0.5,0.1-1,0.4-1.2s0.6-0.4,1.1-0.4c0.2,0,0.3,0,0.5,0
		s0.3,0.1,0.4,0.1l-0.1,0.4c-0.1,0-0.2-0.1-0.4-0.1s-0.2,0-0.3,0c-0.7,0-1,0.4-1,1.2c0,0.4,0.1,0.7,0.2,0.9c0.2,0.2,0.4,0.3,0.7,0.3
		c0.3,0,0.5-0.1,0.8-0.2v0.4C163,81.5,162.7,81.5,162.4,81.5z"/>
	<path d="M165,81.1c0.1,0,0.2,0,0.2,0s0.1,0,0.2,0v0.4c-0.1,0-0.1,0-0.2,0.1c-0.1,0-0.2,0-0.3,0c-0.6,0-0.9-0.3-0.9-1v-1.9h-0.5
		v-0.2l0.5-0.2l0.2-0.7h0.3v0.7h0.9v0.4h-0.9v1.9c0,0.2,0,0.3,0.1,0.4S164.8,81.1,165,81.1z"/>
	<path d="M166.5,77.2L166.5,77.2c0,0.3-0.1,0.5-0.2,0.7s-0.2,0.5-0.3,0.7h-0.4c0.1-0.6,0.2-1,0.3-1.5H166.5z M167.5,77.2L167.5,77.2
		c0,0.2-0.1,0.5-0.2,0.7s-0.2,0.5-0.3,0.7h-0.4c0.1-0.2,0.1-0.4,0.2-0.7s0.1-0.5,0.1-0.7H167.5z"/>
	<path d="M171.7,81.5l-0.1-0.5h0c-0.2,0.2-0.3,0.3-0.5,0.4s-0.4,0.1-0.6,0.1c-0.3,0-0.6-0.1-0.7-0.2c-0.2-0.2-0.3-0.4-0.3-0.7
		c0-0.6,0.5-1,1.6-1l0.5,0v-0.2c0-0.3-0.1-0.4-0.2-0.6c-0.1-0.1-0.3-0.2-0.5-0.2c-0.3,0-0.6,0.1-0.9,0.2l-0.1-0.4
		c0.2-0.1,0.3-0.2,0.5-0.2c0.2,0,0.4-0.1,0.6-0.1c0.4,0,0.7,0.1,0.9,0.3c0.2,0.2,0.3,0.4,0.3,0.8v2.2H171.7z M170.6,81.1
		c0.3,0,0.5-0.1,0.7-0.2c0.2-0.2,0.3-0.4,0.3-0.7v-0.3l-0.5,0c-0.4,0-0.7,0.1-0.8,0.2s-0.3,0.3-0.3,0.5c0,0.2,0.1,0.3,0.2,0.4
		C170.3,81.1,170.4,81.1,170.6,81.1z"/>
	<path d="M175.3,81.5v-2.1c0-0.3-0.1-0.5-0.2-0.6s-0.3-0.2-0.6-0.2c-0.3,0-0.6,0.1-0.7,0.3s-0.2,0.5-0.2,0.9v1.7h-0.5v-3.2h0.4
		l0.1,0.4h0c0.1-0.2,0.2-0.3,0.4-0.4s0.4-0.1,0.6-0.1c0.4,0,0.7,0.1,0.9,0.3s0.3,0.5,0.3,0.9v2.1H175.3z"/>
	<path d="M178.9,81L178.9,81c-0.3,0.3-0.6,0.5-1,0.5c-0.4,0-0.7-0.1-1-0.4c-0.2-0.3-0.4-0.7-0.4-1.2s0.1-0.9,0.4-1.2s0.6-0.4,1-0.4
		c0.4,0,0.8,0.2,1,0.5h0l0-0.2l0-0.2v-1.3h0.5v4.6H179L178.9,81z M178,81.1c0.3,0,0.6-0.1,0.7-0.3c0.1-0.2,0.2-0.5,0.2-0.9v-0.1
		c0-0.5-0.1-0.8-0.2-1c-0.2-0.2-0.4-0.3-0.7-0.3c-0.3,0-0.5,0.1-0.7,0.3c-0.2,0.2-0.2,0.5-0.2,0.9c0,0.4,0.1,0.7,0.2,0.9
		S177.7,81.1,178,81.1z"/>
	<path d="M181.6,78.7L181.6,78.7c0-0.2,0.1-0.5,0.2-0.7s0.2-0.5,0.3-0.7h0.4c-0.1,0.5-0.2,1-0.3,1.5H181.6z M182.7,78.7L182.7,78.7
		c0.1-0.5,0.2-1,0.5-1.5h0.4c-0.1,0.2-0.1,0.5-0.2,0.8c-0.1,0.3-0.1,0.5-0.1,0.7H182.7z"/>
	<path d="M186.2,80.6c0,0.3-0.1,0.5-0.3,0.7s-0.5,0.2-0.9,0.2c-0.4,0-0.8-0.1-1-0.2v-0.5c0.2,0.1,0.3,0.1,0.5,0.2
		c0.2,0,0.3,0.1,0.5,0.1c0.3,0,0.4,0,0.6-0.1s0.2-0.2,0.2-0.4c0-0.1-0.1-0.2-0.2-0.3c-0.1-0.1-0.3-0.2-0.6-0.3
		c-0.3-0.1-0.5-0.2-0.6-0.3c-0.1-0.1-0.2-0.2-0.3-0.3c-0.1-0.1-0.1-0.2-0.1-0.4c0-0.3,0.1-0.5,0.3-0.6s0.5-0.2,0.9-0.2
		c0.3,0,0.7,0.1,1,0.2l-0.2,0.4c-0.3-0.1-0.6-0.2-0.9-0.2c-0.2,0-0.4,0-0.5,0.1s-0.2,0.2-0.2,0.3c0,0.1,0,0.2,0.1,0.2
		c0,0.1,0.1,0.1,0.2,0.2s0.3,0.1,0.6,0.2c0.4,0.1,0.6,0.3,0.8,0.4C186.1,80.2,186.2,80.4,186.2,80.6z"/>
	<path d="M186.9,77.4c0-0.1,0-0.2,0.1-0.2s0.1-0.1,0.2-0.1c0.1,0,0.1,0,0.2,0.1s0.1,0.1,0.1,0.2s0,0.2-0.1,0.2s-0.1,0.1-0.2,0.1
		c-0.1,0-0.2,0-0.2-0.1S186.9,77.5,186.9,77.4z M187.4,81.5h-0.5v-3.2h0.5V81.5z"/>
	<path d="M191.1,78.3v0.3l-0.6,0.1c0.1,0.1,0.1,0.2,0.1,0.3c0,0.1,0.1,0.2,0.1,0.4c0,0.3-0.1,0.6-0.3,0.8s-0.5,0.3-0.9,0.3
		c-0.1,0-0.2,0-0.3,0c-0.2,0.1-0.3,0.2-0.3,0.4c0,0.1,0,0.2,0.1,0.2s0.2,0.1,0.4,0.1h0.6c0.3,0,0.6,0.1,0.8,0.2s0.3,0.4,0.3,0.6
		c0,0.4-0.1,0.6-0.4,0.8s-0.7,0.3-1.2,0.3c-0.4,0-0.7-0.1-1-0.2s-0.3-0.4-0.3-0.7c0-0.2,0.1-0.4,0.2-0.5s0.3-0.2,0.5-0.3
		c-0.1,0-0.2-0.1-0.2-0.2c-0.1-0.1-0.1-0.2-0.1-0.3c0-0.1,0-0.2,0.1-0.3s0.2-0.2,0.3-0.3c-0.2-0.1-0.3-0.2-0.4-0.3
		c-0.1-0.2-0.2-0.4-0.2-0.6c0-0.4,0.1-0.6,0.3-0.8s0.5-0.3,0.9-0.3c0.2,0,0.3,0,0.5,0.1H191.1z M188.5,82c0,0.2,0.1,0.3,0.2,0.4
		s0.4,0.1,0.6,0.1c0.4,0,0.7-0.1,0.9-0.2c0.2-0.1,0.3-0.3,0.3-0.5c0-0.2-0.1-0.3-0.2-0.4s-0.3-0.1-0.6-0.1h-0.6
		c-0.2,0-0.4,0.1-0.5,0.2S188.5,81.8,188.5,82z M188.8,79.3c0,0.2,0.1,0.4,0.2,0.5s0.3,0.2,0.5,0.2c0.5,0,0.7-0.2,0.7-0.7
		c0-0.5-0.2-0.7-0.7-0.7c-0.2,0-0.4,0.1-0.5,0.2S188.8,79.1,188.8,79.3z"/>
	<path d="M193.9,81.5v-2.1c0-0.3-0.1-0.5-0.2-0.6s-0.3-0.2-0.6-0.2c-0.3,0-0.6,0.1-0.7,0.3s-0.2,0.5-0.2,0.9v1.7h-0.5v-3.2h0.4
		l0.1,0.4h0c0.1-0.2,0.2-0.3,0.4-0.4s0.4-0.1,0.6-0.1c0.4,0,0.7,0.1,0.9,0.3s0.3,0.5,0.3,0.9v2.1H193.9z"/>
	<path d="M195.4,77.4c0-0.1,0-0.2,0.1-0.2s0.1-0.1,0.2-0.1c0.1,0,0.1,0,0.2,0.1s0.1,0.1,0.1,0.2s0,0.2-0.1,0.2s-0.1,0.1-0.2,0.1
		c-0.1,0-0.2,0-0.2-0.1S195.4,77.5,195.4,77.4z M195.9,81.5h-0.5v-3.2h0.5V81.5z"/>
	<path d="M198.4,78.6h-0.8v2.8h-0.5v-2.8h-0.6v-0.2l0.6-0.2v-0.2c0-0.8,0.3-1.2,1-1.2c0.2,0,0.4,0,0.6,0.1l-0.1,0.4
		c-0.2-0.1-0.3-0.1-0.5-0.1c-0.2,0-0.3,0.1-0.4,0.2s-0.1,0.3-0.1,0.6v0.2h0.8V78.6z M198.9,77.4c0-0.1,0-0.2,0.1-0.2
		s0.1-0.1,0.2-0.1c0.1,0,0.1,0,0.2,0.1s0.1,0.1,0.1,0.2s0,0.2-0.1,0.2s-0.1,0.1-0.2,0.1c-0.1,0-0.2,0-0.2-0.1S198.9,77.5,198.9,77.4
		z M199.5,81.5H199v-3.2h0.5V81.5z"/>
	<path d="M201.8,81.5c-0.5,0-0.8-0.1-1.1-0.4c-0.3-0.3-0.4-0.7-0.4-1.2c0-0.5,0.1-1,0.4-1.2s0.6-0.4,1.1-0.4c0.2,0,0.3,0,0.5,0
		s0.3,0.1,0.4,0.1l-0.1,0.4c-0.1,0-0.2-0.1-0.4-0.1s-0.2,0-0.3,0c-0.7,0-1,0.4-1,1.2c0,0.4,0.1,0.7,0.2,0.9c0.2,0.2,0.4,0.3,0.7,0.3
		c0.3,0,0.5-0.1,0.8-0.2v0.4C202.4,81.5,202.1,81.5,201.8,81.5z"/>
	<path d="M205.3,81.5l-0.1-0.5h0c-0.2,0.2-0.3,0.3-0.5,0.4s-0.4,0.1-0.6,0.1c-0.3,0-0.6-0.1-0.7-0.2c-0.2-0.2-0.3-0.4-0.3-0.7
		c0-0.6,0.5-1,1.6-1l0.5,0v-0.2c0-0.3-0.1-0.4-0.2-0.6c-0.1-0.1-0.3-0.2-0.5-0.2c-0.3,0-0.6,0.1-0.9,0.2l-0.1-0.4
		c0.2-0.1,0.3-0.2,0.5-0.2c0.2,0,0.4-0.1,0.6-0.1c0.4,0,0.7,0.1,0.9,0.3c0.2,0.2,0.3,0.4,0.3,0.8v2.2H205.3z M204.2,81.1
		c0.3,0,0.5-0.1,0.7-0.2c0.2-0.2,0.3-0.4,0.3-0.7v-0.3l-0.5,0c-0.4,0-0.7,0.1-0.8,0.2s-0.3,0.3-0.3,0.5c0,0.2,0.1,0.3,0.2,0.4
		C203.9,81.1,204,81.1,204.2,81.1z"/>
	<path d="M208.9,81.5v-2.1c0-0.3-0.1-0.5-0.2-0.6s-0.3-0.2-0.6-0.2c-0.3,0-0.6,0.1-0.7,0.3s-0.2,0.5-0.2,0.9v1.7h-0.5v-3.2h0.4
		l0.1,0.4h0c0.1-0.2,0.2-0.3,0.4-0.4s0.4-0.1,0.6-0.1c0.4,0,0.7,0.1,0.9,0.3s0.3,0.5,0.3,0.9v2.1H208.9z"/>
	<path d="M211.4,81.1c0.1,0,0.2,0,0.2,0s0.1,0,0.2,0v0.4c-0.1,0-0.1,0-0.2,0.1c-0.1,0-0.2,0-0.3,0c-0.6,0-0.9-0.3-0.9-1v-1.9h-0.5
		v-0.2l0.5-0.2l0.2-0.7h0.3v0.7h0.9v0.4h-0.9v1.9c0,0.2,0,0.3,0.1,0.4S211.3,81.1,211.4,81.1z"/>
	<path d="M213,81.5h-0.5v-4.6h0.5V81.5z"/>
	<path d="M213.5,78.3h0.5l0.7,1.8c0.2,0.4,0.3,0.7,0.3,0.9h0c0-0.1,0.1-0.3,0.2-0.5c0.1-0.2,0.3-1,0.8-2.2h0.5l-1.4,3.7
		c-0.1,0.4-0.3,0.6-0.5,0.8s-0.4,0.2-0.7,0.2c-0.1,0-0.3,0-0.4,0v-0.4c0.1,0,0.2,0,0.4,0c0.3,0,0.6-0.2,0.7-0.6l0.2-0.5L213.5,78.3z
		"/>
	<path d="M90.4,88.7c-0.5,0-0.8-0.1-1.1-0.4s-0.4-0.7-0.4-1.2c0-0.5,0.1-1,0.4-1.2s0.6-0.4,1.1-0.4c0.2,0,0.3,0,0.5,0
		s0.3,0.1,0.4,0.1L91.1,86c-0.1,0-0.2-0.1-0.4-0.1s-0.2,0-0.3,0c-0.7,0-1,0.4-1,1.2c0,0.4,0.1,0.7,0.2,0.9s0.4,0.3,0.7,0.3
		c0.3,0,0.5-0.1,0.8-0.2v0.4C91,88.7,90.7,88.7,90.4,88.7z"/>
	<path d="M94.2,88.7v-2.1c0-0.3-0.1-0.5-0.2-0.6s-0.3-0.2-0.6-0.2c-0.3,0-0.6,0.1-0.7,0.3s-0.2,0.5-0.2,0.9v1.7H92v-4.6h0.5v1.4
		c0,0.2,0,0.3,0,0.4h0c0.1-0.2,0.2-0.3,0.4-0.4s0.4-0.1,0.6-0.1c0.4,0,0.7,0.1,0.9,0.3s0.3,0.5,0.3,0.9v2.1H94.2z"/>
	<path d="M97.6,88.7l-0.1-0.5h0c-0.2,0.2-0.3,0.3-0.5,0.4s-0.4,0.1-0.6,0.1c-0.3,0-0.6-0.1-0.7-0.2s-0.3-0.4-0.3-0.7
		c0-0.6,0.5-1,1.6-1l0.5,0v-0.2c0-0.3-0.1-0.4-0.2-0.6s-0.3-0.2-0.5-0.2c-0.3,0-0.6,0.1-0.9,0.2l-0.1-0.4c0.2-0.1,0.3-0.2,0.5-0.2
		s0.4-0.1,0.6-0.1c0.4,0,0.7,0.1,0.9,0.3s0.3,0.4,0.3,0.8v2.2H97.6z M96.5,88.3c0.3,0,0.5-0.1,0.7-0.2s0.3-0.4,0.3-0.7v-0.3l-0.5,0
		c-0.4,0-0.7,0.1-0.8,0.2s-0.3,0.3-0.3,0.5c0,0.2,0.1,0.3,0.2,0.4S96.4,88.3,96.5,88.3z"/>
	<path d="M101.2,88.7v-2.1c0-0.3-0.1-0.5-0.2-0.6s-0.3-0.2-0.6-0.2c-0.3,0-0.6,0.1-0.7,0.3s-0.2,0.5-0.2,0.9v1.7H99v-3.2h0.4
		l0.1,0.4h0c0.1-0.2,0.2-0.3,0.4-0.4s0.4-0.1,0.6-0.1c0.4,0,0.7,0.1,0.9,0.3s0.3,0.5,0.3,0.9v2.1H101.2z"/>
	<path d="M105.3,85.5v0.3l-0.6,0.1c0.1,0.1,0.1,0.2,0.1,0.3s0.1,0.2,0.1,0.4c0,0.3-0.1,0.6-0.3,0.8s-0.5,0.3-0.9,0.3
		c-0.1,0-0.2,0-0.3,0c-0.2,0.1-0.3,0.2-0.3,0.4c0,0.1,0,0.2,0.1,0.2s0.2,0.1,0.4,0.1h0.6c0.3,0,0.6,0.1,0.8,0.2s0.3,0.4,0.3,0.6
		c0,0.4-0.1,0.6-0.4,0.8c-0.3,0.2-0.7,0.3-1.2,0.3c-0.4,0-0.7-0.1-1-0.2s-0.3-0.4-0.3-0.7c0-0.2,0.1-0.4,0.2-0.5s0.3-0.2,0.5-0.3
		c-0.1,0-0.2-0.1-0.2-0.2s-0.1-0.2-0.1-0.3c0-0.1,0-0.2,0.1-0.3s0.2-0.2,0.3-0.3c-0.2-0.1-0.3-0.2-0.4-0.3s-0.2-0.4-0.2-0.6
		c0-0.4,0.1-0.6,0.3-0.8s0.5-0.3,0.9-0.3c0.2,0,0.3,0,0.5,0.1H105.3z M102.8,89.2c0,0.2,0.1,0.3,0.2,0.4s0.4,0.1,0.6,0.1
		c0.4,0,0.7-0.1,0.9-0.2c0.2-0.1,0.3-0.3,0.3-0.5c0-0.2-0.1-0.3-0.2-0.4s-0.3-0.1-0.6-0.1h-0.6c-0.2,0-0.4,0.1-0.5,0.2
		S102.8,89,102.8,89.2z M103,86.5c0,0.2,0.1,0.4,0.2,0.5s0.3,0.2,0.5,0.2c0.5,0,0.7-0.2,0.7-0.7c0-0.5-0.2-0.7-0.7-0.7
		c-0.2,0-0.4,0.1-0.5,0.2S103,86.3,103,86.5z"/>
	<path d="M107.3,88.7c-0.5,0-0.8-0.1-1.1-0.4s-0.4-0.7-0.4-1.2c0-0.5,0.1-0.9,0.4-1.2s0.6-0.5,1-0.5c0.4,0,0.7,0.1,1,0.4
		s0.4,0.6,0.4,1v0.3h-2.2c0,0.4,0.1,0.7,0.3,0.9s0.4,0.3,0.8,0.3c0.3,0,0.7-0.1,1-0.2v0.4c-0.2,0.1-0.3,0.1-0.5,0.2
		S107.5,88.7,107.3,88.7z M107.2,85.8c-0.3,0-0.5,0.1-0.6,0.3s-0.2,0.4-0.3,0.7h1.7c0-0.3-0.1-0.5-0.2-0.7S107.5,85.8,107.2,85.8z"
		/>
	<path d="M109.7,84.4L109.7,84.4c0,0.3-0.1,0.5-0.2,0.7s-0.2,0.5-0.3,0.7h-0.4c0.1-0.6,0.2-1,0.3-1.5H109.7z M110.8,84.4L110.8,84.4
		c0,0.2-0.1,0.5-0.2,0.7s-0.2,0.5-0.3,0.7H110c0.1-0.2,0.1-0.4,0.2-0.7s0.1-0.5,0.1-0.7H110.8z"/>
	<path d="M114,88.3c0.1,0,0.2,0,0.2,0s0.1,0,0.2,0v0.4c-0.1,0-0.1,0-0.2,0.1s-0.2,0-0.3,0c-0.6,0-0.9-0.3-0.9-1v-1.9h-0.5v-0.2
		l0.5-0.2l0.2-0.7h0.3v0.7h0.9v0.4h-0.9v1.9c0,0.2,0,0.3,0.1,0.4S113.9,88.3,114,88.3z"/>
	<path d="M117.3,88.7v-2.1c0-0.3-0.1-0.5-0.2-0.6s-0.3-0.2-0.6-0.2c-0.3,0-0.6,0.1-0.7,0.3c-0.2,0.2-0.2,0.5-0.2,0.9v1.7h-0.5v-4.6
		h0.5v1.4c0,0.2,0,0.3,0,0.4h0c0.1-0.2,0.2-0.3,0.4-0.4s0.4-0.1,0.6-0.1c0.4,0,0.7,0.1,0.9,0.3c0.2,0.2,0.3,0.5,0.3,0.9v2.1H117.3z"
		/>
	<path d="M120.2,88.7c-0.5,0-0.8-0.1-1.1-0.4s-0.4-0.7-0.4-1.2c0-0.5,0.1-0.9,0.4-1.2c0.3-0.3,0.6-0.5,1-0.5c0.4,0,0.7,0.1,1,0.4
		s0.4,0.6,0.4,1v0.3h-2.2c0,0.4,0.1,0.7,0.3,0.9c0.2,0.2,0.4,0.3,0.8,0.3c0.3,0,0.7-0.1,1-0.2v0.4c-0.2,0.1-0.3,0.1-0.5,0.2
		C120.6,88.7,120.4,88.7,120.2,88.7z M120,85.8c-0.3,0-0.5,0.1-0.6,0.3s-0.2,0.4-0.3,0.7h1.7c0-0.3-0.1-0.5-0.2-0.7
		S120.3,85.8,120,85.8z"/>
	<path d="M122.1,84.6c0-0.1,0-0.2,0.1-0.2s0.1-0.1,0.2-0.1c0.1,0,0.1,0,0.2,0.1s0.1,0.1,0.1,0.2s0,0.2-0.1,0.2s-0.1,0.1-0.2,0.1
		c-0.1,0-0.2,0-0.2-0.1S122.1,84.7,122.1,84.6z M122.7,88.7h-0.5v-3.2h0.5V88.7z"/>
	<path d="M125.1,85.4c0.1,0,0.3,0,0.4,0l-0.1,0.5c-0.1,0-0.3,0-0.4,0c-0.3,0-0.5,0.1-0.7,0.3c-0.2,0.2-0.3,0.5-0.3,0.8v1.7h-0.5
		v-3.2h0.4l0.1,0.6h0c0.1-0.2,0.3-0.4,0.4-0.5S124.9,85.4,125.1,85.4z"/>
	<path d="M129.2,88.7c-0.2,0-0.4,0-0.6-0.1c-0.2-0.1-0.3-0.2-0.4-0.4h0c0,0.2,0,0.4,0,0.5v1.3h-0.5v-4.7h0.4l0.1,0.4h0
		c0.1-0.2,0.3-0.3,0.4-0.4s0.4-0.1,0.6-0.1c0.4,0,0.8,0.1,1,0.4c0.2,0.3,0.3,0.7,0.3,1.2c0,0.5-0.1,0.9-0.4,1.2
		C129.9,88.6,129.6,88.7,129.2,88.7z M129.1,85.8c-0.3,0-0.6,0.1-0.7,0.3s-0.2,0.5-0.2,0.9v0.1c0,0.5,0.1,0.8,0.2,1s0.4,0.3,0.7,0.3
		c0.3,0,0.5-0.1,0.7-0.3c0.2-0.2,0.2-0.5,0.2-0.9c0-0.4-0.1-0.7-0.2-0.9C129.6,85.9,129.4,85.8,129.1,85.8z"/>
	<path d="M132.7,88.7c-0.5,0-0.8-0.1-1.1-0.4s-0.4-0.7-0.4-1.2c0-0.5,0.1-0.9,0.4-1.2c0.3-0.3,0.6-0.5,1-0.5c0.4,0,0.7,0.1,1,0.4
		s0.4,0.6,0.4,1v0.3h-2.2c0,0.4,0.1,0.7,0.3,0.9c0.2,0.2,0.4,0.3,0.8,0.3c0.3,0,0.7-0.1,1-0.2v0.4c-0.2,0.1-0.3,0.1-0.5,0.2
		C133.1,88.7,132.9,88.7,132.7,88.7z M132.6,85.8c-0.3,0-0.5,0.1-0.6,0.3s-0.2,0.4-0.3,0.7h1.7c0-0.3-0.1-0.5-0.2-0.7
		S132.8,85.8,132.6,85.8z"/>
	<path d="M136.2,85.4c0.1,0,0.3,0,0.4,0l-0.1,0.5c-0.1,0-0.3,0-0.4,0c-0.3,0-0.5,0.1-0.7,0.3c-0.2,0.2-0.3,0.5-0.3,0.8v1.7h-0.5
		v-3.2h0.4l0.1,0.6h0c0.1-0.2,0.3-0.4,0.4-0.5S136,85.4,136.2,85.4z"/>
	<path d="M139.3,87.8c0,0.3-0.1,0.5-0.3,0.7s-0.5,0.2-0.9,0.2c-0.4,0-0.8-0.1-1-0.2v-0.5c0.2,0.1,0.3,0.1,0.5,0.2
		c0.2,0,0.3,0.1,0.5,0.1c0.3,0,0.4,0,0.6-0.1s0.2-0.2,0.2-0.4c0-0.1-0.1-0.2-0.2-0.3c-0.1-0.1-0.3-0.2-0.6-0.3
		c-0.3-0.1-0.5-0.2-0.6-0.3c-0.1-0.1-0.2-0.2-0.3-0.3c-0.1-0.1-0.1-0.2-0.1-0.4c0-0.3,0.1-0.5,0.3-0.6s0.5-0.2,0.9-0.2
		c0.3,0,0.7,0.1,1,0.2L139,86c-0.3-0.1-0.6-0.2-0.9-0.2c-0.2,0-0.4,0-0.5,0.1s-0.2,0.2-0.2,0.3c0,0.1,0,0.2,0.1,0.2
		c0,0.1,0.1,0.1,0.2,0.2s0.3,0.1,0.6,0.2c0.4,0.1,0.6,0.3,0.8,0.4C139.2,87.4,139.3,87.6,139.3,87.8z"/>
	<path d="M142.8,87.1c0,0.5-0.1,0.9-0.4,1.2s-0.6,0.4-1.1,0.4c-0.3,0-0.5-0.1-0.8-0.2s-0.4-0.3-0.5-0.6s-0.2-0.5-0.2-0.9
		c0-0.5,0.1-0.9,0.4-1.2s0.6-0.4,1.1-0.4c0.4,0,0.8,0.1,1.1,0.4C142.7,86.2,142.8,86.6,142.8,87.1z M140.4,87.1
		c0,0.4,0.1,0.7,0.2,0.9s0.4,0.3,0.7,0.3s0.6-0.1,0.7-0.3s0.2-0.5,0.2-0.9c0-0.4-0.1-0.7-0.2-0.9s-0.4-0.3-0.7-0.3
		c-0.3,0-0.6,0.1-0.7,0.3S140.4,86.7,140.4,87.1z"/>
	<path d="M145.9,88.7v-2.1c0-0.3-0.1-0.5-0.2-0.6s-0.3-0.2-0.6-0.2c-0.3,0-0.6,0.1-0.7,0.3s-0.2,0.5-0.2,0.9v1.7h-0.5v-3.2h0.4
		l0.1,0.4h0c0.1-0.2,0.2-0.3,0.4-0.4s0.4-0.1,0.6-0.1c0.4,0,0.7,0.1,0.9,0.3s0.3,0.5,0.3,0.9v2.1H145.9z"/>
	<path d="M149.3,88.7l-0.1-0.5h0c-0.2,0.2-0.3,0.3-0.5,0.4s-0.4,0.1-0.6,0.1c-0.3,0-0.6-0.1-0.7-0.2c-0.2-0.2-0.3-0.4-0.3-0.7
		c0-0.6,0.5-1,1.6-1l0.5,0v-0.2c0-0.3-0.1-0.4-0.2-0.6c-0.1-0.1-0.3-0.2-0.5-0.2c-0.3,0-0.6,0.1-0.9,0.2l-0.1-0.4
		c0.2-0.1,0.3-0.2,0.5-0.2c0.2,0,0.4-0.1,0.6-0.1c0.4,0,0.7,0.1,0.9,0.3c0.2,0.2,0.3,0.4,0.3,0.8v2.2H149.3z M148.2,88.3
		c0.3,0,0.5-0.1,0.7-0.2c0.2-0.2,0.3-0.4,0.3-0.7v-0.3l-0.5,0c-0.4,0-0.7,0.1-0.8,0.2s-0.3,0.3-0.3,0.5c0,0.2,0.1,0.3,0.2,0.4
		C147.9,88.3,148,88.3,148.2,88.3z"/>
	<path d="M151.2,88.7h-0.5v-4.6h0.5V88.7z"/>
	<path d="M155.2,85.4c0.1,0,0.3,0,0.4,0l-0.1,0.5c-0.1,0-0.3,0-0.4,0c-0.3,0-0.5,0.1-0.7,0.3c-0.2,0.2-0.3,0.5-0.3,0.8v1.7h-0.5
		v-3.2h0.4l0.1,0.6h0c0.1-0.2,0.3-0.4,0.4-0.5S155,85.4,155.2,85.4z"/>
	<path d="M157.6,88.7c-0.5,0-0.8-0.1-1.1-0.4s-0.4-0.7-0.4-1.2c0-0.5,0.1-0.9,0.4-1.2c0.3-0.3,0.6-0.5,1-0.5c0.4,0,0.7,0.1,1,0.4
		s0.4,0.6,0.4,1v0.3h-2.2c0,0.4,0.1,0.7,0.3,0.9c0.2,0.2,0.4,0.3,0.8,0.3c0.3,0,0.7-0.1,1-0.2v0.4c-0.2,0.1-0.3,0.1-0.5,0.2
		C158,88.7,157.8,88.7,157.6,88.7z M157.4,85.8c-0.3,0-0.5,0.1-0.6,0.3s-0.2,0.4-0.3,0.7h1.7c0-0.3-0.1-0.5-0.2-0.7
		S157.7,85.8,157.4,85.8z"/>
	<path d="M160.9,88.7c-0.5,0-0.8-0.1-1.1-0.4c-0.3-0.3-0.4-0.7-0.4-1.2c0-0.5,0.1-1,0.4-1.2s0.6-0.4,1.1-0.4c0.2,0,0.3,0,0.5,0
		s0.3,0.1,0.4,0.1l-0.1,0.4c-0.1,0-0.2-0.1-0.4-0.1s-0.2,0-0.3,0c-0.7,0-1,0.4-1,1.2c0,0.4,0.1,0.7,0.2,0.9c0.2,0.2,0.4,0.3,0.7,0.3
		c0.3,0,0.5-0.1,0.8-0.2v0.4C161.5,88.7,161.2,88.7,160.9,88.7z"/>
	<path d="M161.9,85.5h0.5l0.7,1.8c0.2,0.4,0.3,0.7,0.3,0.9h0c0-0.1,0.1-0.3,0.2-0.5c0.1-0.2,0.3-1,0.8-2.2h0.5l-1.4,3.7
		c-0.1,0.4-0.3,0.6-0.5,0.8c-0.2,0.2-0.4,0.2-0.7,0.2c-0.1,0-0.3,0-0.4,0v-0.4c0.1,0,0.2,0,0.4,0c0.3,0,0.6-0.2,0.7-0.6l0.2-0.5
		L161.9,85.5z"/>
	<path d="M166.7,88.7c-0.5,0-0.8-0.1-1.1-0.4c-0.3-0.3-0.4-0.7-0.4-1.2c0-0.5,0.1-1,0.4-1.2s0.6-0.4,1.1-0.4c0.2,0,0.3,0,0.5,0
		s0.3,0.1,0.4,0.1l-0.1,0.4c-0.1,0-0.2-0.1-0.4-0.1s-0.2,0-0.3,0c-0.7,0-1,0.4-1,1.2c0,0.4,0.1,0.7,0.2,0.9c0.2,0.2,0.4,0.3,0.7,0.3
		c0.3,0,0.5-0.1,0.8-0.2v0.4C167.3,88.7,167.1,88.7,166.7,88.7z"/>
	<path d="M168.8,88.7h-0.5v-4.6h0.5V88.7z"/>
	<path d="M169.8,84.6c0-0.1,0-0.2,0.1-0.2s0.1-0.1,0.2-0.1c0.1,0,0.1,0,0.2,0.1s0.1,0.1,0.1,0.2s0,0.2-0.1,0.2s-0.1,0.1-0.2,0.1
		c-0.1,0-0.2,0-0.2-0.1S169.8,84.7,169.8,84.6z M170.3,88.7h-0.5v-3.2h0.5V88.7z"/>
	<path d="M173.5,88.7v-2.1c0-0.3-0.1-0.5-0.2-0.6s-0.3-0.2-0.6-0.2c-0.3,0-0.6,0.1-0.7,0.3s-0.2,0.5-0.2,0.9v1.7h-0.5v-3.2h0.4
		l0.1,0.4h0c0.1-0.2,0.2-0.3,0.4-0.4s0.4-0.1,0.6-0.1c0.4,0,0.7,0.1,0.9,0.3s0.3,0.5,0.3,0.9v2.1H173.5z"/>
	<path d="M177.7,85.5v0.3l-0.6,0.1c0.1,0.1,0.1,0.2,0.1,0.3s0.1,0.2,0.1,0.4c0,0.3-0.1,0.6-0.3,0.8s-0.5,0.3-0.9,0.3
		c-0.1,0-0.2,0-0.3,0c-0.2,0.1-0.3,0.2-0.3,0.4c0,0.1,0,0.2,0.1,0.2s0.2,0.1,0.4,0.1h0.6c0.3,0,0.6,0.1,0.8,0.2s0.3,0.4,0.3,0.6
		c0,0.4-0.1,0.6-0.4,0.8c-0.3,0.2-0.7,0.3-1.2,0.3c-0.4,0-0.7-0.1-1-0.2s-0.3-0.4-0.3-0.7c0-0.2,0.1-0.4,0.2-0.5s0.3-0.2,0.5-0.3
		c-0.1,0-0.2-0.1-0.2-0.2c-0.1-0.1-0.1-0.2-0.1-0.3c0-0.1,0-0.2,0.1-0.3s0.2-0.2,0.3-0.3c-0.2-0.1-0.3-0.2-0.4-0.3
		c-0.1-0.2-0.2-0.4-0.2-0.6c0-0.4,0.1-0.6,0.3-0.8s0.5-0.3,0.9-0.3c0.2,0,0.3,0,0.5,0.1H177.7z M175.1,89.2c0,0.2,0.1,0.3,0.2,0.4
		s0.4,0.1,0.6,0.1c0.4,0,0.7-0.1,0.9-0.2c0.2-0.1,0.3-0.3,0.3-0.5c0-0.2-0.1-0.3-0.2-0.4s-0.3-0.1-0.6-0.1h-0.6
		c-0.2,0-0.4,0.1-0.5,0.2S175.1,89,175.1,89.2z M175.4,86.5c0,0.2,0.1,0.4,0.2,0.5s0.3,0.2,0.5,0.2c0.5,0,0.7-0.2,0.7-0.7
		c0-0.5-0.2-0.7-0.7-0.7c-0.2,0-0.4,0.1-0.5,0.2S175.4,86.3,175.4,86.5z"/>
	<path d="M181.4,85.4c0.4,0,0.7,0.1,1,0.4s0.4,0.7,0.4,1.2s-0.1,0.9-0.4,1.2c-0.2,0.3-0.6,0.4-1,0.4c-0.2,0-0.4,0-0.6-0.1
		c-0.2-0.1-0.3-0.2-0.4-0.4h0l-0.1,0.4h-0.3v-4.6h0.5v1.1c0,0.2,0,0.5,0,0.7h0C180.6,85.6,180.9,85.4,181.4,85.4z M181.3,85.8
		c-0.3,0-0.6,0.1-0.7,0.3s-0.2,0.5-0.2,1s0.1,0.8,0.2,1s0.4,0.3,0.7,0.3c0.3,0,0.5-0.1,0.7-0.3s0.2-0.5,0.2-0.9
		c0-0.4-0.1-0.7-0.2-0.9S181.6,85.8,181.3,85.8z"/>
	<path d="M184.9,88.7c-0.5,0-0.8-0.1-1.1-0.4s-0.4-0.7-0.4-1.2c0-0.5,0.1-0.9,0.4-1.2c0.3-0.3,0.6-0.5,1-0.5c0.4,0,0.7,0.1,1,0.4
		s0.4,0.6,0.4,1v0.3h-2.2c0,0.4,0.1,0.7,0.3,0.9c0.2,0.2,0.4,0.3,0.8,0.3c0.3,0,0.7-0.1,1-0.2v0.4c-0.2,0.1-0.3,0.1-0.5,0.2
		C185.3,88.7,185.1,88.7,184.9,88.7z M184.8,85.8c-0.3,0-0.5,0.1-0.6,0.3s-0.2,0.4-0.3,0.7h1.7c0-0.3-0.1-0.5-0.2-0.7
		S185,85.8,184.8,85.8z"/>
	<path d="M189.1,88.7v-2.1c0-0.3-0.1-0.5-0.2-0.6s-0.3-0.2-0.6-0.2c-0.3,0-0.6,0.1-0.7,0.3c-0.2,0.2-0.2,0.5-0.2,0.9v1.7h-0.5v-4.6
		h0.5v1.4c0,0.2,0,0.3,0,0.4h0c0.1-0.2,0.2-0.3,0.4-0.4s0.4-0.1,0.6-0.1c0.4,0,0.7,0.1,0.9,0.3c0.2,0.2,0.3,0.5,0.3,0.9v2.1H189.1z"
		/>
	<path d="M192.6,88.7l-0.1-0.5h0c-0.2,0.2-0.3,0.3-0.5,0.4s-0.4,0.1-0.6,0.1c-0.3,0-0.6-0.1-0.7-0.2c-0.2-0.2-0.3-0.4-0.3-0.7
		c0-0.6,0.5-1,1.6-1l0.5,0v-0.2c0-0.3-0.1-0.4-0.2-0.6c-0.1-0.1-0.3-0.2-0.5-0.2c-0.3,0-0.6,0.1-0.9,0.2l-0.1-0.4
		c0.2-0.1,0.3-0.2,0.5-0.2c0.2,0,0.4-0.1,0.6-0.1c0.4,0,0.7,0.1,0.9,0.3c0.2,0.2,0.3,0.4,0.3,0.8v2.2H192.6z M191.5,88.3
		c0.3,0,0.5-0.1,0.7-0.2c0.2-0.2,0.3-0.4,0.3-0.7v-0.3l-0.5,0c-0.4,0-0.7,0.1-0.8,0.2s-0.3,0.3-0.3,0.5c0,0.2,0.1,0.3,0.2,0.4
		C191.1,88.3,191.3,88.3,191.5,88.3z"/>
	<path d="M194.6,88.7l-1.2-3.2h0.5l0.7,1.9c0.2,0.4,0.2,0.7,0.3,0.9h0c0-0.1,0.1-0.3,0.2-0.6c0.1-0.3,0.4-1,0.8-2.1h0.5l-1.2,3.2
		H194.6z"/>
	<path d="M196.9,84.6c0-0.1,0-0.2,0.1-0.2s0.1-0.1,0.2-0.1c0.1,0,0.1,0,0.2,0.1s0.1,0.1,0.1,0.2s0,0.2-0.1,0.2s-0.1,0.1-0.2,0.1
		c-0.1,0-0.2,0-0.2-0.1S196.9,84.7,196.9,84.6z M197.4,88.7h-0.5v-3.2h0.5V88.7z"/>
	<path d="M201.2,87.1c0,0.5-0.1,0.9-0.4,1.2s-0.6,0.4-1.1,0.4c-0.3,0-0.5-0.1-0.8-0.2s-0.4-0.3-0.5-0.6s-0.2-0.5-0.2-0.9
		c0-0.5,0.1-0.9,0.4-1.2s0.6-0.4,1.1-0.4c0.4,0,0.8,0.1,1.1,0.4C201.1,86.2,201.2,86.6,201.2,87.1z M198.8,87.1
		c0,0.4,0.1,0.7,0.2,0.9s0.4,0.3,0.7,0.3s0.6-0.1,0.7-0.3s0.2-0.5,0.2-0.9c0-0.4-0.1-0.7-0.2-0.9s-0.4-0.3-0.7-0.3
		c-0.3,0-0.6,0.1-0.7,0.3S198.8,86.7,198.8,87.1z"/>
	<path d="M202.5,85.5v2.1c0,0.3,0.1,0.5,0.2,0.6s0.3,0.2,0.6,0.2c0.3,0,0.6-0.1,0.7-0.3c0.2-0.2,0.2-0.5,0.2-0.9v-1.7h0.5v3.2h-0.4
		l-0.1-0.4h0c-0.1,0.2-0.2,0.3-0.4,0.4s-0.4,0.1-0.6,0.1c-0.4,0-0.7-0.1-0.9-0.3s-0.3-0.5-0.3-0.9v-2.1H202.5z"/>
	<path d="M207.2,85.4c0.1,0,0.3,0,0.4,0l-0.1,0.5c-0.1,0-0.3,0-0.4,0c-0.3,0-0.5,0.1-0.7,0.3c-0.2,0.2-0.3,0.5-0.3,0.8v1.7h-0.5
		v-3.2h0.4l0.1,0.6h0c0.1-0.2,0.3-0.4,0.4-0.5S207,85.4,207.2,85.4z"/>
	<path d="M210.3,87.8c0,0.3-0.1,0.5-0.3,0.7s-0.5,0.2-0.9,0.2c-0.4,0-0.8-0.1-1-0.2v-0.5c0.2,0.1,0.3,0.1,0.5,0.2
		c0.2,0,0.3,0.1,0.5,0.1c0.3,0,0.4,0,0.6-0.1s0.2-0.2,0.2-0.4c0-0.1-0.1-0.2-0.2-0.3c-0.1-0.1-0.3-0.2-0.6-0.3
		c-0.3-0.1-0.5-0.2-0.6-0.3c-0.1-0.1-0.2-0.2-0.3-0.3c-0.1-0.1-0.1-0.2-0.1-0.4c0-0.3,0.1-0.5,0.3-0.6s0.5-0.2,0.9-0.2
		c0.3,0,0.7,0.1,1,0.2l-0.2,0.4c-0.3-0.1-0.6-0.2-0.9-0.2c-0.2,0-0.4,0-0.5,0.1s-0.2,0.2-0.2,0.3c0,0.1,0,0.2,0.1,0.2
		c0,0.1,0.1,0.1,0.2,0.2s0.3,0.1,0.6,0.2c0.4,0.1,0.6,0.3,0.8,0.4C210.2,87.4,210.3,87.6,210.3,87.8z"/>
	<path d="M91.3,95.4L91.3,95.4c-0.3,0.3-0.6,0.5-1,0.5c-0.4,0-0.7-0.1-1-0.4s-0.4-0.7-0.4-1.2s0.1-0.9,0.4-1.2s0.6-0.4,1-0.4
		c0.4,0,0.8,0.2,1,0.5h0l0-0.2l0-0.2v-1.3h0.5v4.6h-0.4L91.3,95.4z M90.3,95.5c0.3,0,0.6-0.1,0.7-0.3s0.2-0.5,0.2-0.9v-0.1
		c0-0.5-0.1-0.8-0.2-1S90.7,93,90.3,93c-0.3,0-0.5,0.1-0.7,0.3s-0.2,0.5-0.2,0.9c0,0.4,0.1,0.7,0.2,0.9S90,95.5,90.3,95.5z"/>
	<path d="M93.3,92.7v2.1c0,0.3,0.1,0.5,0.2,0.6s0.3,0.2,0.6,0.2c0.3,0,0.6-0.1,0.7-0.3s0.2-0.5,0.2-0.9v-1.7h0.5v3.2h-0.4L95,95.4h0
		c-0.1,0.2-0.2,0.3-0.4,0.4s-0.4,0.1-0.6,0.1c-0.4,0-0.7-0.1-0.9-0.3s-0.3-0.5-0.3-0.9v-2.1H93.3z"/>
	<path d="M97.8,95.9c-0.5,0-0.8-0.1-1.1-0.4s-0.4-0.7-0.4-1.2c0-0.5,0.1-0.9,0.4-1.2s0.6-0.5,1-0.5c0.4,0,0.7,0.1,1,0.4
		c0.2,0.3,0.4,0.6,0.4,1v0.3h-2.2c0,0.4,0.1,0.7,0.3,0.9s0.4,0.3,0.8,0.3c0.3,0,0.7-0.1,1-0.2v0.4c-0.2,0.1-0.3,0.1-0.5,0.2
		C98.2,95.9,98.1,95.9,97.8,95.9z M97.7,93c-0.3,0-0.5,0.1-0.6,0.3s-0.2,0.4-0.3,0.7h1.7c0-0.3-0.1-0.5-0.2-0.7S98,93,97.7,93z"/>
	<path d="M102.4,95.5c0.1,0,0.2,0,0.2,0s0.1,0,0.2,0v0.4c-0.1,0-0.1,0-0.2,0.1s-0.2,0-0.3,0c-0.6,0-0.9-0.3-0.9-1V93H101v-0.2
		l0.5-0.2l0.2-0.7h0.3v0.7h0.9V93h-0.9v1.9c0,0.2,0,0.3,0.1,0.4S102.3,95.5,102.4,95.5z"/>
	<path d="M106.3,94.3c0,0.5-0.1,0.9-0.4,1.2c-0.3,0.3-0.6,0.4-1.1,0.4c-0.3,0-0.5-0.1-0.8-0.2s-0.4-0.3-0.5-0.6s-0.2-0.5-0.2-0.9
		c0-0.5,0.1-0.9,0.4-1.2c0.3-0.3,0.6-0.4,1.1-0.4c0.4,0,0.8,0.1,1.1,0.4S106.3,93.8,106.3,94.3z M103.9,94.3c0,0.4,0.1,0.7,0.2,0.9
		s0.4,0.3,0.7,0.3s0.6-0.1,0.7-0.3c0.2-0.2,0.2-0.5,0.2-0.9c0-0.4-0.1-0.7-0.2-0.9c-0.2-0.2-0.4-0.3-0.7-0.3c-0.3,0-0.6,0.1-0.7,0.3
		S103.9,93.9,103.9,94.3z"/>
	<path d="M108.7,91.8c0-0.1,0-0.2,0.1-0.2c0.1-0.1,0.1-0.1,0.2-0.1c0.1,0,0.1,0,0.2,0.1s0.1,0.1,0.1,0.2s0,0.2-0.1,0.2
		s-0.1,0.1-0.2,0.1c-0.1,0-0.2,0-0.2-0.1S108.7,91.9,108.7,91.8z M109.2,95.9h-0.5v-3.2h0.5V95.9z"/>
	<path d="M112.4,95.9v-2.1c0-0.3-0.1-0.5-0.2-0.6s-0.3-0.2-0.6-0.2c-0.3,0-0.6,0.1-0.7,0.3s-0.2,0.5-0.2,0.9v1.7h-0.5v-3.2h0.4
		l0.1,0.4h0c0.1-0.2,0.2-0.3,0.4-0.4s0.4-0.1,0.6-0.1c0.4,0,0.7,0.1,0.9,0.3c0.2,0.2,0.3,0.5,0.3,0.9v2.1H112.4z"/>
	<path d="M115.2,95.9c-0.5,0-0.8-0.1-1.1-0.4c-0.3-0.3-0.4-0.7-0.4-1.2c0-0.5,0.1-1,0.4-1.2s0.6-0.4,1.1-0.4c0.2,0,0.3,0,0.5,0
		s0.3,0.1,0.4,0.1l-0.1,0.4c-0.1,0-0.2-0.1-0.4-0.1c-0.1,0-0.2,0-0.3,0c-0.7,0-1,0.4-1,1.2c0,0.4,0.1,0.7,0.2,0.9
		c0.2,0.2,0.4,0.3,0.7,0.3c0.3,0,0.5-0.1,0.8-0.2v0.4C115.8,95.9,115.5,95.9,115.2,95.9z"/>
	<path d="M119.5,94.3c0,0.5-0.1,0.9-0.4,1.2c-0.3,0.3-0.6,0.4-1.1,0.4c-0.3,0-0.5-0.1-0.8-0.2s-0.4-0.3-0.5-0.6s-0.2-0.5-0.2-0.9
		c0-0.5,0.1-0.9,0.4-1.2c0.3-0.3,0.6-0.4,1.1-0.4c0.4,0,0.8,0.1,1.1,0.4C119.4,93.4,119.5,93.8,119.5,94.3z M117.1,94.3
		c0,0.4,0.1,0.7,0.2,0.9s0.4,0.3,0.7,0.3s0.6-0.1,0.7-0.3c0.2-0.2,0.2-0.5,0.2-0.9c0-0.4-0.1-0.7-0.2-0.9c-0.2-0.2-0.4-0.3-0.7-0.3
		c-0.3,0-0.6,0.1-0.7,0.3S117.1,93.9,117.1,94.3z"/>
	<path d="M122.6,95.9v-2.1c0-0.3-0.1-0.5-0.2-0.6s-0.3-0.2-0.6-0.2c-0.3,0-0.6,0.1-0.7,0.3s-0.2,0.5-0.2,0.9v1.7h-0.5v-3.2h0.4
		l0.1,0.4h0c0.1-0.2,0.2-0.3,0.4-0.4s0.4-0.1,0.6-0.1c0.4,0,0.7,0.1,0.9,0.3c0.2,0.2,0.3,0.5,0.3,0.9v2.1H122.6z"/>
	<path d="M126.1,95c0,0.3-0.1,0.5-0.3,0.7s-0.5,0.2-0.9,0.2c-0.4,0-0.8-0.1-1-0.2v-0.5c0.2,0.1,0.3,0.1,0.5,0.2
		c0.2,0,0.3,0.1,0.5,0.1c0.3,0,0.4,0,0.6-0.1c0.1-0.1,0.2-0.2,0.2-0.4c0-0.1-0.1-0.2-0.2-0.3c-0.1-0.1-0.3-0.2-0.6-0.3
		c-0.3-0.1-0.5-0.2-0.6-0.3c-0.1-0.1-0.2-0.2-0.3-0.3c-0.1-0.1-0.1-0.2-0.1-0.4c0-0.3,0.1-0.5,0.3-0.6c0.2-0.2,0.5-0.2,0.9-0.2
		c0.3,0,0.7,0.1,1,0.2l-0.2,0.4c-0.3-0.1-0.6-0.2-0.9-0.2c-0.2,0-0.4,0-0.5,0.1s-0.2,0.2-0.2,0.3c0,0.1,0,0.2,0.1,0.2
		c0,0.1,0.1,0.1,0.2,0.2s0.3,0.1,0.6,0.2c0.4,0.1,0.6,0.3,0.8,0.4C126.1,94.6,126.1,94.8,126.1,95z"/>
	<path d="M126.9,91.8c0-0.1,0-0.2,0.1-0.2c0.1-0.1,0.1-0.1,0.2-0.1c0.1,0,0.1,0,0.2,0.1s0.1,0.1,0.1,0.2s0,0.2-0.1,0.2
		s-0.1,0.1-0.2,0.1c-0.1,0-0.2,0-0.2-0.1S126.9,91.9,126.9,91.8z M127.4,95.9h-0.5v-3.2h0.5V95.9z"/>
	<path d="M130.5,95c0,0.3-0.1,0.5-0.3,0.7s-0.5,0.2-0.9,0.2c-0.4,0-0.8-0.1-1-0.2v-0.5c0.2,0.1,0.3,0.1,0.5,0.2
		c0.2,0,0.3,0.1,0.5,0.1c0.3,0,0.4,0,0.6-0.1c0.1-0.1,0.2-0.2,0.2-0.4c0-0.1-0.1-0.2-0.2-0.3c-0.1-0.1-0.3-0.2-0.6-0.3
		c-0.3-0.1-0.5-0.2-0.6-0.3c-0.1-0.1-0.2-0.2-0.3-0.3c-0.1-0.1-0.1-0.2-0.1-0.4c0-0.3,0.1-0.5,0.3-0.6c0.2-0.2,0.5-0.2,0.9-0.2
		c0.3,0,0.7,0.1,1,0.2l-0.2,0.4c-0.3-0.1-0.6-0.2-0.9-0.2c-0.2,0-0.4,0-0.5,0.1s-0.2,0.2-0.2,0.3c0,0.1,0,0.2,0.1,0.2
		c0,0.1,0.1,0.1,0.2,0.2s0.3,0.1,0.6,0.2c0.4,0.1,0.6,0.3,0.8,0.4C130.5,94.6,130.5,94.8,130.5,95z"/>
	<path d="M132.4,95.5c0.1,0,0.2,0,0.2,0s0.1,0,0.2,0v0.4c-0.1,0-0.1,0-0.2,0.1c-0.1,0-0.2,0-0.3,0c-0.6,0-0.9-0.3-0.9-1V93h-0.5
		v-0.2l0.5-0.2l0.2-0.7h0.3v0.7h0.9V93h-0.9v1.9c0,0.2,0,0.3,0.1,0.4S132.2,95.5,132.4,95.5z"/>
	<path d="M134.8,95.9c-0.5,0-0.8-0.1-1.1-0.4s-0.4-0.7-0.4-1.2c0-0.5,0.1-0.9,0.4-1.2c0.3-0.3,0.6-0.5,1-0.5c0.4,0,0.7,0.1,1,0.4
		c0.2,0.3,0.4,0.6,0.4,1v0.3h-2.2c0,0.4,0.1,0.7,0.3,0.9c0.2,0.2,0.4,0.3,0.8,0.3c0.3,0,0.7-0.1,1-0.2v0.4c-0.2,0.1-0.3,0.1-0.5,0.2
		C135.2,95.9,135,95.9,134.8,95.9z M134.7,93c-0.3,0-0.5,0.1-0.6,0.3s-0.2,0.4-0.3,0.7h1.7c0-0.3-0.1-0.5-0.2-0.7S134.9,93,134.7,93
		z"/>
	<path d="M139,95.9v-2.1c0-0.3-0.1-0.5-0.2-0.6s-0.3-0.2-0.6-0.2c-0.3,0-0.6,0.1-0.7,0.3s-0.2,0.5-0.2,0.9v1.7h-0.5v-3.2h0.4
		l0.1,0.4h0c0.1-0.2,0.2-0.3,0.4-0.4s0.4-0.1,0.6-0.1c0.4,0,0.7,0.1,0.9,0.3c0.2,0.2,0.3,0.5,0.3,0.9v2.1H139z"/>
	<path d="M141.5,95.5c0.1,0,0.2,0,0.2,0s0.1,0,0.2,0v0.4c-0.1,0-0.1,0-0.2,0.1c-0.1,0-0.2,0-0.3,0c-0.6,0-0.9-0.3-0.9-1V93h-0.5
		v-0.2l0.5-0.2l0.2-0.7h0.3v0.7h0.9V93H141v1.9c0,0.2,0,0.3,0.1,0.4S141.4,95.5,141.5,95.5z"/>
	<path d="M146.1,95.9l-0.1-0.5h0c-0.2,0.2-0.3,0.3-0.5,0.4c-0.2,0.1-0.4,0.1-0.6,0.1c-0.3,0-0.6-0.1-0.7-0.2
		c-0.2-0.2-0.3-0.4-0.3-0.7c0-0.6,0.5-1,1.6-1l0.5,0v-0.2c0-0.3-0.1-0.4-0.2-0.6c-0.1-0.1-0.3-0.2-0.5-0.2c-0.3,0-0.6,0.1-0.9,0.2
		l-0.1-0.4c0.2-0.1,0.3-0.2,0.5-0.2c0.2,0,0.4-0.1,0.6-0.1c0.4,0,0.7,0.1,0.9,0.3c0.2,0.2,0.3,0.4,0.3,0.8v2.2H146.1z M145,95.5
		c0.3,0,0.5-0.1,0.7-0.2c0.2-0.2,0.3-0.4,0.3-0.7v-0.3l-0.5,0c-0.4,0-0.7,0.1-0.8,0.2c-0.2,0.1-0.3,0.3-0.3,0.5
		c0,0.2,0.1,0.3,0.2,0.4C144.7,95.5,144.8,95.5,145,95.5z"/>
	<path d="M149.7,95.9v-2.1c0-0.3-0.1-0.5-0.2-0.6S149.2,93,149,93c-0.3,0-0.6,0.1-0.7,0.3s-0.2,0.5-0.2,0.9v1.7h-0.5v-3.2h0.4
		l0.1,0.4h0c0.1-0.2,0.2-0.3,0.4-0.4s0.4-0.1,0.6-0.1c0.4,0,0.7,0.1,0.9,0.3c0.2,0.2,0.3,0.5,0.3,0.9v2.1H149.7z"/>
	<path d="M153.4,95.4L153.4,95.4c-0.3,0.3-0.6,0.5-1,0.5c-0.4,0-0.7-0.1-1-0.4c-0.2-0.3-0.4-0.7-0.4-1.2s0.1-0.9,0.4-1.2
		s0.6-0.4,1-0.4c0.4,0,0.8,0.2,1,0.5h0l0-0.2l0-0.2v-1.3h0.5v4.6h-0.4L153.4,95.4z M152.4,95.5c0.3,0,0.6-0.1,0.7-0.3
		c0.1-0.2,0.2-0.5,0.2-0.9v-0.1c0-0.5-0.1-0.8-0.2-1s-0.4-0.3-0.7-0.3c-0.3,0-0.5,0.1-0.7,0.3c-0.2,0.2-0.2,0.5-0.2,0.9
		c0,0.4,0.1,0.7,0.2,0.9S152.1,95.5,152.4,95.5z"/>
	<path d="M157.7,95.9c-0.5,0-0.8-0.1-1.1-0.4c-0.3-0.3-0.4-0.7-0.4-1.2c0-0.5,0.1-1,0.4-1.2s0.6-0.4,1.1-0.4c0.2,0,0.3,0,0.5,0
		s0.3,0.1,0.4,0.1l-0.1,0.4c-0.1,0-0.2-0.1-0.4-0.1c-0.1,0-0.2,0-0.3,0c-0.7,0-1,0.4-1,1.2c0,0.4,0.1,0.7,0.2,0.9
		c0.2,0.2,0.4,0.3,0.7,0.3c0.3,0,0.5-0.1,0.8-0.2v0.4C158.3,95.9,158,95.9,157.7,95.9z"/>
	<path d="M162,94.3c0,0.5-0.1,0.9-0.4,1.2c-0.3,0.3-0.6,0.4-1.1,0.4c-0.3,0-0.5-0.1-0.8-0.2s-0.4-0.3-0.5-0.6s-0.2-0.5-0.2-0.9
		c0-0.5,0.1-0.9,0.4-1.2c0.3-0.3,0.6-0.4,1.1-0.4c0.4,0,0.8,0.1,1.1,0.4C161.9,93.4,162,93.8,162,94.3z M159.6,94.3
		c0,0.4,0.1,0.7,0.2,0.9s0.4,0.3,0.7,0.3s0.6-0.1,0.7-0.3c0.2-0.2,0.2-0.5,0.2-0.9c0-0.4-0.1-0.7-0.2-0.9c-0.2-0.2-0.4-0.3-0.7-0.3
		c-0.3,0-0.6,0.1-0.7,0.3S159.6,93.9,159.6,94.3z"/>
	<path d="M165.1,95.9v-2.1c0-0.3-0.1-0.5-0.2-0.6s-0.3-0.2-0.6-0.2c-0.3,0-0.6,0.1-0.7,0.3s-0.2,0.5-0.2,0.9v1.7h-0.5v-3.2h0.4
		l0.1,0.4h0c0.1-0.2,0.2-0.3,0.4-0.4s0.4-0.1,0.6-0.1c0.4,0,0.7,0.1,0.9,0.3c0.2,0.2,0.3,0.5,0.3,0.9v2.1H165.1z"/>
	<path d="M168,93h-0.8v2.8h-0.5V93h-0.6v-0.2l0.6-0.2v-0.2c0-0.8,0.3-1.2,1-1.2c0.2,0,0.4,0,0.6,0.1l-0.1,0.4
		c-0.2-0.1-0.3-0.1-0.5-0.1c-0.2,0-0.3,0.1-0.4,0.2s-0.1,0.3-0.1,0.6v0.2h0.8V93z"/>
	<path d="M169.1,92.7v2.1c0,0.3,0.1,0.5,0.2,0.6s0.3,0.2,0.6,0.2c0.3,0,0.6-0.1,0.7-0.3c0.2-0.2,0.2-0.5,0.2-0.9v-1.7h0.5v3.2h-0.4
		l-0.1-0.4h0c-0.1,0.2-0.2,0.3-0.4,0.4s-0.4,0.1-0.6,0.1c-0.4,0-0.7-0.1-0.9-0.3s-0.3-0.5-0.3-0.9v-2.1H169.1z"/>
	<path d="M174.4,95c0,0.3-0.1,0.5-0.3,0.7s-0.5,0.2-0.9,0.2c-0.4,0-0.8-0.1-1-0.2v-0.5c0.2,0.1,0.3,0.1,0.5,0.2
		c0.2,0,0.3,0.1,0.5,0.1c0.3,0,0.4,0,0.6-0.1c0.1-0.1,0.2-0.2,0.2-0.4c0-0.1-0.1-0.2-0.2-0.3c-0.1-0.1-0.3-0.2-0.6-0.3
		c-0.3-0.1-0.5-0.2-0.6-0.3c-0.1-0.1-0.2-0.2-0.3-0.3c-0.1-0.1-0.1-0.2-0.1-0.4c0-0.3,0.1-0.5,0.3-0.6c0.2-0.2,0.5-0.2,0.9-0.2
		c0.3,0,0.7,0.1,1,0.2l-0.2,0.4c-0.3-0.1-0.6-0.2-0.9-0.2c-0.2,0-0.4,0-0.5,0.1s-0.2,0.2-0.2,0.3c0,0.1,0,0.2,0.1,0.2
		c0,0.1,0.1,0.1,0.2,0.2s0.3,0.1,0.6,0.2c0.4,0.1,0.6,0.3,0.8,0.4C174.3,94.6,174.4,94.8,174.4,95z"/>
	<path d="M175.1,91.8c0-0.1,0-0.2,0.1-0.2c0.1-0.1,0.1-0.1,0.2-0.1c0.1,0,0.1,0,0.2,0.1s0.1,0.1,0.1,0.2s0,0.2-0.1,0.2
		s-0.1,0.1-0.2,0.1c-0.1,0-0.2,0-0.2-0.1S175.1,91.9,175.1,91.8z M175.6,95.9h-0.5v-3.2h0.5V95.9z"/>
	<path d="M178.9,95.9v-2.1c0-0.3-0.1-0.5-0.2-0.6s-0.3-0.2-0.6-0.2c-0.3,0-0.6,0.1-0.7,0.3s-0.2,0.5-0.2,0.9v1.7h-0.5v-3.2h0.4
		l0.1,0.4h0c0.1-0.2,0.2-0.3,0.4-0.4s0.4-0.1,0.6-0.1c0.4,0,0.7,0.1,0.9,0.3c0.2,0.2,0.3,0.5,0.3,0.9v2.1H178.9z"/>
	<path d="M183,92.7V93l-0.6,0.1c0.1,0.1,0.1,0.2,0.1,0.3s0.1,0.2,0.1,0.4c0,0.3-0.1,0.6-0.3,0.8s-0.5,0.3-0.9,0.3
		c-0.1,0-0.2,0-0.3,0c-0.2,0.1-0.3,0.2-0.3,0.4c0,0.1,0,0.2,0.1,0.2s0.2,0.1,0.4,0.1h0.6c0.3,0,0.6,0.1,0.8,0.2s0.3,0.4,0.3,0.6
		c0,0.4-0.1,0.6-0.4,0.8c-0.3,0.2-0.7,0.3-1.2,0.3c-0.4,0-0.7-0.1-1-0.2s-0.3-0.4-0.3-0.7c0-0.2,0.1-0.4,0.2-0.5s0.3-0.2,0.5-0.3
		c-0.1,0-0.2-0.1-0.2-0.2c-0.1-0.1-0.1-0.2-0.1-0.3c0-0.1,0-0.2,0.1-0.3s0.2-0.2,0.3-0.3c-0.2-0.1-0.3-0.2-0.4-0.3
		c-0.1-0.2-0.2-0.4-0.2-0.6c0-0.4,0.1-0.6,0.3-0.8c0.2-0.2,0.5-0.3,0.9-0.3c0.2,0,0.3,0,0.5,0.1H183z M180.4,96.4
		c0,0.2,0.1,0.3,0.2,0.4s0.4,0.1,0.6,0.1c0.4,0,0.7-0.1,0.9-0.2c0.2-0.1,0.3-0.3,0.3-0.5c0-0.2-0.1-0.3-0.2-0.4
		c-0.1-0.1-0.3-0.1-0.6-0.1h-0.6c-0.2,0-0.4,0.1-0.5,0.2S180.4,96.2,180.4,96.4z M180.7,93.7c0,0.2,0.1,0.4,0.2,0.5s0.3,0.2,0.5,0.2
		c0.5,0,0.7-0.2,0.7-0.7c0-0.5-0.2-0.7-0.7-0.7c-0.2,0-0.4,0.1-0.5,0.2S180.7,93.5,180.7,93.7z"/>
	<path d="M186.7,92.6c0.1,0,0.3,0,0.4,0l-0.1,0.5c-0.1,0-0.3,0-0.4,0c-0.3,0-0.5,0.1-0.7,0.3c-0.2,0.2-0.3,0.5-0.3,0.8v1.7h-0.5
		v-3.2h0.4l0.1,0.6h0c0.1-0.2,0.3-0.4,0.4-0.5S186.5,92.6,186.7,92.6z"/>
	<path d="M189,95.9c-0.5,0-0.8-0.1-1.1-0.4s-0.4-0.7-0.4-1.2c0-0.5,0.1-0.9,0.4-1.2c0.3-0.3,0.6-0.5,1-0.5c0.4,0,0.7,0.1,1,0.4
		c0.2,0.3,0.4,0.6,0.4,1v0.3H188c0,0.4,0.1,0.7,0.3,0.9c0.2,0.2,0.4,0.3,0.8,0.3c0.3,0,0.7-0.1,1-0.2v0.4c-0.2,0.1-0.3,0.1-0.5,0.2
		C189.4,95.9,189.2,95.9,189,95.9z M188.9,93c-0.3,0-0.5,0.1-0.6,0.3S188,93.7,188,94h1.7c0-0.3-0.1-0.5-0.2-0.7S189.1,93,188.9,93z
		"/>
	<path d="M192.3,95.9c-0.5,0-0.8-0.1-1.1-0.4c-0.3-0.3-0.4-0.7-0.4-1.2c0-0.5,0.1-1,0.4-1.2s0.6-0.4,1.1-0.4c0.2,0,0.3,0,0.5,0
		s0.3,0.1,0.4,0.1l-0.1,0.4c-0.1,0-0.2-0.1-0.4-0.1c-0.1,0-0.2,0-0.3,0c-0.7,0-1,0.4-1,1.2c0,0.4,0.1,0.7,0.2,0.9
		c0.2,0.2,0.4,0.3,0.7,0.3c0.3,0,0.5-0.1,0.8-0.2v0.4C192.9,95.9,192.6,95.9,192.3,95.9z"/>
	<path d="M193.4,92.7h0.5l0.7,1.8c0.2,0.4,0.3,0.7,0.3,0.9h0c0-0.1,0.1-0.3,0.2-0.5c0.1-0.2,0.3-1,0.8-2.2h0.5l-1.4,3.7
		c-0.1,0.4-0.3,0.6-0.5,0.8c-0.2,0.2-0.4,0.2-0.7,0.2c-0.1,0-0.3,0-0.4,0v-0.4c0.1,0,0.2,0,0.4,0c0.3,0,0.6-0.2,0.7-0.6l0.2-0.5
		L193.4,92.7z"/>
	<path d="M198.2,95.9c-0.5,0-0.8-0.1-1.1-0.4c-0.3-0.3-0.4-0.7-0.4-1.2c0-0.5,0.1-1,0.4-1.2s0.6-0.4,1.1-0.4c0.2,0,0.3,0,0.5,0
		s0.3,0.1,0.4,0.1l-0.1,0.4c-0.1,0-0.2-0.1-0.4-0.1c-0.1,0-0.2,0-0.3,0c-0.7,0-1,0.4-1,1.2c0,0.4,0.1,0.7,0.2,0.9
		c0.2,0.2,0.4,0.3,0.7,0.3c0.3,0,0.5-0.1,0.8-0.2v0.4C198.8,95.9,198.5,95.9,198.2,95.9z"/>
	<path d="M200.2,95.9h-0.5v-4.6h0.5V95.9z"/>
	<path d="M201.2,91.8c0-0.1,0-0.2,0.1-0.2c0.1-0.1,0.1-0.1,0.2-0.1c0.1,0,0.1,0,0.2,0.1s0.1,0.1,0.1,0.2s0,0.2-0.1,0.2
		s-0.1,0.1-0.2,0.1c-0.1,0-0.2,0-0.2-0.1S201.2,91.9,201.2,91.8z M201.8,95.9h-0.5v-3.2h0.5V95.9z"/>
	<path d="M205,95.9v-2.1c0-0.3-0.1-0.5-0.2-0.6s-0.3-0.2-0.6-0.2c-0.3,0-0.6,0.1-0.7,0.3s-0.2,0.5-0.2,0.9v1.7h-0.5v-3.2h0.4
		l0.1,0.4h0c0.1-0.2,0.2-0.3,0.4-0.4s0.4-0.1,0.6-0.1c0.4,0,0.7,0.1,0.9,0.3c0.2,0.2,0.3,0.5,0.3,0.9v2.1H205z"/>
	<path d="M209.1,92.7V93l-0.6,0.1c0.1,0.1,0.1,0.2,0.1,0.3s0.1,0.2,0.1,0.4c0,0.3-0.1,0.6-0.3,0.8s-0.5,0.3-0.9,0.3
		c-0.1,0-0.2,0-0.3,0c-0.2,0.1-0.3,0.2-0.3,0.4c0,0.1,0,0.2,0.1,0.2s0.2,0.1,0.4,0.1h0.6c0.3,0,0.6,0.1,0.8,0.2s0.3,0.4,0.3,0.6
		c0,0.4-0.1,0.6-0.4,0.8c-0.3,0.2-0.7,0.3-1.2,0.3c-0.4,0-0.7-0.1-1-0.2s-0.3-0.4-0.3-0.7c0-0.2,0.1-0.4,0.2-0.5s0.3-0.2,0.5-0.3
		c-0.1,0-0.2-0.1-0.2-0.2c-0.1-0.1-0.1-0.2-0.1-0.3c0-0.1,0-0.2,0.1-0.3s0.2-0.2,0.3-0.3c-0.2-0.1-0.3-0.2-0.4-0.3
		c-0.1-0.2-0.2-0.4-0.2-0.6c0-0.4,0.1-0.6,0.3-0.8c0.2-0.2,0.5-0.3,0.9-0.3c0.2,0,0.3,0,0.5,0.1H209.1z M206.5,96.4
		c0,0.2,0.1,0.3,0.2,0.4s0.4,0.1,0.6,0.1c0.4,0,0.7-0.1,0.9-0.2c0.2-0.1,0.3-0.3,0.3-0.5c0-0.2-0.1-0.3-0.2-0.4
		c-0.1-0.1-0.3-0.1-0.6-0.1h-0.6c-0.2,0-0.4,0.1-0.5,0.2S206.5,96.2,206.5,96.4z M206.8,93.7c0,0.2,0.1,0.4,0.2,0.5s0.3,0.2,0.5,0.2
		c0.5,0,0.7-0.2,0.7-0.7c0-0.5-0.2-0.7-0.7-0.7c-0.2,0-0.4,0.1-0.5,0.2S206.8,93.5,206.8,93.7z"/>
	<path d="M90.6,100.2h-0.8v2.8h-0.5v-2.8h-0.6V100l0.6-0.2v-0.2c0-0.8,0.3-1.2,1-1.2c0.2,0,0.4,0,0.6,0.1L90.8,99
		c-0.2-0.1-0.3-0.1-0.5-0.1c-0.2,0-0.3,0.1-0.4,0.2s-0.1,0.3-0.1,0.6v0.2h0.8V100.2z"/>
	<path d="M93.1,103.1l-0.1-0.5h0c-0.2,0.2-0.3,0.3-0.5,0.4c-0.2,0.1-0.4,0.1-0.6,0.1c-0.3,0-0.6-0.1-0.7-0.2s-0.3-0.4-0.3-0.7
		c0-0.6,0.5-1,1.6-1l0.5,0V101c0-0.3-0.1-0.4-0.2-0.6c-0.1-0.1-0.3-0.2-0.5-0.2c-0.3,0-0.6,0.1-0.9,0.2l-0.1-0.4
		c0.2-0.1,0.3-0.2,0.5-0.2s0.4-0.1,0.6-0.1c0.4,0,0.7,0.1,0.9,0.3s0.3,0.4,0.3,0.8v2.2H93.1z M92,102.7c0.3,0,0.5-0.1,0.7-0.2
		s0.3-0.4,0.3-0.7v-0.3l-0.5,0c-0.4,0-0.7,0.1-0.8,0.2c-0.2,0.1-0.3,0.3-0.3,0.5c0,0.2,0.1,0.3,0.2,0.4S91.8,102.7,92,102.7z"/>
	<path d="M95.8,103.1c-0.5,0-0.8-0.1-1.1-0.4c-0.3-0.3-0.4-0.7-0.4-1.2c0-0.5,0.1-1,0.4-1.2s0.6-0.4,1.1-0.4c0.2,0,0.3,0,0.5,0
		s0.3,0.1,0.4,0.1l-0.1,0.4c-0.1,0-0.2-0.1-0.4-0.1c-0.1,0-0.2,0-0.3,0c-0.7,0-1,0.4-1,1.2c0,0.4,0.1,0.7,0.2,0.9s0.4,0.3,0.7,0.3
		c0.3,0,0.5-0.1,0.8-0.2v0.4C96.4,103.1,96.1,103.1,95.8,103.1z"/>
	<path d="M98.4,102.7c0.1,0,0.2,0,0.2,0s0.1,0,0.2,0v0.4c-0.1,0-0.1,0-0.2,0.1s-0.2,0-0.3,0c-0.6,0-0.9-0.3-0.9-1v-1.9h-0.5V100
		l0.5-0.2l0.2-0.7h0.3v0.7h0.9v0.4h-0.9v1.9c0,0.2,0,0.3,0.1,0.4S98.2,102.7,98.4,102.7z"/>
	<path d="M101.5,102.2c0,0.3-0.1,0.5-0.3,0.7s-0.5,0.2-0.9,0.2c-0.4,0-0.8-0.1-1-0.2v-0.5c0.2,0.1,0.3,0.1,0.5,0.2s0.3,0.1,0.5,0.1
		c0.3,0,0.4,0,0.6-0.1c0.1-0.1,0.2-0.2,0.2-0.4c0-0.1-0.1-0.2-0.2-0.3c-0.1-0.1-0.3-0.2-0.6-0.3c-0.3-0.1-0.5-0.2-0.6-0.3
		s-0.2-0.2-0.3-0.3s-0.1-0.2-0.1-0.4c0-0.3,0.1-0.5,0.3-0.6c0.2-0.2,0.5-0.2,0.9-0.2c0.3,0,0.7,0.1,1,0.2l-0.2,0.4
		c-0.3-0.1-0.6-0.2-0.9-0.2c-0.2,0-0.4,0-0.5,0.1s-0.2,0.2-0.2,0.3c0,0.1,0,0.2,0.1,0.2s0.1,0.1,0.2,0.2s0.3,0.1,0.6,0.2
		c0.4,0.1,0.6,0.3,0.8,0.4S101.5,102,101.5,102.2z"/>
	<path d="M102.3,102.8c0-0.1,0-0.2,0.1-0.3c0.1-0.1,0.1-0.1,0.3-0.1c0.1,0,0.2,0,0.3,0.1c0.1,0.1,0.1,0.2,0.1,0.3
		c0,0.1,0,0.2-0.1,0.3s-0.2,0.1-0.3,0.1c-0.1,0-0.2,0-0.2-0.1C102.3,103,102.3,102.9,102.3,102.8z"/>
</g>
<g>
	<path class="st12" d="M89.7,54.1v-8.6h1.8v7.1H95v1.5H89.7z"/>
	<path class="st12" d="M101.8,54.1l-0.6-2H98l-0.6,2h-2l3-8.6h2.2l3,8.6H101.8z M100.7,50.5c-0.6-1.8-0.9-2.9-1-3.1
		s-0.1-0.4-0.2-0.6c-0.1,0.5-0.5,1.7-1.1,3.7H100.7z"/>
	<path class="st12" d="M108.4,46.9c-0.7,0-1.2,0.3-1.6,0.8s-0.6,1.2-0.6,2.1c0,1.9,0.7,2.9,2.2,2.9c0.6,0,1.3-0.2,2.2-0.5v1.5
		c-0.7,0.3-1.5,0.4-2.4,0.4c-1.2,0-2.2-0.4-2.9-1.1s-1-1.8-1-3.3c0-0.9,0.2-1.7,0.5-2.3s0.8-1.2,1.4-1.5s1.3-0.5,2.1-0.5
		c0.8,0,1.7,0.2,2.5,0.6l-0.6,1.5c-0.3-0.2-0.6-0.3-1-0.4S108.8,46.9,108.4,46.9z"/>
	<path class="st12" d="M119.3,54.1h-2.1l-2.2-3.6l-0.8,0.6v3.1h-1.8v-8.6h1.8v3.9l0.7-1l2.3-2.9h2l-3,3.8L119.3,54.1z"/>
	<path class="st12" d="M131.3,49.8c0,1.4-0.4,2.5-1.1,3.3s-1.7,1.1-3,1.1s-2.3-0.4-3-1.1s-1.1-1.9-1.1-3.3s0.4-2.5,1.1-3.3
		s1.7-1.1,3-1.1s2.3,0.4,3,1.1S131.3,48.4,131.3,49.8z M125.1,49.8c0,1,0.2,1.7,0.5,2.2s0.9,0.7,1.6,0.7c1.4,0,2.2-1,2.2-2.9
		c0-1.9-0.7-2.9-2.2-2.9c-0.7,0-1.3,0.2-1.6,0.7S125.1,48.8,125.1,49.8z"/>
	<path class="st12" d="M134.9,54.1h-1.8v-8.6h4.9V47h-3.1v2.2h2.9v1.5h-2.9V54.1z"/>
	<path class="st12" d="M147.7,54.1h-4.9v-8.6h4.9V47h-3.1v1.9h2.9v1.5h-2.9v2.2h3.1V54.1z"/>
	<path class="st12" d="M156.6,49.7c0,1.4-0.4,2.5-1.2,3.2s-2,1.1-3.5,1.1h-2.4v-8.6h2.7c1.4,0,2.5,0.4,3.3,1.1
		S156.6,48.4,156.6,49.7z M154.7,49.8c0-1.8-0.8-2.8-2.4-2.8h-1v5.6h0.8C153.9,52.6,154.7,51.6,154.7,49.8z"/>
	<path class="st12" d="M165.4,45.5v5.5c0,0.6-0.1,1.2-0.4,1.7s-0.7,0.8-1.2,1.1s-1.2,0.4-1.9,0.4c-1.1,0-2-0.3-2.6-0.8
		s-0.9-1.3-0.9-2.3v-5.5h1.8v5.2c0,0.7,0.1,1.1,0.4,1.5s0.7,0.5,1.3,0.5c0.6,0,1-0.2,1.3-0.5s0.4-0.8,0.4-1.5v-5.2H165.4z"/>
	<path class="st12" d="M171.1,46.9c-0.7,0-1.2,0.3-1.6,0.8s-0.6,1.2-0.6,2.1c0,1.9,0.7,2.9,2.2,2.9c0.6,0,1.3-0.2,2.2-0.5v1.5
		c-0.7,0.3-1.5,0.4-2.4,0.4c-1.2,0-2.2-0.4-2.9-1.1s-1-1.8-1-3.3c0-0.9,0.2-1.7,0.5-2.3s0.8-1.2,1.4-1.5s1.3-0.5,2.1-0.5
		c0.8,0,1.7,0.2,2.5,0.6l-0.6,1.5c-0.3-0.2-0.6-0.3-1-0.4S171.4,46.9,171.1,46.9z"/>
	<path class="st12" d="M180.4,54.1l-0.6-2h-3.1l-0.6,2h-2l3-8.6h2.2l3,8.6H180.4z M179.3,50.5c-0.6-1.8-0.9-2.9-1-3.1
		s-0.1-0.4-0.2-0.6c-0.1,0.5-0.5,1.7-1.1,3.7H179.3z"/>
	<path class="st12" d="M186.7,54.1h-1.8V47h-2.3v-1.5h6.5V47h-2.3V54.1z"/>
	<path class="st12" d="M190.3,54.1v-8.6h1.8v8.6H190.3z"/>
	<path class="st12" d="M202.1,49.8c0,1.4-0.4,2.5-1.1,3.3s-1.7,1.1-3,1.1s-2.3-0.4-3-1.1s-1.1-1.9-1.1-3.3s0.4-2.5,1.1-3.3
		s1.7-1.1,3-1.1s2.3,0.4,3,1.1S202.1,48.4,202.1,49.8z M195.8,49.8c0,1,0.2,1.7,0.5,2.2s0.9,0.7,1.6,0.7c1.4,0,2.2-1,2.2-2.9
		c0-1.9-0.7-2.9-2.2-2.9c-0.7,0-1.3,0.2-1.6,0.7S195.8,48.8,195.8,49.8z"/>
	<path class="st12" d="M211.5,54.1h-2.3l-3.7-6.5h-0.1c0.1,1.1,0.1,2,0.1,2.4v4h-1.6v-8.6h2.3l3.7,6.4h0c-0.1-1.1-0.1-1.9-0.1-2.4
		v-4.1h1.6V54.1z"/>
</g>
</svg>
