<svg id="Layer_1" data-name="Layer 1" xmlns="http://www.w3.org/2000/svg" viewBox="0 0 700 702.89"><defs><style>.cls-2{fill:#024a67}.cls-3{fill:#2dcdae}.cls-4{fill:#325e56}.cls-5{fill:#fff}</style></defs><path d="M.5.5h700v700H.5z" transform="translate(-.5 -.07)" fill="#ffce41"/><path class="cls-2" d="M366.44 699.2A271 271 0 0 1 380 552.94c9.2-24 22.41-45.86 36.42-67.28 14.27-21.81 28.77-43.42 40.07-67 11.49-23.95 20.43-49 29.05-74.09l3.21-9.37c1.25-3.66-4.54-5.23-5.79-1.6-8.59 25.16-17.18 50.39-28.19 74.61a357.34 357.34 0 0 1-18.35 35.14c-6.7 11.24-13.93 22.15-21.12 33.08-14.3 21.73-28.18 43.65-38.22 67.74a277.41 277.41 0 0 0-18 147.43c.46 3.06 1 6.12 1.56 9.17.69 3.8 6.48 2.19 5.77-1.59z" transform="translate(-.5 -.07)"/><path class="cls-2" d="M446.38 428c-20.3-11-37.39-27.14-50.83-45.81-14.55-20.26-24.91-43.19-32.32-66.93-8.16-26.2-13-53.3-17-80.4q-6.35-42.86-9.64-86.08-3.33-43.41-3.6-87V50.89c0-3.86-6-3.87-6 0Q326.9 95 329.91 139t9.17 87.75c3.87 27.67 8.37 55.39 16 82.29 7 24.68 16.88 48.76 31.13 70.2 13 19.59 29.57 37 49.6 49.55q3.67 2.3 7.5 4.36c3.44 1.85 6.47-3.3 3.07-5.15z" transform="translate(-.5 -.07)"/><path class="cls-2" d="M356.93 297.66a445.35 445.35 0 0 0 48.75-34.43 450.26 450.26 0 0 0 43.37-40.17 459.52 459.52 0 0 0 38-45.78 449.57 449.57 0 0 0 31.66-50.15 445.87 445.87 0 0 0 24.82-54.07q1.29-3.41 2.53-6.82a3 3 0 0 0-2.1-3.69 3.06 3.06 0 0 0-3.69 2.1 432 432 0 0 1-23.6 53.56 449 449 0 0 1-30.46 50 449.43 449.43 0 0 1-36.72 45.61 451.42 451.42 0 0 1-42.3 40.45 434.78 434.78 0 0 1-47.11 34.41c-2 1.3-4.11 2.57-6.18 3.83-3.31 2-.29 7.2 3 5.18z" transform="translate(-.5 -.07)"/><path class="cls-2" d="M497.52 584.88a225.31 225.31 0 0 1 3.64-67.8 263.77 263.77 0 0 1 22.32-64.32 299.68 299.68 0 0 1 36.4-56.1 371.94 371.94 0 0 1 46.37-47.12 458.51 458.51 0 0 1 53.08-38.93c2.32-1.47 4.65-2.91 7-4.35 3.29-2 .28-7.2-3-5.18a484.24 484.24 0 0 0-55 38.93 380.94 380.94 0 0 0-47.87 46.66 312.45 312.45 0 0 0-38.46 55.9 274.69 274.69 0 0 0-24.82 64.85 234.81 234.81 0 0 0-6.34 69c.17 2.83.41 5.66.69 8.49a3.08 3.08 0 0 0 3 3 3 3 0 0 0 3-3z" transform="translate(-.5 -.07)"/><path class="cls-2" d="M362.58 631.14c9.69-12.64 24.55-20 39.35-24.92 8.07-2.67 16.34-4.7 24.63-6.57q15.1-3.42 30.37-6.06t30.63-4.52c10-1.21 20.1-2 30.09-3.51a112.36 112.36 0 0 0 28.68-7.85c9.22-4 17.91-9.24 26.7-14.12L628.16 533l6.89-3.83c3.38-1.88.35-7.06-3-5.18l-55.61 30.88c-9 5-17.92 10.24-27.13 14.86a102.26 102.26 0 0 1-27.93 9.2c-9.69 1.75-19.51 2.53-29.29 3.64q-15.78 1.8-31.47 4.38-15.29 2.52-30.42 5.8c-8.72 1.89-17.44 3.89-26 6.5-15.67 4.78-31.4 11.78-42.71 24-1.45 1.56-2.79 3.21-4.08 4.9-1 1.29-.2 3.36 1.08 4.1a3.08 3.08 0 0 0 4.1-1.08z" transform="translate(-.5 -.07)"/><path class="cls-2" d="M367.31 592.1c-8.43-21.35-23.18-39.3-40.74-53.88-18.21-15.12-38.93-26.82-60.22-37a585.91 585.91 0 0 0-74.71-29.28c-25.45-8.13-51.34-14.84-77.38-20.79-26.21-6-52.59-11.21-79-16.32L25.55 433c-3.77-.73-5.39 5.05-1.6 5.79 26.08 5 52.17 10.1 78.11 15.82s51.48 12 76.77 19.69A610.06 610.06 0 0 1 253 501.6c21.67 9.76 43 20.84 62.05 35.11 17.67 13.22 33.43 29.61 43.21 49.57q1.79 3.65 3.29 7.42a3.09 3.09 0 0 0 3.69 2.1c1.46-.41 2.72-2.19 2.12-3.7z" transform="translate(-.5 -.07)"/><path class="cls-2" d="M193.82 474.14a413.9 413.9 0 0 1-22.51-186.95c.18-1.61-1.51-3-3-3a3.07 3.07 0 0 0-3 3 415.21 415.21 0 0 0-1.45 74.62 423.69 423.69 0 0 0 11.81 73.81A413.12 413.12 0 0 0 188 475.75a3 3 0 1 0 5.8-1.61z" transform="translate(-.5 -.07)"/><path class="cls-2" d="M339 190.79c-16.17-10.92-34.29-18.35-52-26.41-17.48-8-35-16.75-49-30.13-8.93-8.51-16.34-18.41-23.68-28.28a3.09 3.09 0 0 0-4.1-1.08c-1.28.75-2.05 2.8-1.08 4.1 6.7 9 13.42 18.06 21.24 26.14a125.32 125.32 0 0 0 23.81 19c16.65 10.36 35.03 17.52 52.81 25.87a215.58 215.58 0 0 1 29 16 3 3 0 0 0 3-5.17z" transform="translate(-.5 -.07)"/><path class="cls-2" d="M331.35 83.55l-19.28-13.9c-5.88-4.24-12-8.33-17.2-13.38-9.07-8.75-14.65-20.3-18.68-32.08-2.37-6.94-4.27-14-6.14-21.11-1-3.73-6.77-2.15-5.79 1.6 3.4 12.9 6.95 25.93 13.16 37.81a72.27 72.27 0 0 0 11.14 15.93c5.21 5.56 11.51 10 17.66 14.38l22.09 15.93a3 3 0 0 0 3-5.18z" transform="translate(-.5 -.07)"/><path class="cls-2" d="M335.4 144.19a238.94 238.94 0 0 0 41.38-60.14q4.55-9.43 8.25-19.25a3 3 0 0 0-2.1-3.69 3.06 3.06 0 0 0-3.69 2.1 231.48 231.48 0 0 1-34.9 61.49q-6.27 7.9-13.19 15.25c-2.64 2.81 1.59 7.06 4.25 4.24z" transform="translate(-.5 -.07)"/><path class="cls-2" d="M438.89 230.37c-7.79-19.39-9.93-40.32-11-61-1-20.55-2-41.37.58-61.85A127.52 127.52 0 0 1 437 74.55c.62-1.5-.67-3.3-2.1-3.69a3.08 3.08 0 0 0-3.69 2.1c-8 19.3-10.12 40.42-10.26 61.15-.07 10.45.34 20.9.81 31.34.48 10.7 1.19 21.39 2.66 32a145.53 145.53 0 0 0 8.69 34.55 3.1 3.1 0 0 0 3.69 2.1c1.42-.4 2.7-2.19 2.09-3.7z" transform="translate(-.5 -.07)"/><path class="cls-2" d="M497.1 163.45a115.57 115.57 0 0 0 55.35-22.34 116.51 116.51 0 0 0 12.85-11.26c2.71-2.76-1.53-7-4.24-4.24a109.57 109.57 0 0 1-48.36 28.64 106.31 106.31 0 0 1-15.6 3.2 3.1 3.1 0 0 0-3 3c0 1.47 1.38 3.21 3 3z" transform="translate(-.5 -.07)"/><path class="cls-2" d="M622.11 333.47a322.58 322.58 0 0 1-30.73-59 329.6 329.6 0 0 1-18.07-63.89 319.3 319.3 0 0 1-4.29-37 3.06 3.06 0 0 0-3-3 3 3 0 0 0-3 3 330.94 330.94 0 0 0 34.86 129.94 326.57 326.57 0 0 0 19 32.93 3.07 3.07 0 0 0 4.1 1.08 3 3 0 0 0 1.13-4.06z" transform="translate(-.5 -.07)"/><path class="cls-2" d="M580.4 243q26.43-28.78 50.43-59.65 6.87-8.83 13.54-17.82c1-1.3.21-3.35-1.08-4.1a3.06 3.06 0 0 0-4.1 1.08q-23 31-48.44 60-7.2 8.22-14.59 16.26a3 3 0 1 0 4.24 4.23z" transform="translate(-.5 -.07)"/><path class="cls-3" d="M99.76 436.56c-2.55 5.43-6.3 8.61-10.8 10-.54.17-1.1.32-1.67.44-.15 0-.31.07-.47.09-.35.08-.71.13-1.07.18a13.52 13.52 0 0 1-6.23-.64 12.5 12.5 0 0 1-1.2-.48 11.61 11.61 0 0 1-1.67-.89c-8.29-5.25-11.35-11.58-10.19-19.91s6.54-18.63 15.29-31.7c1.44-2.16 3-4.39 4.6-6.69 0 0 2.69 4.62 5.88 10.93s6.9 14.3 8.84 21.21a25.16 25.16 0 0 1-1.31 17.46z" transform="translate(-.5 -.07)"/><path class="cls-4" d="M87.29 447c-.15 0-.31.07-.47.09-.35.08-.71.13-1.07.18a13.52 13.52 0 0 1-6.23-.64c2-9.46 4.43-22.21 4.52-32.38 0-.88.92-1.05 1.07-.2a154.17 154.17 0 0 1 2.18 33z" transform="translate(-.5 -.07)"/><path class="cls-5" d="M293.51 525.1c8.43 1.41 13.81 4.2 16.77 8.26a11.71 11.71 0 0 1 1 1.52 3.61 3.61 0 0 1 .22.44 9.19 9.19 0 0 1 .46 1 9 9 0 0 1 .14 6.3 9.71 9.71 0 0 1-.53 1.31 13 13 0 0 1-1.09 1.89c-6.72 9.59-16.54 14.2-30.05 14.25s-30.74-4.48-51.18-14.21c-1.68-.82-3.39-1.64-5.11-2.52l-5.22-2.75 16.84-5c9.63-2.87 21.5-6.69 31.65-9.29a65.23 65.23 0 0 1 26.14-1.24z" transform="translate(-.5 -.07)"/><path class="cls-5" d="M311.25 534.88a3.61 3.61 0 0 1 .22.44 9.19 9.19 0 0 1 .46 1 9 9 0 0 1 .14 6.3c-7.47.34-16.24.56-25.08.67s-17.78.13-25.68.41c-1.36 0-1.68-.85-.38-1.06l50.32-7.77z" transform="translate(-.5 -.07)"/><path class="cls-5" d="M183 468.88c6-.17 10.46 1.55 14 4.71a15.73 15.73 0 0 1 1.23 1.22 3.73 3.73 0 0 1 .32.36c.25.27.47.55.7.84a12.63 12.63 0 0 1 2.54 5.72A11.23 11.23 0 0 1 202 483a12.44 12.44 0 0 1 0 1.93c-1 10.09-6.28 16.21-14.77 19A51.66 51.66 0 0 1 172 506c-5.9.12-12.65-.3-20.64-.27l-4.07.08-4.29.19s.56-1.25 1.64-3.36a82.41 82.41 0 0 1 4.89-8.18 97.27 97.27 0 0 1 16.61-18.82 27.64 27.64 0 0 1 16.86-6.76z" transform="translate(-.5 -.07)"/><path class="cls-5" d="M198.26 474.81a3.73 3.73 0 0 1 .32.36c.25.27.47.55.7.84a12.63 12.63 0 0 1 2.54 5.72c-9.91 3.48-23.16 6.77-32.85 11.46-.83.4-1.4-.33-.67-.87 3.28-2.38 7.64-5.21 12.76-8.18s10.94-6.09 17.2-9.33z" transform="translate(-.5 -.07)"/><path class="cls-5" d="M186 364.64a17.25 17.25 0 0 1-13.79.2c-.52-.21-1-.45-1.56-.71l-.42-.22c-.32-.16-.63-.34-.95-.53a15.65 15.65 0 0 1-4.62-4.22 12.12 12.12 0 0 1-.7-1.06 14.93 14.93 0 0 1-.86-1.63c-3.8-8.66-2.79-15 2.66-20s15.31-8.82 29.19-12c2.28-.52 4.68-1 7.18-1.5 0 0-.51 4.83-1.48 11.08s-2.37 13.91-4.5 19.73A18.47 18.47 0 0 1 186 364.64z" transform="translate(-.5 -.07)"/><path class="cls-5" d="M170.65 364.13l-.42-.22c-.32-.16-.63-.34-.95-.53a15.65 15.65 0 0 1-4.62-4.22c6.59-5.32 15.27-12.5 20.82-19.31.48-.59 1.28-.13.94.54a124.55 124.55 0 0 1-15.77 23.74z" transform="translate(-.5 -.07)"/><path class="cls-5" d="M414.27 474.46c1.1 6.45 0 11.49-2.86 15.34a14.2 14.2 0 0 1-1.11 1.35c-.1.12-.22.24-.33.35-.25.27-.51.52-.78.77a11.86 11.86 0 0 1-5.58 2.87 11.35 11.35 0 0 1-1.3.21 11.61 11.61 0 0 1-2 .07c-10.27-.46-17-5.16-21.07-14.2s-5.54-22.43-4.53-39.92c.16-2.88.41-5.88.72-9l3.1 2.39 7.66 6c6.08 4.86 13.57 10.88 19.09 16.5a32.54 32.54 0 0 1 8.95 17.21z" transform="translate(-.5 -.07)"/><path class="cls-5" d="M410.31 491.15c-.1.12-.22.24-.33.35-.25.27-.51.52-.78.77a11.86 11.86 0 0 1-5.58 2.87c-2.21-5.09-4.77-11.05-7.43-17s-5.45-11.93-8.28-17c-.49-.88.21-1.5.82-.73a341.91 341.91 0 0 1 21.58 30.77z" transform="translate(-.5 -.07)"/><path class="cls-3" d="M389.5 576.14a15.87 15.87 0 0 1-7.91-1.09 13.12 13.12 0 0 1-5.42-4.38 14.11 14.11 0 0 1-.94-1.43c-.08-.13-.16-.27-.23-.41-.18-.31-.34-.63-.5-1a19.48 19.48 0 0 1-1.71-6c-.05-.42-.1-.83-.13-1.23-.05-.59-.08-1.17-.08-1.76 0-4.48 0-7.66.78-10.06a8.46 8.46 0 0 1 4.92-5.27 34.88 34.88 0 0 1 11.28-2.72 141 141 0 0 1 17-.39q3.27.08 6.86.23s-4.25 17.77-10.59 27.62a16.57 16.57 0 0 1-5.35 5.22 19.22 19.22 0 0 1-8 2.65z" transform="translate(-.5 -.07)"/><path class="cls-4" d="M375.23 569.25c-.08-.13-.16-.27-.23-.41-.18-.31-.34-.63-.5-1a19.48 19.48 0 0 1-1.71-6 34.43 34.43 0 0 0 11.63-3 54.16 54.16 0 0 0 11.1-6.49.54.54 0 0 1 .77.75 73.26 73.26 0 0 1-7.78 8.27 36.37 36.37 0 0 1-13.28 7.84z" transform="translate(-.5 -.07)"/><path class="cls-3" d="M272.67 488.58c-1.65 6-5 9.7-9.27 11.68a16.21 16.21 0 0 1-1.6.65l-.45.15c-.34.12-.69.21-1 .31a14.4 14.4 0 0 1-9.28-.82c-8.88-4-12.74-9.35-13-17.3s2.95-18.53 7.92-33.27c.82-2.44 1.68-5 2.57-7.64 0 0 3.92 3.61 8.66 9s10.28 12.49 13.61 19.18a25.42 25.42 0 0 1 1.92 18.1z" transform="translate(-.5 -.07)"/><path class="cls-4" d="M261.8 500.9l-.45.15c-.34.12-.69.21-1 .31a13.81 13.81 0 0 1-6.26.15c.88-9.45 1.15-22.38-1-32.28-.18-.85.68-1.21 1-.42a107.67 107.67 0 0 1 7.72 32.09z" transform="translate(-.5 -.07)"/><path class="cls-3" d="M190.53 425.38a16.72 16.72 0 0 1-13.22-3c-.46-.33-.91-.68-1.34-1l-.36-.31c-.27-.23-.53-.48-.8-.73a16.81 16.81 0 0 1-3.59-5.12 16.63 16.63 0 0 1-1-2.91c-4.12-18.08 7.48-22.22 34.46-23.62q3.33-.18 7-.3s-3.54 18.32-9.5 28.74a16.68 16.68 0 0 1-11.65 8.34z" transform="translate(-.5 -.07)"/><path class="cls-4" d="M176 421.28l-.36-.31c-.27-.23-.53-.48-.8-.73a16.81 16.81 0 0 1-3.59-5.12c7.17-3.27 16.56-8.12 22.73-13.54a.54.54 0 0 1 .82.7 87 87 0 0 1-18.8 19z" transform="translate(-.5 -.07)"/><path class="cls-5" d="M338.87 223.89c3.88 4.94 5.17 9.82 4.46 14.52a16.49 16.49 0 0 1-.34 1.7c0 .15-.08.31-.13.46-.09.35-.2.69-.32 1a12.73 12.73 0 0 1-3.46 5.23c-.32.29-.66.57-1 .83a12.4 12.4 0 0 1-1.62 1c-8.86 4.75-16.47 4.21-23.93-1.2s-14.73-15.7-22.34-30.51q-1.89-3.66-3.79-7.7s5.62.32 13 1 16.57 1.73 23.89 3.6a28.75 28.75 0 0 1 15.57 10z" transform="translate(-.5 -.07)"/><path class="cls-5" d="M343 240.11c0 .15-.08.31-.13.46-.09.35-.2.69-.32 1a12.73 12.73 0 0 1-3.46 5.23c-8.19-6.45-19.11-15.1-28.56-20.59-.82-.47-.53-1.36.34-1a224.56 224.56 0 0 1 32.13 14.9z" transform="translate(-.5 -.07)"/><path class="cls-5" d="M387.5 353.92a16.55 16.55 0 0 1-13.34-1.4c-.49-.27-1-.56-1.46-.88a4.56 4.56 0 0 1-.39-.27c-.3-.2-.59-.41-.88-.63a17.17 17.17 0 0 1-4.24-4.59c-.23-.36-.44-.72-.63-1.09a16.09 16.09 0 0 1-.76-1.64c-6.65-17.24 4-22.57 30.13-27.21 2.15-.39 4.42-.77 6.79-1.15 0 0-.72 18.31-5 29.26a16 16 0 0 1-10.18 9.6z" transform="translate(-.5 -.07)"/><path class="cls-5" d="M372.69 351.64a4.56 4.56 0 0 1-.39-.27c-.3-.2-.59-.41-.88-.63a17.17 17.17 0 0 1-4.24-4.59c6.5-4 15-9.92 20.19-16a.54.54 0 0 1 .91.59 83.27 83.27 0 0 1-15.59 20.9z" transform="translate(-.5 -.07)"/><path class="cls-3" d="M268.2 141.2c-3.57 5.88-8.12 8.58-12.83 9.09a14.22 14.22 0 0 1-1.73.09h-.48c-.36 0-.72 0-1.09-.06a13.25 13.25 0 0 1-5.92-2.09 11.35 11.35 0 0 1-1.06-.76 15.52 15.52 0 0 1-1.43-1.26c-6.92-7.07-8.86-13.26-6.93-21.1s7.76-17.34 15.14-31.86c1.2-2.4 2.43-4.94 3.7-7.64 0 0 .83 1.12 2.17 3.07s3.11 4.76 5 8.13c3.73 6.72 7.62 15.88 9 24.15a29.31 29.31 0 0 1-3.55 20.25z" transform="translate(-.5 -.07)"/><path class="cls-4" d="M253.64 150.38h-.48c-.36 0-.72 0-1.09-.06a13.25 13.25 0 0 1-5.92-2.09 108 108 0 0 0 5.91-15.94A75.05 75.05 0 0 0 255 115c0-.93 1-1.1 1.08-.19a88.64 88.64 0 0 1-2.41 35.62z" transform="translate(-.5 -.07)"/><path class="cls-5" d="M455.26 584.65c-4.61 5.64-9.44 8.24-14.27 8.5a15.21 15.21 0 0 1-2.24 0c-.37 0-.72-.08-1.09-.13a11 11 0 0 1-5.65-2.74 10.54 10.54 0 0 1-.94-1 12.93 12.93 0 0 1-1.23-1.59c-5.75-8.89-6.1-17.4-1.58-26.92s13.92-20 27.82-32.67q3.44-3.14 7.25-6.41s.55 6.3.88 14.77.48 19.1-.55 27.91a39.53 39.53 0 0 1-8.4 20.28z" transform="translate(-.5 -.07)"/><path class="cls-5" d="M439.23 593.14h-.48c-.37 0-.72-.08-1.09-.13a11 11 0 0 1-5.65-2.74c5.67-10.62 13.17-25 17.51-37 .37-1 1.31-.94 1.1.11a264.27 264.27 0 0 1-11.39 39.76z" transform="translate(-.5 -.07)"/><path class="cls-3" d="M591.29 574.08c-5.51-2.85-8.46-6.89-9.52-11.49a15.46 15.46 0 0 1-.3-1.7c0-.15 0-.31-.05-.48 0-.36-.06-.72-.08-1.08a13.73 13.73 0 0 1 1.16-6.16 12.46 12.46 0 0 1 .57-1.16 12.91 12.91 0 0 1 1-1.59c5.75-7.86 11.74-10.53 19.55-9.21s17.47 6.66 30.89 14.47l7 4s-4.31 3.13-10.5 6.7-14.31 7.57-21.54 9.47a25.41 25.41 0 0 1-18.15-1.81z" transform="translate(-.5 -.07)"/><path class="cls-4" d="M581.48 560.89c0-.15 0-.31-.05-.48 0-.36-.06-.72-.08-1.08a13.73 13.73 0 0 1 1.16-6.16c9 2.82 21.63 5.74 31.75 5.67.87 0 1 .91.21 1.07a105.86 105.86 0 0 1-32.99.98z" transform="translate(-.5 -.07)"/><path class="cls-3" d="M538.77 575.43a20.83 20.83 0 0 1-12.17 7.37c-.56.11-1.13.19-1.71.25h-.48c-.36 0-.72 0-1.09.06a12.45 12.45 0 0 1-8.78-3.15c-7.5-6.84-8.92-15.54-4.88-24.35a43.87 43.87 0 0 1 9.9-13.16 113.49 113.49 0 0 1 17-12.92c2.23-1.45 4.58-2.91 7-4.41 0 0 .13 1.36.28 3.63s.33 5.44.46 9c.27 7.22.51 16 .16 22.77a24.44 24.44 0 0 1-5.76 14.83z" transform="translate(-.5 -.07)"/><path class="cls-4" d="M524.89 583.05h-.48c-.36 0-.72 0-1.09.06a12.68 12.68 0 0 1-6.11-1.33 159.56 159.56 0 0 1 6.17-16c2.39-5.46 5-10.82 6.91-15.7.33-.84 1.24-.67 1.07.2-.81 3.81-1.85 8.69-3 14.3s-2.36 11.77-3.43 18.44z" transform="translate(-.5 -.07)"/><path class="cls-5" d="M523 501.14a16 16 0 0 1-13-6c-.35-.44-.69-.9-1-1.38-.08-.14-.17-.27-.26-.4a15.81 15.81 0 0 1-2.44-6.9c-.05-.42-.08-.85-.09-1.27a15.87 15.87 0 0 1 0-1.83c.85-9.38 3.92-14.15 10.28-16.36s16.05-1.83 30.26-1.91c2.34 0 4.81-.07 7.41-.14 0 0-.35 1.17-1 3.13s-1.69 4.65-3.05 7.69c-2.69 6.06-6.89 13.45-11.69 18.54a21 21 0 0 1-15.42 6.83z" transform="translate(-.5 -.07)"/><path class="cls-5" d="M509 493.75c-.08-.14-.17-.27-.26-.4a15.81 15.81 0 0 1-2.44-6.9 93.4 93.4 0 0 0 13.8-3.16 59.13 59.13 0 0 0 13.31-5.87c.66-.4 1.27.29.72.82A72.16 72.16 0 0 1 509 493.75z" transform="translate(-.5 -.07)"/><path class="cls-3" d="M546.82 399a19.91 19.91 0 0 1-6.19 12.16 15.61 15.61 0 0 1-1.3 1.12l-.38.29c-.28.23-.58.43-.88.64a14.18 14.18 0 0 1-5.78 2.38 11 11 0 0 1-1.27.14 11.79 11.79 0 0 1-1.88 0c-9.71-.81-15.52-6.12-17.13-14.92a37.17 37.17 0 0 1 .93-15.45 65.92 65.92 0 0 1 8.15-18.61c.67-1.06 1.36-2.12 2.09-3.18s1.53-2.11 2.32-3.16l1.79 2.81c1.12 1.73 2.7 4.11 4.54 6.69s3.93 5.37 6 8.06 4.1 5.28 5.75 7.66a18.44 18.44 0 0 1 3.24 13.37z" transform="translate(-.5 -.07)"/><path class="cls-4" d="M539.33 412.32l-.38.29c-.28.23-.58.43-.88.64a14.18 14.18 0 0 1-5.78 2.38c-1.22-4.48-2.38-9.72-3.38-15s-1.87-10.48-2.86-15.07c-.18-.79.68-1.13 1-.41 1.39 3.23 3.21 7.3 5.27 11.9s4.48 9.72 7 15.23z" transform="translate(-.5 -.07)"/><path class="cls-3" d="M587.77 385.66c-5.28-2.67-8.21-6.59-9.37-11.14a15.61 15.61 0 0 1-.34-1.68c0-.15 0-.31-.07-.47a14.56 14.56 0 0 1 .77-7.28 15.67 15.67 0 0 1 1.4-2.81c5.26-8.07 11-10.95 18.59-9.8s17 6.32 29.88 14.15l6.65 4.07s-4.13 3.09-10 6.67-13.54 7.63-20.34 9.63a23.18 23.18 0 0 1-17.17-1.37z" transform="translate(-.5 -.07)"/><path class="cls-4" d="M578.05 372.84c0-.15 0-.31-.07-.47a14.56 14.56 0 0 1 .77-7.28c8.76 2.45 20.85 5 30.51 4.82.83 0 1 .89.21 1.07a105.48 105.48 0 0 1-31.42 1.86z" transform="translate(-.5 -.07)"/><path class="cls-3" d="M652.47 313.08a19.63 19.63 0 0 1-10.53 9.12c-.53.2-1.08.37-1.64.52l-.46.12c-.35.09-.7.17-1.06.24a13.72 13.72 0 0 1-6.25-.19 10.23 10.23 0 0 1-1.22-.4 13.38 13.38 0 0 1-1.72-.79c-8.56-4.82-11.77-12.06-9.83-21a39.46 39.46 0 0 1 6.81-14.23 72.85 72.85 0 0 1 14.59-14.78c1-.78 2.06-1.56 3.13-2.32s2.21-1.5 3.34-2.24c0 0 .24 1.26.63 3.36s1 5 1.71 8.17 1.6 6.71 2.5 10.15 1.74 6.78 2.33 9.77a20.67 20.67 0 0 1-2.33 14.46z" transform="translate(-.5 -.07)"/><path class="cls-4" d="M640.3 322.72l-.46.12c-.35.09-.7.17-1.06.24a13.72 13.72 0 0 1-6.25-.19c.69-4.74 1.71-10.19 2.86-15.59s2.39-10.78 3.24-15.58c.14-.83 1.06-.83 1.09 0 .06 3.61.14 8.23.23 13.54s.21 11.14.35 17.47z" transform="translate(-.5 -.07)"/><path class="cls-5" d="M592.17 272.78a12.08 12.08 0 0 1 2.08 6 44.48 44.48 0 0 1 .07 6.46c0 .55-.07 1.12-.12 1.69 0 .15 0 .31-.05.47 0 .36-.08.71-.12 1.08a13.75 13.75 0 0 1-2 5.92 9.51 9.51 0 0 1-.77 1 10.05 10.05 0 0 1-1.35 1.34 21.55 21.55 0 0 1-11.34 4.66 12 12 0 0 1-8.45-2.07c-5.4-3.52-10.63-11.3-18.21-22.56-1.26-1.86-2.59-3.8-4-5.84a97.76 97.76 0 0 1 10.48-3.17c6.08-1.51 13.89-2.76 20.29-2.3a18.11 18.11 0 0 1 13.5 7.27z" transform="translate(-.5 -.07)"/><path class="cls-5" d="M594.2 287c0 .15 0 .31-.05.47 0 .36-.08.71-.12 1.08a13.75 13.75 0 0 1-2 5.92 39.64 39.64 0 0 1-6-3.86c-1.86-1.42-3.65-2.83-5.59-4.16a58.07 58.07 0 0 0-11.86-6.52.54.54 0 0 1 .23-1.06 71.48 71.48 0 0 1 11.6 2.72 72.53 72.53 0 0 1 6.93 2.64 71.61 71.61 0 0 0 6.86 2.77z" transform="translate(-.5 -.07)"/><path class="cls-3" d="M473.91 372.72a16.86 16.86 0 0 1-6.2 12.6 15.8 15.8 0 0 1-1.37 1l-.4.26c-.3.2-.6.39-.92.58a15.27 15.27 0 0 1-5.93 2c-.42.05-.85.09-1.27.1a14.05 14.05 0 0 1-1.84 0c-9.44-.87-14.47-4.59-16.49-11.64a39.85 39.85 0 0 1-1-13.11c.15-2.63.46-5.44.86-8.55a59.55 59.55 0 0 1 1.95-10.75 16.77 16.77 0 0 1 3.78-6.78l.45.71a13.52 13.52 0 0 0 1.36 1.74 26.41 26.41 0 0 0 5.54 4.34c1.19.76 2.5 1.56 3.89 2.5s2.88 2.08 4.3 3.19a68.49 68.49 0 0 1 7.82 7.05 20 20 0 0 1 5.44 14.78z" transform="translate(-.5 -.07)"/><path class="cls-4" d="M466.34 386.35l-.4.26c-.3.2-.6.39-.92.58a15.27 15.27 0 0 1-5.93 2c-1.49-8.44-4-19.7-7.88-27.83-.33-.7.43-1.23.89-.62a104.83 104.83 0 0 1 14.24 25.61z" transform="translate(-.5 -.07)"/><path class="cls-3" d="M410.51 280.79c-5.52-2.72-8.47-6.66-9.66-11.22-.14-.55-.26-1.11-.35-1.69 0-.15-.05-.31-.07-.47-.06-.36-.09-.72-.12-1.08a13.9 13.9 0 0 1 1.48-7.36 13.74 13.74 0 0 1 .95-1.62c5.54-8 11.57-10.8 19.11-9.72 3.78.53 8 2 12.87 4.16s10.57 4.93 17.62 7.69l3.62 1.35 3.88 1.3s-.88 1-2.47 2.57A74.35 74.35 0 0 1 429 282.05a25.26 25.26 0 0 1-18.45-1.26z" transform="translate(-.5 -.07)"/><path class="cls-4" d="M400.5 267.88c0-.15-.05-.31-.07-.47-.06-.36-.09-.72-.12-1.08a13.94 13.94 0 0 1 .95-6.19c4.58 1.25 10 2.59 15.48 3.52a72 72 0 0 0 16.18 1.11c.86 0 1.1.85.27 1.06a83 83 0 0 1-14.08 2.29 107.33 107.33 0 0 1-18.61-.24z" transform="translate(-.5 -.07)"/><path class="cls-5" d="M485 178.44c-1.56 5.79-4.49 9.76-8.56 12.21a16 16 0 0 1-1.53.82l-.44.2c-.33.16-.66.29-1 .42a12.49 12.49 0 0 1-6.22.7 11.13 11.13 0 0 1-1.28-.25 13.57 13.57 0 0 1-1.84-.59c-9.32-3.89-13.77-10.7-13.81-20.36s4.35-22.16 13.38-36.29c1.48-2.33 3.12-4.69 4.86-7.08l5.57 11.64c3.17 6.59 7.22 14.49 9.83 21.14a27.77 27.77 0 0 1 1.04 17.44z" transform="translate(-.5 -.07)"/><path class="cls-5" d="M474.91 191.47l-.44.2c-.33.16-.66.29-1 .42a12.49 12.49 0 0 1-6.22.7c-.15-5.26-.21-11.39-.24-17.53s-.07-12.32-.43-17.77c-.06-.94.83-1.19 1.05-.29.94 4 2.13 9 3.38 14.85s2.64 12.35 3.9 19.42z" transform="translate(-.5 -.07)"/><path class="cls-3" d="M304.24 45.3a15.5 15.5 0 0 1-13.39 4.09c-.55-.09-1.11-.2-1.67-.35l-.46-.12c-.35-.09-.69-.2-1-.31a16.9 16.9 0 0 1-5.46-3c-.33-.27-.64-.55-.94-.84A15.39 15.39 0 0 1 280 43.4c-5.92-7.12-7.17-12.22-4.33-17.64s9.78-11.18 19.47-20.65c1.59-1.57 3.24-3.24 5-5 0 0 .62 1 1.58 2.73s2.22 4.16 3.48 7.09c2.53 5.84 4.91 13.68 5.14 20.41a19.06 19.06 0 0 1-6.1 14.96z" transform="translate(-.5 -.07)"/><path class="cls-4" d="M289.18 49.05l-.46-.12c-.35-.09-.69-.2-1-.31a16.9 16.9 0 0 1-5.46-3 75.37 75.37 0 0 0 7.48-10.88 49.53 49.53 0 0 0 5.12-12.57.54.54 0 0 1 1.08.09 60 60 0 0 1-6.72 26.84z" transform="translate(-.5 -.07)"/><path class="cls-5" d="M374.94 90.94c-1.34 5.6-4.13 9.55-8.12 12.1a15.76 15.76 0 0 1-1.5.86c-.14.07-.28.15-.43.21-.32.17-.65.31-1 .46a13.18 13.18 0 0 1-6.18 1 11.39 11.39 0 0 1-1.29-.17 12.83 12.83 0 0 1-1.85-.46c-9.41-3.19-14.07-9.39-14.54-18.53s3.28-21.22 11.35-35.18c1.32-2.3 2.79-4.64 4.36-7l6.35 10.69c3.59 6 8.09 13.31 11 19.48a25 25 0 0 1 1.85 16.54z" transform="translate(-.5 -.07)"/><path class="cls-5" d="M365.33 103.91c-.14.07-.28.15-.43.21-.32.17-.65.31-1 .46a13.18 13.18 0 0 1-6.18 1c-.31-5-.58-10.81-.87-16.65s-.62-11.69-1.26-16.83c-.11-.89.77-1.17 1-.34 1.15 3.71 2.59 8.45 4.09 13.89s3.16 11.6 4.65 18.26z" transform="translate(-.5 -.07)"/><path class="cls-3" d="M440.89 114.32a18 18 0 0 1-3.89 7.76 15.17 15.17 0 0 1-5.86 4.07 15.61 15.61 0 0 1-1.63.55l-.46.12c-.35.1-.7.17-1.06.25a13.63 13.63 0 0 1-6.26-.23 10.39 10.39 0 0 1-1.23-.4 14 14 0 0 1-1.73-.76 30 30 0 0 1-9.35-7.2 15.12 15.12 0 0 1-2.27-3.72 13.51 13.51 0 0 1-.63-1.89 13.36 13.36 0 0 1-.39-2.14 83.28 83.28 0 0 1-.13-13.65 88.93 88.93 0 0 1 1.12-10.14 47.06 47.06 0 0 1 3.43-11.59 28.45 28.45 0 0 1 4.52-7l.42.84c.29.54.62 1.3 1.18 2.2a36.72 36.72 0 0 0 4.89 6.34c2.13 2.27 4.73 4.58 7.39 7.12a61.07 61.07 0 0 1 7.69 8.55 27.36 27.36 0 0 1 4.91 15.57 23.15 23.15 0 0 1-.66 5.4z" transform="translate(-.5 -.07)"/><path class="cls-4" d="M429.51 126.7l-.46.12c-.35.1-.7.17-1.06.25a13.63 13.63 0 0 1-6.26-.23 78.3 78.3 0 0 0 1.09-15.84A52.52 52.52 0 0 0 419 95.07c-.32-.82.46-1.32.92-.59a66.86 66.86 0 0 1 6.62 13.07 61.82 61.82 0 0 1 2.97 19.15z" transform="translate(-.5 -.07)"/><path class="cls-3" d="M419.46 166.14c4.13 4.82 5.51 9.69 4.87 14.39a14.13 14.13 0 0 1-.32 1.7c0 .15-.07.31-.12.46-.09.35-.2.69-.31 1a13.19 13.19 0 0 1-3.36 5.29 11.26 11.26 0 0 1-1 .85 14.17 14.17 0 0 1-1.57 1.09c-8.58 5-15.74 4.94-23.05.24a39.32 39.32 0 0 1-5.53-4.38 81.26 81.26 0 0 1-5.86-6.16 93.73 93.73 0 0 1-6.34-8.23 77.23 77.23 0 0 1-5.92-10.3c-1.2-2.45-2.33-5-3.5-7.7l3.68.29c2.29.19 5.49.5 9 .74s7.29.29 11.22.44a84.68 84.68 0 0 1 11.78 1.14 28 28 0 0 1 16.33 9.15z" transform="translate(-.5 -.07)"/><path class="cls-4" d="M424 182.23c0 .15-.07.31-.12.46-.09.35-.2.69-.31 1a13.19 13.19 0 0 1-3.36 5.29c-8-6.2-19.06-14.14-28.77-18.65-.83-.39-.62-1.3.25-1.06A147.67 147.67 0 0 1 424 182.23z" transform="translate(-.5 -.07)"/><path class="cls-3" d="M529.54 92.78a21.71 21.71 0 0 1-1.12 3.36 21.24 21.24 0 0 1-1.49 3 25.68 25.68 0 0 1-4.14 5.44c-.4.4-.82.8-1.27 1.18l-.37.31c-.28.24-.56.46-.85.69a11.74 11.74 0 0 1-5.76 2.42 9.5 9.5 0 0 1-1.31.07 11 11 0 0 1-2-.18 21.4 21.4 0 0 1-3.7-1 22.33 22.33 0 0 1-3.25-1.61 19.19 19.19 0 0 1-5.21-4.69 23 23 0 0 1-4.44-13.35 44.26 44.26 0 0 1 2.95-16c.26-.7.52-1.42.78-2.15s.56-1.43.84-2.17q.9-2.18 1.86-4.53t2-4.84c.66-1.67 1.35-3.43 2-5.28.39-1.21.83-2.5 1.21-3.82s.7-2.7 1-4.15c0 0 1 .88 2.75 2.55a59.56 59.56 0 0 1 6.21 7.41 113.61 113.61 0 0 1 11.8 21.8c.28.69.54 1.4.76 2.1s.43 1.35.6 2 .3 1.38.42 2 .21 1.29.27 1.94c0 .33 0 .65.05 1s0 .61 0 .92a16.81 16.81 0 0 1-.08 1.87 18.22 18.22 0 0 1-.61 3.64z" transform="translate(-.5 -.07)"/><path class="cls-4" d="M521.51 105.79l-.37.31c-.28.24-.56.46-.85.69a11.74 11.74 0 0 1-5.76 2.42 68.28 68.28 0 0 1-3-17.6c-.36-6.09-.33-12.13-.85-17.47-.09-.92.8-1.19 1-.32 1.08 3.87 2.25 8.89 3.67 14.45a91.53 91.53 0 0 0 6.16 17.52z" transform="translate(-.5 -.07)"/><path class="cls-3" d="M547 170.48c-6.94-3.09-10.55-7.26-11.91-11.91a14.12 14.12 0 0 1-.39-1.71c0-.15 0-.32-.07-.48a9.81 9.81 0 0 1-.11-1.09 11.12 11.12 0 0 1 1.42-6.12 10.19 10.19 0 0 1 .71-1.13 13.14 13.14 0 0 1 1.26-1.55c7.3-7.63 15-10 24.48-8.54 4.76.68 10 2.3 16.12 4.4a205.33 205.33 0 0 0 22 6.68c1.45.29 3 .62 4.54.9l4.86.73s-1.08 1.12-3 3a74.88 74.88 0 0 1-8.66 6.83 83.66 83.66 0 0 1-13.05 7.2c-2.42 1.11-4.88 2-7.36 2.87s-4.95 1.53-7.32 2a38.31 38.31 0 0 1-23.52-2.1z" transform="translate(-.5 -.07)"/><path class="cls-4" d="M534.66 156.86c0-.15 0-.32-.07-.48a9.81 9.81 0 0 1-.11-1.09 11.12 11.12 0 0 1 1.42-6.12c5.76 1.59 12.54 3.32 19.52 4.55a93.9 93.9 0 0 0 20.52 1.61c1.09-.05 1.38.85.32 1.06a103.52 103.52 0 0 1-18 1.91 150.19 150.19 0 0 1-23.64-1.44z" transform="translate(-.5 -.07)"/><path class="cls-5" d="M632.76 221.2c-7-.45-11.51-3.32-14.07-7.31a14.54 14.54 0 0 1-1.05-1.94c-.16-.33-.29-.66-.43-1a13.14 13.14 0 0 1-.75-6.23c0-.43.11-.86.2-1.28a14.67 14.67 0 0 1 .49-1.84c3.2-9.34 7.62-13.81 15.26-15.72a68.93 68.93 0 0 1 14.17-1.51c5.71-.2 12.51-.22 20.61-.78l4.12-.33 4.33-.43s-.53 1.29-1.52 3.45a93.14 93.14 0 0 1-4.5 8.47c-4 6.66-10.15 14.67-16.9 20a29.6 29.6 0 0 1-20 6.49z" transform="translate(-.5 -.07)"/><path class="cls-5" d="M617.84 212.38c-.07-.14-.14-.28-.2-.43-.16-.33-.29-.66-.43-1a13.14 13.14 0 0 1-.75-6.23 93.34 93.34 0 0 0 16.84-2 68.64 68.64 0 0 0 16.64-5.68c.84-.42 1.43.3.69.85a78.61 78.61 0 0 1-13.29 8 79.81 79.81 0 0 1-19.5 6.42z" transform="translate(-.5 -.07)"/><path class="cls-3" d="M387.13 385.83c6.31 2.18 10.33 5.49 12.48 9.81a13.44 13.44 0 0 1 .69 1.61c.06.15.11.3.16.46.13.34.22.69.32 1.05a11.23 11.23 0 0 1-.11 6.27 11.75 11.75 0 0 1-.46 1.25 11.45 11.45 0 0 1-.92 1.77c-5.62 8.88-13.68 12.57-24.34 11.51s-23.91-6.9-38.69-17.75c-1.22-.9-2.44-1.82-3.68-2.78l-3.71-3 13.56-4c7.7-2.29 17.05-5.32 24.89-7.13a36.25 36.25 0 0 1 19.81.93z" transform="translate(-.5 -.07)"/><path class="cls-4" d="M400.31 397.24c.06.15.11.3.16.46.13.34.22.69.32 1.05a11.23 11.23 0 0 1-.11 6.27c-5.85-.39-12.67-1-19.52-1.64s-13.74-1.34-19.86-1.64c-1.06-.05-1.23-1-.2-1.08 4.54-.45 10.34-1 17-1.62s14.17-1.26 22.22-1.8z" transform="translate(-.5 -.07)"/><path class="cls-3" d="M444.58 471.91c-6.1-1.33-9.89-4.63-11.9-8.86a14 14 0 0 1-.66-1.59c0-.14-.11-.3-.15-.45-.12-.34-.22-.68-.32-1a14.74 14.74 0 0 1-.29-6.26c.07-.42.15-.84.26-1.25a14.56 14.56 0 0 1 .55-1.77c3.44-8.92 7.79-12.85 14.84-13.64s16.84 1.57 31.55 3.89c2.43.37 5 .72 7.69 1.07 0 0-.62 1.12-1.76 3q-2.31 3.7-4.95 7.18c-4.23 5.6-10.46 12.19-16.83 16.27a24 24 0 0 1-18 3.48z" transform="translate(-.5 -.07)"/><path class="cls-4" d="M432 461.46c0-.14-.11-.3-.15-.45-.12-.34-.22-.68-.32-1a14.74 14.74 0 0 1-.29-6.26 91.09 91.09 0 0 0 15.1.07 61.71 61.71 0 0 0 15.28-3c.78-.27 1.25.53.54.95a74.39 74.39 0 0 1-30.16 9.69z" transform="translate(-.5 -.07)"/><path class="cls-3" d="M341.4 277.48c4.19 4.06 6.23 8.48 6.45 13.22a16.64 16.64 0 0 1 0 1.73v.48c0 .36-.06.72-.11 1.09a12.75 12.75 0 0 1-2.29 5.83 13.61 13.61 0 0 1-2.18 2.37c-7.71 6.43-15.74 7.15-24.12 2.63s-17.09-14.33-24.73-29c-.62-1.21-1.25-2.44-1.86-3.71l-1.78-3.9 3.65.21 9 .48c7.15.36 15.82.53 22.71 1.34a26.34 26.34 0 0 1 15.29 7.19z" transform="translate(-.5 -.07)"/><path class="cls-4" d="M347.84 292.43v.48c0 .36-.06.72-.11 1.09a12.75 12.75 0 0 1-2.29 5.83c-4.61-2.31-9.92-5.12-15.21-8s-10.6-5.72-15.44-8c-.84-.39-.62-1.29.25-1.06 3.85 1.05 8.75 2.39 14.32 4s11.85 3.44 18.51 5.59z" transform="translate(-.5 -.07)"/><path class="cls-3" d="M168.47 287.51a28.79 28.79 0 0 1 .4 6.83 26.36 26.36 0 0 1-1.3 6.72c-.18.54-.38 1.08-.61 1.61-.06.14-.13.29-.19.44-.14.34-.3.66-.46 1a11.83 11.83 0 0 1-4.1 4.73 11.43 11.43 0 0 1-3 1.37 19.42 19.42 0 0 1-14.21-1.35 23.25 23.25 0 0 1-10.13-11 39.4 39.4 0 0 1-3.39-18.05 76.62 76.62 0 0 1 4.34-22c.84-2.59 1.81-5.24 2.85-8l2.43 2.78 6 6.89c2.36 2.71 5 5.66 7.62 8.41s5.18 5.31 7.31 7.46a21.94 21.94 0 0 1 6.51 12.15z" transform="translate(-.5 -.07)"/><path class="cls-4" d="M167 302.67c-.06.14-.13.29-.19.44-.14.34-.3.66-.46 1a11.83 11.83 0 0 1-4.1 4.73 62.58 62.58 0 0 1-10.5-14.6 159.74 159.74 0 0 1-7.16-16.12c-.35-.86.43-1.37.91-.61a129.36 129.36 0 0 0 8.41 12.09A73.25 73.25 0 0 0 167 302.67z" transform="translate(-.5 -.07)"/><path class="cls-3" d="M385.41 638.9a29.46 29.46 0 0 1-4.18-3.89 21.36 21.36 0 0 1-2.65-4 13.37 13.37 0 0 1-1.33-7.62 11 11 0 0 1 .34-1.71 4 4 0 0 1 .14-.46c.1-.35.22-.69.35-1a12.59 12.59 0 0 1 3.76-5.05c.34-.28.68-.55 1.05-.8a17.11 17.11 0 0 1 1.63-1c8.79-4.75 14.21-5.91 21.88-3.31a116 116 0 0 1 13.88 6.17c5.58 2.77 12.33 6.16 20.36 10l8.32 4s-1.3.78-3.51 2q-4.45 2.5-9.08 4.72a107.27 107.27 0 0 1-12.74 5.18 67 67 0 0 1-14.42 3.19 34.35 34.35 0 0 1-23.8-6.41z" transform="translate(-.5 -.07)"/><path class="cls-4" d="M377.59 621.69a4 4 0 0 1 .14-.46c.1-.35.22-.69.35-1a12.59 12.59 0 0 1 3.76-5.05 55.57 55.57 0 0 0 15.69 9.36 62.56 62.56 0 0 0 18.9 4.32c1 .08 1.2 1 .19 1.09a73.74 73.74 0 0 1-17.24-.41 57.12 57.12 0 0 1-21.79-7.82z" transform="translate(-.5 -.07)"/></svg>