<svg id="Layer_1" data-name="Layer 1" xmlns="http://www.w3.org/2000/svg" viewBox="0 0 1000 1000"><defs><style>.cls-1{fill:#ffce41}.cls-2{fill:#ededed}</style></defs><path class="cls-1" d="M663.25 98.25L597 164.56a11.62 11.62 0 0 0-3.48 8.29V220H570v-61.82h.11l76.51-76.62a11.8 11.8 0 1 1 16.68 16.69z"/><path class="cls-1" d="M668 355.72H369.79a10 10 0 0 1-9.22-13.83l22.74-54.66a10 10 0 0 1 9.22-6.16h252.7a10 10 0 0 1 9.22 6.16l22.74 54.66a10 10 0 0 1-9.19 13.83zm-283.19-20H653l-14.43-34.68H399.19z"/><path class="cls-2" d="M619.67 921.89H418a10 10 0 0 1-9.93-8.93l-17.7-164.78-17.45-163.43v-.17l-13.13-145.73a10 10 0 0 1 9.95-10.9H668a10 10 0 0 1 10 10.9l-13.19 145.73a.91.91 0 0 0 0 .17l-17.5 163.43L629.61 913a10 10 0 0 1-9.94 8.89zM427 901.9h183.69L627.42 746l17.48-163.3L657 447.94H380.67L392.8 582.7 410.28 746z"/><path class="cls-2" d="M646.36 757.12h-255l-19.58-183.41H666zm-237-20h219l15.37-143.42H394z"/></svg>