<svg version="1.1" id="Layer_1" xmlns="http://www.w3.org/2000/svg" x="0" y="0" viewBox="0 0 1000 1000" xml:space="preserve"><style>.st2{fill:#fff}</style><path class="st2" d="M509.43 823.66c-87.82 0-170.4-33.63-232.53-94.71-62.19-61.14-96.45-142.45-96.45-228.95s34.25-167.81 96.45-228.96c62.12-61.07 144.71-94.71 232.53-94.71s170.4 33.63 232.53 94.71C804.15 332.19 838.4 413.5 838.4 500s-34.25 167.81-96.45 228.96c-62.12 61.07-144.7 94.7-232.52 94.7zm0-617.32c-164.85 0-298.97 131.74-298.97 293.66s134.12 293.66 298.97 293.66c164.86 0 298.97-131.74 298.97-293.66S674.28 206.34 509.43 206.34z"/><path class="st2" d="M158.95 336.51c0-58.62-35.58-92.58-79.48-92.58S0 277.89 0 336.51c0 50.01 25.99 91.66 60.85 102.89-.2 1.09-.66 2.09-.66 3.24V737.1c0 10.48 8.64 18.97 19.29 18.97s19.3-8.49 19.3-18.97V442.64c0-1.15-.47-2.15-.66-3.24 34.85-11.24 60.83-52.88 60.83-102.89z"/><path class="st2" d="M993.82 291.71c0-36.65-6.12-42.12-6.12-42.12-10.41-9.3-18.92-5.6-18.92 8.23v63.57c0 13.83-2.76 36.12-6.14 49.55 0 0-.07 4.88-7.65 4.88s-7.65-4.88-7.65-4.88c-3.37-13.42-6.14-35.72-6.14-49.55v-60.35c0-5.39-1.11-10.73-3.26-15.69 0 0-2.61-5.85-8-5.85-5.39 0-8 5.85-8 5.85a39.454 39.454 0 0 0-3.26 15.69v60.35c0 13.83-2.76 36.12-6.14 49.55 0 0-.07 4.88-7.65 4.88s-7.65-4.88-7.65-4.88c-3.38-13.42-6.14-35.72-6.14-49.55v-63.57c0-13.83-8.51-17.53-18.92-8.23 0 0-6.12 5.47-6.12 42.12 0 58.23-30.85 148.68 45.02 161.06v288.77c0 10.48 8.64 18.97 19.3 18.97s19.29-8.49 19.29-18.97V452.55c74.67-12.99 44.15-102.87 44.15-160.84z"/></svg>