<svg version="1.1" id="Layer_1" xmlns="http://www.w3.org/2000/svg" x="0" y="0" viewBox="0 0 1000 1000" xml:space="preserve"><style>.st2{fill:#fff}</style><path class="st2" d="M713.55 29.78l-98.06 98.06c-3.31 3.31-5.14 7.62-5.14 12.26v69.76h-34.79V118.4h.17L688.87 5.09c6.79-6.79 17.89-6.79 24.68 0 6.79 6.8 6.79 17.89 0 24.69z"/><path class="st2" d="M720.51 299.15H279.56c-4.94 0-9.55-2.47-12.29-6.58a14.78 14.78 0 0 1-1.35-13.88l33.63-80.84c2.29-5.51 7.68-9.1 13.64-9.1h373.7c5.97 0 11.35 3.59 13.64 9.1l33.63 80.84a14.78 14.78 0 0 1-13.65 20.46zm-418.8-29.56h396.64l-21.33-51.28H323.04l-21.33 51.28z"/><path class="st2" d="M649.09 1000H350.91c-7.55 0-13.89-5.69-14.69-13.2l-26.17-243.69-25.86-241.69c-.01-.08-.02-.16-.02-.25l-19.4-215.52c-.37-4.13 1.01-8.23 3.81-11.3 2.8-3.06 6.76-4.81 10.91-4.81h441.04a14.782 14.782 0 0 1 14.72 16.11l-19.4 215.52c-.01.08-.02.17-.02.25l-25.86 241.69-26.18 243.69c-.81 7.51-7.15 13.2-14.7 13.2zm-284.91-29.56h271.63l24.75-230.49 25.85-241.56 17.94-199.29h-408.7l17.94 199.29 25.85 241.56 24.74 230.49z"/><path class="st2" d="M688.57 756.33H311.5l-29-271.23h435.07l-29 271.23zm-350.51-29.55H662l22.68-212.12h-369.3l22.68 212.12z"/></svg>