<svg version="1.1" id="Layer_1" xmlns="http://www.w3.org/2000/svg" x="0" y="0" viewBox="0 0 700 350" xml:space="preserve"><style>.st0{fill:#26b7d2}.st1{fill:#001837}.st2{fill:#14a388}.st3{fill:#2dcdae}.st4{fill:#ffce41}.st5{fill:#fff}.st6{fill:#ffe197}.st7{fill:#827ef7}.st8{fill:#9c9cef}.st9{fill:none;stroke:#008e54;stroke-width:2;stroke-linecap:round;stroke-miterlimit:10}</style><path class="st0" d="M0 0h700v144H0z"/><path class="st1" d="M669.77 53c-12.62 0-23.99-5.31-32.03-13.8-8.03 8.49-19.41 13.8-32.03 13.8s-23.99-5.31-32.03-13.8c-8.03 8.49-19.41 13.8-32.03 13.8-12.62 0-23.99-5.31-32.03-13.8-8.02 8.49-19.39 13.8-32.01 13.8-12.62 0-23.99-5.31-32.03-13.8-8.03 8.49-19.41 13.8-32.03 13.8s-23.99-5.31-32.03-13.8c-8.03 8.49-19.4 13.8-32.02 13.8-12.62 0-23.99-5.31-32.03-13.8-8.03 8.49-19.41 13.8-32.03 13.8-12.62 0-23.99-5.31-32.03-13.8C245.38 47.69 234 53 221.38 53c-12.62 0-23.99-5.31-32.03-13.8-8.03 8.49-19.41 13.8-32.03 13.8-12.62 0-23.99-5.31-32.03-13.8C117.28 47.69 105.9 53 93.28 53s-23.99-5.31-32.03-13.8C53.22 47.69 41.85 53 29.23 53 18.01 53 7.78 48.81 0 41.92V350h700V41c-7.89 7.43-18.52 12-30.23 12z"/><path class="st2" d="M373.47 244.36c-2.96-6.67-3.74-15.02-5.34-22.54-3.55-16.74-24.67-25.26-24.67-25.26 25.94-8.89 24.46-31.87 24.46-31.87-4.62 14.51-22.14 12.59-25.94 11.99.68-2.06 1.06-5-1.11-7.17-3.71-3.71-4.45-2.96-14.08.74-1.24-6.05-9.46-14.04-21.17-19.8-7.57-3.72-16.59-6.51-26.13-7.24-8.75-.67-17.93.4-26.81 4.07-5.24 2.16-9.78 5.1-13.7 8.52-7.08 6.14-12.18 13.85-15.84 21.45-7.55 15.65-9 30.81-9 30.81s-14.34 3.17-11.67 12.8c-7.36-8.66-10.72-24.53-9.99-30.32 4.71-6.99 8.65-14.92 6.09-21.76-11.12-29.64-11.98-35.57-40.02-35.57s-53.36 23.69-53.36 47.43c0 20.94 19.69 29.15 43.58 30.8 6.61.46 12.84 3.26 17.61 7.86l12.19 11.74c5.1 6.12 4.85 5.6 11.91 8.07 0 0-4.5 83.09 14.77 77.9 11.62-3.13 15.7-15.7 17.1-25.18.23.25.46.49.69.72 8.15 8.15 21.49 25.2 34.83 26.68 13.34 1.48 12.72.93 9.63-10.38-2.22-8.15-3.47-14.7-6.67-20.75-6.67-12.6-8.5-21.59-18.89-30.3-14.3-11.99-10.02-19.36-10.02-19.36 30.98 14.22 64.05-3.93 81.8-16.76 3.06 13.33 11 38.56 29.08 51.07 4.1 2.83 9.77.93 11.34-3.8 1.2-3.63 2.31-8.42 2.6-14.22 13.05 5.47 27.23 13.25 16.73-10.37z"/><path class="st3" d="M173.37 225.83c5.1 6.12 4.85 5.6 11.91 8.07 0 0-4.5 83.09 14.77 77.9 11.62-3.13 14.16-17.2 15.56-26.68.23.25 1.99 1.99 2.22 2.22 8.15 8.15 21.49 25.2 34.83 26.68 13.34 1.48 12.72.93 9.63-10.38-2.22-8.15-3.47-14.7-6.67-20.75-6.67-12.6-8.5-21.59-18.89-30.3-14.3-11.99-10.02-19.36-10.02-19.36 30.98 14.22 64.05-3.93 81.8-16.76 3.06 13.33 11 38.56 29.08 51.07 4.1 2.83 9.77.93 11.34-3.8 1.2-3.63 2.31-8.42 2.6-14.22 13.05 5.48 27.23 13.27 16.73-10.36-2.96-6.67-3.74-15.02-5.34-22.54-3.55-16.74-24.67-25.26-24.67-25.26 25.94-8.89 24.46-31.87 24.46-31.87-5.19 16.3-26.68 11.86-26.68 11.86-2.96 18.53-28.16 42.24-61.51 50.4-27.55 6.73-48.51 4.37-62.08 1.25l-6.53-1.68c-.36-.1-.72-.21-1.06-.31-12.6-3.71-18.53-28.16-17.58-35.67 4.71-6.99 8.65-14.92 6.09-21.76-11.1-29.65-11.96-35.58-40-35.58S100 151.69 100 175.43c0 20.94 19.69 29.15 43.58 30.8 6.61.46 12.84 3.26 17.61 7.86l12.18 11.74z"/><path class="st4" d="M336.5 172.27c-.56 1.38-1.04 2.78-1.43 4.22-14.67 54.61-125.53 57.29-135.28 44.03-5.97-8.12-1.41-12.87 3.15-15.36 1.41-.77 2.82-1.33 3.91-1.7 1.25-.42 2.09-.61 2.09-.61s1.45-15.16 9-30.81c3.66-7.6 8.76-15.3 15.84-21.45 3.93-3.42 8.46-6.35 13.7-8.52 8.88-3.67 18.06-4.74 26.81-4.07 9.54.73 18.56 3.52 26.13 7.24 10.3 5.07 17.91 11.87 20.43 17.56.34.77.59 1.52.74 2.25.77-.3 1.49-.58 2.15-.83 7.63-2.96 8.52-3.32 11.93.09 2.47 2.47 1.65 5.93.83 7.96z"/><circle class="st5" cx="153.73" cy="153.57" r="9.26"/><circle class="st1" cx="152.99" cy="154.31" r="4.82"/><circle class="st5" cx="155.53" cy="151.27" r="1.27"/><path class="st2" d="M113.08 168.11c-.05-.01-.1-.02-.16-.02a.654.654 0 0 0-.41.04c-.48.22-.91.57-1.26.96-.19.21-.36.43-.52.66-.15.21-.3.42-.37.68-.11.42.03.91.49 1.08.3.11.65.01.93-.09.46-.17.82-.53 1.09-.92.32-.47.5-1.05.65-1.61.09-.3-.12-.69-.44-.78z"/><path class="st2" d="M117 198.7c6.38-1.4 12.53-4.33 16.52-9.65.49-.65.1-1.68-.54-2.05-.77-.45-1.56-.11-2.05.54-3.49 4.66-9.2 7.06-14.72 8.27-1.89.41-1.09 3.31.79 2.89z"/><path class="st2" d="M130.85 181.94c-.41 2.66-.01 5.39 1.7 7.54 1.58 1.99 4.14 2.98 6.64 2.53.77-.14 1.28-1.12 1.05-1.85-.27-.83-1.02-1.2-1.85-1.05-.4.07.31-.01-.09.01-.1.01-.2.01-.3.01-.12 0-.24 0-.36-.01-.17-.01-.23-.03-.02.01-.22-.04-.44-.08-.65-.15l-.29-.09c-.06-.02-.4-.19-.1-.03-.2-.1-.4-.2-.6-.32-.09-.05-.17-.11-.26-.17-.04-.03-.35-.28-.09-.06-.17-.15-.34-.3-.5-.46-.07-.07-.14-.15-.21-.23-.03-.04-.27-.36-.08-.08-.28-.4-.53-.81-.72-1.26.09.2.02.04-.02-.07-.04-.1-.07-.21-.11-.32-.08-.25-.14-.51-.2-.78l-.06-.33c-.03-.18.02.23-.01-.07-.02-.25-.04-.49-.04-.74s0-.49.02-.74l.03-.4c.03-.33-.04.23.02-.13.12-.77-.19-1.65-1.05-1.85-.72-.12-1.73.26-1.85 1.09z"/><path class="st6" d="M262.19 169.6c1.3.14 2.65.03 3.98-.4 5.43-1.76 9.45-7.48 7.86-13.28.91-3.44-.75-7.65-3.12-10.01-2.21-2.21-5.11-3.25-8.1-3.2-2.69-.91-5.46-.81-8.13-.05-4.55.95-8.3 3.91-10.61 8.12-3.6 6.53-.76 14.53 5.66 17.97 3.86 2.06 8.4 2.24 12.46.85z"/><path class="st6" d="M238.83 181.14c-4.07-4.16-11.69-4.39-15.72 0 0 0-.01.01-.01.02-.45.1-.86.18-.91.19-2.94.53-5.16 1.9-7.35 3.86-4.93 4.41-4.15 14.6 2.25 17.46 3.18 1.42 6.36 2.76 9.79 3.46 4.36.89 9.31 1.66 13.35-.81 5.05-3.09 7.25-8.96 5.7-14.63-1.08-3.93-4.36-6.75-7.1-9.55z"/><path class="st6" d="M279.6 179.72c-4.56-7.37-13.23-5.8-20.42-4.82-2.55.35-5.41 3.01-6.64 5.11-.57.98-1 2.16-1.26 3.39-.47.8-.84 1.68-1.09 2.64-2.1 8.27 3.18 15.45 11.03 17.68 6.1 1.74 12.56-.21 17.27-4.22 3.68-3.14 4.84-7.88 3.76-12.5-.56-2.42-1.37-5.21-2.65-7.28z"/><path class="st6" d="M308.61 157.01c-1.2-.4-2.47-.68-3.76-.86-.42-.34-.86-.65-1.31-.89-5.79-3.06-11.52-1.03-15.21 3.99-1.61 2.19-2.8 4.76-3.63 7.34-.9 2.83-.9 5.96.26 8.69.83 1.96 2.08 3.5 3.45 5.13 1.93 2.3 3.93 4.16 6.73 5.35 4.42 1.86 8.95.85 13.07-1.29 5.93-3.07 9.47-8.89 9.27-15.6-.17-5.62-3.52-10.07-8.87-11.86z"/><path class="st6" d="M300.43 145.25c-.57 1.66-1.56 3.19-2.74 4.48-1.88 2.05-5.14 3.25-7.86 3.25-2.62 0-5.62-1.11-7.56-2.97-1.79-.55-3.43-1.59-4.8-2.85-2.05-1.88-3.26-5.13-3.26-7.86 0-.42.03-.85.09-1.3 9.53.75 18.56 3.53 26.13 7.25z"/><path class="st6" d="M235.79 158.71c-.07 1.48-.5 2.86-1.32 4.14l-3.01 4.45c-.99 1.67-2.32 3-3.99 3.99-.89.37-1.77.75-2.66 1.12-2.26.73-4.69.46-6.88-.36 3.66-7.6 8.76-15.3 15.84-21.45.84 1.15 1.48 2.44 1.82 3.68.47 1.48.54 2.96.2 4.43z"/><path class="st2" d="M217.84 289.82c-.3 0-.6-.14-.8-.4-.24-.32-.52-.63-.83-.97-2.62-2.93-7-7.83-9.01-35.13a.997.997 0 0 1 .92-1.07.996.996 0 0 1 1.07.92c1.96 26.62 6.05 31.2 8.5 33.94.35.39.66.74.94 1.11.33.44.24 1.07-.2 1.4-.17.14-.38.2-.59.2z"/><path class="st2" d="M352.72 252.03c-.11 0-.23-.02-.34-.06-.74-.27-18.05-6.87-20.3-37.55a.997.997 0 1 1 1.99-.15c2.14 29.3 18.82 35.76 18.98 35.82.52.19.78.76.6 1.28-.14.4-.52.66-.93.66z"/><path class="st6" d="M323.74 164.23c-.47 5.94-3.65 29.35-25.01 36.69-14.61 5.02-34.02 11.69-56.41 11.69-12.32 0-25.55-2.02-39.38-7.46 1.41-.77 2.82-1.33 3.91-1.7 36.76 13.27 69.22 2.11 90.91-5.34 22.47-7.72 23.09-35.03 23.09-35.31.34.77.59 1.52.74 2.25.77-.29 1.49-.57 2.15-.82z"/><path class="st2" d="M397.1 135.51c1.7-3.83 2.15-8.62 3.06-12.93 2.04-9.6 14.16-14.49 14.16-14.49-14.88-5.1-14.03-18.28-14.03-18.28 2.65 8.33 12.7 7.22 14.88 6.88-.39-1.18-.61-2.87.64-4.11 2.13-2.13 2.55-1.7 8.08.43.71-3.47 5.43-8.06 12.14-11.36 4.34-2.13 9.52-3.73 14.99-4.15 5.02-.38 10.29.23 15.38 2.33 3.01 1.24 5.61 2.93 7.86 4.89 4.06 3.53 6.99 7.95 9.09 12.31 4.33 8.98 5.16 17.68 5.16 17.68s8.23 1.82 6.69 7.35c4.22-4.97 6.15-14.07 5.73-17.4-2.7-4.01-4.96-8.56-3.49-12.49 6.38-17.01 6.88-20.41 22.96-20.41 16.09 0 30.62 13.59 30.62 27.21 0 12.01-11.3 16.73-25 17.67-3.79.26-7.36 1.87-10.1 4.51l-6.99 6.73c-2.92 3.51-2.78 3.21-6.83 4.63 0 0 2.58 47.67-8.48 44.7-6.67-1.8-9.01-9.01-9.81-14.45-.13.14-.26.28-.4.41-4.68 4.68-12.33 14.46-19.99 15.31-7.65.85-7.3.53-5.53-5.95 1.28-4.68 1.99-8.43 3.83-11.91 3.83-7.23 4.88-12.39 10.84-17.38 8.2-6.88 5.75-11.11 5.75-11.11-17.78 8.16-36.75-2.25-46.93-9.62-1.75 7.65-6.31 22.12-16.69 29.3-2.35 1.63-5.61.53-6.5-2.18-.69-2.08-1.32-4.83-1.49-8.16-7.49 3.13-15.63 7.6-9.6-5.96z"/><path class="st3" d="M511.9 124.88c-2.92 3.51-2.78 3.21-6.83 4.63 0 0 2.58 47.67-8.48 44.7-6.67-1.8-8.13-9.87-8.93-15.31-.13.14-1.14 1.14-1.28 1.28-4.68 4.68-12.33 14.46-19.99 15.31-7.65.85-7.3.53-5.53-5.95 1.28-4.68 1.99-8.43 3.83-11.91 3.83-7.23 4.88-12.39 10.84-17.38 8.2-6.88 5.75-11.11 5.75-11.11-17.78 8.16-36.75-2.25-46.93-9.62-1.75 7.65-6.31 22.12-16.69 29.3-2.35 1.63-5.61.53-6.5-2.18-.69-2.08-1.32-4.83-1.49-8.16-7.49 3.14-15.63 7.61-9.6-5.94 1.7-3.83 2.15-8.62 3.06-12.93 2.04-9.6 14.16-14.49 14.16-14.49-14.88-5.1-14.03-18.28-14.03-18.28 2.98 9.35 15.31 6.8 15.31 6.8 1.7 10.63 16.16 24.24 35.29 28.91 15.81 3.86 27.83 2.5 35.62.72l3.74-.97c.21-.06.41-.12.61-.18 7.23-2.13 10.63-16.16 10.08-20.47-2.7-4.01-4.96-8.56-3.49-12.49 6.38-17.01 6.88-20.41 22.96-20.41 16.09 0 30.62 13.59 30.62 27.21 0 12.01-11.3 16.73-25 17.67-3.79.26-7.36 1.87-10.1 4.51l-7 6.74z"/><path class="st7" d="M418.31 94.16c.32.79.6 1.59.82 2.42 8.42 31.33 72.02 32.87 77.61 25.26 3.42-4.66.81-7.39-1.81-8.81-.81-.44-1.62-.76-2.25-.97-.71-.24-1.2-.35-1.2-.35s-.83-8.7-5.16-17.68c-2.1-4.36-5.03-8.78-9.09-12.31a28.766 28.766 0 0 0-7.86-4.89c-5.09-2.1-10.36-2.72-15.38-2.33-5.47.42-10.65 2.02-14.99 4.15-5.91 2.91-10.28 6.81-11.72 10.07-.2.44-.34.87-.43 1.29-.44-.17-.85-.33-1.23-.48-4.38-1.7-4.89-1.9-6.85.05-1.4 1.43-.93 3.41-.46 4.58z"/><circle class="st5" cx="523.17" cy="83.43" r="5.32"/><circle class="st1" cx="523.6" cy="83.85" r="2.76"/><circle class="st5" cx="522.14" cy="82.11" r=".73"/><path class="st2" d="M546.5 91.77c.03-.01.06-.01.09-.01a.36.36 0 0 1 .23.02c.28.13.52.33.72.55.11.12.21.25.3.38.09.12.17.24.21.39.06.24-.02.52-.28.62-.17.06-.38.01-.53-.05-.26-.1-.47-.3-.62-.53-.19-.27-.29-.6-.37-.92-.06-.17.06-.4.25-.45z"/><path class="st2" d="M544.87 107.05c-.83-.18-1.65-.4-2.46-.68-.2-.07-.4-.14-.6-.22-.09-.03-.18-.07-.26-.1-.15-.06.15.07-.1-.04-.39-.17-.77-.35-1.14-.55-.35-.19-.69-.39-1.03-.61-.18-.11-.35-.23-.52-.35.01.01-.31-.23-.18-.13.12.09-.1-.08-.12-.1-.32-.26-.63-.55-.93-.84-.15-.15-.29-.3-.43-.46l-.18-.21c-.29-.35.16.23-.11-.14-.47-.63-1.32-1.01-2.05-.54-.62.4-1.04 1.38-.54 2.05 2.39 3.19 6.02 4.99 9.86 5.83.76.17 1.66-.23 1.85-1.05.16-.78-.24-1.68-1.06-1.86z"/><path class="st2" d="M534.03 100.33c.01.05.02.1.02.15a5.46 5.46 0 0 1-.05-.4c.06.46.06.92 0 1.38.02-.13.04-.27.05-.4-.05.38-.15.75-.29 1.11l.15-.36c-.13.3-.29.59-.49.85.08-.1.16-.2.23-.3-.18.22-.38.42-.6.6.1-.08.2-.16.3-.23-.23.17-.47.32-.73.43l.36-.15c-.26.11-.53.18-.81.22.13-.02.27-.04.4-.05-.23.03-.46.03-.7 0 .13.02.27.04.4.05-.05-.01-.09-.01-.14-.02-.4-.07-.79-.06-1.16.15-.31.18-.61.54-.69.9-.17.73.22 1.7 1.05 1.85.82.15 1.66.12 2.44-.2.77-.31 1.47-.76 1.99-1.42.54-.68.94-1.46 1.11-2.31.18-.9.16-1.74.03-2.64-.05-.35-.4-.73-.69-.9-.32-.19-.8-.27-1.16-.15-.36.12-.71.34-.9.69-.17.37-.19.73-.12 1.15z"/><path class="st8" d="M460.94 92.62c-.75.08-1.52.02-2.29-.23-3.11-1.01-5.42-4.29-4.51-7.62-.52-1.97.43-4.39 1.79-5.75 1.27-1.27 2.93-1.87 4.65-1.84 1.54-.52 3.13-.47 4.67-.03 2.61.54 4.76 2.24 6.09 4.66 2.06 3.75.44 8.33-3.25 10.31-2.21 1.2-4.82 1.3-7.15.5z"/><path class="st8" d="M474.34 99.24c2.34-2.39 6.71-2.52 9.02 0 0 0 0 .01.01.01.26.06.49.11.52.11 1.69.3 2.96 1.09 4.22 2.21 2.83 2.53 2.38 8.38-1.29 10.02-1.83.82-3.65 1.58-5.62 1.98-2.5.51-5.34.95-7.66-.47-2.9-1.77-4.16-5.14-3.27-8.39.62-2.24 2.5-3.86 4.07-5.47z"/><path class="st8" d="M450.96 98.43c2.61-4.23 7.59-3.33 11.72-2.77 1.46.2 3.11 1.72 3.81 2.93.33.56.58 1.24.72 1.94.27.46.48.96.62 1.51 1.2 4.74-1.83 8.86-6.33 10.15-3.5 1-7.21-.12-9.91-2.42-2.11-1.8-2.77-4.52-2.16-7.17.33-1.38.79-2.98 1.53-4.17z"/><path class="st8" d="M434.31 85.4c.69-.23 1.42-.39 2.16-.5.24-.19.49-.37.75-.51 3.32-1.76 6.61-.59 8.73 2.29.92 1.26 1.61 2.73 2.08 4.21.52 1.63.51 3.42-.15 4.99-.48 1.13-1.19 2.01-1.98 2.94-1.11 1.32-2.25 2.39-3.86 3.07-2.54 1.07-5.14.49-7.5-.74-3.4-1.76-5.43-5.1-5.32-8.95.1-3.22 2.02-5.78 5.09-6.8z"/><path class="st8" d="M439 78.65c.33.95.9 1.83 1.57 2.57 1.08 1.17 2.95 1.87 4.51 1.87 1.51 0 3.22-.64 4.34-1.71 1.02-.31 1.97-.91 2.75-1.63 1.17-1.08 1.87-2.94 1.87-4.51 0-.24-.02-.49-.05-.74-5.46.42-10.64 2.02-14.99 4.15z"/><path class="st8" d="M476.09 86.38c.04.85.29 1.64.76 2.37.57.85 1.15 1.71 1.73 2.56.57.96 1.33 1.72 2.29 2.29.51.21 1.02.43 1.53.64 1.3.42 2.69.26 3.95-.21-2.1-4.36-5.03-8.78-9.09-12.31-.48.66-.85 1.4-1.05 2.11-.28.85-.31 1.7-.12 2.55z"/><path class="st9" d="M486.39 161.03c1.28-1.7 4.24-2.92 5.53-20.41"/><path class="st9" d="M409 139.34s9.99-3.61 11.27-21.05"/><path class="st8" d="M425.63 89.54c.27 3.41 2.09 16.84 14.35 21.05 8.39 2.88 19.52 6.71 32.37 6.71 7.07 0 14.66-1.16 22.59-4.28-.81-.44-1.62-.76-2.25-.97-21.09 7.61-39.72 1.21-52.16-3.07-12.89-4.43-13.25-20.1-13.25-20.26-.2.44-.34.87-.43 1.29-.43-.16-.84-.33-1.22-.47z"/><path class="st0" d="M578.91 193.64c-3.97-.98-8.28 2.39-11.27 4.9-.26-3.28-1.07-6.59-3.05-9.18-2.58-3.37-8.79-5.27-10.47-.03-.4 1.25-.46 2.41-.31 3.51-.12.39-.16.79-.1 1.18 1.11 7.41 1.79 15.12 4.45 22.18.86 2.27 3.31 2.35 4.81 1.24.74-.55 1.54-1 2.38-1.36 2.15-.91 4.33-2.47 5.8-3.38 3.71-2.29 7.38-5.12 9.86-8.76 2.28-3.34 2.92-9.06-2.1-10.3z"/><path class="st7" d="M646.82 112.08c-1.62 1.26-2.43 3.3-2.95 5.45-.52 2.16-.72 4.46-.95 6.34-2.44-2.09-5.39-3.55-8.56-3.54-2.08 0-4.45.94-6.03 2.27-1.57 1.34-2.38 3.01-1.32 4.79.51.85 1.18 1.47 1.99 1.96.15.28.36.52.65.69 5.43 3.32 10.31 8.18 16.02 12.76 1.85 1.49 4.04.48 4.81-1.27.36-.85.82-1.66 1.35-2.43 1.37-1.95 2.27-4.6 2.92-6.32 1.62-4.3 2.54-9.42 1.5-14.4-.46-2.29-1.78-4.75-3.54-6.15-1.75-1.41-3.85-1.75-5.89-.15z"/><path class="st7" d="M52.42 81.91c-.75 1.93-.33 4.28.08 6.57.45 2.19.91 4.48 1.31 6.41-2.94-1.26-6.24-1.59-8.92-.07-1.76.97-3.32 2.98-4.35 4.72-.52.87-.92 1.66-1.08 2.3-.16.64-.07 1.14.52 1.58.57.43 1.33.72 2.22.91.21.19.49.37.82.44 1.54.39 3.2 1.02 4.91 1.7 1.7.66 3.4 1.31 5.12 1.92 3.44 1.21 6.95 2.24 10.58 2.78 2.34.35 3.69-1.68 3.54-3.48-.07-.88-.03-1.77.11-2.65.37-2.24.21-4.81.22-6.47.01-2.1-.09-4.26-.41-6.36-.3-2.07-.94-4.3-2.28-6.63-1.19-2.12-3.68-4.5-6.35-5.53-1.33-.52-2.63-.68-3.71-.39-1.06.29-1.85 1.03-2.33 2.25z"/><path class="st0" d="M198.12 87.85c-4.04-.69-8.26 3.16-11.25 5.9-.31-3.41-1.22-6.78-3.32-9.31-2.75-3.29-9.03-4.79-10.49.5a7.931 7.931 0 0 0-.19 3.53c-.11.39-.14.8-.07 1.19 1.29 7.42 1.87 15.26 4.21 22.61.75 2.37 3.21 2.5 4.8 1.34.77-.57 1.6-1.05 2.47-1.42 2.22-.96 4.48-2.65 6-3.65 3.83-2.52 7.62-5.73 10.13-9.82 2.33-3.76 2.82-10-2.29-10.87z"/><path class="st4" d="M61.44 206.83c-1.64 1.19-2.53 3.07-2.85 5.19-.31 2.11-.06 4.43.33 6.36-3.01-1.38-6.26-2.69-9.63-2.84-2.17-.09-4.62.72-6.01 2.37-1.4 1.63-1.68 4.18.55 7.02 1.06 1.34 2.24 2.23 3.44 2.85.36.38.76.69 1.19.89 8.12 3.84 16.86 6.15 24.43 4.59 2.41-.5 2.73-2.98 1.95-4.57-.38-.8-.65-1.64-.79-2.5-.36-2.21-1.07-4.53-1.34-6.05-.69-3.89-1.23-7.65-2.49-10.72-.6-1.41-1.74-2.7-3.24-3.37-1.5-.66-3.44-.72-5.54.78z"/><path class="st7" d="M406.35 229.65c1.13-.82 2.15-1.78 3.17-2.73"/><path class="st7" d="M431.85 217.26c-1.76-1.04-3.85-1.12-5.91-.87-2.06.26-4.1.86-5.79 1.35.65-2.91.68-6.03-.65-8.87-.85-1.86-2.65-3.67-4.48-4.62-1.83-.94-3.66-1.06-4.85.64-.57.81-.86 1.7-.96 2.64-.19.26-.31.56-.35.9-.34 3.19-.97 6.48-1.5 9.85a77.8 77.8 0 0 0-.66 5.12c-.17 1.74-.15 3.39-.21 5.13-.04 1.11.35 2.04 1.05 2.64.69.61 1.71.85 2.63.68.9-.17 1.8-.25 2.68-.2 2.21.14 4.58-.22 6.19-.38 4.01-.38 8.24-1.35 11.74-3.81 1.6-1.12 3.02-3.02 3.45-4.98.44-1.96-.15-3.92-2.38-5.22z"/><path class="st4" d="M364.69 80.55c-3.96.97-6.1 5.3-7.41 8.51-1.87-2.26-4.19-4.34-7.18-5.41-3.88-1.4-10.26-.11-9.11 4.81.28 1.16.81 2.09 1.5 2.87.1.35.26.69.51.96 4.73 5.14 9.43 10.44 15.53 13.96 1.96 1.13 4.03-.11 4.68-1.63.32-.75.74-1.46 1.25-2.13 1.31-1.7 2.32-3.82 3.08-5.15 1.94-3.35 3.63-6.93 3.98-10.5.31-3.27-1.84-7.5-6.83-6.29z"/><path class="st4" d="M506.31 283.31c-2.14 3.5.06 8.92 1.82 12.72-3.42-.89-7-1.3-10.2-.32-4.16 1.27-7.86 6.64-2.86 10.28 1.19.86 2.38 1.35 3.56 1.6.37.26.78.45 1.2.53 7.98 1.6 16.14 3.53 24.06 3.11 2.54-.13 3.19-2.54 2.39-4.37-.39-.9-.67-1.83-.83-2.77-.41-2.41-1.46-5.03-2.02-6.77-1.4-4.37-3.27-8.86-6.22-12.49-2.71-3.32-8.2-5.94-10.9-1.52z"/><path class="st4" d="M664.03 260.16c-4.09-.68-9.14 4.46-12.73 8.16.24-4.31-.15-8.57-1.91-11.69-2.31-4.06-8.61-5.63-11.09 1.36-.59 1.67-.82 3.17-.83 4.59-.18.52-.29 1.04-.29 1.54.06 9.49-.63 19.46.7 28.5.43 2.91 3.03 2.82 4.88 1.21.91-.79 1.86-1.47 2.84-2.02 2.5-1.41 5.14-3.71 6.9-5.09 4.43-3.47 8.89-7.74 12.16-13.01 3.05-4.84 4.55-12.69-.63-13.55z"/><g><path class="st0" d="M144.19 291.81c-1.51 1.42-2.05 3.74-2.2 6.27-.15 2.54.09 5.28.28 7.56-2.98-2.43-6.37-4.25-9.75-4.41-2.21-.1-4.58.89-5.97 2.49-1.38 1.61-1.81 3.8-.14 6.29.79 1.19 1.69 2.06 2.69 2.73.24.37.54.7.89.94 6.7 4.51 13.05 10.31 20.08 14.79 2.27 1.45 4.1-.27 4.34-2.49.11-1.08.33-2.12.64-3.12.81-2.53 1.03-5.75 1.26-7.81.58-5.17.44-10.97-1.45-16.43-.86-2.51-2.57-5.16-4.56-6.68-1.98-1.52-4.21-1.92-6.11-.13z"/></g></svg>