<svg id="Layer_1" data-name="Layer 1" xmlns="http://www.w3.org/2000/svg" viewBox="0 0 1000 1000"><defs><style>.cls-1{fill:#9e4d47}</style></defs><path class="cls-1" d="M655.87 105.42l-66.31 66.31a11.65 11.65 0 0 0-3.47 8.29v47.17h-23.53v-61.84h.12l76.5-76.62a11.8 11.8 0 0 1 16.69 16.69z"/><path d="M660.58 362.9H362.41a10 10 0 0 1-9.23-13.84l22.75-54.66a10 10 0 0 1 9.22-6.16h252.69a10 10 0 0 1 9.23 6.16l22.74 54.66a10 10 0 0 1-9.23 13.84zm-283.19-20h268.2l-14.42-34.68H391.81z" fill="#ededed"/><path class="cls-1" d="M612.28 929.06H410.66a10 10 0 0 1-9.94-8.93L383 755.35l-17.46-163.43a.91.91 0 0 1 0-.17L352.41 446a10 10 0 0 1 9.95-10.9h298.23a10 10 0 0 1 10 10.9l-13.16 145.75a1 1 0 0 0 0 .17l-17.5 163.43-17.71 164.78a10 10 0 0 1-9.94 8.93zm-192.65-20H603.3L620 753.21l17.48-163.34 12.13-134.76H373.29l12.13 134.76 17.48 163.34z"/><path class="cls-1" d="M639 764.29H384l-19.6-183.41h294.19zm-237-20h219l15.34-143.44H386.63z"/></svg>