<svg id="Layer_1" data-name="Layer 1" xmlns="http://www.w3.org/2000/svg" viewBox="0 0 338.11 520.94"><defs><style>.cls-1{fill:#ffce41}</style></defs><path class="cls-1" d="M425.08 336.51c0-58.62-35.58-92.58-79.48-92.58s-79.47 34-79.47 92.58c0 50 26 91.66 60.85 102.89a17.91 17.91 0 0 0-.66 3.24V737.1a19.3 19.3 0 0 0 38.59 0V442.64a17.91 17.91 0 0 0-.66-3.24c34.85-11.24 60.83-52.88 60.83-102.89z" transform="translate(-266.13 -239.46)"/><path class="cls-1" d="M598.07 291.71c0-36.65-6.12-42.12-6.12-42.12-10.41-9.3-18.92-5.6-18.92 8.23v63.57c0 13.83-2.76 36.12-6.14 49.55 0 0-.07 4.88-7.65 4.88s-7.65-4.88-7.65-4.88c-3.37-13.42-6.14-35.72-6.14-49.55V261a39.38 39.38 0 0 0-3.26-15.69s-2.61-5.85-8-5.85-8 5.85-8 5.85a39.38 39.38 0 0 0-3.26 15.69v60.35c0 13.83-2.76 36.12-6.14 49.55 0 0-.07 4.88-7.65 4.88s-7.65-4.88-7.65-4.88c-3.38-13.42-6.14-35.72-6.14-49.55v-63.53c0-13.83-8.51-17.53-18.92-8.23 0 0-6.12 5.47-6.12 42.12 0 58.23-30.85 148.68 45 161.06v288.77a19.3 19.3 0 0 0 38.59 0v-289c74.69-12.98 44.17-102.86 44.17-160.83z" transform="translate(-266.13 -239.46)"/></svg>