<svg version="1.1" id="Layer_1" xmlns="http://www.w3.org/2000/svg" x="0" y="0" viewBox="0 0 64 64" xml:space="preserve"><style>.st1{fill:#23b6d1}</style><path d="M41.98 23.48v38.77c0 .97-.78 1.75-1.74 1.75H23.76c-.96 0-1.74-.78-1.74-1.75V23.48c0-1.92.23-3.83.68-5.68.43-1.75 1.06-3.45 1.87-5.07l2.69-5.33V5.52h9.48V7.4l2.69 5.33c.81 1.62 1.44 3.32 1.87 5.07.45 1.85.68 3.76.68 5.68z" fill="#014b67"/><path class="st1" d="M36.74 5.52h-9.48V2.6c0-1.44 1.17-2.6 2.6-2.6h4.27c1.44 0 2.6 1.17 2.6 2.6v2.92z"/><path class="st1" d="M22.02 53.22h19.97v4.91H22.02z"/><path class="st1" d="M22.02 47.4h19.97v4.91H22.02z"/><path class="st1" d="M22.02 41.59h19.97v4.91H22.02z"/><path class="st1" d="M22.02 35.77h19.97v4.91H22.02z"/><path class="st1" d="M41.98 23.48v8.95H22.01v-8.95c0-1.92.23-3.83.69-5.68h18.59c.46 1.85.69 3.76.69 5.68z"/></svg>