<svg version="1.1" id="Layer_1" xmlns="http://www.w3.org/2000/svg" x="0" y="0" viewBox="0 0 1000 1000" xml:space="preserve"><style>.st2{fill:#fff}</style><path class="st2" d="M653.52 1000H372.85c-38.26 0-74.05-17.83-100.79-50.2-26.06-31.56-40.42-73.35-40.42-117.68V174.69c0-18.25 6.35-36.09 17.89-50.23l64.7-79.31c15.15-18.58 37.6-29.23 61.57-29.23h274.77c23.97 0 46.4 10.65 61.56 29.22l64.74 79.32c11.54 14.14 17.9 31.99 17.9 50.24v657.42c0 44.33-14.36 86.12-40.42 117.68-26.74 32.37-62.55 50.2-100.83 50.2zM375.81 45.48c-15.06 0-29.15 6.69-38.67 18.36l-64.7 79.31a50.053 50.053 0 0 0-11.23 31.54v657.43c0 76.27 50.09 138.32 111.65 138.32h280.66c61.59 0 111.7-62.05 111.7-138.32V174.7c0-11.47-3.99-22.67-11.24-31.55l-64.74-79.32c-9.52-11.66-23.61-18.35-38.66-18.35H375.81z"/><path class="st2" d="M399.51 454L786 203.14v-38.56L343.1 454 254 511.79V871.5l223.02-144.66L786 524.3v-34.18L477.02 690.24 254.46 834.6V548.09L399.51 454z"/><path class="st2" d="M698.64 0H327.78c-.36 0-.65.29-.65.65v49.3c0 .36.29.65.65.65h370.85c.36 0 .65-.29.65-.65V.65a.634.634 0 0 0-.64-.65z"/></svg>