<svg id="Layer_1" data-name="Layer 1" xmlns="http://www.w3.org/2000/svg" viewBox="0 0 519.71 572.27"><defs><style>.cls-2{fill:#fff;stroke:#fff;stroke-miterlimit:10}</style></defs><path d="M524.54 630.67H200.26a9 9 0 0 1-8.91-8.17l-47-542.33a9 9 0 0 1 8.14-9.69h417.89a8.93 8.93 0 0 1 8.91 9.7l-45.84 542.29a8.94 8.94 0 0 1-8.91 8.2zm-316.07-17.89h307.85l44.34-524.43H163.05l45.42 524.43z" transform="translate(-97.98 -58.4)" fill="#fff"/><path class="cls-2" d="M257.37 80.78l32.91 530.61" transform="translate(-97.98 -58.4)"/><path class="cls-2" d="M470 80.07l-22.92 532" transform="translate(-97.98 -58.4)"/><path class="cls-2" d="M368.69 79.4v533.38" transform="translate(-97.98 -58.4)"/><path d="M617.69 73.93c0 8.58-4.71 15.53-10.51 15.53H108.5c-5.81 0-10.5-6.95-10.5-15.53s4.69-15.53 10.5-15.53h498.68c5.8 0 10.51 6.95 10.51 15.53z" transform="translate(-97.98 -58.4)" fill="#9e4d47"/></svg>