<svg data-name="Layer 1" xmlns="http://www.w3.org/2000/svg" viewBox="0 0 1000 1000"><path d="M548.37 898.74a465 465 0 0 1-57.83-3.63c-51.68-6.49-84.85-19.32-86.24-19.86l-6.18-2.42-74.49-564.58h438.22l-66.68 564.82-6.61 2.32A417.11 417.11 0 0 1 581 897.56q-16.23 1.19-32.63 1.18zm-129.74-42.26c11.58 3.84 38.78 11.88 75.44 16.42 43.69 5.41 109.93 6.79 180.44-16.46l62.06-525.71h-387.3z" fill="#ededed"/><path d="M790.39 223.64H295.27a11.24 11.24 0 0 1-10.46-15.34l19.3-49.23a11.24 11.24 0 0 1 10.46-7.13H328l13.79-48.63a11.21 11.21 0 0 1 10.8-8.17h380.53a11.22 11.22 0 0 1 10.81 8.18l13.78 48.62h13.38a11.24 11.24 0 0 1 10.47 7.13l19.3 49.23a11.24 11.24 0 0 1-10.47 15.34zm-478.65-22.48h462.17l-10.48-26.75h-14.22a11.23 11.23 0 0 1-10.81-8.18l-13.78-48.62H361l-13.79 48.63a11.24 11.24 0 0 1-10.81 8.17h-14.17z" fill="#ffce41"/></svg>