<svg version="1.1" id="Layer_1" xmlns="http://www.w3.org/2000/svg" x="0" y="0" viewBox="0 0 1000 1000" xml:space="preserve"><style>.st2{fill:#fff}</style><path class="st2" d="M728.59 1a14.576 14.576 0 0 0-16.01 3.7l-446.6 485.44c-5.13 5.57-5.13 14.15 0 19.72l43.59 47.38L329.59 579l249.08 270.74L712.58 995.3c.49.53 1.01 1.01 1.56 1.46l.13.1c.18.15.37.28.55.41a14.38 14.38 0 0 0 4.79 2.25c.21.06.42.11.63.16.21.04.41.08.62.11.19.03.37.06.56.08.13.03.27.04.4.05.24.03.49.05.73.06.25.01.5.02.75.02.22 0 .44-.01.67-.02.17 0 .34-.01.52-.03.72-.06 1.43-.17 2.14-.34.19-.04.37-.09.56-.15.05 0 .1-.02.15-.03.14-.05.29-.09.43-.14.11-.02.21-.06.32-.11.17-.05.33-.12.5-.18.35-.14.69-.28 1.02-.45.31-.14.62-.3.91-.48.04 0 .07-.03.11-.05 1.57-.92 2.94-2.11 4.05-3.5.22-.28.44-.57.64-.87.11-.15.21-.31.31-.47.09-.14.18-.29.26-.44.28-.47.52-.95.74-1.44l.15-.36c.29-.71.53-1.45.7-2.21a9.995 9.995 0 0 0 .21-1.07c.03-.19.05-.37.07-.55.06-.41.09-.83.09-1.25.01-.14.01-.28.01-.42V14.56c0-6-3.68-11.38-9.27-13.56zm-19.85 947.1l-2.52-2.74L347.55 555.5l-20.03-21.77L296.49 500 630.8 136.62l37.23-40.47 40.71-44.25v896.2z"/><path class="st2" d="M737.84 984.53l-29.1-468.19V948.1l-2.52-2.74.49 7.93-128.04-103.55-281.8-227.89L329.59 579l17.96-23.5-20.03-21.77-17.95 23.51-44.44 58.19c-4.79 6.27-3.72 15.21 2.41 20.16l446.6 361.17.13.1c.18.15.37.28.55.41a14.38 14.38 0 0 0 4.79 2.25c.21.06.42.11.63.16.21.04.41.08.62.11.19.03.37.06.56.08.13.03.27.04.4.05.24.03.49.05.73.06.25.01.5.02.75.02.22 0 .44-.01.67-.02.17 0 .34-.01.52-.03.72-.06 1.43-.17 2.14-.34.19-.04.37-.09.56-.15.05 0 .1-.02.15-.03.14-.05.29-.09.43-.14.11-.02.21-.06.32-.11.17-.05.33-.12.5-.18.34-.13.69-.27 1.02-.45.13-.05.25-.11.37-.17.18-.09.36-.19.54-.31.04 0 .07-.03.11-.05a14.391 14.391 0 0 0 4.69-4.37c.11-.15.21-.31.31-.47.09-.14.18-.29.26-.44.28-.47.52-.95.74-1.44l.15-.36c.29-.71.53-1.45.7-2.21a9.995 9.995 0 0 0 .21-1.07c.03-.19.05-.37.07-.55.06-.41.09-.83.09-1.25.01-.14.01-.28.01-.42v-.32c0-.2-.01-.39-.02-.59zm-80.48-882.69l-26.56 34.78 37.23-40.47a14.55 14.55 0 0 0-10.67 5.69z"/></svg>