<svg version="1.1" id="Layer_1" xmlns="http://www.w3.org/2000/svg" x="0" y="0" viewBox="0 0 1000 1000" xml:space="preserve"><style>.st2{fill:#fff}</style><path class="st2" d="M507.95 1000c-27.55 0-55.32-1.74-83.02-5.22-74.2-9.32-121.82-27.73-123.82-28.51l-8.87-3.47L185.3 152.23h629.15l-95.73 810.91-9.5 3.33c-49.09 17.21-101.06 27.92-154.48 31.83a642.96 642.96 0 0 1-46.79 1.7zm-186.26-60.68c16.62 5.51 55.68 17.06 108.3 23.58 62.73 7.77 157.83 9.74 259.06-23.64l89.1-754.76H222.1l99.59 754.82z"/><path class="st2" d="M855.42 184.49H144.58c-5.33 0-10.32-2.64-13.33-7.04a16.14 16.14 0 0 1-1.69-14.98l27.71-70.68a16.123 16.123 0 0 1 15.02-10.24h19.21l19.79-69.82C213.25 4.79 219.59 0 226.8 0h546.4c7.22 0 13.55 4.79 15.52 11.74l19.78 69.81h19.22c6.64 0 12.6 4.06 15.02 10.24l27.71 70.68a16.14 16.14 0 0 1-1.69 14.98c-3.02 4.4-8 7.04-13.34 7.04zm-687.19-32.27h663.54l-15.06-38.41H796.3c-7.22 0-13.55-4.79-15.52-11.74L761 32.26H239l-19.79 69.82a16.138 16.138 0 0 1-15.52 11.73h-20.4l-15.06 38.41z"/></svg>