<svg version="1.1" id="Layer_1" xmlns="http://www.w3.org/2000/svg" x="0" y="0" viewBox="0 0 1000 1000" xml:space="preserve"><style>.st2{fill:none;stroke:#fff;stroke-width:30;stroke-linecap:round;stroke-linejoin:round;stroke-miterlimit:10}.st3{fill:#fff}</style><path class="st2" d="M575.97 251c-16.08 0-31.72 10.46-46.68 21.69-17.36 13.03-41.22 13.03-58.58 0-14.96-11.23-30.6-21.69-46.68-21.69-108.64 0-196.7 87.42-196.7 233.5S315.4 749 424.03 749c26.93 0 52.59-7.29 75.97-20.46 23.37 13.17 49.04 20.46 75.97 20.46 108.64 0 196.7-118.42 196.7-264.5S684.6 251 575.97 251z"/><path class="st2" d="M495.07 211.18L454 137"/><path class="st3" d="M429.6 454.69c0-14.03 11.37-25.4 25.4-25.4s25.4 11.37 25.4 25.4-24.82 48.01-24.82 48.01-25.98-33.98-25.98-48.01z"/><path class="st3" d="M519.6 454.69c0-14.03 11.37-25.4 25.4-25.4s25.4 11.37 25.4 25.4-24.82 48.01-24.82 48.01-25.98-33.98-25.98-48.01z"/><path class="st3" d="M474.6 533.69c0-14.03 11.37-25.4 25.4-25.4s25.4 11.37 25.4 25.4-24.82 48.01-24.82 48.01-25.98-33.98-25.98-48.01z"/></svg>