<svg id="Layer_1" data-name="Layer 1" xmlns="http://www.w3.org/2000/svg" viewBox="0 0 352.7 1249"><defs><style>.cls-1{fill:#dbdbdb}.cls-2{fill:#a83434}</style></defs><path class="cls-1" d="M642.35 1244H356.67a27.54 27.54 0 0 1-27.51-27.51V697.41a27.54 27.54 0 0 1 27.51-27.51h285.68a27.54 27.54 0 0 1 27.51 27.51v519.09a27.54 27.54 0 0 1-27.51 27.5zM356.67 681.52a15.9 15.9 0 0 0-15.88 15.88v519.09a15.91 15.91 0 0 0 15.88 15.89h285.68a15.91 15.91 0 0 0 15.89-15.89V697.41a15.9 15.9 0 0 0-15.89-15.88H356.67z" transform="translate(-323.17 -1)"/><path class="cls-1" d="M642.35 1250H356.67a33.54 33.54 0 0 1-33.5-33.5V697.41a33.54 33.54 0 0 1 33.5-33.5h285.68a33.54 33.54 0 0 1 33.5 33.5v519.09a33.54 33.54 0 0 1-33.5 33.5zM356.67 687.51a9.91 9.91 0 0 0-9.9 9.9v519.09a9.91 9.91 0 0 0 9.9 9.9h285.68a9.91 9.91 0 0 0 9.9-9.9V697.41a9.91 9.91 0 0 0-9.9-9.9z" transform="translate(-323.17 -1)"/><path class="cls-1" d="M621.21 674.72H377.82c-26.83 0-48.66-20.64-48.66-46V423.11A42.38 42.38 0 0 1 346.61 389a5.65 5.65 0 0 1 .57-.38l154.2-89.24a5.84 5.84 0 0 1 6 .08L652 388.72c.15.09.29.19.43.29a42.4 42.4 0 0 1 17.45 34.09v205.6c-.01 25.37-21.88 46.02-48.67 46.02zm-267.9-276.19a30.84 30.84 0 0 0-12.52 24.58V628.7c0 19 16.61 34.39 37 34.39h243.42c20.42 0 37-15.43 37-34.39V423.11a30.84 30.84 0 0 0-12.58-24.63L504.2 311.21l-150.89 87.32z" transform="translate(-323.17 -1)"/><path class="cls-1" d="M621.21 680.7H377.82c-30.13 0-54.64-23.33-54.64-52V423.11A48.35 48.35 0 0 1 343 384.22a13.7 13.7 0 0 1 1.16-.77l154.2-89.24a11.8 11.8 0 0 1 12.11.17l144.64 89.24c.3.19.59.38.87.59a48.33 48.33 0 0 1 19.86 38.89v205.6c0 28.67-24.53 52-54.66 52zM356.65 403.51a24.9 24.9 0 0 0-9.88 19.6V628.7c0 15.66 13.93 28.4 31 28.4H621.2c17.12 0 31-12.74 31-28.4V423.11a24.88 24.88 0 0 0-10-19.69l-138.1-85.24-147.45 85.33z" transform="translate(-323.17 -1)"/><path class="cls-1" d="M335.93 611H665v11.63H335.93z" transform="translate(-323.17 -1)"/><path class="cls-1" d="M330 605h341v23.6H330z" transform="translate(-323.17 -1)"/><path class="cls-1" d="M336.89 408.14H666v11.63H336.89z" transform="translate(-323.17 -1)"/><path class="cls-1" d="M330.9 402.15H672v23.6H330.9z" transform="translate(-323.17 -1)"/><path class="cls-2" d="M557 104.46H442.07a21.54 21.54 0 0 1-21.52-21.52V23a21.54 21.54 0 0 1 21.52-21.5H557A21.54 21.54 0 0 1 578.47 23v59.94A21.55 21.55 0 0 1 557 104.46zM444 81.08h111.1V24.87H443.93z" transform="translate(-323.17 -1)"/><path class="cls-2" d="M557 105H442.07a22 22 0 0 1-22-22V23a22 22 0 0 1 22-22H557a22 22 0 0 1 22 22v59.94A22 22 0 0 1 557 105zM442.07 2a21.06 21.06 0 0 0-21 21v59.94a21.06 21.06 0 0 0 21 21H557a21.06 21.06 0 0 0 21-21V23a21.06 21.06 0 0 0-21-21zm113.52 79.58H443.43v-57.2h112.16v57.2zm-111.17-1H554.6V25.36H444.42v55.23z" transform="translate(-323.17 -1)"/></svg>