<svg version="1.1" id="Layer_1" xmlns="http://www.w3.org/2000/svg" x="0" y="0" viewBox="0 0 1000 1000" xml:space="preserve"><style>.st2{fill:#fff}</style><path class="st2" d="M883.93 711.8h-779.4c-45.25 0-82.06-37.2-82.06-82.93V418.43c0-8.28 6.72-15 15-15h913.52c8.28 0 15 6.72 15 15v210.44c0 22.12-8.51 42.92-23.97 58.57-15.5 15.71-36.13 24.36-58.09 24.36zM52.47 433.43v195.44c0 29.19 23.35 52.93 52.06 52.93h779.4c13.87 0 26.92-5.48 36.74-15.43 9.88-10 15.32-23.32 15.32-37.5V433.43H52.47z"/><path class="st2" d="M36.82 370.65c-8.18 0-16-2.92-22.25-8.35-6.94-6.04-11.12-14.43-11.75-23.65L.09 299.09c-1.3-18.9 12.9-35.36 31.65-36.69l929.01-65.81c9.05-.64 17.82 2.29 24.69 8.27 6.94 6.04 11.12 14.43 11.75 23.65l2.73 39.56c1.3 18.9-12.9 35.36-31.65 36.69l-929 65.81c-.83.05-1.64.08-2.45.08zm926.34-145.02c-.12 0-.24 0-.36.01l-929 65.81c-2.77.2-4.86 2.72-4.66 5.64l2.73 39.56a5.298 5.298 0 0 0 1.81 3.68c.7.61 1.89 1.31 3.53 1.2l929.01-65.81c2.77-.2 4.86-2.73 4.66-5.64l-2.73-39.56a5.298 5.298 0 0 0-1.81-3.68c-.66-.56-1.72-1.21-3.18-1.21z"/></svg>