<svg version="1.1" id="Layer_1" xmlns="http://www.w3.org/2000/svg" x="0" y="0" viewBox="0 0 1000 1000" xml:space="preserve"><style>.st0{stroke:#fff;stroke-miterlimit:10}.st0,.st1{fill:#fff}</style><path class="st0" d="M642.35 994.01H356.67c-15.17 0-27.51-12.34-27.51-27.51V447.41c0-15.17 12.34-27.51 27.51-27.51h285.68c15.17 0 27.51 12.34 27.51 27.51V966.5c.01 15.17-12.34 27.51-27.51 27.51zM356.67 431.52c-8.76 0-15.88 7.13-15.88 15.88v519.1c0 8.76 7.13 15.89 15.88 15.89h285.68c8.76 0 15.89-7.13 15.89-15.89V447.41c0-8.76-7.13-15.88-15.89-15.88H356.67z"/><path class="st0" d="M642.35 1000H356.67c-18.47 0-33.5-15.03-33.5-33.5V447.41c0-18.47 15.03-33.5 33.5-33.5h285.68c18.47 0 33.5 15.03 33.5 33.5V966.5c0 18.47-15.03 33.5-33.5 33.5zM356.67 437.51c-5.46 0-9.9 4.44-9.9 9.9V966.5c0 5.46 4.44 9.9 9.9 9.9h285.68c5.46 0 9.9-4.44 9.9-9.9V447.41c0-5.46-4.44-9.9-9.9-9.9H356.67z"/><path class="st0" d="M621.21 424.72H377.82c-26.83 0-48.66-20.64-48.66-46.02V173.11c0-13.38 6.36-25.8 17.45-34.09.18-.14.37-.26.57-.38l154.2-89.24a5.836 5.836 0 0 1 5.97.08l144.64 89.24c.15.09.29.19.43.29 11.09 8.29 17.45 20.72 17.45 34.09v205.6c0 25.37-21.83 46.02-48.66 46.02zm-267.9-276.19c-7.96 6.07-12.52 15.01-12.52 24.58V378.7c0 18.96 16.61 34.39 37.03 34.39h243.39c20.42 0 37.03-15.43 37.03-34.39V173.11c0-9.6-4.58-18.56-12.58-24.63L504.2 61.21l-150.89 87.32z"/><path class="st0" d="M621.21 430.7H377.82c-30.13 0-54.64-23.33-54.64-52V173.11c0-15.28 7.24-29.46 19.85-38.89.38-.28.77-.54 1.16-.77l154.2-89.24c3.76-2.18 8.4-2.11 12.11.17l144.64 89.24c.3.19.59.38.87.59 12.62 9.43 19.86 23.61 19.86 38.89v205.6c-.02 28.67-24.53 52-54.66 52zM356.65 153.51c-6.28 4.92-9.88 12.04-9.88 19.6V378.7c0 15.66 13.93 28.4 31.04 28.4H621.2c17.12 0 31.04-12.74 31.04-28.4V173.11c0-7.61-3.64-14.77-10-19.69L504.1 68.18l-147.45 85.33z"/><path class="st0" d="M557.19 93.65H441.84c-5.66 0-10.25-4.59-10.25-10.25V23.54c0-5.66 4.59-10.25 10.25-10.25h115.35c5.66 0 10.25 4.59 10.25 10.25V83.4c-.01 5.67-4.59 10.25-10.25 10.25z"/><path class="st1" d="M557.5 99.47H441.52c-8.68 0-15.74-7.06-15.74-15.74v-60.5c0-8.68 7.06-15.74 15.74-15.74H557.5c8.68 0 15.74 7.06 15.74 15.74v60.5c.01 8.68-7.05 15.74-15.74 15.74zM441.52 19.11c-2.27 0-4.11 1.85-4.11 4.11v60.5c0 2.27 1.85 4.11 4.11 4.11H557.5c2.27 0 4.11-1.85 4.11-4.11v-60.5c0-2.27-1.85-4.11-4.11-4.11H441.52z"/><path class="st1" d="M557.5 99.97H441.52c-8.96 0-16.24-7.29-16.24-16.24v-60.5c0-8.96 7.29-16.24 16.24-16.24H557.5c8.96 0 16.24 7.29 16.24 16.24v60.5c.01 8.95-7.28 16.24-16.24 16.24zM441.52 7.98c-8.41 0-15.24 6.84-15.24 15.24v60.5c0 8.41 6.84 15.24 15.24 15.24H557.5c8.41 0 15.24-6.84 15.24-15.24v-60.5c0-8.41-6.84-15.24-15.24-15.24H441.52zM557.5 88.34H441.52c-2.54 0-4.61-2.07-4.61-4.61v-60.5c0-2.54 2.07-4.61 4.61-4.61H557.5c2.54 0 4.61 2.07 4.61 4.61v60.5c.01 2.54-2.06 4.61-4.61 4.61zM441.52 19.61c-1.99 0-3.62 1.62-3.62 3.61v60.5c0 1.99 1.62 3.61 3.62 3.61H557.5c1.99 0 3.61-1.62 3.61-3.61v-60.5c0-1.99-1.62-3.61-3.61-3.61H441.52z"/><g><path class="st1" d="M557.5 105.45H441.52c-11.98 0-21.73-9.75-21.73-21.73v-60.5c0-11.98 9.75-21.73 21.73-21.73H557.5c11.98 0 21.73 9.75 21.73 21.73v60.5c0 11.99-9.74 21.73-21.73 21.73zm-114.11-23.6h112.24V25.1H443.39v56.75z"/><path class="st1" d="M557.5 105.95H441.52c-12.26 0-22.23-9.97-22.23-22.23v-60.5c0-12.26 9.97-22.23 22.23-22.23H557.5c12.26 0 22.23 9.97 22.23 22.23v60.5c0 12.26-9.97 22.23-22.23 22.23zM441.52 2c-11.71 0-21.23 9.52-21.23 21.23v60.5c0 11.71 9.52 21.23 21.23 21.23H557.5c11.71 0 21.23-9.52 21.23-21.23v-60.5C578.73 11.52 569.21 2 557.5 2H441.52zm114.61 80.35H442.89V24.6h113.24v57.75zm-112.24-.99h111.24V25.6H443.89v55.76z"/></g><g><path class="st0" d="M335.93 361.02h329.08v11.63H335.93z"/><path class="st0" d="M329.95 355.04H671v23.6H329.95z"/></g><g><path class="st0" d="M336.89 158.14h329.08v11.63H336.89z"/><path class="st0" d="M330.9 152.15h341.05v23.6H330.9z"/></g></svg>