<svg version="1.1" id="Layer_1" xmlns="http://www.w3.org/2000/svg" x="0" y="0" viewBox="0 0 64 64" xml:space="preserve"><style>.st2{fill:#23b6d1}</style><ellipse cx="32.6" cy="32" rx="20.09" ry="19.75" fill="#bcbec0"/><path d="M32.6 48.49c-9.25 0-16.78-7.4-16.78-16.49 0-9.09 7.53-16.49 16.78-16.49S49.38 22.91 49.38 32c0 9.09-7.53 16.49-16.78 16.49zm0-31.83C24 16.66 17 23.54 17 32s7 15.34 15.61 15.34 15.6-6.88 15.6-15.34-7-15.34-15.61-15.34z" fill="#e6e7e8"/><path class="st2" d="M10.17 21.54c0-3.75-2.28-5.93-5.09-5.93S0 17.79 0 21.54c0 3.2 1.66 5.87 3.89 6.59-.01.07-.04.13-.04.21v18.85c0 .67.55 1.21 1.23 1.21s1.23-.54 1.23-1.21V28.33c0-.07-.03-.14-.04-.21 2.24-.72 3.9-3.38 3.9-6.58z"/><path class="st2" d="M63.6 18.67c0-2.35-.39-2.7-.39-2.7-.66-.59-1.21-.35-1.21.53v4.07c0 .88-.18 2.31-.39 3.17 0 0 0 .31-.49.31s-.49-.31-.49-.31c-.22-.86-.39-2.29-.39-3.17v-3.86c0-.35-.07-.69-.21-1 0 0-.17-.37-.51-.37-.34 0-.51.37-.51.37-.14.32-.21.66-.21 1v3.86c0 .88-.18 2.31-.39 3.17 0 0 0 .31-.49.31s-.49-.31-.49-.31c-.22-.86-.39-2.29-.39-3.17V16.5c0-.88-.54-1.12-1.21-.53 0 0-.39.35-.39 2.7 0 3.73-1.97 9.52 2.88 10.31v18.48c0 .67.55 1.21 1.23 1.21s1.23-.54 1.23-1.21v-18.5c4.78-.83 2.82-6.58 2.82-10.29z"/></svg>