<svg version="1.1" id="Layer_1" xmlns="http://www.w3.org/2000/svg" x="0" y="0" viewBox="0 0 64 64" xml:space="preserve"><style>.st3{fill:#787878}</style><path d="M63.88 40.86C61.89 30.52 48.7.53 45.33.36c0 0-5.66-1.48-10.71 21.24-3.03 13.63-4.68 19.24-5.52 21.54a2.91 2.91 0 0 0 .67 3.07c1.38 1.38 3.5 3.4 5.19 4.58.13.09.24.18.35.28 1.6-3.88 2.81-7.91 3.62-12.01.07-.35.5-.55.83-.46.37.1.54.47.47.82-.25 1.27-.54 2.53-.86 3.78-.81 3.1-1.86 6.15-3.12 9.1 1.64 2.33 5.46 7.53 9.01 10.87 1.4 1.32 3.65 1.01 4.67-.61 1.92-3.08 4.04-8.03 4.82-9.91.08-.19.18-.37.29-.53-.47-.59-.89-1.22-1.24-1.89-.81-1.52-1.35-3.16-1.8-4.82-.54-2.01-.95-4.04-1.28-6.09-.65-4.13-.97-8.3-1.27-12.46-.03-.36.33-.67.68-.67.38 0 .65.31.68.67.16 2.24.33 4.49.55 6.73.39 3.99.97 7.97 2.05 11.84.55 1.99 1.3 4.1 2.6 5.76 2.21-1.88 5.68-6.02 7.26-7.94.54-.68.77-1.54.61-2.39zM47.26 6.8c-.61.96-1.35 1.47-2.19 1.53h-.15c-1.49 0-2.72-1.44-2.77-1.5a.258.258 0 0 1 .04-.37c.11-.09.29-.08.38.04.01.01 1.19 1.39 2.47 1.31.66-.04 1.25-.47 1.76-1.28.08-.12.25-.16.37-.08.13.06.17.22.09.35z" fill="#d1d3d4"/><path d="M33.39 42.94c-.09-.1-.18-.19-.29-.28-.15-.14-.31-.26-.47-.37-.05-.04-.1-.08-.16-.12-.27-.54-.63-1.03-1.08-1.43-.47-1-1.13-1.92-1.9-2.73.48-1.76.52-3.6-.1-5.41-.48-1.4-1.72-2.44-3.26-2.44-1.17 0-2.08.35-2.81.91-.08-.08-.16-.17-.24-.25-1.64-1.56-4.1-1.11-5.31.67-.23.34-.46.69-.68 1.05-.32-.02-.65-.01-.97.02-.01-.01-.02-.01-.03-.02-1.49-.83-3.06-.55-4.51.17-1.96.97-3.92 2.38-5.37 4.01-1.7 1.9-2.65 4.36-1.96 6.89.51 1.85 1.74 3.38 3.14 4.69-.2 2.43.05 5.21 1.67 6.85 1.62 1.64 3.85 1.48 5.95.84l.15.33c.61 1.22 2.5 2.01 3.82 1.53 2.58-.93 5.15-1.86 7.73-2.8 1.2-.44 2.13-1.37 2.4-2.52 2.21.82 4.66.94 6.11-.96 2.02-2.67.27-6.49-1.83-8.63zm-21.87-6.31c-.02-.08-.03-.17-.05-.25.01-.01.03-.02.04-.03 0 .09 0 .19.01.28zm17.77 12.11c.14.24 0 .16 0 0z" fill="#9b9a9a"/><path class="st3" d="M15.88 34.21c.05 1.99.47 3.95 1.27 5.77.82 1.89 2.45 3.32 4.6 2.98.65-.1 1.06-.95.87-1.54-.23-.7-.84-.98-1.54-.87.27-.04-.32-.03-.05 0-.16-.02-.32-.07-.46-.13.12.05.03.01-.03-.03-.09-.05-.17-.1-.26-.16-.16-.12.11.1-.03-.03-.06-.06-.12-.11-.18-.18-.01-.02-.17-.18-.11-.11.06.07-.08-.11-.09-.13-.09-.14-.18-.28-.26-.43-.08-.15-.15-.3-.23-.46-.09-.19.06.14-.02-.05-.04-.11-.09-.21-.13-.32-.26-.7-.47-1.42-.62-2.15-.15-.75-.21-1.32-.23-2.17-.02-.65-.56-1.28-1.25-1.25-.66.04-1.27.56-1.25 1.26z"/><path class="st3" d="M25.58 42.31c.9 1.3 1.58 2.61 1.97 4.09.09.35.16.63.1.92 0-.03-.04.14-.06.18-.05.18.08-.14-.01.02-.04.07-.08.13-.12.2-.1.16.11-.12-.01.03-.1.12-.21.23-.33.34-.02.01-.19.16-.1.1.08-.07-.1.07-.12.08-.28.2-.58.38-.88.55-.58.34-.79 1.13-.45 1.71.34.58 1.13.79 1.71.45.71-.41 1.44-.87 1.97-1.51.76-.92 1-1.97.82-3.14-.15-.98-.55-1.92-.95-2.82-.39-.87-.86-1.69-1.4-2.46-.39-.55-1.09-.81-1.71-.45-.53.32-.82 1.15-.43 1.71z"/><path class="st3" d="M13.99 44.89c-.19.27-.38.54-.58.81-.09.13-.18.25-.28.38-.05.07-.11.14-.16.21-.11.15.12-.15 0 0-.42.51-.84 1.01-1.32 1.46-.1.1-.21.19-.32.28l-.15.12c-.24.2.14-.09-.01.01-.25.17-.49.35-.76.5-.12.07-.25.14-.38.2-.07.03-.14.08-.22.1.09-.03.18-.07.04-.02-.3.11-.6.2-.91.26-.64.13-1.07.93-.87 1.54.22.68.85 1.01 1.54.87 2.98-.6 4.89-3.12 6.53-5.46.38-.54.11-1.41-.45-1.71-.63-.33-1.3-.12-1.7.45z"/></svg>