<svg version="1.1" id="Layer_1" xmlns="http://www.w3.org/2000/svg" x="0" y="0" viewBox="0 0 1000 1250" xml:space="preserve"><style>.st0{fill:#ffce41}.st1{fill:#dbdbdb}</style><path class="st0" d="M642.35 1244.02H356.67c-15.17 0-27.51-12.34-27.51-27.51v-519.1c0-15.17 12.34-27.51 27.51-27.51h285.68c15.17 0 27.51 12.34 27.51 27.51v519.09c.01 15.17-12.34 27.52-27.51 27.52zm-285.68-562.5c-8.76 0-15.88 7.13-15.88 15.88v519.09c0 8.76 7.13 15.89 15.88 15.89h285.68c8.76 0 15.89-7.13 15.89-15.89V697.41c0-8.76-7.13-15.88-15.89-15.88H356.67z"/><path class="st0" d="M642.35 1250H356.67c-18.47 0-33.5-15.03-33.5-33.5V697.41c0-18.47 15.03-33.5 33.5-33.5h285.68c18.47 0 33.5 15.03 33.5 33.5v519.09c0 18.47-15.03 33.5-33.5 33.5zM356.67 687.51c-5.46 0-9.9 4.44-9.9 9.9v519.09c0 5.46 4.44 9.9 9.9 9.9h285.68c5.46 0 9.9-4.44 9.9-9.9V697.41c0-5.46-4.44-9.9-9.9-9.9H356.67z"/><path class="st0" d="M621.21 674.72H377.82c-26.83 0-48.66-20.64-48.66-46.02V423.11c0-13.38 6.36-25.8 17.45-34.09.18-.14.37-.26.57-.38l154.2-89.24a5.836 5.836 0 0 1 5.97.08l144.64 89.24c.15.09.29.19.43.29 11.09 8.29 17.45 20.72 17.45 34.09v205.6c0 25.37-21.83 46.02-48.66 46.02zm-267.9-276.19c-7.96 6.07-12.52 15.01-12.52 24.58V628.7c0 18.96 16.61 34.39 37.03 34.39h243.39c20.42 0 37.03-15.43 37.03-34.39V423.11c0-9.6-4.58-18.56-12.58-24.63L504.2 311.21l-150.89 87.32z"/><path class="st0" d="M621.21 680.7H377.82c-30.13 0-54.64-23.33-54.64-52V423.11c0-15.28 7.24-29.46 19.85-38.89.38-.28.77-.54 1.16-.77l154.2-89.24c3.76-2.18 8.4-2.11 12.11.17l144.64 89.24c.3.19.59.38.87.59 12.62 9.43 19.86 23.61 19.86 38.89v205.6c-.02 28.67-24.53 52-54.66 52zM356.65 403.51c-6.28 4.92-9.88 12.04-9.88 19.6V628.7c0 15.66 13.93 28.4 31.04 28.4H621.2c17.12 0 31.04-12.74 31.04-28.4V423.11c0-7.61-3.64-14.77-10-19.69L504.1 318.18l-147.45 85.33z"/><path class="st0" d="M335.93 611.02h329.08v11.63H335.93z"/><path class="st0" d="M329.95 605.04H671v23.6H329.95z"/><g><path class="st0" d="M336.89 408.14h329.08v11.63H336.89z"/><path class="st0" d="M330.9 402.15h341.05v23.6H330.9z"/></g><g><path class="st1" d="M556.95 104.46H442.07c-11.87 0-21.52-9.65-21.52-21.52V23.02c0-11.87 9.65-21.52 21.52-21.52h114.88c11.87 0 21.52 9.65 21.52 21.52v59.92c0 11.86-9.65 21.52-21.52 21.52zM443.93 81.08H555.1V24.87H443.93v56.21z"/><path class="st1" d="M556.95 104.95H442.07c-12.14 0-22.02-9.88-22.02-22.02V23.02c0-12.14 9.88-22.02 22.02-22.02h114.88c12.14 0 22.01 9.88 22.01 22.02v59.92c.01 12.14-9.87 22.01-22.01 22.01zM442.07 1.99c-11.59 0-21.03 9.43-21.03 21.03v59.92c0 11.59 9.43 21.03 21.03 21.03h114.88c11.59 0 21.03-9.43 21.03-21.03V23.02c0-11.59-9.43-21.03-21.03-21.03H442.07zm113.52 79.59H443.43v-57.2h112.16v57.2zm-111.17-.99H554.6V25.36H444.42v55.23z"/></g></svg>