<svg data-name="Layer 1" xmlns="http://www.w3.org/2000/svg" viewBox="0 0 1000 1000"><path d="M521.28 918.34a465.16 465.16 0 0 1-57.83-3.64c-51.68-6.49-84.85-19.31-86.24-19.86l-6.21-2.42-74.46-564.58h438.22l-66.68 564.82-6.61 2.34a417.11 417.11 0 0 1-107.6 22.17q-16.17 1.17-32.59 1.17zm-129.74-42.27c11.58 3.84 38.79 11.88 75.44 16.42 43.69 5.42 109.93 6.79 180.44-16.46l62.06-525.71h-387.3z" fill="#9e4d47"/><path d="M763.3 243.23H268.18a11.24 11.24 0 0 1-10.46-15.34L277 178.66a11.24 11.24 0 0 1 10.46-7.13h13.38l13.79-48.63a11.22 11.22 0 0 1 10.8-8.17H706a11.23 11.23 0 0 1 10.81 8.18l13.78 48.62H744a11.24 11.24 0 0 1 10.47 7.13l19.3 49.23a11.24 11.24 0 0 1-10.47 15.34zm-478.65-22.47h462.18L736.34 194h-14.22a11.22 11.22 0 0 1-10.81-8.18l-13.78-48.62H334l-13.79 48.63a11.22 11.22 0 0 1-10.86 8.17h-14.21z" fill="#ededed"/></svg>