<svg version="1.1" id="Layer_1" xmlns="http://www.w3.org/2000/svg" x="0" y="0" viewBox="0 0 1000 1000" xml:space="preserve"><style>.st0{fill:#fff}</style><path class="st0" d="M641.06 1000H357.97c-20.12 0-36.5-16.37-36.5-36.5V449.1c0-20.12 16.37-36.5 36.5-36.5h283.09c20.12 0 36.5 16.37 36.5 36.5v514.4c0 20.13-16.38 36.5-36.5 36.5zM357.97 442.59c-3.59 0-6.51 2.92-6.51 6.51v514.4c0 3.59 2.92 6.51 6.51 6.51h283.09c3.59 0 6.51-2.92 6.51-6.51V449.1c0-3.59-2.92-6.51-6.51-6.51H357.97z"/><path class="st0" d="M620.11 431.92h-241.2c-31.68 0-57.45-24.6-57.45-54.83V173.36c0-16.17 7.64-31.17 20.96-41.14.43-.33.89-.64 1.4-.94l.11-.07 97.59-56.48 3.28 4.9h48.13L359.8 156.68c-5.31 4.24-8.35 10.29-8.35 16.68v203.73c0 13.7 12.32 24.85 27.46 24.85h241.2c15.14 0 27.45-11.15 27.45-24.85V173.36c0-6.46-3.09-12.56-8.49-16.8L514.39 79.63h37.43V67.49l103.6 63.92c.42.26.83.53 1.2.82 13.3 9.97 20.93 24.95 20.93 41.13v203.73c.01 30.24-25.76 54.83-57.44 54.83z"/><path class="st0" d="M556.98 109.62H442.05c-1.57 0-3.14-.15-4.69-.45-6.87-1.3-12.93-5.52-16.58-11.58a24.664 24.664 0 0 1-3.57-12.81V24.83C417.22 11.14 428.36 0 442.05 0h114.94c13.69 0 24.83 11.14 24.83 24.83v59.95c0 3.15-.58 6.21-1.73 9.11-2.33 5.95-7.05 10.91-12.92 13.54a24.516 24.516 0 0 1-10.19 2.19zM447.2 79.63h104.63V29.99H447.2v49.64z"/><path class="st0" d="M328.18 341.34h344.57v29.99H328.18z"/><path class="st0" d="M329.13 155.29H673.7v29.99H329.13z"/></svg>