<svg xmlns="http://www.w3.org/2000/svg" viewBox="0 0 700 700"><path d="M313.24 438.29H160.11c-67.61 0-122.61-48.52-122.61-108.15v-92.49c0-59.63 55-108.15 122.61-108.15h379.78c67.61 0 122.61 48.52 122.61 108.15v92.49c0 59.63-55 108.15-122.61 108.15H385.76l-36.26 70.02-36.26-70.02z" fill="#024a67"/><path d="M539.89 137C603.2 137 655 182.29 655 237.65v92.49c0 55.36-51.8 100.65-115.11 100.65h-158.7l-15.62 30.17L349.5 492l-16.07-31.04-15.62-30.17h-157.7C96.8 430.79 45 385.5 45 330.14v-92.49C45 182.29 96.8 137 160.11 137h379.78m0-15H160.11C88.37 122 30 173.88 30 237.65v92.49c0 63.77 58.37 115.65 130.11 115.65h148.57l11.42 22.06 16.07 31.04 13.32 25.72 13.32-25.72 16.07-31.04 11.42-22.06h149.57c71.74 0 130.11-51.88 130.11-115.65v-92.49C670 173.88 611.63 122 539.89 122z" fill="#024a67"/></svg>