<?xml version="1.0" encoding="iso-8859-1"?>
<!DOCTYPE svg PUBLIC "-//W3C//DTD SVG 1.1//EN" "http://www.w3.org/Graphics/SVG/1.1/DTD/svg11.dtd">
<svg 
 version="1.1" xmlns="http://www.w3.org/2000/svg" xmlns:xlink="http://www.w3.org/1999/xlink" x="0px" y="0px" width="512px"
	 height="512px" viewBox="0 0 512 512" style="enable-background:new 0 0 512 512;" xml:space="preserve"
><g id="afcae5a789ccd549f9c6e2a2f8140298"><g></g><g fill="#fbfbfb"><path style="display: inline;" d="M452.538,0.5H59.462c-21.619,0-39.308,17.688-39.308,39.308v267.78v137.576v8.153v31.154V511.5
		h471.691v-27.028v-31.154v-8.153V307.588V39.808C491.846,18.188,474.158,0.5,452.538,0.5z M216.692,32.434
		c10.855,0,19.653,8.798,19.653,19.654c0,10.856-8.798,19.654-19.653,19.654s-19.653-8.798-19.653-19.654
		C197.039,41.232,205.837,32.434,216.692,32.434z M157.731,32.434c10.855,0,19.653,8.798,19.653,19.654
		c0,10.856-8.798,19.654-19.653,19.654c-10.856,0-19.654-8.798-19.654-19.654C138.077,41.232,146.875,32.434,157.731,32.434z
		 M79.115,52.087c0-10.855,8.799-19.654,19.654-19.654s19.654,8.798,19.654,19.654c0,10.856-8.799,19.654-19.654,19.654
		S79.115,62.943,79.115,52.087z M256,452.538c-86.254,0-156.175-69.921-156.175-156.175c0-86.254,69.921-156.175,156.175-156.175
		s156.175,69.921,156.175,156.175C412.175,382.617,342.254,452.538,256,452.538z M413.23,71.741h-78.615
		c-10.855,0-19.653-8.798-19.653-19.654c0-10.855,8.798-19.654,19.653-19.654h78.615c10.856,0,19.654,8.798,19.654,19.654
		C432.885,62.943,424.087,71.741,413.23,71.741z M385.885,331.502C371.362,389.734,318.731,432.885,256,432.885
		c-62.73,0-115.362-43.15-129.884-101.383c11.77-1.37,22.037-7.604,28.797-16.629c7.682,10.257,19.896,16.925,33.696,16.925
		s26.015-6.668,33.695-16.925c7.681,10.257,19.896,16.925,33.695,16.925s26.015-6.668,33.695-16.925
		c7.682,10.257,19.896,16.925,33.696,16.925s26.014-6.668,33.695-16.925C363.847,323.897,374.119,330.132,385.885,331.502z"></path></g></g></svg>