<svg xmlns="http://www.w3.org/2000/svg" width="233.74" height="234.55" viewBox="0 0 233.74 234.55">
  <defs>
    <style>
      .cls-1 {
        fill: #4ab8d3;
      }
    </style>
  </defs>
  <title>Down arrow</title>
  <g id="Layer_2" data-name="Layer 2">
    <g id="Layer_1-2" data-name="Layer 1">
      <g id="Layer_1-2-2" data-name="Layer 1-2">
        <g>
          <path class="cls-1" d="M104.37,179.37,30.18,105.18a17.67,17.67,0,0,0-25,0h0a17.67,17.67,0,0,0,0,25h0l99.19,99.19a17.68,17.68,0,0,0,25,0l99.19-99.19a17.68,17.68,0,0,0,0-25h0a17.67,17.67,0,0,0-25,0h0l-74.19,74.19A17.68,17.68,0,0,1,104.37,179.37Z"/>
          <path class="cls-1" d="M104.37,79.37,30.18,5.18a17.67,17.67,0,0,0-25,0h0a17.67,17.67,0,0,0,0,25h0l99.19,99.19a17.68,17.68,0,0,0,25,0l99.19-99.19a17.68,17.68,0,0,0,0-25h0a17.67,17.67,0,0,0-25,0h0L129.37,79.37A17.68,17.68,0,0,1,104.37,79.37Z"/>
        </g>
      </g>
    </g>
  </g>
</svg>
