<?xml version="1.0" encoding="utf-8"?>
<!-- Generator: Adobe Illustrator 23.0.6, SVG Export Plug-In . SVG Version: 6.00 Build 0)  -->
<svg version="1.1" id="Layer_1" xmlns="http://www.w3.org/2000/svg" xmlns:xlink="http://www.w3.org/1999/xlink" x="0px" y="0px"
	 viewBox="0 0 700 700" style="enable-background:new 0 0 700 700;" xml:space="preserve">
<style type="text/css">
	.st0{opacity:0.55;fill:url(#SVGID_1_);}
	.st1{opacity:0.55;fill:url(#SVGID_2_);}
	.st2{opacity:0.55;fill:url(#SVGID_3_);}
	.st3{fill:#2DCCAD;}
	.st4{fill:#817EF6;}
	.st5{fill:#26B6D1;}
	.st6{fill:#7F9CA3;}
	.st7{fill:#2DCDAE;}
	.st8{fill:#43DDC0;}
</style>
<g>
	
		<linearGradient id="SVGID_1_" gradientUnits="userSpaceOnUse" x1="384.1396" y1="346.7502" x2="787.79" y2="384.4539" gradientTransform="matrix(0 1 -1 0 695.0651 3.2384)">
		<stop  offset="0" style="stop-color:#2DCCAD;stop-opacity:0.8"/>
		<stop  offset="1" style="stop-color:#26B6D1"/>
	</linearGradient>
	<path class="st0" d="M1.61,495.57c-1.89-13.22-2.84-26.93-2.81-40.95c0.15-50.1,7.55-96.52,19.38-138.83
		C190.48,308.93,429,267.87,462.51,96.3c30.84,34.59,67.59,77.56,117.42,127.35c60.04,59.99,94.96,131.24,110.56,197.77
		C604,443.76,240.01,531.72,1.61,495.57z"/>
	
		<linearGradient id="SVGID_2_" gradientUnits="userSpaceOnUse" x1="647.8022" y1="387.6968" x2="44.1063" y2="199.1742" gradientTransform="matrix(0 1 -1 0 695.0651 3.2384)">
		<stop  offset="0" style="stop-color:#2DCCAD;stop-opacity:0.8"/>
		<stop  offset="1" style="stop-color:#26B6D1"/>
	</linearGradient>
	<path class="st1" d="M1.61,495.57c238.4,36.15,602.4-51.81,688.88-74.15c32.91,140.12-12.31,174.71-103.1,209.5
		c-87,33.34-190.64,3.31-299.46,52.26C160.68,740.38,22.78,645.22,1.61,495.57z"/>
	
		<linearGradient id="SVGID_3_" gradientUnits="userSpaceOnUse" x1="410.0763" y1="500.8674" x2="-31.0126" y2="402.605" gradientTransform="matrix(0 1 -1 0 695.0651 3.2384)">
		<stop  offset="0" style="stop-color:#2DCCAD;stop-opacity:0.8"/>
		<stop  offset="1" style="stop-color:#26B6D1"/>
	</linearGradient>
	<path class="st2" d="M18.17,315.79c27.28-97.56,78.22-173.28,118.59-221.68c38.93-46.69,89-79.37,144.13-90.47
		c78.28-15.69,116.88,20.04,181.62,92.66C429,267.87,190.48,308.93,18.17,315.79z"/>
</g>
<g>
	<path class="st3" d="M598.93,99.48c-22.42,21.05-40.8,38.35-55.3,52.29c-14.45,14.08-24.95,24.68-31.32,34.48
		c-6.4,9.88-8.82,19.62-7.27,30.56c1.53,10.92,6.96,23.03,16.21,36.9c1.2,1.76,2.54,3.48,4.02,5.08c0.99,1.11,2.05,2.16,3.17,3.17
		c11.98-13.36,25.61-28.9,37.55-46.06c5.99-8.58,11.51-17.58,16.2-26.83c4.68-9.24,8.49-18.69,11.28-27.78
		c0.97-3.13,4.44-3.21,4.08-0.04c-1.57,13.99-5.12,32.22-12.34,51.66c-7.14,19.51-17.75,40.12-31.3,61.16
		c2.12,0.43,4.28,0.74,6.41,0.95c17.73,1.72,36.32-2.84,54.86-17.85c9.37-7.66,17.1-17.09,22.82-27.99
		c5.72-10.85,9.4-23.24,10.57-36.13c1.41-15.32,0.57-31.72-1.71-47.09c-2.23-15.43-5.82-29.87-9.46-42.2
		c-3.66-12.34-7.38-22.6-10.14-29.82c-2.76-7.22-4.56-11.42-4.56-11.42C620.3,76.11,615.86,82.96,598.93,99.48z"/>
</g>
<path class="st4" d="M637.5,533.05c-5.81-27.06-28.44-44.89-53.25-40c-11.64,2.29-20.68,8.85-25.99,20.77
	c-9.55,21.46,18.5,57.21-23.19,75.31s-71.06,65.69-10.2,85.87c60.86,20.18,114.61-26.01,116.16-97.24
	C641.44,558.99,639.93,544.39,637.5,533.05z"/>
<path class="st5" d="M100,97c-38.18,15.56-79,27-59,87s12,94,59,91s89,4,95-89s37-108,6-138S127,86,100,97z"/>
<g>
	<path class="st6" d="M164.52,420.26v56.71h-42.1V321.13h51.06c42.35,0,63.53,15.35,63.53,46.05c0,18.05-8.81,32.01-26.44,41.89
		l45.41,67.9h-47.75l-33.04-56.71H164.52z M164.52,388.6h7.89c14.71,0,22.06-6.5,22.06-19.51c0-10.73-7.21-16.1-21.64-16.1h-8.31
		V388.6z"/>
	<path class="st6" d="M362.68,476.97h-92.52V321.13h92.52v33.79h-50.42v24.52h46.69v33.79h-46.69v29.42h50.42V476.97z"/>
	<path class="st6" d="M530.36,476.97h-48.71l-30.38-48.71l-30.06,48.71h-47.65l51.7-79.73l-48.61-76.11h46.69l28.14,48.18
		l27.08-48.18h48.07l-49.35,79.41L530.36,476.97z"/>
</g>
<g>
	<path class="st7" d="M241.35,457.07c-12.54,4.29-25.63,8.5-39.29,12.61l0.17,0.29h47.75L241.35,457.07z"/>
	<path class="st7" d="M306.26,435.65v-3.52c-13.23,5.71-27.25,11.33-42.1,16.83v21.01h92.52v-34.32H306.26z"/>
	<path class="st7" d="M471.27,393.54l49.35-79.41h-48.07l-9.77,17.39l-17.3,30.79l-5.58-9.56c-9.02,7.63-18.97,15.29-29.94,22.93
		l9.29,14.56l-51.69,79.73h47.64l30.06-48.71l30.38,48.71h48.72L471.27,393.54z"/>
</g>
<path class="st8" d="M439.9,352.75c-9.02,7.63-18.97,15.29-29.94,22.93l-39.31-61.55h46.68L439.9,352.75z"/>
<path class="st8" d="M306.26,347.92v24.52h46.69v33.79h-46.69v25.9c-13.23,5.71-27.25,11.33-42.1,16.83V314.13h92.52v33.79H306.26z"
	/>
<path class="st8" d="M204.57,402.07c17.63-9.88,26.44-23.84,26.44-41.89c0-30.7-21.18-46.05-63.53-46.05h-51.06v155.84h42.1v-56.71
	h10.66l32.88,56.42c13.66-4.11,26.75-8.32,39.29-12.61L204.57,402.07z M166.41,381.6h-7.89V346h8.32c14.42,0,21.64,5.37,21.64,16.1
	C188.48,375.1,181.12,381.6,166.41,381.6z"/>
</svg>
