<?xml version="1.0" encoding="utf-8"?>
<!-- Generator: Adobe Illustrator 23.0.6, SVG Export Plug-In . SVG Version: 6.00 Build 0)  -->
<svg version="1.1" id="Layer_1" xmlns="http://www.w3.org/2000/svg" xmlns:xlink="http://www.w3.org/1999/xlink" x="0px" y="0px"
	 viewBox="0 0 235.28 235.28" style="enable-background:new 0 0 235.28 235.28;" xml:space="preserve">
<style type="text/css">
	.st0{opacity:0.55;fill:url(#SVGID_1_);}
	.st1{opacity:0.55;fill:url(#SVGID_2_);}
	.st2{opacity:0.55;fill:url(#SVGID_3_);}
	.st3{fill:#827EF7;}
	.st4{fill:#2DCDAE;}
	.st5{fill:#26B7D2;}
	.st6{fill:#FFCE41;}
	.st7{fill:#9C9CEF;}
	.st8{fill:#FFD773;}
	.st9{fill:#3ECADD;}
	.st10{opacity:0.63;fill:#7F9CA3;}
</style>
<g>
	
		<linearGradient id="SVGID_1_" gradientUnits="userSpaceOnUse" x1="126.8099" y1="114.1157" x2="262.3212" y2="126.7733" gradientTransform="matrix(0 1 -1 0 231.0651 3.2384)">
		<stop  offset="0" style="stop-color:#2DCDAE;stop-opacity:0.8"/>
		<stop  offset="1" style="stop-color:#26B7D2"/>
	</linearGradient>
	<path class="st0" d="M0.55,166.37c-0.63-4.44-0.96-9.04-0.95-13.75c0.05-16.82,2.53-32.4,6.5-46.61
		c57.85-2.3,137.92-16.08,149.17-73.68c10.36,11.61,22.69,26.04,39.42,42.75c20.16,20.14,31.88,44.06,37.12,66.39
		C202.79,148.98,80.59,178.51,0.55,166.37z"/>
	
		<linearGradient id="SVGID_2_" gradientUnits="userSpaceOnUse" x1="215.3253" y1="127.862" x2="12.6559" y2="64.5723" gradientTransform="matrix(0 1 -1 0 231.0651 3.2384)">
		<stop  offset="0" style="stop-color:#2DCDAE;stop-opacity:0.8"/>
		<stop  offset="1" style="stop-color:#26B7D2"/>
	</linearGradient>
	<path class="st1" d="M0.55,166.37c80.03,12.14,202.23-17.39,231.27-24.89c11.05,47.04-4.13,58.65-34.61,70.33
		c-29.21,11.19-64,1.11-100.53,17.54C53.96,248.56,7.66,216.61,0.55,166.37z"/>
	
		<linearGradient id="SVGID_3_" gradientUnits="userSpaceOnUse" x1="135.5173" y1="165.855" x2="-12.5626" y2="132.8669" gradientTransform="matrix(0 1 -1 0 231.0651 3.2384)">
		<stop  offset="0" style="stop-color:#2DCDAE;stop-opacity:0.8"/>
		<stop  offset="1" style="stop-color:#26B7D2"/>
	</linearGradient>
	<path class="st2" d="M6.11,106.01c9.16-32.75,26.26-58.17,39.81-74.42C58.99,15.92,75.8,4.95,94.31,1.22
		c26.28-5.27,39.24,6.73,60.97,31.11C144.04,89.93,63.96,103.71,6.11,106.01z"/>
</g>
<path class="st3" d="M68.97,29.29c-1.94-10.87-25.76-17.67-35.41-11.76s-7.43,24.99-14.1,27.58S7.38,63.96,16.65,69.27
	s21.71,1.69,26.46-11.69S73.07,52.22,68.97,29.29z"/>
<path class="st4" d="M223.21,204.4c-26.94-30.93-40.97-36.87-56.66-20.61c-0.5,0.52-0.96,1.09-1.38,1.7
	c-0.29,0.41-0.56,0.83-0.8,1.27c10.92,5.6,25.87,12.58,38.15,15.7c1.06,0.27,1.12,1.42,0.08,1.35c-9.32-0.65-23.9-2.55-40.16-7.9
	c0.03,0.72,0.11,1.43,0.21,2.14c0.86,5.85,4.01,11.43,10.21,16.27c6.28,4.9,13.78,7.31,21.17,7.15c17.61-0.35,41.24-8.54,41.24-8.54
	C230.68,211.88,228.51,210.26,223.21,204.4z"/>
<g>
	<path class="st5" d="M1099,183c0,79.62-34.21,151.26-88.75,201c-14.12,12.89-29.6,24.3-46.21,34H689.96
		c-5.2-3.04-10.3-6.25-15.28-9.63c-10.9-7.37-21.24-15.52-30.93-24.37c-37.49-34.19-65.38-78.74-79.15-129.11
		C797.37,190.56,877.07,30.83,904.2-77.89c8.43,2.49,16.69,5.38,24.76,8.65C1028.66-28.9,1099,68.84,1099,183z"/>
	<path class="st6" d="M1041.49,493.85H814.57c13.8-7.52,26.85-15.37,39.19-23.43c23.88-15.62,45.11-32.07,63.89-48.67
		c1.7-1.5,3.38-3,5.04-4.5h107.09l0.68,4.46l7.45,48.71L1041.49,493.85z"/>
	<path class="st3" d="M1046,402.38c0,10.32-6.87,18.75-15.54,19.33c-0.32,0.03-0.64,0.04-0.97,0.04H917.65c1.7-1.5,3.38-3,5.04-4.5
		c12.65-11.46,24.15-22.95,34.58-34.25h72.22C1038.61,383,1046,391.68,1046,402.38z"/>
	<path class="st3" d="M1069.88,497.3v4.82c0,14.84-12.03,26.88-26.88,26.88H737.5c27.95-10.46,53.59-22.34,77.07-35.15
		c13.8-7.52,26.85-15.37,39.19-23.43H1043C1057.85,470.42,1069.88,482.46,1069.88,497.3z"/>
	<path class="st7" d="M957.27,383c-10.43,11.3-21.93,22.79-34.58,34.25c-1.66,1.5-3.34,3-5.04,4.5H624.51
		c-0.33,0-0.65-0.01-0.97-0.04c-8.67-0.58-15.54-9.01-15.54-19.33c0-5.35,1.85-10.2,4.84-13.7c2.98-3.51,7.11-5.68,11.67-5.68
		H957.27z"/>
	<path class="st8" d="M917.65,421.75c-18.78,16.6-40.01,33.05-63.89,48.67H616.09l7.45-48.71c0.32,0.03,0.64,0.04,0.97,0.04H917.65z
		"/>
	<path class="st7" d="M853.76,470.42c-12.34,8.06-25.39,15.91-39.19,23.43c-23.48,12.81-49.12,24.69-77.07,35.15H611
		c-14.85,0-26.88-12.04-26.88-26.88v-4.82c0-14.84,12.03-26.88,26.88-26.88H853.76z"/>
	<path class="st9" d="M904.2-77.89C877.07,30.83,797.37,190.56,564.6,254.89c-6.26-22.9-9.6-47.01-9.6-71.89
		C555,32.78,676.78-89,827-89C853.82-89,879.73-85.12,904.2-77.89z"/>
</g>
<g>
	<path class="st10" d="M144.78,191.39l-63.52-9.95l-26.3-4.12c-3.08-0.48-5.2-3.37-4.71-6.47l0.16-1c0.48-3.08,3.37-5.2,6.46-4.72
		l1.06,0.17l3.14-9.88c-1.78-0.41-2.94-2.37-2.6-4.52c0.17-1.12,0.71-2.06,1.45-2.7c0.73-0.63,1.67-0.95,2.61-0.8l3.79,0.59
		c-6.58-8.28-10.86-18.36-12.07-29.18c-0.56-4.96-0.47-10.09,0.34-15.26c4.89-31.23,34.17-52.59,65.4-47.7
		c5.58,0.87,10.84,2.53,15.69,4.82c1.67,0.8,3.29,1.66,4.86,2.61c19.42,11.63,30.86,34.25,27.14,57.98
		c-2.58,16.44-11.91,30.15-24.74,38.72l3.79,0.59c1.89,0.3,3.16,2.34,2.81,4.57c-0.34,2.15-2.05,3.67-3.87,3.51l-0.03,10.37
		l1.06,0.17c3.08,0.48,5.2,3.37,4.72,6.46l-0.15,1C150.76,189.76,147.87,191.86,144.78,191.39z"/>
	<g>
		<path class="st5" d="M165.12,116.5c-2.59,16.55-12.04,30.33-24.99,38.9c-3.36,2.22-6.94,4.09-10.71,5.56l-56.98-8.92
			c-0.98-0.8-1.94-1.63-2.86-2.5c-2.03-1.89-3.91-3.92-5.64-6.07c-6.68-8.33-11.03-18.5-12.25-29.42
			c50.49-5.8,72.26-36.41,81.44-58.13c1.67,0.79,3.29,1.66,4.87,2.6C157.39,70.16,168.83,92.77,165.12,116.5z"/>
		<path class="st6" d="M143.04,179.26l-47.18-7.39c3.11-1.11,6.08-2.32,8.91-3.6c5.47-2.47,10.42-5.2,14.87-8.04
			c0.4-0.26,0.8-0.51,1.19-0.77l22.26,3.49l0,0.95l-0.04,10.37L143.04,179.26z"/>
		<path class="st3" d="M146.96,160.39c-0.34,2.15-2.04,3.67-3.86,3.51c-0.07,0-0.13-0.01-0.2-0.02l-23.25-3.64
			c0.4-0.26,0.8-0.51,1.19-0.77c3-1.97,5.77-3.99,8.3-6l15.01,2.35C146.05,156.12,147.31,158.16,146.96,160.39z"/>
		<path class="st3" d="M148.83,180.9l-0.16,1c-0.48,3.09-3.38,5.2-6.46,4.71l-63.51-9.94c6.15-1.26,11.87-2.9,17.17-4.8
			c3.11-1.11,6.08-2.32,8.91-3.6l39.34,6.16C147.21,174.92,149.32,177.81,148.83,180.9z"/>
		<path class="st7" d="M129.14,153.47c-2.54,2.01-5.3,4.02-8.3,6c-0.39,0.26-0.79,0.51-1.19,0.77L58.7,150.7
			c-0.07-0.01-0.13-0.02-0.2-0.04c-1.78-0.4-2.94-2.38-2.6-4.52c0.17-1.11,0.72-2.06,1.45-2.69c0.73-0.63,1.66-0.95,2.61-0.8
			L129.14,153.47z"/>
		<path class="st8" d="M119.64,160.24c-4.44,2.84-9.39,5.57-14.87,8.04l-49.41-7.74l3.13-9.88c0.07,0.02,0.13,0.03,0.2,0.04
			L119.64,160.24z"/>
		<path class="st7" d="M104.78,168.28c-2.83,1.27-5.8,2.48-8.91,3.6c-5.3,1.9-11.02,3.53-17.17,4.8l-26.3-4.12
			c-3.09-0.48-5.2-3.38-4.71-6.46l0.16-1c0.48-3.09,3.38-5.2,6.46-4.71L104.78,168.28z"/>
		<path class="st9" d="M133.11,55.92c-9.18,21.72-30.95,52.33-81.44,58.13c-0.56-4.96-0.47-10.09,0.34-15.26
			c4.89-31.23,34.17-52.59,65.4-47.7C123,51.97,128.26,53.62,133.11,55.92z"/>
	</g>
</g>
<path class="st6" d="M66.32,53.63l4.69,6.46c0.03,0.04,0.07,0.07,0.11,0.09l7.43,2.9c0.18,0.07,0.21,0.32,0.06,0.43l-6.46,4.69
	c-0.04,0.03-0.07,0.07-0.09,0.11l-2.9,7.43c-0.07,0.18-0.32,0.21-0.43,0.06l-4.69-6.46c-0.03-0.04-0.07-0.07-0.11-0.09l-7.43-2.9
	c-0.18-0.07-0.21-0.32-0.06-0.43l6.46-4.69c0.04-0.03,0.07-0.07,0.09-0.11l2.9-7.43C65.96,53.51,66.2,53.47,66.32,53.63z"/>
<path class="st6" d="M156.62,118.5l4.69,6.46c0.03,0.04,0.07,0.07,0.11,0.09l7.43,2.9c0.18,0.07,0.21,0.32,0.06,0.43l-6.46,4.69
	c-0.04,0.03-0.07,0.07-0.09,0.11l-2.9,7.43c-0.07,0.18-0.32,0.21-0.43,0.06l-4.69-6.46c-0.03-0.04-0.07-0.07-0.11-0.09l-7.43-2.9
	c-0.18-0.07-0.21-0.32-0.06-0.43l6.46-4.69c0.04-0.03,0.07-0.07,0.09-0.11l2.9-7.43C156.26,118.37,156.5,118.34,156.62,118.5z"/>
</svg>
