<svg xmlns="http://www.w3.org/2000/svg" width="426.96" height="205.58" viewBox="0 0 426.96 205.58">
  <defs>
    <style>
      .cls-1 {
        fill: #fff;
      }
    </style>
  </defs>
  <title>Header Icon</title>
  <g id="Layer_2" data-name="Layer 2">
    <g id="Layer_1-2" data-name="Layer 1">
      <path class="cls-1" d="M195.94,7.46c-62.25,29.31-87.76,49.87-73.35,88.88a28.36,28.36,0,0,0,1.67,3.63,23.81,23.81,0,0,0,1.4,2.32c15.7-14.59,36.14-35.08,49-53.84,1.11-1.61,2.9-.87,2.1.87A317.93,317.93,0,0,1,138.3,112.4a30.59,30.59,0,0,0,3.39,1.23c9.45,2.87,20,1.6,31.45-5.44a60.31,60.31,0,0,0,24.79-31C209,46.67,212.08,0,212.08,0Q203.62,3.81,195.94,7.46Z"/>
      <g>
        <path class="cls-1" d="M241,52.31V65.56h-9.84V29.16H243.1q14.84,0,14.84,10.75,0,6.33-6.18,9.79l10.61,15.86H251.22L243.5,52.31Zm0-7.39h1.84c3.44,0,5.15-1.52,5.15-4.56,0-2.5-1.68-3.76-5.05-3.76H241Z"/>
        <path class="cls-1" d="M287.3,65.56H265.69V29.16H287.3v7.89H275.52v5.73h10.91v7.89H275.52v6.87H287.3Z"/>
        <path class="cls-1" d="M326.47,65.56H315.09L308,54.18l-7,11.38H289.84l12.08-18.62L290.56,29.16h10.91L308,40.41l6.33-11.25H325.6L314.07,47.71Z"/>
      </g>
      <g>
        <path class="cls-1" d="M102.81,165.89v6.23H98.18V155h5.61q7,0,7,5.06a5.05,5.05,0,0,1-2.9,4.61l5,7.46h-5.25L104,165.89Zm0-3.48h.86c1.62,0,2.43-.72,2.43-2.15,0-1.17-.79-1.76-2.38-1.76h-.91Z"/>
        <path class="cls-1" d="M124.59,172.12H114.42V155h10.17v3.72h-5.54v2.69h5.13v3.72h-5.13v3.23h5.54Z"/>
        <path class="cls-1" d="M135.22,158.54a3,3,0,0,0-2.58,1.36,6.49,6.49,0,0,0-.92,3.73c0,3.3,1.25,4.94,3.76,4.94a7.7,7.7,0,0,0,2.2-.31c.71-.21,1.43-.47,2.15-.76v3.91a11.94,11.94,0,0,1-4.86,1,7.67,7.67,0,0,1-5.94-2.25Q127,167.86,127,163.6a10.32,10.32,0,0,1,1-4.67,7.2,7.2,0,0,1,2.88-3.1,8.76,8.76,0,0,1,4.43-1.08,12.27,12.27,0,0,1,5.31,1.2l-1.42,3.65a15.58,15.58,0,0,0-1.9-.75A6.41,6.41,0,0,0,135.22,158.54Z"/>
        <path class="cls-1" d="M149.28,161.34l3-6.35h5l-5.64,10.44v6.69H147v-6.55L141.31,155h5Z"/>
        <path class="cls-1" d="M166.73,158.54a3,3,0,0,0-2.58,1.36,6.57,6.57,0,0,0-.92,3.73c0,3.3,1.25,4.94,3.76,4.94a7.7,7.7,0,0,0,2.2-.31c.71-.21,1.43-.47,2.15-.76v3.91a11.92,11.92,0,0,1-4.85,1,7.68,7.68,0,0,1-6-2.25q-2.07-2.25-2.07-6.51a10.32,10.32,0,0,1,1-4.67,7.2,7.2,0,0,1,2.88-3.1,8.76,8.76,0,0,1,4.43-1.08,12.27,12.27,0,0,1,5.31,1.2l-1.42,3.65a15,15,0,0,0-1.9-.75A6.41,6.41,0,0,0,166.73,158.54Z"/>
        <path class="cls-1" d="M174.68,172.12V155h4.63v13.4h6.59v3.73Z"/>
        <path class="cls-1" d="M188.65,172.12V155h4.65v17.13Z"/>
        <path class="cls-1" d="M213.31,172.12h-6.07L201,160.05h-.11c.15,1.9.22,3.35.22,4.35v7.72H197V155h6.05l6.23,11.91h.07c-.11-1.73-.16-3.12-.16-4.16V155h4.12Z"/>
        <path class="cls-1" d="M223.9,162.09h7.39v9.24a20.52,20.52,0,0,1-6.62,1,8,8,0,0,1-6.12-2.3q-2.18-2.3-2.17-6.55a8.62,8.62,0,0,1,2.37-6.46,9.09,9.09,0,0,1,6.63-2.3,15,15,0,0,1,3.06.3,13,13,0,0,1,2.5.77l-1.47,3.64a9,9,0,0,0-4.06-.92,3.88,3.88,0,0,0-3.14,1.32,7.1,7.1,0,0,0-.1,7.43,3.48,3.48,0,0,0,2.89,1.26,8.72,8.72,0,0,0,1.9-.2v-2.68H223.9Z"/>
        <path class="cls-1" d="M251.19,172.12H241V155h10.17v3.72h-5.54v2.69h5.13v3.72h-5.13v3.23h5.54Z"/>
        <path class="cls-1" d="M269.62,172.12h-5.35l-3.34-5.35-3.31,5.35h-5.24l5.69-8.76L252.72,155h5.14l3.09,5.3,3-5.3h5.28l-5.42,8.73Z"/>
        <path class="cls-1" d="M284,160.44a5.79,5.79,0,0,1-1.69,4.44,6.87,6.87,0,0,1-4.82,1.56h-1.3v5.68h-4.63V155h5.93a7.23,7.23,0,0,1,4.88,1.42A5,5,0,0,1,284,160.44Zm-7.81,2.23H277a2.32,2.32,0,0,0,1.66-.59,2.13,2.13,0,0,0,.61-1.62c0-1.15-.64-1.73-1.92-1.73h-1.2Z"/>
        <path class="cls-1" d="M291.34,165.89v6.23h-4.63V155h5.61q7,0,7,5.06a5.06,5.06,0,0,1-2.91,4.61l5,7.46h-5.25l-3.63-6.23Zm0-3.48h.87c1.61,0,2.42-.72,2.42-2.15,0-1.17-.79-1.76-2.38-1.76h-.91Z"/>
        <path class="cls-1" d="M313.12,172.12H303V155h10.17v3.72h-5.54v2.69h5.13v3.72h-5.13v3.23h5.54Z"/>
        <path class="cls-1" d="M327.33,166.92a5,5,0,0,1-.81,2.83,5.24,5.24,0,0,1-2.33,1.92,8.63,8.63,0,0,1-3.58.69,14.44,14.44,0,0,1-2.87-.24,10.52,10.52,0,0,1-2.41-.84v-4.12a14.34,14.34,0,0,0,2.75,1.06,10.43,10.43,0,0,0,2.63.38,2.54,2.54,0,0,0,1.51-.36,1.11,1.11,0,0,0,.48-.92,1,1,0,0,0-.2-.62,2.14,2.14,0,0,0-.62-.53,23.13,23.13,0,0,0-2.28-1.1,11,11,0,0,1-2.51-1.48,4.44,4.44,0,0,1-1.24-1.64,5.42,5.42,0,0,1-.41-2.19,4.38,4.38,0,0,1,1.73-3.69,7.58,7.58,0,0,1,4.73-1.32,13.34,13.34,0,0,1,5.43,1.23l-1.42,3.57a10.36,10.36,0,0,0-4.15-1.1,2.16,2.16,0,0,0-1.31.31,1,1,0,0,0-.41.79,1.11,1.11,0,0,0,.52.9,20,20,0,0,0,2.83,1.46,7.71,7.71,0,0,1,3.07,2.13A4.63,4.63,0,0,1,327.33,166.92Z"/>
        <path class="cls-1" d="M341.18,166.92a5,5,0,0,1-.81,2.83,5.24,5.24,0,0,1-2.33,1.92,8.63,8.63,0,0,1-3.58.69,14.51,14.51,0,0,1-2.87-.24,10.52,10.52,0,0,1-2.41-.84v-4.12a14.34,14.34,0,0,0,2.75,1.06,10.43,10.43,0,0,0,2.63.38,2.54,2.54,0,0,0,1.51-.36,1.12,1.12,0,0,0,.29-1.54,2.36,2.36,0,0,0-.63-.53,23.72,23.72,0,0,0-2.27-1.1,10.92,10.92,0,0,1-2.52-1.48A4.44,4.44,0,0,1,329.7,162a5.42,5.42,0,0,1-.41-2.19,4.38,4.38,0,0,1,1.73-3.69,7.6,7.6,0,0,1,4.73-1.32,13.31,13.31,0,0,1,5.43,1.23l-1.42,3.57a10.32,10.32,0,0,0-4.15-1.1,2.16,2.16,0,0,0-1.31.31,1,1,0,0,0-.41.79,1.11,1.11,0,0,0,.52.9,20,20,0,0,0,2.83,1.46,7.84,7.84,0,0,1,3.08,2.13A4.69,4.69,0,0,1,341.18,166.92Z"/>
      </g>
      <g>
        <path class="cls-1" d="M0,196H2.44a4.79,4.79,0,0,1,2.43.47A1.67,1.67,0,0,1,5.62,198a1.89,1.89,0,0,1-.33,1.15,1.31,1.31,0,0,1-.87.54v.06a1.75,1.75,0,0,1,1.07.62,2,2,0,0,1,.33,1.21,2,2,0,0,1-.77,1.68,3.37,3.37,0,0,1-2.11.6H0Zm1.67,3.11h1a1.76,1.76,0,0,0,1-.21.79.79,0,0,0,.31-.69.69.69,0,0,0-.34-.65,2.07,2.07,0,0,0-1-.2H1.67Zm0,1.32v2.05H2.75a1.59,1.59,0,0,0,1-.27,1,1,0,0,0,.32-.8c0-.65-.46-1-1.39-1Z"/>
        <path class="cls-1" d="M9.83,199.22,11.47,196h1.8l-2.61,4.79v3.06H9v-3L6.4,196H8.21Z"/>
        <path class="cls-1" d="M21.75,201.66a2,2,0,0,1-.77,1.68,3.37,3.37,0,0,1-2.13.61,5,5,0,0,1-2.22-.47v-1.55a9.41,9.41,0,0,0,1.34.5,3.88,3.88,0,0,0,1,.14,1.41,1.41,0,0,0,.84-.21.69.69,0,0,0,.29-.62.73.73,0,0,0-.12-.41,1.87,1.87,0,0,0-.38-.35c-.17-.11-.51-.28-1-.53a4.55,4.55,0,0,1-1.08-.65,2.45,2.45,0,0,1-.57-.72,2,2,0,0,1-.22-1,2,2,0,0,1,.71-1.64,2.91,2.91,0,0,1,1.95-.59,4.47,4.47,0,0,1,1.17.14,7.72,7.72,0,0,1,1.16.41l-.54,1.29a8.19,8.19,0,0,0-1-.36,3.73,3.73,0,0,0-.8-.1,1.12,1.12,0,0,0-.73.22.73.73,0,0,0-.25.58.7.7,0,0,0,.1.38,1.21,1.21,0,0,0,.32.32,11.57,11.57,0,0,0,1.06.55,4.24,4.24,0,0,1,1.51,1.05A2.1,2.1,0,0,1,21.75,201.66Z"/>
        <path class="cls-1" d="M29.56,196v5.08a3,3,0,0,1-.39,1.53,2.54,2.54,0,0,1-1.12,1,4.06,4.06,0,0,1-1.74.35,3.3,3.3,0,0,1-2.35-.78,2.73,2.73,0,0,1-.84-2.12V196h1.66v4.81a2,2,0,0,0,.36,1.33,1.54,1.54,0,0,0,1.21.42,1.51,1.51,0,0,0,1.19-.42,2.09,2.09,0,0,0,.36-1.35V196Z"/>
        <path class="cls-1" d="M34.81,203.84l-1.89-6.16h-.05c.07,1.25.1,2.09.1,2.51v3.65H31.49V196h2.26l1.86,6h0l2-6h2.27v7.85H38.33v-3.72c0-.17,0-.37,0-.6s0-.84.07-1.83h0l-2,6.15Z"/>
        <path class="cls-1" d="M46.38,203.84H41.86V196h4.52v1.36H43.52v1.73h2.66v1.36H43.52v2h2.86Z"/>
        <path class="cls-1" d="M54.53,199.84a3.86,3.86,0,0,1-1.1,3,4.5,4.5,0,0,1-3.19,1H48V196h2.46a4.19,4.19,0,0,1,3,1A3.75,3.75,0,0,1,54.53,199.84Zm-1.73,0c0-1.68-.74-2.53-2.23-2.53h-.89v5.12h.72C52,202.47,52.8,201.61,52.8,199.88Z"/>
        <path class="cls-1" d="M62.59,203.84H60.94v-3.39H57.83v3.39H56.16V196h1.67v3.08h3.11V196h1.65Z"/>
        <path class="cls-1" d="M69.38,203.84,68.81,202H66l-.57,1.87H63.59L66.36,196h2l2.78,7.88Zm-1-3.26c-.53-1.7-.83-2.66-.89-2.88a4.24,4.24,0,0,1-.14-.52c-.12.45-.46,1.59-1,3.4Z"/>
        <path class="cls-1" d="M81.54,199.84a3.86,3.86,0,0,1-1.11,3,4.46,4.46,0,0,1-3.18,1H75V196h2.47a4.19,4.19,0,0,1,3,1A3.79,3.79,0,0,1,81.54,199.84Zm-1.73,0c0-1.68-.75-2.53-2.24-2.53h-.88v5.12h.71C79,202.47,79.81,201.61,79.81,199.88Z"/>
        <path class="cls-1" d="M85.48,200.83a8.3,8.3,0,0,1,.41-2.67,6.74,6.74,0,0,1,1.2-2.17h1.35a7.65,7.65,0,0,0-1.15,2.28,8.4,8.4,0,0,0,0,5.09,7.73,7.73,0,0,0,1.12,2.22H87.09a6.54,6.54,0,0,1-1.2-2.13A8,8,0,0,1,85.48,200.83Z"/>
        <path class="cls-1" d="M94.39,201.66a2,2,0,0,1-.77,1.68,3.37,3.37,0,0,1-2.13.61,5,5,0,0,1-2.22-.47v-1.55a9.41,9.41,0,0,0,1.34.5,3.88,3.88,0,0,0,1,.14,1.41,1.41,0,0,0,.84-.21.69.69,0,0,0,.29-.62.67.67,0,0,0-.13-.41,1.57,1.57,0,0,0-.37-.35c-.17-.11-.51-.28-1-.53a4.55,4.55,0,0,1-1.08-.65,2.66,2.66,0,0,1-.58-.72,2.13,2.13,0,0,1-.21-1,2,2,0,0,1,.71-1.64,2.91,2.91,0,0,1,2-.59,4.47,4.47,0,0,1,1.17.14,8.12,8.12,0,0,1,1.16.41l-.54,1.29a8.19,8.19,0,0,0-1-.36,3.74,3.74,0,0,0-.81-.1,1.1,1.1,0,0,0-.72.22.73.73,0,0,0-.25.58.7.7,0,0,0,.1.38,1.08,1.08,0,0,0,.32.32,11.57,11.57,0,0,0,1.06.55A4.24,4.24,0,0,1,94,200.36,2.1,2.1,0,0,1,94.39,201.66Z"/>
        <path class="cls-1" d="M102.32,199.84a3.86,3.86,0,0,1-1.1,3,4.48,4.48,0,0,1-3.19,1H95.81V196h2.46a4.18,4.18,0,0,1,3,1A3.75,3.75,0,0,1,102.32,199.84Zm-1.72,0c0-1.68-.75-2.53-2.24-2.53h-.89v5.12h.72C99.79,202.47,100.6,201.61,100.6,199.88Z"/>
        <path class="cls-1" d="M111.08,199.9a4.25,4.25,0,0,1-1,3,4.18,4.18,0,0,1-5.54,0,4.3,4.3,0,0,1-1-3,4.25,4.25,0,0,1,1-3,3.64,3.64,0,0,1,2.78-1,3.56,3.56,0,0,1,2.77,1A4.25,4.25,0,0,1,111.08,199.9Zm-5.73,0a3.34,3.34,0,0,0,.5,2,1.75,1.75,0,0,0,1.49.66c1.33,0,2-.88,2-2.65s-.66-2.65-2-2.65a1.76,1.76,0,0,0-1.5.67A3.32,3.32,0,0,0,105.35,199.9Z"/>
        <path class="cls-1" d="M116,203.84l-1.89-6.16h0c.07,1.25.1,2.09.1,2.51v3.65h-1.48V196H115l1.86,6h0l2-6h2.26v7.85h-1.55v-3.72c0-.17,0-.37,0-.6s0-.84.07-1.83h0l-2,6.15Z"/>
        <path class="cls-1" d="M128,199.34a5.21,5.21,0,0,1-1,3.46,3.66,3.66,0,0,1-3,1.15,5.55,5.55,0,0,1-1.06-.08v-1.33a3.69,3.69,0,0,0,1,.11,3.4,3.4,0,0,0,1.37-.24,1.7,1.7,0,0,0,.82-.77,3.4,3.4,0,0,0,.33-1.44h-.07a1.81,1.81,0,0,1-.72.71,2.34,2.34,0,0,1-1,.2,2,2,0,0,1-1.61-.66,2.58,2.58,0,0,1-.6-1.82,2.72,2.72,0,0,1,.72-2,2.6,2.6,0,0,1,2-.73,2.78,2.78,0,0,1,1.53.41,2.59,2.59,0,0,1,1,1.18A4.52,4.52,0,0,1,128,199.34Zm-2.84-2.11a1,1,0,0,0-.81.35,1.62,1.62,0,0,0-.29,1,1.48,1.48,0,0,0,.26.9,1,1,0,0,0,.8.33,1.24,1.24,0,0,0,.87-.33,1,1,0,0,0,.36-.76,1.68,1.68,0,0,0-.34-1.08A1,1,0,0,0,125.15,197.23Z"/>
        <path class="cls-1" d="M134.3,203.84h-5.49v-1.15l2-2a15.32,15.32,0,0,0,1.14-1.24,2.68,2.68,0,0,0,.39-.64,1.62,1.62,0,0,0,.12-.61.92.92,0,0,0-.26-.71,1,1,0,0,0-.7-.23,2,2,0,0,0-.88.21,4.4,4.4,0,0,0-.9.6l-.9-1.07a6,6,0,0,1,1-.7,3.16,3.16,0,0,1,.83-.31,4,4,0,0,1,1-.11,3.11,3.11,0,0,1,1.3.26,2,2,0,0,1,1.19,1.86,2.68,2.68,0,0,1-.19,1,4.32,4.32,0,0,1-.59,1,16.24,16.24,0,0,1-1.41,1.42l-1,1v.08h3.42Z"/>
        <path class="cls-1" d="M138,198.82a2.55,2.55,0,0,1,1.81.64,2.3,2.3,0,0,1,.67,1.75,2.55,2.55,0,0,1-.81,2,3.42,3.42,0,0,1-2.32.71,4.55,4.55,0,0,1-2.11-.42v-1.44a4.62,4.62,0,0,0,2.05.51c1,0,1.52-.41,1.52-1.24s-.52-1.19-1.57-1.19a5,5,0,0,0-.63.05,3.62,3.62,0,0,0-.56.13l-.66-.36.3-4h4.26v1.41h-2.81l-.14,1.54.18,0A3.72,3.72,0,0,1,138,198.82Z"/>
        <path class="cls-1" d="M146.55,197.75a1.85,1.85,0,0,1-.45,1.25,2.3,2.3,0,0,1-1.25.71v0a2.45,2.45,0,0,1,1.44.58,1.58,1.58,0,0,1,.49,1.23,2.09,2.09,0,0,1-.82,1.77,3.8,3.8,0,0,1-2.35.63,5.69,5.69,0,0,1-2.26-.42v-1.42a4.72,4.72,0,0,0,1,.38,4.59,4.59,0,0,0,1.09.14,2.08,2.08,0,0,0,1.21-.28,1,1,0,0,0,.39-.89.82.82,0,0,0-.45-.79,3.4,3.4,0,0,0-1.44-.23h-.6v-1.27h.61a2.86,2.86,0,0,0,1.34-.24.86.86,0,0,0,.42-.82c0-.59-.38-.89-1.12-.89a2.47,2.47,0,0,0-.79.13,3.83,3.83,0,0,0-.89.44l-.76-1.14a4.22,4.22,0,0,1,2.56-.77,3.29,3.29,0,0,1,1.92.49A1.6,1.6,0,0,1,146.55,197.75Z"/>
        <path class="cls-1" d="M150.49,200.83a8.28,8.28,0,0,1-.41,2.63,6.39,6.39,0,0,1-1.2,2.12h-1.34a7.82,7.82,0,0,0,1.13-2.21,8.64,8.64,0,0,0,0-5.1,7.65,7.65,0,0,0-1.15-2.28h1.35a6.79,6.79,0,0,1,1.2,2.18A8.56,8.56,0,0,1,150.49,200.83Z"/>
        <path class="cls-1" d="M153.4,202.69a16.54,16.54,0,0,1-1,2.57h-1.18c.23-.95.42-1.85.54-2.7h1.51Z"/>
        <path class="cls-1" d="M162.78,203.84l-.57-1.87h-2.87l-.57,1.87H157l2.77-7.88h2l2.78,7.88Zm-1-3.26c-.53-1.7-.82-2.66-.89-2.88s-.11-.4-.14-.52c-.12.45-.46,1.59-1,3.4Z"/>
        <path class="cls-1" d="M165.56,203.84V196h1.66v6.48h3.19v1.37Z"/>
        <path class="cls-1" d="M176.58,203.84,176,202h-2.86l-.57,1.87h-1.8l2.78-7.88h2l2.78,7.88Zm-1-3.26c-.52-1.7-.82-2.66-.89-2.88l-.14-.52c-.12.45-.45,1.59-1,3.4Z"/>
        <path class="cls-1" d="M186.33,203.84h-2.12l-3.41-5.94h-.05c.07,1,.1,1.8.1,2.25v3.69h-1.49V196h2.1l3.41,5.88h0c0-1-.08-1.74-.08-2.16V196h1.5Z"/>
        <path class="cls-1" d="M195.27,203.84h-2.11l-3.42-5.94h-.05c.07,1,.1,1.8.1,2.25v3.69h-1.48V196h2.1l3.41,5.88h0c0-1-.08-1.74-.08-2.16V196h1.5Z"/>
        <path class="cls-1" d="M202.06,203.84l-.57-1.87h-2.87l-.57,1.87h-1.79L199,196h2l2.78,7.88Zm-1-3.26c-.53-1.7-.82-2.66-.89-2.88s-.11-.4-.14-.52c-.12.45-.46,1.59-1,3.4Z"/>
        <path class="cls-1" d="M211.27,203.84h-1.66v-3.39H206.5v3.39h-1.66V196h1.66v3.08h3.11V196h1.66Z"/>
        <path class="cls-1" d="M217.75,203.84h-1.64V196h4.5v1.36h-2.86v2h2.66v1.36h-2.66Z"/>
        <path class="cls-1" d="M224.46,200.83a8.58,8.58,0,0,1,.41-2.67,6.74,6.74,0,0,1,1.2-2.17h1.35a7.65,7.65,0,0,0-1.15,2.28,8.7,8.7,0,0,0-.38,2.55,8.32,8.32,0,0,0,.39,2.54,7.5,7.5,0,0,0,1.13,2.22h-1.34a6.54,6.54,0,0,1-1.2-2.13A8.27,8.27,0,0,1,224.46,200.83Z"/>
        <path class="cls-1" d="M233.54,203.84,233,202h-2.86l-.57,1.87h-1.79l2.77-7.88h2l2.78,7.88Zm-1-3.26c-.52-1.7-.82-2.66-.89-2.88l-.14-.52c-.12.45-.46,1.59-1,3.4Z"/>
        <path class="cls-1" d="M238,203.84h-1.64V196h4.5v1.36H238v2h2.67v1.36H238Z"/>
        <path class="cls-1" d="M244,200.83v3h-1.66V196h2.29a3.94,3.94,0,0,1,2.37.58,2.08,2.08,0,0,1,.76,1.77,2,2,0,0,1-.38,1.23,2.45,2.45,0,0,1-1.08.85q1.77,2.66,2.31,3.42h-1.84l-1.88-3Zm0-1.36h.54a2,2,0,0,0,1.17-.26.93.93,0,0,0,.37-.83.87.87,0,0,0-.38-.79,2.3,2.3,0,0,0-1.19-.24H244Z"/>
        <path class="cls-1" d="M254.43,203.84l-.57-1.87H251l-.57,1.87h-1.8L251.4,196h2l2.78,7.88Zm-1-3.26c-.52-1.7-.82-2.66-.89-2.88l-.14-.52c-.12.45-.46,1.59-1,3.4Z"/>
        <path class="cls-1" d="M262.12,199.34a5.21,5.21,0,0,1-1,3.46,3.66,3.66,0,0,1-3,1.15,5.55,5.55,0,0,1-1.06-.08v-1.33a3.69,3.69,0,0,0,.95.11,3.4,3.4,0,0,0,1.37-.24,1.7,1.7,0,0,0,.82-.77,3.4,3.4,0,0,0,.33-1.44h-.07a1.75,1.75,0,0,1-.72.71,2.34,2.34,0,0,1-1,.2,2,2,0,0,1-1.61-.66,2.57,2.57,0,0,1-.59-1.82,2.76,2.76,0,0,1,.71-2,2.61,2.61,0,0,1,2-.73,2.75,2.75,0,0,1,1.52.41,2.59,2.59,0,0,1,1,1.18A4.52,4.52,0,0,1,262.12,199.34Zm-2.84-2.11a1,1,0,0,0-.81.35,1.62,1.62,0,0,0-.29,1,1.42,1.42,0,0,0,.27.9,1,1,0,0,0,.8.33,1.23,1.23,0,0,0,.86-.33,1,1,0,0,0,.36-.76,1.68,1.68,0,0,0-.34-1.08A1,1,0,0,0,259.28,197.23Z"/>
        <path class="cls-1" d="M268.43,203.84h-5.49v-1.15l2-2a16.1,16.1,0,0,0,1.15-1.24,2.61,2.61,0,0,0,.38-.64,1.62,1.62,0,0,0,.12-.61.92.92,0,0,0-.26-.71,1,1,0,0,0-.69-.23,2,2,0,0,0-.89.21,4.4,4.4,0,0,0-.9.6l-.9-1.07a6.5,6.5,0,0,1,1-.7,3.3,3.3,0,0,1,.83-.31,4,4,0,0,1,1-.11,3.11,3.11,0,0,1,1.3.26,2,2,0,0,1,.88.76,2,2,0,0,1,.31,1.1,2.68,2.68,0,0,1-.19,1,4,4,0,0,1-.59,1,16.24,16.24,0,0,1-1.41,1.42l-1,1v.08h3.42Z"/>
        <path class="cls-1" d="M273.32,203.84h-1.65v-5.29l0-.82c-.28.28-.47.46-.58.55l-.9.72-.8-1,2.53-2h1.36Z"/>
        <path class="cls-1" d="M280.68,197.75a1.89,1.89,0,0,1-.44,1.25,2.38,2.38,0,0,1-1.25.71v0a2.45,2.45,0,0,1,1.43.58,1.58,1.58,0,0,1,.49,1.23,2.09,2.09,0,0,1-.82,1.77,3.79,3.79,0,0,1-2.34.63,5.74,5.74,0,0,1-2.27-.42v-1.42a4.94,4.94,0,0,0,1,.38,4.59,4.59,0,0,0,1.09.14,2.06,2.06,0,0,0,1.21-.28,1,1,0,0,0,.39-.89.82.82,0,0,0-.45-.79,3.4,3.4,0,0,0-1.44-.23h-.59v-1.27h.6a2.83,2.83,0,0,0,1.34-.24.86.86,0,0,0,.42-.82c0-.59-.37-.89-1.12-.89a2.36,2.36,0,0,0-.78.13,3.48,3.48,0,0,0-.89.44l-.77-1.14a4.24,4.24,0,0,1,2.56-.77,3.32,3.32,0,0,1,1.93.49A1.59,1.59,0,0,1,280.68,197.75Z"/>
        <path class="cls-1" d="M284.63,200.83a8,8,0,0,1-.42,2.63,6.39,6.39,0,0,1-1.2,2.12h-1.33a7.8,7.8,0,0,0,1.12-2.21,8.43,8.43,0,0,0,0-5.1,7.86,7.86,0,0,0-1.14-2.28H283a6.43,6.43,0,0,1,1.2,2.18A8.28,8.28,0,0,1,284.63,200.83Z"/>
        <path class="cls-1" d="M296.17,203.84h-2l-.62-.61a3.94,3.94,0,0,1-2.32.72,3.3,3.3,0,0,1-2.08-.6,2,2,0,0,1-.77-1.63,2.26,2.26,0,0,1,.33-1.25,3.1,3.1,0,0,1,1.11-1,3.73,3.73,0,0,1-.58-.89,2.29,2.29,0,0,1-.18-.92,1.58,1.58,0,0,1,.62-1.31,2.58,2.58,0,0,1,1.67-.5,2.54,2.54,0,0,1,1.6.46,1.5,1.5,0,0,1,.6,1.24,2,2,0,0,1-.37,1.17,3.67,3.67,0,0,1-1.2,1l1.53,1.49a7,7,0,0,0,.66-1.62h1.71a8.4,8.4,0,0,1-.53,1.42,7.26,7.26,0,0,1-.77,1.22Zm-6.08-2.28a.89.89,0,0,0,.34.74,1.43,1.43,0,0,0,.89.27,2.36,2.36,0,0,0,1.22-.32l-1.78-1.78a2.3,2.3,0,0,0-.49.5A1,1,0,0,0,290.09,201.56Zm1.93-3.8a.56.56,0,0,0-.2-.45.74.74,0,0,0-.5-.17.8.8,0,0,0-.56.18.57.57,0,0,0-.21.48,1.65,1.65,0,0,0,.51,1,3.44,3.44,0,0,0,.71-.51A.83.83,0,0,0,292,197.76Z"/>
        <path class="cls-1" d="M306.34,203.84h-1.89l-2.06-3.31-.71.51v2.8H300V196h1.66v3.59l.66-.92,2.13-2.67h1.84l-2.73,3.47Z"/>
        <path class="cls-1" d="M313.76,203.84H312.1v-3.39H309v3.39h-1.67V196H309v3.08h3.11V196h1.66Z"/>
        <path class="cls-1" d="M320.55,203.84,320,202h-2.86l-.57,1.87h-1.8l2.77-7.88h2l2.78,7.88Zm-1-3.26c-.52-1.7-.82-2.66-.89-2.88l-.14-.52c-.12.45-.46,1.59-1,3.4Z"/>
        <path class="cls-1" d="M327.81,196h1.68l-2.67,7.85H325L322.34,196H324l1.48,4.67c.08.28.17.6.26,1s.14.62.16.76a13.79,13.79,0,0,1,.4-1.73Z"/>
        <path class="cls-1" d="M335,203.84h-4.52V196H335v1.36h-2.86v1.73h2.66v1.36h-2.66v2H335Z"/>
        <path class="cls-1" d="M341.16,203.84h-4.52V196h4.52v1.36H338.3v1.73H341v1.36H338.3v2h2.86Z"/>
        <path class="cls-1" d="M344.46,200.83v3H342.8V196h2.29a3.92,3.92,0,0,1,2.37.58,2.08,2.08,0,0,1,.76,1.77,2,2,0,0,1-.38,1.23,2.45,2.45,0,0,1-1.08.85c1.19,1.77,1.95,2.91,2.31,3.42h-1.84l-1.88-3Zm0-1.36H345a2,2,0,0,0,1.17-.26.93.93,0,0,0,.37-.83.85.85,0,0,0-.38-.79,2.3,2.3,0,0,0-1.19-.24h-.51Z"/>
        <path class="cls-1" d="M359.89,203.84h-2.12l-3.42-5.94h-.05c.07,1,.11,1.8.11,2.25v3.69h-1.49V196H355l3.41,5.88h0c-.06-1-.08-1.74-.08-2.16V196h1.5Z"/>
        <path class="cls-1" d="M364.17,200.83a8.3,8.3,0,0,1,.42-2.67,6.74,6.74,0,0,1,1.2-2.17h1.34a7.86,7.86,0,0,0-1.14,2.28,8.39,8.39,0,0,0-.39,2.55,8,8,0,0,0,.4,2.54,7.48,7.48,0,0,0,1.12,2.22h-1.33a6.38,6.38,0,0,1-1.21-2.13A8.27,8.27,0,0,1,364.17,200.83Z"/>
        <path class="cls-1" d="M374.76,203.84h-1.89l-2.05-3.31-.71.51v2.8h-1.66V196h1.66v3.59l.66-.92,2.12-2.67h1.85L372,199.46Z"/>
        <path class="cls-1" d="M382.72,203.84H380.6l-3.41-5.94h-.05c.07,1,.1,1.8.1,2.25v3.69h-1.49V196h2.1l3.41,5.88h0c-.05-1-.08-1.74-.08-2.16V196h1.5Z"/>
        <path class="cls-1" d="M389.5,203.84l-.57-1.87h-2.86l-.57,1.87h-1.79l2.77-7.88h2l2.79,7.88Zm-1-3.26c-.52-1.7-.82-2.66-.88-2.88s-.12-.4-.15-.52c-.11.45-.45,1.59-1,3.4Z"/>
        <path class="cls-1" d="M394,200.83v3h-1.67V196h2.29a3.9,3.9,0,0,1,2.37.58,2.32,2.32,0,0,1,.39,3,2.57,2.57,0,0,1-1.08.85q1.77,2.66,2.31,3.42h-1.85l-1.88-3Zm0-1.36h.54a2,2,0,0,0,1.16-.26.94.94,0,0,0,.38-.83.85.85,0,0,0-.39-.79,2.28,2.28,0,0,0-1.19-.24H394Z"/>
        <path class="cls-1" d="M404.44,199.92a5.46,5.46,0,0,1-.67,3,2.34,2.34,0,0,1-2.08,1,2.3,2.3,0,0,1-2-1,5.4,5.4,0,0,1-.69-3,5.53,5.53,0,0,1,.67-3.07,2.6,2.6,0,0,1,4.12.05A5.42,5.42,0,0,1,404.44,199.92Zm-3.84,0a6.3,6.3,0,0,0,.25,2.07.88.88,0,0,0,1.68,0,8.37,8.37,0,0,0,0-4.14.87.87,0,0,0-.84-.63.85.85,0,0,0-.83.63A6,6,0,0,0,400.6,199.92Z"/>
        <path class="cls-1" d="M410.46,197.75A1.85,1.85,0,0,1,410,199a2.3,2.3,0,0,1-1.25.71v0a2.45,2.45,0,0,1,1.44.58,1.58,1.58,0,0,1,.49,1.23,2.09,2.09,0,0,1-.82,1.77,3.8,3.8,0,0,1-2.35.63,5.73,5.73,0,0,1-2.26-.42v-1.42a4.94,4.94,0,0,0,1,.38,4.57,4.57,0,0,0,1.08.14,2.09,2.09,0,0,0,1.22-.28,1,1,0,0,0,.39-.89.82.82,0,0,0-.45-.79,3.4,3.4,0,0,0-1.44-.23h-.6v-1.27h.61a2.83,2.83,0,0,0,1.34-.24.86.86,0,0,0,.42-.82c0-.59-.37-.89-1.12-.89a2.47,2.47,0,0,0-.79.13,3.83,3.83,0,0,0-.89.44l-.76-1.14a4.22,4.22,0,0,1,2.56-.77,3.29,3.29,0,0,1,1.92.49A1.6,1.6,0,0,1,410.46,197.75Z"/>
        <path class="cls-1" d="M417.22,202.21h-.94v1.63h-1.62v-1.63H411.3v-1.15l3.45-5.07h1.53v4.94h.94Zm-2.56-1.28v-1.34c0-.22,0-.54,0-1a6.56,6.56,0,0,1,.05-.74h-.05a5.66,5.66,0,0,1-.48.86l-1.44,2.18Z"/>
        <path class="cls-1" d="M423.5,202.21h-.94v1.63h-1.63v-1.63h-3.35v-1.15L421,196h1.53v4.94h.94Zm-2.57-1.28v-1.34q0-.33,0-1c0-.43,0-.67,0-.74h0a5.66,5.66,0,0,1-.48.86L419,200.93Z"/>
        <path class="cls-1" d="M427,200.83a8.28,8.28,0,0,1-.41,2.63,6.24,6.24,0,0,1-1.21,2.12H424a7.82,7.82,0,0,0,1.13-2.21,8.39,8.39,0,0,0,.39-2.55,8.7,8.7,0,0,0-.38-2.55A7.65,7.65,0,0,0,424,196h1.34a6.62,6.62,0,0,1,1.21,2.18A8.56,8.56,0,0,1,427,200.83Z"/>
      </g>
    </g>
  </g>
</svg>
