<?xml version="1.0" encoding="utf-8"?>
<!-- Generator: Adobe Illustrator 23.0.6, SVG Export Plug-In . SVG Version: 6.00 Build 0)  -->
<svg version="1.1" id="Layer_1" xmlns="http://www.w3.org/2000/svg" xmlns:xlink="http://www.w3.org/1999/xlink" x="0px" y="0px"
	 viewBox="0 0 235.28 235.28" style="enable-background:new 0 0 235.28 235.28;" xml:space="preserve">
<style type="text/css">
	.st0{opacity:0.55;fill:url(#SVGID_1_);}
	.st1{opacity:0.55;fill:url(#SVGID_2_);}
	.st2{opacity:0.55;fill:url(#SVGID_3_);}
	.st3{opacity:0.69;fill:#7F9CA3;}
	.st4{fill:#FFFFFF;}
	.st5{fill:#26B7D2;}
	.st6{opacity:0.8;fill:#2DCDAE;}
	.st7{fill:#FFCE41;}
	.st8{fill:#FFDB80;}
	.st9{fill:#2DCDAE;}
</style>
<g>
	
		<linearGradient id="SVGID_1_" gradientUnits="userSpaceOnUse" x1="126.8099" y1="114.1157" x2="262.3212" y2="126.7733" gradientTransform="matrix(6.123234e-17 1 -1 6.123234e-17 231.0651 3.2384)">
		<stop  offset="0" style="stop-color:#2DCDAE;stop-opacity:0.8"/>
		<stop  offset="1" style="stop-color:#26B7D2"/>
	</linearGradient>
	<path class="st0" d="M0.55,166.37c-0.63-4.44-0.96-9.04-0.95-13.75c0.05-16.82,2.53-32.4,6.5-46.61
		c57.85-2.3,137.92-16.08,149.17-73.68c10.36,11.61,22.69,26.04,39.42,42.75c20.16,20.14,31.88,44.06,37.12,66.39
		C202.79,148.98,80.59,178.51,0.55,166.37z"/>
	
		<linearGradient id="SVGID_2_" gradientUnits="userSpaceOnUse" x1="215.3253" y1="127.862" x2="12.6559" y2="64.5723" gradientTransform="matrix(6.123234e-17 1 -1 6.123234e-17 231.0651 3.2384)">
		<stop  offset="0" style="stop-color:#2DCDAE;stop-opacity:0.8"/>
		<stop  offset="1" style="stop-color:#26B7D2"/>
	</linearGradient>
	<path class="st1" d="M0.55,166.37c80.03,12.14,202.23-17.39,231.27-24.89c11.05,47.04-4.13,58.65-34.61,70.33
		c-29.21,11.19-64,1.11-100.53,17.54C53.96,248.56,7.66,216.61,0.55,166.37z"/>
	
		<linearGradient id="SVGID_3_" gradientUnits="userSpaceOnUse" x1="135.5173" y1="165.855" x2="-12.5626" y2="132.8669" gradientTransform="matrix(6.123234e-17 1 -1 6.123234e-17 231.0651 3.2384)">
		<stop  offset="0" style="stop-color:#2DCDAE;stop-opacity:0.8"/>
		<stop  offset="1" style="stop-color:#26B7D2"/>
	</linearGradient>
	<path class="st2" d="M6.11,106.01c9.16-32.75,26.26-58.17,39.81-74.42C58.99,15.92,75.8,4.95,94.31,1.22
		c26.28-5.27,39.24,6.73,60.97,31.11C144.04,89.93,63.96,103.71,6.11,106.01z"/>
</g>
<circle class="st3" cx="91.54" cy="129.76" r="77.89"/>
<path class="st4" d="M167.11,127.44c0,43.01-34.87,77.88-77.88,77.88c-15.68,0-30.28-4.63-42.49-12.61
	c-21.31-13.89-35.4-37.94-35.4-65.27c0-43.02,34.86-77.89,77.89-77.89c4.09,0,8.12,0.32,12.05,0.93c3.93,0.61,7.76,1.52,11.48,2.69
	c13.16,4.17,24.81,11.73,33.91,21.67c1.98,2.16,3.83,4.43,5.55,6.8C161.59,94.5,167.11,110.32,167.11,127.44z"/>
<path class="st5" d="M122.43,127.44c0,18.87-15.73,34.05-34.79,33.16c-17.01-0.79-30.81-14.59-31.59-31.6
	c-0.87-19.05,14.32-34.76,33.18-34.76c3.36,0,6.6,0.51,9.65,1.44c2.51,0.77,3.33,3.92,1.47,5.78l-8.61,8.62
	c-0.66,0.66-1.56,1.02-2.5,1.02c0,0-0.01,0-0.01,0c-9.63,0-17.32,8.34-16.24,18.19c0.81,7.36,6.64,13.34,13.98,14.32
	c7.98,1.07,15.03-3.62,17.57-10.52c0.26-0.72,0.69-1.37,1.23-1.91l7.54-7.54c3.33-3.33,9.1-1.03,9.12,3.68
	C122.43,127.36,122.43,127.4,122.43,127.44z"/>
<path class="st3" d="M152.22,81.64L103,130l-7.21,7.15c-1.12,1.16-2.74,1.69-4.33,1.42l-4.62-1.54l-0.49-0.16
	c-0.3,0.04-0.47-0.34-0.24-0.53l1.83-1.59l12.27-10.64c0.09-0.07,0.17-0.15,0.25-0.24l46.21-49.03
	C148.65,77,150.5,79.27,152.22,81.64z"/>
<path class="st6" d="M138.29,98.66L138.29,98.66c-2.39,2.39-3.06,5.98-1.76,9.1c2.61,6.25,4.01,13.14,3.92,20.36
	c-0.36,28.03-23.57,50.75-51.6,50.54c-28.42-0.21-51.34-23.56-50.83-52.15c0.48-27.36,22.77-49.72,50.14-50.29
	c8.64-0.18,16.8,1.79,24,5.4c3.2,1.6,7.06,0.99,9.58-1.54l0,0c4.01-4.01,2.89-10.75-2.17-13.29c-9.52-4.78-20.31-7.38-31.74-7.14
	c-36.5,0.74-66.09,30.71-66.39,67.22c-0.31,37.89,30.47,68.68,68.36,68.37c36.31-0.29,66.19-29.55,67.22-65.85
	c0.28-10.01-1.61-19.54-5.24-28.16C149.49,95.83,142.43,94.52,138.29,98.66z"/>
<path class="st7" d="M187.57,55.88L170.08,73.3c-0.29,0.29-0.68,0.45-1.09,0.43l-11.93-0.33l-8.89-0.26
	c-0.78-0.02-1.42-0.66-1.44-1.44l-0.06-1.99l4.75-4.73l7.41-13.96l7.84-14.76l0.43,15.14c0.02,0.78,0.66,1.41,1.44,1.44l18.01,0.52
	C187.85,53.39,188.48,54.97,187.57,55.88z"/>
<path class="st7" d="M162.13,67.14l-69.49,69.49c-2.08,2.09-5.49,2.09-7.58,0l-2.31-2.31c-0.16-0.16-0.31-0.34-0.45-0.51
	l63.36-63.36l8.08-14.25c1.99-0.95,4.45-0.6,6.1,1.05l2.3,2.31C164.22,61.64,164.22,65.05,162.13,67.14z"/>
<path class="st8" d="M166.66,36.25v0.01l-7.84,14.76l-8.65,15.2l-67.8,67.6c-1.74-2.24-1.58-5.5,0.48-7.55l63.61-63.42l-0.34-11.89
	c-0.01-0.41,0.15-0.81,0.43-1.09l17.47-17.42c0.92-0.93,2.5-0.3,2.54,1L166.66,36.25z"/>
<path class="st5" d="M94.56,20.96c-3.28,8.89,10.8,24.03,20.22,23.76c9.42-0.28,16.04-15.37,21.91-14.45
	c5.87,0.92,16.73-8.85,12.39-16.72c-4.34-7.87-14.77-10.47-23.91-2.57S101.48,2.22,94.56,20.96z"/>
<path class="st9" d="M223.21,204.4c-26.94-30.93-40.97-36.87-56.66-20.61c-0.5,0.52-0.96,1.09-1.38,1.7
	c-0.29,0.41-0.56,0.83-0.8,1.27c10.92,5.6,25.87,12.58,38.15,15.7c1.06,0.27,1.12,1.42,0.08,1.35c-9.32-0.65-23.9-2.55-40.16-7.9
	c0.03,0.72,0.11,1.43,0.21,2.14c0.86,5.85,4.01,11.43,10.21,16.27c6.28,4.9,13.78,7.31,21.17,7.15c17.61-0.35,41.24-8.54,41.24-8.54
	C230.68,211.88,228.51,210.26,223.21,204.4z"/>
</svg>
