<?xml version="1.0" encoding="utf-8"?>
<!-- Generator: Adobe Illustrator 23.0.6, SVG Export Plug-In . SVG Version: 6.00 Build 0)  -->
<svg version="1.1" id="Layer_1" xmlns="http://www.w3.org/2000/svg" xmlns:xlink="http://www.w3.org/1999/xlink" x="0px" y="0px"
	 viewBox="0 0 235.28 235.28" style="enable-background:new 0 0 235.28 235.28;" xml:space="preserve">
<style type="text/css">
	.st0{opacity:0.55;fill:url(#SVGID_1_);}
	.st1{opacity:0.55;fill:url(#SVGID_2_);}
	.st2{opacity:0.55;fill:url(#SVGID_3_);}
	.st3{fill:none;stroke:#2DCDAE;stroke-miterlimit:10;}
	.st4{fill:#827EF7;}
	.st5{opacity:0.8;fill:#2DCDAE;}
	.st6{fill:#3ECADD;}
	.st7{fill:#26B7D2;}
	.st8{fill:#ECD29D;}
	.st9{fill:#F2E1BE;}
	.st10{fill:#3D3D3D;}
	.st11{fill:#9C9CEF;}
	.st12{fill:#FFCE41;}
	.st13{fill:#2DCDAE;}
	.st14{opacity:0.8;fill:#7F9CA3;}
	.st15{opacity:0.56;fill:#3ECADD;}
	.st16{fill:#FFDB80;}
	.st17{opacity:0.56;fill:#827EF7;}
</style>
<g>
	<linearGradient id="SVGID_1_" gradientUnits="userSpaceOnUse" x1="129.7155" y1="150.2829" x2="-57.5574" y2="21.1878">
		<stop  offset="0" style="stop-color:#2DCDAE;stop-opacity:0.8"/>
		<stop  offset="1" style="stop-color:#26B7D2"/>
	</linearGradient>
	<path class="st0" d="M179.29,133.45c-1.42-1.11-2.85-2.22-4.3-3.34c-2.37-1.82-4.78-3.65-7.22-5.48c-0.25,2.67-1.18,5.03-3.3,6.86
		c-0.52,0.45-1.15,0.79-1.94,1.32c-0.05-1.14-0.07-2.01-0.12-2.87c-0.49-7.94-5.19-13.87-12.87-15.84c-0.14-0.04-0.28-0.07-0.42-0.1
		c0.57-0.58,1.12-1.17,1.66-1.76c-6.88-4.9-13.91-9.76-21-14.53c-0.25-0.18-0.5-0.35-0.76-0.51c-1.01-0.69-2.02-1.36-3.04-2.04
		c-1.26-0.84-2.53-1.68-3.79-2.52c-1.08-0.7-2.15-1.41-3.22-2.11c-2.54-1.66-5.07-3.31-7.61-4.94c-3.51-2.25-7.02-4.47-10.51-6.65
		c0,0,0,0-0.01,0c-3.69-2.31-7.35-4.58-11-6.79c-3.89-2.36-7.75-4.66-11.55-6.89c-1.22-0.72-2.43-1.42-3.64-2.12
		c-2.17-1.26-4.33-2.5-6.46-3.71c-1.81-1.02-3.6-2.03-5.37-3.02c-2.44-1.36-4.85-2.68-7.22-3.96C34.51,41.06,16.54,32.92,5.21,30.15
		c-5.62,9.12-6.28,21.07-3.93,34.22C2.52,71.29,4.6,78.56,7.22,85.9c24.18,32.68,89.37,96.88,129.17,121.38
		c6.33-6.22,12.67-12.99,19.44-19.65c8.7-8.56,19.45-14.24,28.91-18.69c8-3.75,15.07-6.61,19.2-9.57c1.17-0.83,2.29-1.65,3.38-2.47
		C199.05,149.38,189.57,141.48,179.29,133.45z M144.17,118.8c0.41,0.05,0.83,0.12,1.24,0.19c0.18,0.03,0.35,0.06,0.53,0.1
		c0.19,0.04,0.39,0.08,0.58,0.13c0.48,0.1,0.96,0.23,1.44,0.38c0.2,0.06,0.39,0.12,0.58,0.19c0.24,0.08,0.48,0.16,0.72,0.26
		c0.23,0.09,0.47,0.19,0.7,0.29c5.75,2.55,6.97,7.56,6.7,11.96c-0.05,0.81-0.38,0.97-1.12,0.76c-3.07-0.85-4.94,0.28-5.81,3.36
		c-0.32,1.15-0.77,2.29-1.32,3.34c-1.33,2.54-3.5,3.91-6.35,4.02c-3.62,0.14-7.11-0.56-10.37-2.16c-1.01-0.5-1.88-1.29-2.92-2.02
		c1.92-2.71,3.82-5.1,6.64-6.56c1.43-0.74,2.93-0.95,4.53-0.48c1.66,0.49,3.19-0.32,3.65-1.82c0.53-1.67-0.28-3.2-2.07-3.74
		c-0.88-0.26-1.76-0.44-2.62-0.5c-0.55-0.04-1.1-0.05-1.64,0c-0.53,0.03-1.05,0.11-1.56,0.23c-0.23,0.06-0.47,0.12-0.7,0.19
		c-0.06,0.02-0.12,0.04-0.17,0.06c-0.18,0.06-0.35,0.12-0.52,0.19c-0.29,0.1-0.57,0.23-0.85,0.37
		C137.35,124.7,140.91,121.78,144.17,118.8z"/>
	<linearGradient id="SVGID_2_" gradientUnits="userSpaceOnUse" x1="135.7372" y1="242.3043" x2="-12.6832" y2="124.2426">
		<stop  offset="0" style="stop-color:#2DCDAE;stop-opacity:0.8"/>
		<stop  offset="0.306" style="stop-color:#2BC7B8;stop-opacity:0.8579"/>
		<stop  offset="1" style="stop-color:#26B7D2"/>
	</linearGradient>
	<path class="st1" d="M136.39,207.28c-11.73,11.54-23.35,21.11-37.3,24.32c-45.19,10.43-56.35-3.89-67.57-32.66
		c-10.74-27.56-21.2-38-20.52-72.94c0.13-6.62-1.61-34.06-3.78-40.1C31.4,118.58,96.59,182.78,136.39,207.28z"/>
	<linearGradient id="SVGID_3_" gradientUnits="userSpaceOnUse" x1="87.5641" y1="17.1309" x2="204.0628" y2="190.2027">
		<stop  offset="0" style="stop-color:#2DCDAE;stop-opacity:0.8"/>
		<stop  offset="1" style="stop-color:#26B7D2"/>
	</linearGradient>
	<path class="st2" d="M233.83,101.83c-3.59-17.47-30.18-25.3-40.92-41.17c-1.37-2.03-2.78-4.21-4.22-6.51
		c-0.92-1.44-1.85-2.93-2.8-4.45c-15.11-24.3-34.53-56.65-61.12-47.78C107.73,7.6,65.15,12.5,49,12.45
		c-4.52-0.01-8.94,0.3-13.21,0.89c-15.64,2.17-25.3,8.24-30.58,16.81c11.33,2.77,29.3,10.91,50.39,22.3
		c2.37,1.28,4.78,2.6,7.22,3.96c1.77,0.99,3.56,2,5.37,3.02c2.13,1.21,4.29,2.45,6.46,3.71c1.21,0.7,2.42,1.4,3.64,2.12
		c3.8,2.23,7.66,4.53,11.55,6.89c3.65,2.21,7.31,4.48,11,6.79c0.01,0,0.01,0,0.01,0c3.49,2.18,7,4.4,10.51,6.65
		c2.54,1.63,5.07,3.28,7.61,4.94c1.07,0.7,2.14,1.41,3.22,2.11c1.26,0.84,2.53,1.68,3.79,2.52c1.02,0.68,2.03,1.35,3.04,2.04
		c0.26,0.16,0.51,0.33,0.76,0.51c7.09,4.77,14.12,9.63,21,14.53c8.96-9.67,15.11-19.78,19.29-29.51c0.04,0.02,0.08,0.03,0.12,0.05
		c0.43,0.17,0.85,0.36,1.27,0.55c3.4,1.54,6.63,3.45,9.92,5.22c0.35,0.2,0.73,0.58,0.84,0.95c2.66,8.95,1.09,16.99-5.28,23.96
		c-0.12,0.13-0.27,0.22-0.4,0.32c-4.51-1.96-6.39-6.75-4.49-11.39c0.3-0.74,0.69-1.45,1.05-2.17c0.79-1.59,0.34-3.22-1.13-4.02
		c-1.39-0.76-2.98-0.26-3.9,1.21c-4.58,7.35-3.11,15.15,3.83,20.35c0.35,0.26,0.7,0.53,1.32,1c-0.8,0.39-1.41,0.78-2.09,0.99
		c-2.14,0.64-3.19,1.87-3.3,4.14c-0.01,0.25-0.03,0.5-0.06,0.74c2.44,1.83,4.85,3.66,7.22,5.48c1.45,1.12,2.88,2.23,4.3,3.34
		c10.28,8.03,19.76,15.93,28.03,23.45C230.23,139.81,238.66,125.5,233.83,101.83z M176.91,79.6c-0.51-0.24-1.03-0.48-1.54-0.71
		c-0.02-0.01-0.04-0.02-0.06-0.03c-0.52-0.23-1.04-0.46-1.57-0.69c-0.52-0.23-1.06-0.45-1.59-0.67c3.12-8.55,4.79-16.66,5.61-23.77
		c0.15,0.07,0.3,0.15,0.44,0.23c0.14,0.08,0.27,0.16,0.4,0.25c0.03,0.02,0.05,0.04,0.08,0.06c0.12,0.08,0.24,0.17,0.35,0.27
		c0.14,0.1,0.27,0.22,0.39,0.34c0.15,0.15,0.3,0.31,0.44,0.47c0.09,0.1,0.17,0.2,0.25,0.31c0.11,0.15,0.22,0.3,0.33,0.46
		c0.19,0.29,0.37,0.6,0.52,0.92c0.15,0.33,0.29,0.67,0.41,1.03c0.06,0.17,0.12,0.36,0.16,0.54c0.27,1.01,0.36,2.09,0.25,3.19
		c-0.12,1.1-0.43,2.19-0.76,3.24c-0.67,2.18-0.16,3.82,1.7,5.14c4.16,2.94,5.1,9.33,2.14,13.2
		C182.16,82.13,179.54,80.83,176.91,79.6z"/>
</g>
<g>
	<g>
		<path class="st3" d="M282.45-80.35"/>
	</g>
</g>
<path class="st4" d="M736.89,47.63c0,58.15-0.06,116.31,0.03,174.46c0.03,20.53-7.2,36.65-26.5,45.93
	c-0.59,0.28-1.16,0.67-1.62,1.13c-14.1,14.09-32.06,18.33-51.01,19.68c-13.2,0.94-26.3,0.15-38.86-4.72
	c-18.64-7.22-30.01-21.02-35.55-39.8c-1.19-4.04-3.24-5.37-6.95-5.46c-31.7-0.78-54.28-27.98-56.32-58.2
	c-0.23-3.44-1.58-5.53-3.78-8.05c-4.43-5.08-8.28-10.73-11.91-16.43c-3.17-4.98-5.43-10.56-8.6-15.55
	c-21.46-33.75-25.05-69.5-12.16-107.09c1.06-3.09,0.94-5.44-0.47-8.38c-13.82-28.79-6.7-62.27,17.27-83.15
	c1.52-1.33,2.35-4.18,2.41-6.36c0.64-23.79,9.6-43.08,30.49-55.53c5.15-3.07,11.35-4.58,17.24-6.16c3.13-0.84,5.05-1.87,6.61-4.96
	c11.27-22.34,28.45-37.58,53.56-42.28c6.29-1.18,12.94-0.91,19.38-0.58c3.47,0.18,5.12-0.66,7.01-3.62
	c12.58-19.57,31.41-25.44,53.29-22.34c20.25,2.87,34.77,14.25,39.79,34.34c3.63,14.53,7.04,29.2,6.89,44.65
	C736.56-64.68,736.89-8.53,736.89,47.63z M533.88-65.09c1.74,0.1,3.04,0.13,4.33,0.24c13.83,1.16,24.85,7.09,32.09,19.2
	c7.2,12.03,8.71,25.4,8.36,39.02c-0.15,5.87-4.92,9.89-10.52,9.96c-5.83,0.07-10.36-4.05-10.91-10.15
	c-0.27-2.98,0.35-6.13-0.36-8.97c-1.72-6.85-3.06-14.08-6.4-20.13c-1.89-3.42-7.25-5.26-11.39-6.98c-3.87-1.6-7.31,0.16-10.03,3.41
	c-0.9,1.08-2.48,1.66-3.83,2.27c-6.52,2.97-11.18,7.87-14.1,14.26c-6.38,13.95-5.39,27.39,2.98,40.39c1.9,2.95,3.98,6.78,3.65,9.95
	c-0.58,5.51,1.97,8.8,5.29,12.14c6.52,6.57,14.53,9.84,23.66,10.47c11.91,0.83,23.1-2,34-6.56c6.19-2.59,12.11-0.1,14.5,5.68
	c2.29,5.54-0.07,11.14-5.99,14.01c-2.33,1.13-4.73,2.11-7.51,3.33c1.98,1.73,3.6,3.13,5.2,4.54c8.42,7.46,14.61,16.45,17.82,27.25
	c5.26,17.75,2.47,34.98-4.27,51.74c-2.14,5.33-8.15,7.52-13.4,5.62c-5.36-1.93-8.16-7.68-6.5-13.42c1.34-4.63,3.03-9.18,4.05-13.88
	c4.45-20.45-2.26-36.62-20.3-47.21c-6.66-3.91-14.06-7.02-21.51-9.04c-11.99-3.25-23.74-6.52-33.31-15.83
	c-0.52,1.69-0.99,2.72-1.15,3.79c-3.81,25.07,1.23,47.92,16.64,68.39c2.91,3.86,4.41,8.76,6.97,12.92c2.19,3.56,4.28,7.93,7.61,9.89
	c10.34,6.07,11.95,8.53,11.3,20.72c-1.08,20.29,8.83,38.32,36.08,36.66c0.22-0.45,0.5-0.88,0.64-1.35
	c7.92-25.74,24.33-43.11,50.29-51.14c1.28-0.4,2.72-1.4,3.37-2.53c6.66-11.63,12.04-23.8,13.53-37.28
	c1.2-10.86-1.9-19.76-12.56-24.82c-1.57-0.75-3.02-2.13-4.06-3.56c-2.93-4.01-2.58-9.15,0.6-12.95c3.38-4.03,8.56-4.83,14.04-2.16
	c18.16,8.85,27.08,27.94,22.7,50.19c-1.91,9.7-5.21,19.13-7.92,28.82c-0.03-0.01,0.41,0.19,0.88,0.3
	c7.19,1.75,10.82,6.06,10.1,12.01c-0.73,6.01-5.2,9.4-12.46,9.74c-4.65,0.22-9.35,0.39-13.92,1.19
	c-21.4,3.75-36.64,15.1-43.59,36.25c-0.53,1.63-0.66,3.58-0.34,5.26c0.74,3.88,2.21,7.63,2.79,11.53
	c2.5,16.84,10.49,26.55,25.68,28.96c7.64,1.21,15.64,1.19,23.37,0.53c6.74-0.58,13.34-2.84,20.01-4.35
	c-0.93-2.12-1.68-2.71-2.47-3.22c-12.4-7.96-18.42-19.78-20.38-33.96c-0.84-6.08,2.84-11.17,8.45-12.26
	c6.08-1.18,11.1,2.12,12.68,8.39c0.32,1.29,0.46,2.62,0.75,3.92c1.64,7.34,5.14,13.53,12.12,16.81c10.49,4.93,14.76,5.61,14.78-8.67
	c0.13-106.17,0.07-212.33,0.06-318.5c0-1.38-0.2-2.77-0.34-4.73c-1.96,1.88-3.37,3.27-4.83,4.61c-10.74,9.8-23.25,15.33-37.92,15.58
	c-7.43,0.13-12.46-4.1-12.55-10.52c-0.09-6.22,4.49-10.48,11.78-10.83c9.16-0.44,17.24-3.55,24.04-9.73
	c8.36-7.6,13.49-17.24,17.09-27.77c0.34-0.98,0.12-2.2-0.01-3.28c-0.38-3.11-1.15-6.19-1.25-9.3c-0.36-11.77-7.06-18.85-18.92-19.68
	c-12.89-0.91-20.41,4.7-22.41,16.7c-2.12,12.69-11.56,17.83-23.47,12.72c-7.08-3.03-14.35-4.22-21.95-2.54
	c-13.14,2.91-22.1,11.06-29.09,22.59c2.43,0.62,4.04,1,5.64,1.45c23.38,6.54,38.36,21.19,43.54,45.25
	c2.63,12.24,1.7,24.46,0.2,36.77c-1.32,10.87-2.68,21.87-2.34,32.76c0.5,16.25,9.4,23.77,25.53,23.21c3.63-0.13,7.25-0.9,10.84-1.6
	c6.13-1.19,11.85,2.03,13.27,7.66c1.47,5.81-1.64,11.41-7.83,13.06c-4.64,1.24-9.45,2.07-14.23,2.48
	c-24.57,2.12-43.14-11.32-47.82-35.52c-1.68-8.7-1.72-17.89-1.26-26.79c0.56-10.61,2.98-21.11,3.7-31.72
	c1.77-26.18-10.69-42.14-35.34-45.9c-1.61-0.25-3.39,0.49-5.08,0.82c-4.27,0.85-8.58,2.63-12.78,2.4
	c-8.35-0.47-15.1,1.99-20.43,8.26C536.38-81.5,533.8-74.09,533.88-65.09z"/>
<path class="st5" d="M749.96,47.53c0-58.82-0.1-117.63,0.14-176.45c0.03-6.69,2.04-13.38,3.12-20.07c0.48-2.94,0.92-5.88,1.39-8.82
	c4.48-27.91,27.06-45.29,55.18-42.73c17.73,1.62,31.8,8.98,41.04,24.67c0.62,1.06,2.58,2.02,3.82,1.91
	c35.75-3.19,59.77,13.52,75.72,44.22c0.7,1.35,2.48,2.86,3.9,3.01c25.04,2.67,49.3,26.83,49.52,61.84c0.02,3.69,1.08,5.94,3.9,8.34
	c22.49,19.13,29.25,53.44,16.02,81.26c-1.58,3.33-1.58,5.98-0.46,9.37c13.21,39.96,8.66,77.4-16.23,111.87
	c-0.96,1.33-2.02,2.73-2.49,4.26c-2.95,9.66-8.05,17.8-15.92,24.26c-1.13,0.93-1.53,3.13-1.67,4.8
	c-1.54,18.17-8.26,33.86-22.12,46.06c-9.58,8.44-20.87,12.94-33.64,13.43c-4.29,0.16-6.69,1.44-8.1,6.09
	c-8.01,26.45-27.36,41.56-56.28,43.88c-16.06,1.29-32.15,0.3-47.15-6.01c-7.37-3.1-13.86-8.33-20.73-12.62
	c-1.25-0.78-2.33-1.88-3.64-2.55c-17-8.67-25.14-22.92-25.26-41.59c-0.25-39.49-0.08-78.98-0.08-118.47
	C749.96,87.52,749.96,67.53,749.96,47.53z M976.24,10.13C985-5.8,977.99-28.9,961.01-37.45c-7.6-3.83-10.42-9.61-9.15-18
	c0.62-4.09,1.19-8.28,1-12.39c-0.62-13.37-9.19-24.99-19.96-27.79c-3.18-0.83-4.75-0.25-6.35,3.21
	c-4.04,8.71-8.29,17.46-13.69,25.35c-6.45,9.44-15.63,15.83-27.14,18.23c-15.67,3.28-29.17-2.26-41.92-10.53
	c-5.96-3.86-7.4-10.16-3.83-15.49c3.4-5.08,9.5-6.04,15.43-2.67c4.04,2.29,8.09,4.72,12.42,6.32c10.52,3.87,19.64,1.83,26.33-7.18
	c5.09-6.85,8.54-14.91,12.63-22.49c0.43-0.79,0.52-2.02,0.27-2.9c-3.43-12.05-8.51-23.18-18.69-31.14
	c-10.18-7.96-21.46-10.99-34.21-7.27c-2.92,0.85-3.94,2.06-3.61,5.26c0.91,8.92,6.1,13.49,14.31,15.79
	c6.21,1.75,9.35,7.43,7.79,13.06c-1.54,5.56-7.03,8.91-12.78,7.8c-15.31-2.96-27-14.52-29.95-29.91
	c-1.46-7.59-2.69-15.22-3.82-22.87c-1.72-11.66-9.11-17.45-21.82-16.86c-12.03,0.55-19.01,7.49-19.42,19.07
	c-0.11,3.12-0.65,6.24-1.19,9.33c-0.88,5-2.76,9.97-2.77,14.95c-0.16,115.98-0.12,231.96-0.12,347.94c0,2.33-0.12,4.69,0.2,6.99
	c0.27,1.94,1.1,3.8,1.99,6.73c1.5-2.6,2.16-4.15,3.18-5.41c6.58-8.11,12.55-16.87,20.04-24.04c9.32-8.93,21.23-12.25,34.2-10.38
	c6.92,1,10.75,6.2,9.75,12.66c-0.89,5.77-6.1,9.62-12.49,8.74c-6.18-0.85-11.57,0.77-16.46,4.3c-9.62,6.95-15.3,16.84-20.86,27.91
	c4.23,2.11,7.87,4.56,11.88,5.83c12.92,4.1,26.2,4.75,39.49,2.21c10.46-2,17.73-8.24,21.22-18.36c1.45-4.21,2.47-8.66,3.03-13.08
	c1.5-11.85,7.77-17.07,19.57-15.62c2.87,0.35,3.99-0.41,3.72-3.43c-1.45-16.41-8.73-34.24-31.37-40.45
	c-11.79-3.24-23.73-2.77-35.73-1.67c-6.78,0.62-11.78-3.33-12.3-9.49c-0.54-6.36,3.44-11.5,10.14-11.74
	c10.95-0.39,22.02-1.03,32.86,0.08c29.45,3.03,50.12,22.31,56.32,51.35c0.68,3.17,1.24,6.37,2.05,10.54
	c2.64-2.4,4.77-3.98,6.44-5.94c7.41-8.67,9.27-18.88,8.16-29.94c-0.85-8.42,2.35-13.58,9.91-17.14c2.37-1.11,4.41-2.93,7.16-4.81
	c-2.55-1.39-3.99-2.19-5.44-2.97c-28.51-15.35-38.26-43.32-25.44-73c2.57-5.96,8.17-8.67,13.74-6.64c5.86,2.13,8.44,7.91,6.38,14.23
	c-0.92,2.85-1.96,5.67-2.66,8.57c-4.44,18.2,5.18,34.84,22.92,39.58c0.41-0.44,0.93-0.87,1.29-1.4
	c19.66-29.28,20.98-59.84,6.21-91.43c-0.61-1.3-2.23-2.5-3.65-3.01c-13.12-4.75-26.11-10.01-39.51-13.79
	c-14.83-4.18-30.1-5.61-45.48-2.39c-23.4,4.9-41.95,28.58-41.06,52.49c0.3,8.1,3.95,14.39,11.48,17.2
	c6.13,2.29,12.78,3.35,19.27,4.51c6.38,1.14,10.43,5.42,10.14,11.49c-0.29,5.93-4.97,10.42-11.37,10.11
	c-5.13-0.24-10.32-0.91-15.3-2.13c-27.96-6.86-41.19-28.46-33.63-56.26c3.05-11.22,8.36-21.82,12.63-32.66
	c-4.4-2.49-10.2-5.11-15.25-8.77C799.26-2.7,796.61-26,803.82-44.67c2.03-5.25,7.47-7.6,12.73-6.17c5.12,1.4,8.34,6.37,7.55,11.96
	c-0.3,2.13-1.06,4.18-1.55,6.29c-3.13,13.62,1.8,24.13,14.48,29.93c8.5,3.89,16.42,5.89,26.31,1.14c19-9.12,39.69-8.4,59.76-3.75
	C940.86-1.15,958.18,4.81,976.24,10.13z"/>
<path class="st5" d="M533.88-65.09c-0.08-9,2.5-16.4,7.89-22.73c5.33-6.27,12.08-8.73,20.43-8.26c4.2,0.24,8.52-1.55,12.78-2.4
	c1.69-0.34,3.47-1.07,5.08-0.82c24.65,3.76,37.11,19.72,35.34,45.9c-0.72,10.61-3.14,21.11-3.7,31.72
	c-0.47,8.9-0.43,18.09,1.26,26.79c4.69,24.21,23.25,37.65,47.82,35.52c4.78-0.41,9.59-1.24,14.23-2.48
	c6.19-1.66,9.3-7.26,7.83-13.06c-1.43-5.63-7.14-8.85-13.27-7.66c-3.58,0.7-7.21,1.47-10.84,1.6c-16.14,0.57-25.03-6.96-25.53-23.21
	c-0.34-10.89,1.02-21.9,2.34-32.76c1.49-12.31,2.43-24.53-0.2-36.77c-5.17-24.06-20.15-38.7-43.54-45.25
	c-1.6-0.45-3.21-0.83-5.64-1.45c6.99-11.53,15.94-19.68,29.09-22.59c7.6-1.68,14.88-0.5,21.95,2.54
	c11.91,5.11,21.35-0.03,23.47-12.72c2-12,9.53-17.61,22.41-16.7c11.86,0.84,18.56,7.91,18.92,19.68c0.09,3.11,0.86,6.2,1.25,9.3
	c0.13,1.08,0.35,2.3,0.01,3.28c-3.6,10.53-8.73,20.17-17.09,27.77c-6.8,6.18-14.88,9.28-24.04,9.73
	c-7.29,0.35-11.87,4.61-11.78,10.83c0.09,6.42,5.12,10.64,12.55,10.52c14.67-0.25,27.18-5.78,37.92-15.58
	c1.46-1.33,2.86-2.73,4.83-4.61c0.15,1.96,0.34,3.34,0.34,4.73c0.01,106.17,0.07,212.33-0.06,318.5
	c-0.02,14.28-4.29,13.61-14.78,8.67c-6.98-3.28-10.48-9.48-12.12-16.81c-0.29-1.3-0.43-2.63-0.75-3.92
	c-1.58-6.26-6.6-9.57-12.68-8.39c-5.61,1.09-9.29,6.18-8.45,12.26c1.96,14.18,7.99,26,20.38,33.96c0.8,0.51,1.54,1.1,2.47,3.22
	c-6.66,1.52-13.26,3.78-20.01,4.35c-7.73,0.66-15.73,0.68-23.37-0.53c-15.19-2.41-23.18-12.12-25.68-28.96
	c-0.58-3.89-2.05-7.65-2.79-11.53c-0.32-1.68-0.19-3.63,0.34-5.26c6.95-21.16,22.19-32.51,43.59-36.25
	c4.57-0.8,9.27-0.97,13.92-1.19c7.27-0.34,11.74-3.73,12.46-9.74c0.72-5.95-2.91-10.26-10.1-12.01c-0.47-0.11-0.91-0.32-0.88-0.3
	c2.71-9.68,6-19.11,7.92-28.82c4.38-22.25-4.55-41.34-22.7-50.19c-5.48-2.67-10.66-1.87-14.04,2.16c-3.18,3.8-3.53,8.94-0.6,12.95
	c1.04,1.43,2.49,2.82,4.06,3.56c10.65,5.05,13.76,13.95,12.56,24.82c-1.49,13.48-6.87,25.65-13.53,37.28
	c-0.65,1.13-2.09,2.13-3.37,2.53c-25.96,8.03-42.36,25.4-50.29,51.14c-0.15,0.47-0.42,0.9-0.65,1.35
	c-27.24,1.66-37.15-16.37-36.07-36.66c0.65-12.19-0.96-14.65-11.3-20.72c-3.34-1.96-5.43-6.33-7.61-9.89
	c-2.56-4.17-4.06-9.06-6.97-12.92c-15.41-20.47-20.45-43.32-16.64-68.39c0.16-1.08,0.63-2.11,1.15-3.79
	c9.56,9.31,21.32,12.58,33.31,15.83c7.45,2.02,14.85,5.13,21.51,9.04c18.04,10.59,24.75,26.76,20.3,47.21
	c-1.02,4.7-2.71,9.25-4.05,13.88c-1.66,5.74,1.14,11.49,6.5,13.42c5.26,1.9,11.26-0.29,13.4-5.62c6.74-16.76,9.53-33.99,4.27-51.74
	c-3.2-10.8-9.39-19.79-17.82-27.25c-1.6-1.42-3.22-2.82-5.2-4.54c2.78-1.23,5.19-2.2,7.51-3.33c5.91-2.87,8.28-8.47,5.99-14.01
	c-2.39-5.78-8.31-8.27-14.5-5.68c-10.9,4.57-22.09,7.39-34,6.56c-9.14-0.64-17.14-3.91-23.66-10.47c-3.32-3.34-5.87-6.63-5.29-12.14
	c0.34-3.18-1.75-7-3.65-9.95c-8.36-13-9.36-26.44-2.98-40.39c2.93-6.39,7.58-11.3,14.1-14.26c1.36-0.62,2.93-1.2,3.83-2.27
	c2.73-3.25,6.16-5.01,10.03-3.41c4.14,1.72,9.51,3.56,11.39,6.98c3.34,6.05,4.68,13.28,6.4,20.13c0.71,2.84,0.09,5.99,0.36,8.97
	c0.55,6.1,5.08,10.22,10.91,10.15c5.61-0.07,10.37-4.09,10.52-9.96c0.35-13.62-1.16-26.99-8.36-39.02
	c-7.24-12.1-18.26-18.04-32.09-19.2C536.92-64.96,535.62-65,533.88-65.09z"/>
<path class="st4" d="M976.24,10.13c-18.07-5.31-35.39-11.28-53.13-15.39c-20.07-4.65-40.76-5.36-59.76,3.75
	c-9.89,4.75-17.81,2.75-26.31-1.14c-12.68-5.8-17.61-16.31-14.48-29.93c0.48-2.1,1.25-4.16,1.55-6.29
	c0.79-5.59-2.43-10.56-7.55-11.96c-5.26-1.44-10.71,0.91-12.73,6.17C796.61-26,799.26-2.7,818.15,10.97
	c5.05,3.66,10.86,6.27,15.25,8.77c-4.27,10.84-9.58,21.44-12.63,32.66c-7.56,27.81,5.67,49.4,33.63,56.26
	c4.98,1.22,10.17,1.89,15.3,2.13c6.41,0.3,11.08-4.18,11.37-10.11c0.3-6.07-3.76-10.35-10.14-11.49c-6.5-1.17-13.14-2.22-19.27-4.51
	c-7.53-2.82-11.18-9.1-11.48-17.2c-0.88-23.91,17.67-47.59,41.06-52.49c15.38-3.22,30.66-1.79,45.48,2.39
	c13.4,3.78,26.39,9.04,39.51,13.79c1.41,0.51,3.04,1.7,3.65,3.01c14.77,31.6,13.45,62.16-6.21,91.43c-0.36,0.54-0.88,0.97-1.29,1.4
	c-17.74-4.74-27.36-21.39-22.92-39.58c0.71-2.9,1.74-5.73,2.66-8.57c2.05-6.32-0.52-12.1-6.38-14.23
	c-5.56-2.03-11.16,0.68-13.74,6.64c-12.82,29.67-3.07,57.64,25.44,73c1.45,0.78,2.89,1.58,5.44,2.97c-2.75,1.88-4.79,3.69-7.16,4.81
	c-7.56,3.56-10.76,8.71-9.91,17.14c1.11,11.05-0.74,21.27-8.16,29.94c-1.68,1.96-3.81,3.54-6.44,5.94
	c-0.81-4.17-1.37-7.36-2.05-10.54c-6.2-29.03-26.87-48.32-56.32-51.35c-10.85-1.11-21.92-0.47-32.86-0.08
	c-6.7,0.24-10.68,5.39-10.14,11.74c0.52,6.16,5.52,10.11,12.3,9.49c11.99-1.1,23.93-1.57,35.73,1.67
	c22.64,6.22,29.92,24.05,31.37,40.45c0.27,3.02-0.85,3.78-3.72,3.43c-11.81-1.45-18.08,3.77-19.57,15.62
	c-0.56,4.42-1.58,8.87-3.03,13.08c-3.49,10.12-10.76,16.36-21.22,18.36c-13.3,2.54-26.57,1.89-39.49-2.21
	c-4.01-1.27-7.66-3.72-11.88-5.83c5.57-11.08,11.24-20.97,20.86-27.91c4.89-3.53,10.28-5.15,16.46-4.3
	c6.39,0.88,11.6-2.97,12.49-8.74c1-6.46-2.83-11.66-9.75-12.66c-12.98-1.87-24.88,1.45-34.2,10.38
	c-7.49,7.17-13.46,15.93-20.04,24.04c-1.02,1.26-1.67,2.82-3.18,5.41c-0.9-2.93-1.72-4.8-1.99-6.73c-0.32-2.29-0.2-4.65-0.2-6.99
	c-0.01-115.98-0.04-231.96,0.12-347.94c0.01-4.98,1.89-9.95,2.77-14.95c0.54-3.09,1.08-6.21,1.19-9.33
	c0.41-11.58,7.39-18.52,19.42-19.07c12.72-0.58,20.1,5.2,21.82,16.86c1.13,7.65,2.37,15.28,3.82,22.87
	c2.95,15.39,14.64,26.95,29.95,29.91c5.75,1.11,11.24-2.24,12.78-7.8c1.56-5.63-1.58-11.32-7.79-13.06
	c-8.21-2.31-13.39-6.87-14.31-15.79c-0.33-3.2,0.69-4.41,3.61-5.26c12.75-3.72,24.04-0.69,34.21,7.27
	c10.18,7.96,15.25,19.09,18.69,31.14c0.25,0.88,0.16,2.1-0.27,2.9c-4.09,7.57-7.54,15.64-12.63,22.49
	c-6.69,9.01-15.82,11.06-26.33,7.18c-4.33-1.6-8.38-4.02-12.42-6.32c-5.93-3.36-12.03-2.4-15.43,2.67
	c-3.57,5.33-2.13,11.62,3.83,15.49c12.75,8.26,26.25,13.8,41.92,10.53c11.51-2.41,20.68-8.8,27.14-18.23
	c5.4-7.89,9.65-16.65,13.69-25.35c1.6-3.46,3.17-4.04,6.35-3.21c10.77,2.8,19.34,14.42,19.96,27.79c0.19,4.11-0.38,8.3-1,12.39
	c-1.28,8.39,1.54,14.17,9.15,18C977.99-28.9,985-5.8,976.24,10.13z"/>
<path class="st4" d="M736.93,589.63c0,58.15-0.06,116.31,0.03,174.46c0.03,20.53-7.2,36.65-26.5,45.93
	c-0.59,0.28-1.16,0.67-1.62,1.13c-14.1,14.09-32.06,18.33-51.01,19.68c-13.2,0.94-26.3,0.15-38.86-4.72
	c-18.64-7.22-30.01-21.02-35.55-39.8c-1.19-4.04-3.24-5.37-6.95-5.46c-31.7-0.78-54.28-27.98-56.32-58.2
	c-0.23-3.44-1.58-5.53-3.78-8.05c-4.43-5.08-8.28-10.73-11.91-16.43c-3.17-4.98-5.43-10.56-8.6-15.55
	c-21.46-33.75-25.05-69.5-12.16-107.09c1.06-3.09,0.94-5.44-0.47-8.38c-13.82-28.79-6.7-62.27,17.27-83.15
	c1.52-1.33,2.35-4.18,2.41-6.36c0.64-23.79,9.6-43.08,30.49-55.53c5.15-3.07,11.35-4.58,17.24-6.16c3.13-0.84,5.05-1.87,6.61-4.96
	c11.27-22.34,28.45-37.58,53.56-42.28c6.29-1.18,12.94-0.91,19.38-0.58c3.47,0.18,5.12-0.66,7.01-3.62
	c12.58-19.57,31.41-25.44,53.29-22.34c20.25,2.87,34.77,14.25,39.79,34.34c3.63,14.53,7.04,29.2,6.89,44.65
	C736.6,477.32,736.93,533.47,736.93,589.63z M533.92,476.91c1.74,0.1,3.04,0.13,4.33,0.24c13.83,1.16,24.85,7.09,32.09,19.2
	c7.2,12.03,8.71,25.4,8.36,39.02c-0.15,5.87-4.92,9.89-10.52,9.96c-5.83,0.07-10.36-4.05-10.91-10.15
	c-0.27-2.98,0.35-6.13-0.36-8.97c-1.72-6.85-3.06-14.08-6.4-20.13c-1.89-3.42-7.25-5.26-11.39-6.98c-3.87-1.6-7.31,0.16-10.03,3.41
	c-0.9,1.08-2.48,1.66-3.83,2.27c-6.52,2.97-11.18,7.87-14.1,14.26c-6.38,13.95-5.39,27.39,2.98,40.39c1.9,2.95,3.98,6.78,3.65,9.95
	c-0.58,5.51,1.97,8.8,5.29,12.14c6.52,6.57,14.53,9.84,23.66,10.47c11.91,0.83,23.1-2,34-6.56c6.19-2.59,12.11-0.1,14.5,5.68
	c2.29,5.54-0.07,11.14-5.99,14.01c-2.33,1.13-4.73,2.11-7.51,3.33c1.98,1.73,3.6,3.13,5.2,4.54c8.42,7.46,14.61,16.45,17.82,27.25
	c5.26,17.75,2.47,34.98-4.27,51.74c-2.14,5.33-8.15,7.52-13.4,5.62c-5.36-1.93-8.16-7.68-6.5-13.42c1.34-4.63,3.03-9.18,4.05-13.88
	c4.45-20.45-2.26-36.62-20.3-47.21c-6.66-3.91-14.06-7.02-21.51-9.04c-11.99-3.25-23.74-6.52-33.31-15.83
	c-0.52,1.69-0.99,2.72-1.15,3.79c-3.81,25.07,1.23,47.92,16.64,68.39c2.91,3.86,4.41,8.76,6.97,12.92c2.19,3.56,4.28,7.93,7.61,9.89
	c10.34,6.07,11.95,8.53,11.3,20.72c-1.08,20.29,8.83,38.32,36.08,36.66c0.22-0.45,0.5-0.88,0.64-1.35
	c7.92-25.74,24.33-43.11,50.29-51.14c1.28-0.4,2.72-1.4,3.37-2.53c6.66-11.63,12.04-23.8,13.53-37.28
	c1.2-10.86-1.9-19.76-12.56-24.82c-1.57-0.75-3.02-2.13-4.06-3.56c-2.93-4.01-2.58-9.15,0.6-12.95c3.38-4.03,8.56-4.83,14.04-2.16
	c18.16,8.85,27.08,27.94,22.7,50.19c-1.91,9.7-5.21,19.13-7.92,28.82c-0.03-0.01,0.41,0.19,0.88,0.3
	c7.19,1.75,10.82,6.06,10.1,12.01c-0.73,6.01-5.2,9.4-12.46,9.74c-4.65,0.22-9.35,0.39-13.92,1.19
	c-21.4,3.75-36.64,15.1-43.59,36.25c-0.53,1.63-0.66,3.58-0.34,5.26c0.74,3.88,2.21,7.64,2.79,11.53
	c2.5,16.84,10.49,26.55,25.68,28.96c7.64,1.21,15.64,1.19,23.37,0.53c6.74-0.58,13.34-2.84,20.01-4.35
	c-0.93-2.12-1.68-2.71-2.47-3.22c-12.4-7.96-18.42-19.78-20.38-33.96c-0.84-6.08,2.84-11.17,8.45-12.26
	c6.08-1.18,11.1,2.12,12.68,8.39c0.32,1.29,0.46,2.62,0.75,3.92c1.64,7.34,5.14,13.53,12.12,16.81c10.49,4.93,14.76,5.61,14.78-8.67
	c0.13-106.17,0.07-212.33,0.06-318.5c0-1.38-0.2-2.77-0.34-4.73c-1.96,1.88-3.37,3.27-4.83,4.61c-10.74,9.8-23.25,15.33-37.92,15.58
	c-7.43,0.13-12.46-4.1-12.55-10.52c-0.09-6.22,4.49-10.48,11.78-10.83c9.16-0.44,17.24-3.55,24.04-9.73
	c8.36-7.6,13.49-17.24,17.09-27.77c0.34-0.98,0.12-2.2-0.01-3.28c-0.38-3.11-1.15-6.19-1.25-9.3c-0.36-11.77-7.06-18.85-18.92-19.68
	c-12.89-0.91-20.41,4.7-22.41,16.7c-2.12,12.69-11.56,17.83-23.47,12.72c-7.08-3.03-14.35-4.22-21.95-2.54
	c-13.14,2.91-22.1,11.06-29.09,22.59c2.43,0.62,4.04,1,5.64,1.45c23.38,6.54,38.36,21.19,43.54,45.25
	c2.63,12.24,1.7,24.46,0.2,36.77c-1.32,10.87-2.68,21.87-2.34,32.76c0.5,16.25,9.4,23.77,25.53,23.21c3.63-0.13,7.25-0.9,10.84-1.6
	c6.13-1.19,11.85,2.03,13.27,7.66c1.47,5.81-1.64,11.41-7.83,13.06c-4.64,1.24-9.45,2.07-14.23,2.48
	c-24.57,2.12-43.14-11.32-47.82-35.52c-1.68-8.7-1.72-17.89-1.26-26.79c0.56-10.61,2.98-21.11,3.7-31.72
	c1.77-26.18-10.69-42.14-35.34-45.9c-1.61-0.25-3.39,0.49-5.08,0.82c-4.27,0.85-8.58,2.63-12.78,2.4
	c-8.35-0.47-15.1,1.99-20.43,8.26C536.43,460.51,533.85,467.91,533.92,476.91z"/>
<path class="st4" d="M750,589.53c0-58.82-0.1-117.63,0.14-176.45c0.03-6.69,2.04-13.38,3.12-20.07c0.48-2.94,0.92-5.88,1.39-8.82
	c4.48-27.91,27.06-45.29,55.18-42.73c17.73,1.62,31.8,8.98,41.04,24.67c0.62,1.06,2.58,2.02,3.82,1.91
	c35.75-3.19,59.77,13.52,75.72,44.22c0.7,1.35,2.48,2.86,3.9,3.01c25.04,2.67,49.3,26.83,49.52,61.84c0.02,3.69,1.08,5.94,3.9,8.34
	c22.49,19.13,29.25,53.44,16.02,81.26c-1.58,3.33-1.58,5.98-0.46,9.37c13.21,39.96,8.66,77.4-16.23,111.87
	c-0.96,1.33-2.02,2.73-2.49,4.26c-2.95,9.66-8.05,17.8-15.92,24.26c-1.13,0.93-1.53,3.13-1.67,4.8
	c-1.54,18.17-8.26,33.86-22.12,46.06c-9.58,8.44-20.87,12.94-33.64,13.43c-4.29,0.16-6.69,1.44-8.1,6.09
	c-8.01,26.45-27.36,41.56-56.28,43.88c-16.06,1.29-32.15,0.3-47.15-6.01c-7.37-3.1-13.86-8.33-20.73-12.62
	c-1.25-0.78-2.33-1.88-3.64-2.55c-17-8.67-25.14-22.92-25.26-41.59C749.83,728.49,750,689,750,649.51
	C750,629.52,750,609.53,750,589.53z M976.29,552.13c8.76-15.93,1.75-39.03-15.24-47.58c-7.6-3.83-10.42-9.61-9.15-18
	c0.62-4.09,1.19-8.28,1-12.39c-0.62-13.37-9.19-24.99-19.96-27.79c-3.18-0.83-4.75-0.25-6.35,3.21
	c-4.04,8.71-8.29,17.46-13.69,25.35c-6.45,9.44-15.63,15.83-27.14,18.23c-15.67,3.28-29.17-2.26-41.92-10.53
	c-5.96-3.86-7.4-10.16-3.83-15.49c3.4-5.08,9.5-6.04,15.43-2.67c4.04,2.29,8.09,4.72,12.42,6.32c10.52,3.87,19.64,1.83,26.33-7.18
	c5.09-6.85,8.54-14.91,12.63-22.49c0.43-0.79,0.52-2.02,0.27-2.9c-3.43-12.05-8.51-23.18-18.69-31.14
	c-10.18-7.96-21.46-10.99-34.22-7.27c-2.92,0.85-3.94,2.06-3.61,5.26c0.91,8.92,6.1,13.49,14.31,15.79
	c6.21,1.75,9.35,7.43,7.79,13.06c-1.54,5.56-7.03,8.91-12.78,7.8c-15.31-2.96-27-14.52-29.95-29.91
	c-1.46-7.59-2.69-15.22-3.82-22.87c-1.72-11.66-9.11-17.45-21.82-16.86c-12.03,0.55-19.01,7.49-19.42,19.07
	c-0.11,3.12-0.65,6.24-1.19,9.33c-0.88,5-2.76,9.97-2.77,14.95c-0.16,115.98-0.12,231.96-0.12,347.94c0,2.33-0.12,4.69,0.2,6.99
	c0.27,1.94,1.1,3.8,1.99,6.73c1.5-2.6,2.16-4.15,3.18-5.41c6.58-8.11,12.55-16.87,20.04-24.04c9.32-8.93,21.23-12.25,34.2-10.38
	c6.92,1,10.75,6.2,9.75,12.66c-0.89,5.77-6.1,9.62-12.49,8.74c-6.18-0.85-11.57,0.77-16.46,4.3c-9.62,6.95-15.3,16.84-20.86,27.91
	c4.23,2.11,7.87,4.56,11.88,5.83c12.92,4.1,26.2,4.75,39.49,2.21c10.46-2,17.73-8.24,21.22-18.36c1.45-4.21,2.47-8.66,3.03-13.08
	c1.5-11.85,7.77-17.07,19.57-15.62c2.87,0.35,3.99-0.41,3.72-3.43c-1.45-16.41-8.73-34.24-31.37-40.45
	c-11.79-3.24-23.73-2.77-35.73-1.67c-6.78,0.62-11.78-3.33-12.3-9.49c-0.54-6.36,3.44-11.5,10.14-11.74
	c10.95-0.39,22.02-1.03,32.86,0.08c29.45,3.03,50.12,22.31,56.32,51.35c0.68,3.17,1.24,6.37,2.05,10.54
	c2.64-2.4,4.77-3.98,6.44-5.94c7.41-8.67,9.27-18.88,8.16-29.94c-0.85-8.42,2.35-13.58,9.91-17.14c2.37-1.11,4.41-2.93,7.16-4.81
	c-2.55-1.39-3.99-2.19-5.44-2.97c-28.51-15.35-38.26-43.32-25.44-73c2.57-5.96,8.17-8.67,13.74-6.64c5.86,2.13,8.44,7.91,6.38,14.23
	c-0.92,2.85-1.96,5.67-2.66,8.57c-4.44,18.2,5.18,34.84,22.92,39.58c0.41-0.44,0.93-0.87,1.29-1.4
	c19.66-29.28,20.98-59.84,6.21-91.43c-0.61-1.3-2.23-2.5-3.65-3.01c-13.12-4.75-26.11-10.01-39.51-13.79
	c-14.83-4.18-30.1-5.61-45.48-2.39c-23.4,4.9-41.95,28.58-41.06,52.49c0.3,8.1,3.95,14.39,11.48,17.2
	c6.13,2.29,12.78,3.35,19.27,4.51c6.38,1.14,10.43,5.42,10.14,11.49c-0.29,5.93-4.97,10.42-11.37,10.11
	c-5.13-0.24-10.32-0.91-15.3-2.13c-27.96-6.86-41.19-28.46-33.63-56.26c3.05-11.22,8.36-21.82,12.63-32.66
	c-4.4-2.49-10.2-5.11-15.25-8.77c-18.89-13.66-21.53-36.97-14.33-55.64c2.03-5.25,7.47-7.6,12.73-6.17
	c5.12,1.4,8.34,6.37,7.55,11.96c-0.3,2.13-1.06,4.18-1.55,6.29c-3.13,13.62,1.8,24.13,14.48,29.93c8.5,3.89,16.42,5.89,26.31,1.14
	c19-9.12,39.69-8.4,59.76-3.75C940.9,540.85,958.22,546.81,976.29,552.13z"/>
<path class="st6" d="M533.92,476.91c-0.08-9,2.5-16.4,7.89-22.73c5.33-6.27,12.08-8.73,20.43-8.26c4.2,0.24,8.52-1.55,12.78-2.4
	c1.69-0.34,3.47-1.07,5.08-0.82c24.65,3.76,37.11,19.72,35.34,45.9c-0.72,10.61-3.14,21.11-3.7,31.72
	c-0.47,8.9-0.43,18.09,1.26,26.79c4.69,24.21,23.25,37.65,47.82,35.52c4.78-0.41,9.59-1.24,14.23-2.48
	c6.19-1.66,9.3-7.26,7.83-13.06c-1.43-5.63-7.14-8.85-13.27-7.66c-3.58,0.7-7.21,1.47-10.84,1.6c-16.14,0.57-25.03-6.96-25.53-23.21
	c-0.34-10.89,1.02-21.9,2.34-32.76c1.49-12.31,2.43-24.53-0.2-36.77c-5.17-24.06-20.15-38.7-43.54-45.25
	c-1.6-0.45-3.21-0.83-5.64-1.45c6.99-11.53,15.94-19.68,29.09-22.59c7.6-1.68,14.88-0.5,21.95,2.54
	c11.91,5.11,21.35-0.03,23.47-12.72c2-12,9.53-17.61,22.41-16.7c11.86,0.84,18.56,7.91,18.92,19.68c0.09,3.11,0.86,6.2,1.25,9.3
	c0.13,1.08,0.35,2.3,0.01,3.28c-3.6,10.53-8.73,20.17-17.09,27.77c-6.8,6.18-14.88,9.28-24.04,9.73
	c-7.29,0.35-11.87,4.61-11.78,10.83c0.09,6.42,5.12,10.64,12.55,10.52c14.67-0.25,27.18-5.78,37.92-15.58
	c1.46-1.33,2.86-2.73,4.83-4.61c0.15,1.96,0.34,3.34,0.34,4.73c0.01,106.17,0.07,212.33-0.06,318.5
	c-0.02,14.28-4.29,13.61-14.78,8.67c-6.98-3.28-10.48-9.48-12.12-16.81c-0.29-1.3-0.43-2.63-0.75-3.92
	c-1.58-6.26-6.6-9.57-12.68-8.39c-5.61,1.09-9.29,6.18-8.45,12.26c1.96,14.18,7.99,26,20.38,33.96c0.8,0.51,1.54,1.1,2.47,3.22
	c-6.66,1.52-13.26,3.78-20.01,4.35c-7.73,0.66-15.73,0.68-23.37-0.53c-15.19-2.41-23.18-12.12-25.68-28.96
	c-0.58-3.89-2.05-7.65-2.79-11.53c-0.32-1.68-0.19-3.63,0.34-5.26c6.95-21.16,22.19-32.51,43.59-36.25
	c4.57-0.8,9.27-0.97,13.92-1.19c7.27-0.34,11.74-3.73,12.46-9.74c0.72-5.95-2.91-10.26-10.1-12.01c-0.47-0.11-0.91-0.32-0.88-0.3
	c2.71-9.68,6-19.11,7.92-28.82c4.38-22.25-4.55-41.34-22.7-50.19c-5.48-2.67-10.66-1.87-14.04,2.16c-3.18,3.8-3.53,8.94-0.6,12.95
	c1.04,1.43,2.49,2.82,4.06,3.56c10.65,5.05,13.76,13.95,12.56,24.82c-1.49,13.48-6.87,25.65-13.53,37.28
	c-0.65,1.13-2.09,2.13-3.37,2.53c-25.96,8.03-42.36,25.4-50.29,51.14c-0.15,0.47-0.42,0.9-0.65,1.35
	c-27.24,1.66-37.15-16.37-36.07-36.66c0.65-12.19-0.96-14.65-11.3-20.72c-3.34-1.96-5.43-6.33-7.61-9.89
	c-2.56-4.17-4.06-9.06-6.97-12.92c-15.4-20.47-20.45-43.32-16.64-68.39c0.16-1.08,0.63-2.11,1.15-3.79
	c9.56,9.31,21.32,12.58,33.31,15.83c7.45,2.02,14.85,5.13,21.51,9.04c18.04,10.59,24.75,26.76,20.3,47.21
	c-1.02,4.7-2.71,9.25-4.05,13.88c-1.66,5.74,1.14,11.49,6.5,13.42c5.26,1.9,11.26-0.29,13.4-5.62c6.74-16.76,9.53-33.99,4.27-51.74
	c-3.2-10.8-9.39-19.79-17.82-27.25c-1.6-1.42-3.22-2.82-5.2-4.54c2.78-1.23,5.19-2.2,7.51-3.33c5.91-2.87,8.28-8.47,5.99-14.01
	c-2.39-5.78-8.31-8.27-14.5-5.68c-10.9,4.57-22.09,7.39-34,6.56c-9.14-0.64-17.14-3.91-23.66-10.47c-3.32-3.34-5.87-6.63-5.29-12.14
	c0.34-3.18-1.75-7-3.65-9.95c-8.36-13-9.36-26.44-2.98-40.39c2.93-6.39,7.58-11.3,14.1-14.26c1.36-0.62,2.93-1.2,3.83-2.27
	c2.73-3.25,6.16-5.01,10.03-3.41c4.14,1.72,9.51,3.56,11.39,6.98c3.34,6.05,4.68,13.28,6.4,20.13c0.71,2.84,0.09,5.99,0.36,8.97
	c0.55,6.1,5.08,10.22,10.91,10.15c5.61-0.07,10.37-4.09,10.52-9.96c0.35-13.62-1.16-26.99-8.36-39.02
	c-7.24-12.1-18.26-18.04-32.09-19.2C536.96,477.04,535.66,477,533.92,476.91z"/>
<path class="st5" d="M976.29,552.13c-18.07-5.31-35.39-11.28-53.13-15.39c-20.07-4.65-40.76-5.36-59.76,3.75
	c-9.89,4.75-17.81,2.75-26.31-1.14c-12.68-5.8-17.61-16.31-14.48-29.93c0.48-2.1,1.25-4.16,1.55-6.29
	c0.79-5.59-2.43-10.56-7.55-11.96c-5.26-1.44-10.71,0.91-12.73,6.17c-7.21,18.67-4.56,41.97,14.33,55.64
	c5.05,3.66,10.86,6.27,15.25,8.77c-4.27,10.84-9.58,21.44-12.63,32.66c-7.56,27.81,5.67,49.4,33.63,56.26
	c4.98,1.22,10.17,1.89,15.3,2.13c6.41,0.3,11.08-4.18,11.37-10.11c0.3-6.07-3.76-10.35-10.14-11.49c-6.5-1.17-13.14-2.22-19.27-4.51
	c-7.53-2.82-11.18-9.1-11.48-17.2c-0.88-23.91,17.67-47.59,41.06-52.49c15.38-3.22,30.66-1.79,45.48,2.39
	c13.4,3.78,26.39,9.04,39.51,13.79c1.41,0.51,3.04,1.7,3.65,3.01c14.77,31.6,13.45,62.16-6.21,91.43c-0.36,0.54-0.88,0.97-1.29,1.4
	c-17.74-4.74-27.36-21.39-22.92-39.58c0.71-2.9,1.74-5.73,2.66-8.57c2.05-6.32-0.52-12.1-6.38-14.23
	c-5.56-2.03-11.16,0.68-13.74,6.64c-12.82,29.67-3.07,57.64,25.44,73c1.45,0.78,2.89,1.58,5.44,2.97c-2.75,1.88-4.79,3.69-7.16,4.81
	c-7.56,3.56-10.76,8.71-9.91,17.14c1.11,11.05-0.74,21.27-8.16,29.94c-1.68,1.96-3.81,3.54-6.44,5.94
	c-0.81-4.17-1.37-7.36-2.05-10.54c-6.2-29.03-26.87-48.32-56.32-51.35c-10.85-1.11-21.92-0.47-32.86-0.08
	c-6.7,0.24-10.68,5.39-10.14,11.74c0.52,6.16,5.52,10.11,12.3,9.49c11.99-1.1,23.94-1.57,35.73,1.67
	c22.64,6.22,29.92,24.05,31.37,40.45c0.27,3.02-0.85,3.78-3.72,3.43c-11.81-1.45-18.08,3.77-19.57,15.62
	c-0.56,4.42-1.58,8.87-3.03,13.08c-3.49,10.12-10.76,16.36-21.22,18.36c-13.3,2.54-26.57,1.89-39.49-2.21
	c-4.01-1.27-7.66-3.72-11.88-5.83c5.57-11.08,11.24-20.97,20.86-27.91c4.89-3.53,10.28-5.15,16.46-4.3
	c6.39,0.88,11.6-2.97,12.49-8.74c1-6.46-2.83-11.66-9.75-12.66c-12.98-1.87-24.88,1.45-34.2,10.38
	c-7.49,7.17-13.46,15.93-20.04,24.04c-1.02,1.26-1.67,2.82-3.18,5.41c-0.9-2.93-1.72-4.8-1.99-6.73c-0.32-2.29-0.2-4.65-0.2-6.99
	c-0.01-115.98-0.04-231.96,0.12-347.94c0.01-4.98,1.89-9.95,2.77-14.95c0.54-3.09,1.08-6.21,1.19-9.33
	c0.41-11.58,7.39-18.52,19.42-19.07c12.72-0.58,20.1,5.2,21.82,16.86c1.13,7.65,2.37,15.28,3.82,22.87
	c2.95,15.39,14.64,26.95,29.95,29.91c5.75,1.11,11.24-2.24,12.78-7.8c1.56-5.63-1.58-11.32-7.79-13.06
	c-8.21-2.31-13.39-6.87-14.31-15.79c-0.33-3.2,0.69-4.41,3.61-5.26c12.75-3.72,24.04-0.69,34.22,7.27
	c10.18,7.96,15.25,19.09,18.69,31.14c0.25,0.88,0.16,2.1-0.27,2.9c-4.09,7.57-7.55,15.64-12.63,22.49
	c-6.69,9.01-15.82,11.06-26.33,7.18c-4.33-1.6-8.38-4.02-12.42-6.32c-5.93-3.36-12.03-2.4-15.43,2.67
	c-3.57,5.33-2.13,11.62,3.83,15.49c12.75,8.26,26.25,13.8,41.92,10.53c11.51-2.41,20.68-8.8,27.14-18.23
	c5.4-7.89,9.65-16.65,13.69-25.35c1.6-3.46,3.17-4.04,6.35-3.21c10.77,2.8,19.34,14.42,19.96,27.79c0.19,4.11-0.38,8.3-1,12.39
	c-1.28,8.39,1.54,14.17,9.15,18C978.04,513.1,985.05,536.2,976.29,552.13z"/>
<path class="st7" d="M133-223.21l6.16,22.42c0.79,4.37-0.65,5.79-6.07,7.28l-90.03,24.73c25.89-28.84,34.9-45.97,36.48-59.82
	l26.99-7.42C118.19-239.18,128.31-234.25,133-223.21z"/>
<path class="st6" d="M79.54-228.59c-1.59,13.85-10.6,30.97-36.48,59.82L4.24-158.11c-0.75,0.2-1.46,0.43-2.22,0.58
	c-2.95,0.64-5.23-0.42-6.36-3.03l-6.4-23.29c-0.01-0.05-0.01-0.14-0.03-0.21c-0.69-4.93,0.02-9.38,2.31-13.52
	c2.92-5.36,8.16-9.04,14.05-10.66c8.86-2.46,17.73-4.9,26.6-7.34l1.88-0.52c0.62-0.17,1.02-0.72,1.04-1.36
	c0.03-14.88,4.94-22.67,15.74-25.34c10.7-2.61,19.16,1.92,25.5,13.92c0.3,0.58,0.96,0.9,1.61,0.72L79.54-228.59z"/>
<g>
	<path class="st8" d="M177.39-48.14l31.4,17.86l-21.8,15.78c-0.99-2.28-2.63-4.2-4.85-5.47c-2.38-1.36-5.09-1.74-7.73-1.3
		L177.39-48.14z"/>
	<path class="st4" d="M184.57-44.05l78.37-137.75l17.28,9.83c3.82,2.17,4.94,7.48,2.48,11.79L208.79-30.27L184.57-44.05z"/>
	<path class="st9" d="M177.39-48.14l6.24,3.55l-6.37,23.18c-0.95-0.07-1.91-0.01-2.85,0.15"/>
	<path class="st10" d="M174.94-5.77l12.05-8.72c-0.99-2.28-2.63-4.2-4.86-5.47c-1.53-0.87-3.19-1.35-4.88-1.45
		c-0.95-0.07-1.91-0.01-2.85,0.15L172.83-7C172.7-5.84,174-5.09,174.94-5.77z"/>
	<path class="st11" d="M177.39-48.14l73.91-129.91c2.45-4.31,7.58-6.06,11.4-3.89l0.23,0.13L184.57-44.05L177.39-48.14z"/>
</g>
<path class="st5" d="M-150.76-187.22L-150.76-187.22c-9.5,9.5-12.18,23.76-7.01,36.16c10.36,24.85,15.93,52.2,15.56,80.89
	c-1.45,111.39-93.66,201.66-205.05,200.84c-112.93-0.83-203.99-93.63-201.99-207.22c1.92-108.74,90.5-197.58,199.23-199.82
	c34.34-0.71,66.77,7.12,95.36,21.47c12.7,6.37,28.04,3.92,38.08-6.13l0,0c15.93-15.93,11.5-42.72-8.64-52.82
	c-37.82-18.97-80.72-29.31-126.13-28.39c-145.03,2.95-262.62,122.05-263.81,267.1c-1.24,150.58,121.06,272.9,271.63,271.68
	c144.29-1.16,263.03-117.42,267.1-261.66c1.12-39.77-6.41-77.63-20.82-111.91C-106.25-198.45-134.32-203.66-150.76-187.22z"/>
<path class="st12" d="M-56.03-312.45L-332.16-36.33c-8.26,8.31-21.83,8.31-30.13,0l-9.18-9.18c-0.65-0.65-1.25-1.34-1.8-2.03
	l251.76-251.76l32.12-56.62c7.89-3.78,17.67-2.4,24.23,4.15l9.14,9.18C-47.72-334.33-47.72-320.76-56.03-312.45z"/>
<g>
	<g>
		<path class="st13" d="M1084.37,270.15c1.93,0,1.93-3,0-3C1082.43,267.15,1082.43,270.15,1084.37,270.15L1084.37,270.15z"/>
	</g>
</g>
<path class="st7" d="M109.95,189.12c-12.96-4.55-18.89,13.53,0.74,25c16.26,9.5,19.31,14.97,31.5,13.57
	c5.81-0.67,11.09-2.66,15.2-5.52c6.11-4.25,14.51-11.94,14.58-22.1c0.08-10.59-15.84-17.88-30.45-14.09
	C130.04,188.96,116.61,191.46,109.95,189.12z"/>
<g>
	<path class="st13" d="M12.6,174.74c8.83-5.29,16.07-9.65,21.8-13.18c5.73-3.58,9.91-6.3,12.69-9.06c2.79-2.78,4.28-5.79,4.55-9.48
		c0.28-3.68-0.64-8.03-2.68-13.22c-0.27-0.66-0.58-1.32-0.96-1.95c-0.24-0.43-0.52-0.85-0.81-1.26
		c-4.87,3.52-10.43,7.64-15.55,12.41c-2.57,2.38-5.01,4.94-7.2,7.63c-2.19,2.69-4.11,5.51-5.66,8.29c-0.54,0.95-1.68,0.73-1.34-0.28
		c1.51-4.46,3.96-10.18,7.7-16.02c3.72-5.88,8.66-11.87,14.58-17.79c-0.66-0.29-1.35-0.55-2.03-0.77
		c-5.68-1.82-12.08-1.65-19.22,1.95c-3.61,1.84-6.81,4.38-9.45,7.54c-2.64,3.14-4.73,6.93-6.02,11.07
		c-1.55,4.91-2.44,10.34-2.78,15.53c-0.37,5.21-0.22,10.18,0.1,14.48c0.32,4.3,0.81,7.92,1.2,10.48c0.39,2.56,0.68,4.06,0.68,4.06
		C3.94,180.87,5.88,178.94,12.6,174.74z"/>
</g>
<path class="st6" d="M132.05,128.39c0.45-0.32,0.91-0.6,1.38-0.83c-1.03,0.74-2.08,1.48-3.15,2.21
	C130.85,129.29,131.44,128.82,132.05,128.39z"/>
<g>
	<g>
		<path class="st14" d="M159.04,37.77c0.22-5.41-2.58-9.34-7.45-11.55c-5.26-2.39-10.42-2.31-15.02,1.67
			c-0.69,0.6-1.17,0.69-2.03,0.39c-1.59-0.56-3.24-1.12-4.91-1.28c-6.65-0.67-12.08,1.88-16.56,6.66c-0.62,0.66-1.18,0.78-2.02,0.76
			c-1.59-0.04-3.26-0.12-4.78,0.27c-6.16,1.58-9.83,5.76-11.75,11.69c-0.18,0.54-0.59,1.2-1.07,1.42
			c-7.56,3.47-11.81,11.35-10.47,19.59c0.14,0.84-0.01,1.44-0.5,2.14c-6.01,8.48-7.74,17.72-4.85,27.77
			c0.43,1.49,0.58,3.05,1.01,4.54c0.49,1.7,1.04,3.4,1.78,5c0.37,0.8,0.55,1.42,0.36,2.3c-1.71,7.73,1.94,16.23,9.84,18.76
			c0.92,0.3,1.34,0.78,1.34,1.88c0.01,5.12,1.84,9.42,5.99,12.61c2.79,2.15,6.02,3.31,9.41,4.05c4.85,1.06,9.68,1.32,14.25-1.18
			c0.15-0.08,0.32-0.14,0.49-0.16c5.53-0.9,8.53-4.42,10.04-9.57c4.27-14.6,8.57-29.19,12.86-43.79
			c4.14-14.09,8.2-28.21,12.48-42.26C158.65,45.62,158.88,41.68,159.04,37.77z M95.47,121.09c-2.18-0.5-3.78-1.35-4.91-2.45
			C91.69,119.73,93.29,120.59,95.47,121.09c0.09-0.1,0.19-0.18,0.26-0.29C95.66,120.9,95.56,120.99,95.47,121.09z"/>
		<path class="st14" d="M213.65,105.68c4.72-5.27,5.94-12.93,3.3-19.09c-0.37-0.86-0.81-1.7-1.33-2.49
			c-0.53-0.81-0.63-1.45-0.37-2.39c0.44-1.55,0.68-3.08,0.73-4.55c0.09-2.84-0.51-5.48-1.59-7.74c-1.54-3.21-4.06-5.67-7-6.88
			c-0.35-0.14-0.68-0.65-0.76-1.04c-0.53-2.69-1.33-5.1-2.46-7.23c-2.08-3.94-5.28-6.84-9.81-8.5c-1.08-0.39-2.24-0.71-3.47-0.96
			c-0.32-0.07-0.74-0.46-0.82-0.76c-0.24-0.97-0.57-1.87-0.98-2.7c-1.49-3.09-4.07-5.18-7.49-6.52c-0.86-0.34-1.71-0.6-2.56-0.77
			c-5.98-1.21-11.65,1.58-14.43,7.43c-0.32,0.64-0.62,1.31-0.93,1.97c-0.03,0.05-0.05,0.09-0.07,0.14c-0.77,1.6-1.76,3.13-2.27,4.81
			c-4.4,14.75-8.72,29.51-13.06,44.27c-0.41,1.42-0.84,2.85-1.26,4.28c-1.06,3.6-2.11,7.18-3.17,10.78
			c-2.56,8.75-5.16,17.47-7.69,26.22c-0.35,1.17-0.69,2.35-1.03,3.53c-1.19,4.17-0.55,7.92,2.15,11.11c0.34,0.4,0.71,0.8,1.12,1.19
			c0.29,0.26,0.47,0.62,0.73,0.9c1.41,1.59,2.65,3.38,4.27,4.69c3.3,2.69,7.26,4.12,11.38,4.99c7.44,1.54,13.4-0.81,17.37-6.87
			c0.69-1.06,1.4-1.2,2.48-0.93c3.23,0.82,6.4,0.53,9.43-0.88c4.38-2.05,7.23-5.49,8.95-9.93c0.08-0.21,0.19-0.45,0.32-0.65
			c0.13-0.19,0.29-0.36,0.45-0.43c2.45-1.04,4.33-2.71,5.78-4.92c0.23-0.35,0.6-0.63,0.93-0.88c8.8-6.82,12.7-15.88,12.33-26.88
			C212.81,107.07,213,106.39,213.65,105.68z M193.75,120.33c-0.14,0.12-0.31,0.19-0.45,0.27c-4.34-2.64-5.59-7.8-2.99-12.28
			c0.41-0.71,0.91-1.39,1.38-2.07c1.03-1.52,0.8-3.25-0.59-4.27c-1.31-0.97-3.01-0.69-4.16,0.69c-5.72,6.87-5.31,15.06,1.06,21.35
			c0.32,0.32,0.64,0.64,1.21,1.21c-0.87,0.29-1.55,0.6-2.28,0.72c-2.28,0.35-3.53,1.46-3.96,3.77c-0.05,0.25-0.1,0.51-0.17,0.75
			c-0.63,2.7-1.91,4.98-4.34,6.55c-0.6,0.39-1.29,0.65-2.17,1.08c0.11-1.17,0.21-2.07,0.28-2.95c0.62-8.19-3.36-14.92-10.94-18.01
			c-0.14-0.06-0.28-0.11-0.42-0.16c0.66-0.51,1.31-1.04,1.95-1.57c10.52-8.63,18.24-18.11,23.88-27.47
			c0.04,0.03,0.08,0.04,0.12,0.07c0.42,0.23,0.82,0.49,1.22,0.74c3.26,2.05,6.3,4.46,9.41,6.73c0.33,0.25,0.67,0.7,0.73,1.09
			C203.98,106.09,201.24,114.09,193.75,120.33z M169.1,137.37c-3.02-1.3-5.09-0.41-6.42,2.62c-0.49,1.13-1.11,2.23-1.82,3.23
			c-1.72,2.41-4.13,3.51-7.06,3.22c-3.72-0.37-7.19-1.57-10.3-3.67c-0.96-0.65-1.74-1.58-2.7-2.48c2.35-2.5,4.62-4.68,7.71-5.78
			c1.57-0.56,3.13-0.56,4.7,0.15c1.63,0.73,3.31,0.12,3.99-1.35c0.78-1.63,0.16-3.31-1.59-4.12c-0.86-0.39-1.74-0.7-2.61-0.88
			c-0.56-0.12-1.12-0.21-1.68-0.23c-0.55-0.04-1.09-0.04-1.63,0.02c-0.24,0.03-0.5,0.06-0.74,0.1c-0.06,0.01-0.13,0.02-0.18,0.04
			c-0.19,0.04-0.37,0.07-0.56,0.12c-0.31,0.06-0.62,0.16-0.92,0.26c4.38-2.36,8.43-4.84,12.18-7.43c0.41,0.11,0.83,0.24,1.24,0.37
			c0.18,0.06,0.35,0.11,0.53,0.18c0.19,0.07,0.39,0.14,0.57,0.21c0.48,0.17,0.95,0.37,1.42,0.59c0.2,0.09,0.38,0.18,0.57,0.28
			c0.23,0.12,0.47,0.23,0.7,0.37c0.22,0.12,0.45,0.26,0.68,0.4c5.52,3.42,6.07,8.71,5.17,13.18
			C170.19,137.57,169.83,137.68,169.1,137.37z M203.4,59.65c0.13,0.1,0.25,0.2,0.37,0.31c0.03,0.02,0.05,0.05,0.07,0.07
			c0.11,0.1,0.22,0.21,0.32,0.33c0.13,0.12,0.25,0.26,0.35,0.4c0.13,0.17,0.26,0.36,0.38,0.54c0.08,0.11,0.15,0.23,0.21,0.35
			c0.09,0.17,0.18,0.34,0.27,0.52c0.15,0.32,0.29,0.67,0.4,1.01c0.11,0.36,0.2,0.73,0.27,1.11c0.04,0.18,0.07,0.39,0.09,0.57
			c0.13,1.07,0.07,2.19-0.19,3.3c-0.28,1.11-0.75,2.18-1.23,3.21c-0.99,2.14-0.7,3.88,1.02,5.5c3.84,3.59,3.9,10.26,0.33,13.8
			c-2.59-1.66-5.08-3.36-7.6-4.98c-0.49-0.32-0.99-0.64-1.48-0.94c-0.02-0.01-0.04-0.03-0.06-0.04c-0.5-0.31-1-0.62-1.51-0.93
			c-0.5-0.31-1.02-0.61-1.53-0.91c4.39-8.31,7.24-16.37,9.08-23.52C203.13,59.44,203.27,59.54,203.4,59.65z"/>
	</g>
	<path class="st4" d="M139.67,81.96c-4.53,15.43-9.08,30.85-13.59,46.28c-1.59,5.45-4.77,9.16-10.61,10.12
		c-0.18,0.03-0.36,0.09-0.52,0.17c-4.84,2.64-9.93,2.36-15.07,1.24c-3.58-0.78-6.99-2.01-9.94-4.28c-4.38-3.37-6.32-7.92-6.33-13.33
		c0-1.16-0.44-1.68-1.42-1.99c-8.35-2.68-12.22-11.66-10.4-19.83c0.21-0.93,0.01-1.59-0.38-2.43c-0.78-1.69-1.36-3.49-1.88-5.29
		c-0.45-1.57-0.62-3.22-1.07-4.79c-3.06-10.63-1.23-20.39,5.12-29.35c0.52-0.74,0.67-1.37,0.53-2.26
		C72.7,47.5,77.2,39.18,85.18,35.51c0.51-0.23,0.95-0.93,1.13-1.5c2.03-6.26,5.91-10.68,12.42-12.35c1.61-0.41,3.37-0.33,5.05-0.29
		c0.9,0.02,1.49-0.1,2.14-0.8c4.73-5.05,10.48-7.75,17.5-7.04c1.76,0.18,3.5,0.77,5.19,1.36c0.91,0.32,1.41,0.22,2.14-0.41
		c4.86-4.21,10.32-4.3,15.88-1.77c5.15,2.34,8.11,6.49,7.88,12.21c-0.17,4.14-0.41,8.29-1.65,12.38
		C148.34,52.15,144.05,67.07,139.67,81.96z M94.61,36.23c0.45,0.16,0.79,0.27,1.13,0.4c3.58,1.39,6.04,3.82,7.02,7.59
		c0.97,3.75,0.33,7.42-0.83,11c-0.5,1.55-2.07,2.24-3.57,1.82c-1.55-0.43-2.43-1.88-2.1-3.54c0.16-0.81,0.57-1.6,0.6-2.41
		c0.08-1.95,0.29-3.97-0.13-5.84c-0.23-1.05-1.51-1.96-2.48-2.74c-0.9-0.73-1.95-0.53-2.93,0.12c-0.32,0.21-0.79,0.25-1.19,0.3
		c-1.96,0.28-3.58,1.22-4.85,2.68c-2.78,3.2-3.56,6.84-2.36,10.95c0.27,0.93,0.53,2.11,0.19,2.92c-0.58,1.42-0.16,2.49,0.46,3.63
		c1.22,2.25,3.09,3.74,5.46,4.62c3.09,1.15,6.28,1.27,9.53,0.91c1.84-0.2,3.22,0.92,3.4,2.64c0.18,1.65-0.89,2.95-2.68,3.25
		c-0.71,0.12-1.42,0.19-2.25,0.3c0.39,0.61,0.71,1.11,1.03,1.61c1.65,2.64,2.59,5.5,2.6,8.62c0.01,5.12-2.07,9.47-5.17,13.39
		c-0.98,1.25-2.75,1.36-3.99,0.45c-1.27-0.93-1.57-2.67-0.68-4.07c0.72-1.12,1.52-2.2,2.16-3.37c2.77-5.08,2.26-9.89-1.7-14.11
		c-1.46-1.56-3.18-2.96-5-4.07c-2.93-1.8-5.79-3.58-7.6-6.8c-0.27,0.41-0.47,0.64-0.6,0.92c-2.96,6.35-3.41,12.81-0.92,19.44
		c0.47,1.25,0.49,2.67,0.84,3.97c0.3,1.11,0.52,2.44,1.25,3.22c2.27,2.42,2.5,3.19,1.38,6.38c-1.87,5.3-0.65,10.85,6.71,12.54
		c0.09-0.1,0.2-0.2,0.28-0.31c4.11-6.21,9.81-9.54,17.33-9.64c0.37-0.01,0.83-0.16,1.09-0.41c2.67-2.57,5.05-5.38,6.49-8.83
		c1.17-2.79,1.04-5.39-1.4-7.56c-0.36-0.32-0.63-0.8-0.8-1.26c-0.46-1.29,0.03-2.63,1.17-3.39c1.21-0.81,2.65-0.61,3.89,0.52
		c4.13,3.76,5.01,9.52,2.11,15.08c-1.26,2.42-2.87,4.67-4.35,7.03c-0.01-0.01,0.09,0.08,0.21,0.15c1.77,1.03,2.4,2.45,1.74,3.97
		c-0.66,1.54-2.11,2.09-4.07,1.61c-1.25-0.31-2.51-0.63-3.78-0.77c-5.97-0.67-10.9,1.15-14.39,6.22c-0.27,0.39-0.46,0.9-0.5,1.37
		c-0.11,1.09-0.01,2.2-0.16,3.28c-0.65,4.66,0.71,7.86,4.55,9.68c1.93,0.92,4.06,1.54,6.16,1.96c1.83,0.37,3.76,0.29,5.65,0.41
		c-0.08-0.64-0.23-0.85-0.4-1.05c-2.67-3.08-3.34-6.68-2.76-10.6c0.25-1.68,1.62-2.74,3.2-2.59c1.7,0.16,2.78,1.43,2.71,3.21
		c-0.01,0.37-0.08,0.73-0.11,1.1c-0.14,2.07,0.31,3.99,1.91,5.41c2.4,2.13,3.48,2.64,4.6-1.15c8.31-28.15,16.57-56.32,24.85-84.48
		c0.11-0.37,0.16-0.75,0.28-1.28c-0.67,0.34-1.15,0.61-1.64,0.85c-3.61,1.76-7.36,2.25-11.27,1.18c-1.98-0.55-2.99-2.06-2.51-3.77
		c0.46-1.66,2.01-2.43,3.97-1.96c2.46,0.6,4.85,0.4,7.13-0.71c2.81-1.36,4.92-3.52,6.7-6.03c0.17-0.23,0.2-0.57,0.25-0.87
		c0.14-0.85,0.18-1.73,0.39-2.56c0.82-3.15-0.4-5.55-3.48-6.7c-3.35-1.25-5.78-0.35-7.25,2.68c-1.55,3.2-4.46,3.83-7.22,1.54
		c-1.64-1.36-3.48-2.24-5.63-2.39c-3.71-0.25-6.72,1.21-9.48,3.73c0.6,0.35,0.99,0.58,1.38,0.82c5.69,3.56,8.52,8.61,8.02,15.4
		c-0.26,3.45-1.46,6.62-2.81,9.77c-1.2,2.78-2.42,5.59-3.17,8.51c-1.13,4.35,0.64,7.04,4.96,8.15c0.97,0.25,1.99,0.33,3,0.42
		c1.72,0.16,2.98,1.46,2.92,3.07c-0.06,1.65-1.32,2.9-3.1,2.85c-1.33-0.03-2.67-0.19-3.97-0.45c-6.68-1.35-10.56-6.37-9.92-13.15
		c0.23-2.44,0.94-4.88,1.76-7.21c0.98-2.77,2.44-5.37,3.45-8.13c2.51-6.81,0.45-12.01-5.79-14.93c-0.41-0.19-0.94-0.14-1.41-0.18
		c-1.2-0.11-2.48,0.03-3.58-0.36c-2.18-0.77-4.16-0.65-6.06,0.6C96.55,32.08,95.29,33.84,94.61,36.23z"/>
	<path class="st4" d="M212.23,96.69c2.58-2.88,4.17-6.44,4.71-10.1c0.48-3.19,0.17-6.45-0.97-9.42c-0.43-1.14-0.98-2.25-1.66-3.28
		c-0.56-0.86-0.66-1.54-0.38-2.52c0.19-0.65,0.33-1.3,0.45-1.94c0.53-2.89,0.38-5.64-0.28-8.12c-0.49-1.82-1.26-3.49-2.24-4.95
		c-1.61-2.41-3.79-4.25-6.25-5.27c-0.09-0.03-0.18-0.1-0.27-0.17c-0.04-0.04-0.08-0.07-0.12-0.12c-0.08-0.09-0.16-0.2-0.22-0.31
		c-0.03-0.06-0.06-0.11-0.08-0.17c-0.01-0.01-0.01-0.02-0.02-0.03c-0.05-0.1-0.08-0.2-0.1-0.29c-1.85-9.38-6.91-15.7-16.64-17.63
		c-0.34-0.07-0.79-0.48-0.87-0.81c-1.23-4.88-4.39-7.93-8.97-9.75c-7.25-2.87-14.6-0.02-17.97,7.03l-1.06,2.23
		c-0.31,0.65-0.66,1.29-0.99,1.93c-0.55,1.03-1.08,2.06-1.4,3.15c-4.64,15.58-9.21,31.19-13.79,46.79
		c-0.82,2.78-1.63,5.58-2.46,8.37c-0.73,2.52-1.47,5.02-2.21,7.53c-3.08,10.48-6.2,20.94-9.21,31.44c-0.3,1.03-0.49,2.05-0.56,3.03
		c-0.02,0.2-0.02,0.4-0.03,0.6c-0.02,0.55,0,1.09,0.05,1.62c0.02,0.22,0.05,0.45,0.09,0.66c0.03,0.21,0.08,0.43,0.12,0.64
		c0.01,0.02,0,0.04,0.01,0.06c0.07,0.27,0.13,0.54,0.21,0.8c0.08,0.26,0.16,0.5,0.26,0.76c0.01,0.06,0.04,0.13,0.07,0.19
		c0.1,0.24,0.2,0.49,0.33,0.73c0,0.01,0.01,0.02,0.01,0.04c0.1,0.2,0.21,0.4,0.31,0.6l0.01,0c0.2,0.37,0.42,0.72,0.68,1.08
		c0.14,0.21,0.29,0.41,0.46,0.62l0.11,0.15c0.15,0.18,0.31,0.35,0.47,0.53c0.26,0.3,0.54,0.6,0.85,0.88
		c0.29,0.28,0.49,0.66,0.76,0.96c1.28,1.44,2.43,3.04,3.81,4.34c0.23,0.22,0.46,0.43,0.71,0.63c3.49,2.85,7.68,4.36,12.04,5.27
		c7.85,1.64,14.16-0.86,18.35-7.25c0.73-1.12,1.47-1.28,2.62-0.98c3.42,0.87,6.77,0.56,9.98-0.93c3.85-1.79,6.59-4.63,8.44-8.24
		c0.38-0.72,0.71-1.48,1.02-2.26c0.16-0.44,0.45-0.99,0.81-1.15c2.59-1.09,4.58-2.86,6.11-5.19c0.25-0.37,0.64-0.65,0.99-0.94
		c9.3-7.19,13.42-16.78,13.02-28.4C211.35,98.15,211.56,97.45,212.23,96.69z M206.08,90.67c-2.59-1.66-5.08-3.36-7.6-4.98
		c-0.49-0.32-0.99-0.64-1.48-0.94c-0.02-0.01-0.04-0.03-0.06-0.04c-0.5-0.31-1-0.62-1.51-0.93c-0.5-0.31-1.02-0.61-1.53-0.91
		c-0.23-0.15-0.47-0.28-0.71-0.42c-4.96-2.8-10.39-4.6-16.15-3.66c-3,0.48-4.93-0.67-6.89-2.36c-2.91-2.53-3.4-5.7-1.5-9.07
		c0.29-0.52,0.65-1.01,0.9-1.54c0.64-1.42,0.17-3-1.08-3.76c-1.28-0.79-2.91-0.59-3.85,0.65c-3.37,4.38-4.48,10.77-0.54,15.87
		c1.05,1.36,2.39,2.51,3.36,3.52c-1.99,2.54-4.21,4.94-5.9,7.68c-4.17,6.78-2.34,13.54,4.54,17.54c1.22,0.72,2.54,1.3,3.88,1.76
		c1.68,0.58,3.27-0.25,3.81-1.8c0.55-1.58-0.2-3.04-1.8-3.84c-1.63-0.81-3.31-1.61-4.76-2.7c-1.78-1.33-2.26-3.28-1.71-5.46
		c1.63-6.41,8.39-11.25,14.99-10.72c3.79,0.3,7.3,1.55,10.53,3.37c0.04,0.03,0.08,0.04,0.12,0.07c0.4,0.24,0.82,0.49,1.22,0.74
		c3.26,2.05,6.3,4.46,9.41,6.73c0.33,0.25,0.67,0.7,0.73,1.09c1.46,9.53-1.27,17.53-8.77,23.76c-0.14,0.12-0.31,0.19-0.45,0.27
		c-4.34-2.64-5.59-7.8-2.99-12.28c0.41-0.71,0.91-1.39,1.38-2.07c1.03-1.52,0.8-3.25-0.59-4.27c-1.31-0.97-3.01-0.69-4.16,0.69
		c-5.72,6.87-5.31,15.06,1.06,21.35c0.32,0.32,0.64,0.64,1.21,1.21c-0.87,0.29-1.55,0.6-2.28,0.72c-2.28,0.35-3.53,1.46-3.96,3.77
		c-0.05,0.25-0.1,0.51-0.17,0.75c-0.63,2.7-1.91,4.98-4.34,6.55c-0.6,0.39-1.29,0.65-2.17,1.08c0.11-1.17,0.21-2.07,0.28-2.95
		c0.62-8.19-3.36-14.92-10.94-18.01c-0.14-0.06-0.28-0.11-0.42-0.16c-2.67-1.05-5.5-1.71-8.3-2.42c-1.79-0.45-3.25,0.6-3.6,2.32
		c-0.35,1.68,0.68,3.12,2.52,3.48c1.23,0.24,2.44,0.5,3.64,0.83c0.41,0.11,0.83,0.24,1.24,0.37c0.18,0.06,0.35,0.11,0.53,0.18
		c0.19,0.07,0.39,0.14,0.57,0.21c0.48,0.17,0.95,0.37,1.42,0.59c0.2,0.09,0.38,0.18,0.57,0.28c0.23,0.12,0.47,0.23,0.7,0.37
		c0.22,0.12,0.45,0.26,0.68,0.4c5.52,3.42,6.07,8.71,5.17,13.18c-0.17,0.82-0.53,0.94-1.25,0.62c-3.02-1.3-5.09-0.41-6.42,2.62
		c-0.49,1.13-1.11,2.23-1.82,3.23c-1.72,2.41-4.13,3.51-7.06,3.22c-3.72-0.37-7.19-1.57-10.3-3.67c-0.96-0.65-1.74-1.58-2.7-2.48
		c2.35-2.5,4.62-4.68,7.71-5.78c1.57-0.56,3.13-0.56,4.7,0.15c1.63,0.73,3.31,0.12,3.99-1.35c0.78-1.63,0.16-3.31-1.59-4.12
		c-0.86-0.39-1.74-0.7-2.61-0.88c-0.56-0.12-1.12-0.21-1.68-0.23c-0.55-0.03-1.09-0.02-1.63,0.02c-0.24,0.03-0.5,0.06-0.74,0.1
		c-0.06,0.01-0.13,0.02-0.18,0.04c-0.19,0.04-0.37,0.07-0.56,0.12c-0.31,0.06-0.62,0.16-0.92,0.26c-0.01,0-0.02,0-0.03,0.02
		c-0.51,0.17-1.02,0.39-1.53,0.65c-0.68,0.35-1.35,0.75-2,1.16c-0.09,0.06-0.18,0.11-0.26,0.17c-0.31,0.2-0.61,0.41-0.91,0.62
		c-1.35,0.93-2.67,1.94-4.02,2.87c-0.37,0.25-0.66,0.62-1.26,1.19c0-0.16-0.01-0.31-0.01-0.45c0-0.04,0-0.08,0-0.13
		c-0.01-0.24-0.02-0.45-0.03-0.65c0-0.21-0.01-0.41,0.02-0.59l0.02-0.13c0.09-0.63,0.31-1.25,0.49-1.86
		c3.33-11.3,6.64-22.6,9.97-33.9c5.3-18.04,10.61-36.08,15.95-54.12c0.41-1.42,0.83-2.86,1.26-4.28c0.39-1.32,1.27-2.49,1.89-3.75
		c0.39-0.77,0.78-1.56,1.05-2.38c1.01-3.04,3.4-4.34,6.64-3.55c2.81,0.7,4.33,2.24,4.53,4.56c0.04,0.51,0.02,1.05-0.06,1.62
		c-0.3,2.12-0.56,4.24-0.77,6.37c-0.42,4.31,1.79,8.29,5.61,10.27c1.44,0.74,3.16,0.28,4-1.08c0.86-1.37,0.46-3.13-1.06-4.07
		c-2-1.24-3.01-2.86-2.56-5.3c0.16-0.87,0.53-1.12,1.37-1.11c1.28,0,2.45,0.21,3.51,0.61c2,0.72,3.63,2.09,5,3.99
		c0.1,0.14,0.2,0.28,0.29,0.42c1.85,2.8,2.27,5.99,2.24,9.29c0,0.25-0.12,0.57-0.3,0.74c-1.67,1.7-3.22,3.57-5.1,4.99
		c-2.48,1.87-5.06,1.69-7.55-0.15c-1.02-0.77-1.91-1.72-2.79-2.65c-1.32-1.35-3-1.57-4.31-0.49c-1.35,1.14-1.46,2.91-0.19,4.4
		c2.74,3.19,5.89,5.71,10.3,6.06c3.25,0.26,6.18-0.72,8.63-2.72c2.04-1.68,3.85-3.67,5.6-5.66c0.69-0.79,1.16-0.82,1.94-0.36
		c0.05,0.03,0.11,0.07,0.15,0.1c0.14,0.08,0.29,0.19,0.42,0.3c0.13,0.1,0.25,0.2,0.37,0.31c0.03,0.02,0.05,0.05,0.07,0.07
		c0.11,0.09,0.22,0.2,0.32,0.33c0.13,0.12,0.25,0.26,0.35,0.4c0.13,0.17,0.26,0.36,0.38,0.54c0.08,0.11,0.16,0.23,0.21,0.35
		c0.09,0.17,0.18,0.34,0.27,0.52c0.15,0.32,0.29,0.67,0.4,1.01c0.11,0.36,0.2,0.73,0.27,1.11c0.04,0.18,0.07,0.39,0.09,0.57
		c0.13,1.07,0.07,2.19-0.19,3.3c-0.28,1.11-0.75,2.18-1.23,3.21c-0.99,2.14-0.7,3.88,1.02,5.5
		C209.59,80.46,209.65,87.13,206.08,90.67z"/>
	<path class="st12" d="M94.61,36.23c0.68-2.39,1.94-4.16,3.86-5.41c1.9-1.25,3.89-1.37,6.06-0.6c1.1,0.39,2.38,0.25,3.58,0.36
		c0.47,0.04,1-0.01,1.41,0.18c6.25,2.92,8.31,8.12,5.79,14.93c-1.02,2.76-2.48,5.36-3.45,8.13c-0.82,2.32-1.52,4.77-1.76,7.21
		c-0.64,6.79,3.23,11.8,9.92,13.15c1.3,0.26,2.64,0.42,3.97,0.45c1.77,0.04,3.03-1.2,3.1-2.85c0.06-1.6-1.2-2.9-2.92-3.07
		c-1-0.09-2.03-0.17-3-0.42c-4.32-1.11-6.1-3.8-4.96-8.15c0.76-2.92,1.98-5.73,3.17-8.51c1.36-3.15,2.56-6.32,2.81-9.77
		c0.5-6.78-2.33-11.84-8.02-15.4c-0.39-0.24-0.79-0.47-1.38-0.82c2.75-2.51,5.76-3.98,9.48-3.73c2.15,0.15,3.98,1.03,5.63,2.39
		c2.76,2.28,5.67,1.66,7.22-1.54c1.47-3.03,3.9-3.93,7.25-2.68c3.08,1.15,4.31,3.55,3.48,6.7c-0.22,0.83-0.25,1.71-0.39,2.56
		c-0.05,0.3-0.09,0.64-0.25,0.87c-1.78,2.51-3.89,4.67-6.7,6.03c-2.29,1.11-4.67,1.3-7.13,0.71c-1.96-0.47-3.51,0.3-3.97,1.96
		c-0.48,1.71,0.53,3.22,2.51,3.77c3.91,1.08,7.66,0.59,11.27-1.18c0.49-0.24,0.97-0.5,1.64-0.85c-0.11,0.53-0.17,0.91-0.28,1.28
		c-8.27,28.16-16.54,56.33-24.85,84.48c-1.12,3.79-2.2,3.27-4.6,1.15c-1.6-1.41-2.04-3.33-1.91-5.41c0.02-0.37,0.09-0.73,0.11-1.1
		c0.07-1.78-1-3.05-2.71-3.21c-1.57-0.15-2.95,0.91-3.2,2.59c-0.59,3.91,0.09,7.52,2.76,10.6c0.17,0.2,0.32,0.41,0.4,1.05
		c-1.89-0.12-3.81-0.03-5.65-0.41c-2.1-0.43-4.23-1.04-6.16-1.96c-3.84-1.82-5.2-5.02-4.55-9.68c0.15-1.08,0.05-2.19,0.16-3.28
		c0.05-0.47,0.23-0.98,0.5-1.37c3.49-5.07,8.42-6.89,14.39-6.22c1.27,0.14,2.53,0.46,3.78,0.77c1.95,0.48,3.4-0.07,4.07-1.61
		c0.65-1.52,0.03-2.95-1.74-3.97c-0.11-0.07-0.22-0.15-0.21-0.15c1.47-2.36,3.08-4.6,4.35-7.03c2.9-5.56,2.02-11.32-2.11-15.08
		c-1.24-1.14-2.68-1.33-3.89-0.52c-1.14,0.76-1.63,2.1-1.17,3.39c0.17,0.46,0.44,0.94,0.8,1.26c2.43,2.17,2.56,4.77,1.4,7.56
		c-1.45,3.46-3.82,6.27-6.49,8.83c-0.26,0.25-0.72,0.4-1.09,0.41c-7.51,0.11-13.22,3.43-17.33,9.64c-0.08,0.11-0.18,0.21-0.28,0.31
		c-7.36-1.68-8.58-7.24-6.71-12.54c1.12-3.18,0.89-3.96-1.38-6.38c-0.73-0.78-0.95-2.1-1.25-3.22c-0.35-1.3-0.37-2.72-0.84-3.97
		c-2.49-6.63-2.05-13.09,0.92-19.44c0.13-0.27,0.33-0.51,0.6-0.92c1.81,3.21,4.68,5,7.6,6.8c1.82,1.12,3.54,2.52,5,4.07
		c3.96,4.22,4.48,9.03,1.7,14.11c-0.64,1.17-1.44,2.24-2.16,3.37c-0.89,1.39-0.59,3.14,0.68,4.07c1.25,0.91,3.01,0.8,3.99-0.45
		c3.09-3.92,5.18-8.27,5.17-13.39c-0.01-3.11-0.95-5.98-2.6-8.62c-0.31-0.5-0.64-1-1.03-1.61c0.83-0.11,1.55-0.18,2.25-0.3
		c1.79-0.3,2.86-1.6,2.68-3.25c-0.18-1.72-1.56-2.84-3.4-2.64c-3.25,0.36-6.44,0.24-9.53-0.91c-2.37-0.88-4.24-2.37-5.46-4.62
		c-0.62-1.15-1.04-2.22-0.46-3.63c0.34-0.82,0.08-1.99-0.19-2.92c-1.2-4.1-0.42-7.74,2.36-10.95c1.27-1.47,2.89-2.41,4.85-2.68
		c0.41-0.06,0.87-0.09,1.19-0.3c0.98-0.65,2.03-0.85,2.93-0.12c0.97,0.78,2.24,1.69,2.48,2.74c0.41,1.87,0.21,3.89,0.13,5.84
		c-0.03,0.81-0.44,1.59-0.6,2.41c-0.33,1.66,0.55,3.11,2.1,3.54c1.49,0.42,3.07-0.28,3.57-1.82c1.16-3.59,1.8-7.25,0.83-11
		c-0.98-3.77-3.44-6.21-7.02-7.59C95.4,36.51,95.06,36.4,94.61,36.23z"/>
	<path class="st4" d="M204.92,50.3c-0.22,1.27-0.46,2.6-0.75,3.98c-0.34,1.63-0.73,3.32-1.19,5.07c-1.84,7.16-4.69,15.22-9.08,23.52
		c-0.89,1.68-1.84,3.36-2.86,5.06c-5.64,9.36-13.36,18.84-23.88,27.47c-0.64,0.53-1.28,1.05-1.95,1.57
		c-1.83,1.43-3.75,2.84-5.74,4.21c-3.75,2.59-7.81,5.08-12.18,7.43c-0.01,0-0.02,0-0.03,0.02c-0.51,0.17-1.02,0.39-1.53,0.65
		c-0.68,0.35-1.35,0.75-2,1.16c-2.09,1.05-4.24,2.06-6.47,3.03c-0.37,0.16-0.73,0.32-1.1,0.47c-1.33,0.58-2.69,1.14-4.07,1.68
		c-1.05,0.42-2.1,0.83-3.18,1.22c-0.04-0.21-0.09-0.43-0.12-0.64c-0.03-0.21-0.07-0.44-0.09-0.66c-0.05-0.53-0.07-1.07-0.05-1.62
		c0.01-0.2,0.01-0.4,0.03-0.6c0.07-0.98,0.26-2,0.56-3.03c3.01-10.5,6.13-20.96,9.21-31.44c0.74-2.51,1.48-5.02,2.21-7.53
		c0.83-2.79,1.64-5.59,2.46-8.37c4.58-15.61,9.15-31.22,13.79-46.79c0.33-1.09,0.85-2.12,1.4-3.15c0.34-0.64,0.69-1.28,0.99-1.93
		l1.06-2.23c3.37-7.05,10.71-9.91,17.97-7.03c4.58,1.82,7.74,4.87,8.97,9.75c0.08,0.32,0.52,0.74,0.87,0.81
		c9.73,1.93,14.79,8.25,16.64,17.63C204.84,50.1,204.87,50.2,204.92,50.3z"/>
	<path class="st12" d="M193.75,120.33c-0.14,0.12-0.31,0.19-0.45,0.27c-4.34-2.64-5.59-7.8-2.99-12.28
		c0.41-0.71,0.91-1.39,1.38-2.07c1.03-1.52,0.8-3.25-0.59-4.27c-1.31-0.97-3.01-0.69-4.16,0.69c-5.72,6.87-5.31,15.06,1.06,21.35
		c0.32,0.32,0.64,0.64,1.21,1.21c-0.87,0.29-1.55,0.6-2.28,0.72c-2.28,0.35-3.53,1.46-3.96,3.77c-0.05,0.25-0.1,0.51-0.17,0.75
		c-0.63,2.7-1.91,4.98-4.34,6.55c-0.6,0.39-1.29,0.65-2.17,1.08c0.11-1.17,0.21-2.07,0.28-2.95c0.62-8.19-3.36-14.92-10.94-18.01
		c-0.14-0.06-0.28-0.11-0.42-0.16c0.66-0.51,1.31-1.04,1.95-1.57c10.52-8.63,18.24-18.11,23.88-27.47c0.04,0.03,0.08,0.04,0.12,0.07
		c0.42,0.23,0.82,0.49,1.22,0.74c3.26,2.05,6.3,4.46,9.41,6.73c0.33,0.25,0.67,0.7,0.73,1.09
		C203.98,106.09,201.24,114.09,193.75,120.33z"/>
	<path class="st12" d="M206.08,90.67c-2.59-1.66-5.08-3.36-7.6-4.98c-0.49-0.32-0.99-0.64-1.48-0.94c-0.02-0.01-0.04-0.03-0.06-0.04
		c-0.5-0.31-1-0.62-1.51-0.93c-0.5-0.31-1.02-0.61-1.53-0.91c4.39-8.31,7.24-16.37,9.08-23.52c0.14,0.09,0.29,0.2,0.42,0.3
		c0.13,0.1,0.25,0.2,0.37,0.31c0.03,0.02,0.05,0.05,0.07,0.07c0.11,0.1,0.22,0.21,0.32,0.33c0.13,0.13,0.23,0.26,0.35,0.4
		c0.13,0.17,0.26,0.36,0.38,0.54c0.08,0.11,0.15,0.23,0.21,0.35c0.09,0.17,0.18,0.34,0.27,0.52c0.15,0.32,0.28,0.66,0.4,1.01
		c0.11,0.36,0.2,0.73,0.27,1.11c0.04,0.18,0.07,0.39,0.09,0.57c0.13,1.07,0.07,2.19-0.19,3.3c-0.28,1.11-0.75,2.18-1.23,3.21
		c-0.99,2.14-0.7,3.88,1.02,5.5C209.59,80.46,209.65,87.13,206.08,90.67z"/>
	<path class="st12" d="M170.35,136.75c-0.17,0.82-0.53,0.94-1.25,0.62c-3.02-1.3-5.09-0.41-6.42,2.62
		c-0.49,1.13-1.11,2.23-1.82,3.23c-1.72,2.41-4.13,3.51-7.06,3.22c-3.72-0.37-7.19-1.57-10.3-3.67c-0.96-0.65-1.74-1.58-2.7-2.48
		c2.35-2.5,4.62-4.68,7.71-5.78c1.57-0.56,3.13-0.56,4.7,0.15c1.63,0.73,3.31,0.12,3.99-1.35c0.78-1.63,0.16-3.31-1.59-4.12
		c-0.86-0.39-1.74-0.7-2.61-0.88c-0.56-0.12-1.12-0.21-1.68-0.23c-0.55-0.04-1.09-0.04-1.63,0.02c-0.24,0.03-0.5,0.06-0.74,0.1
		c-0.06,0.01-0.13,0.02-0.18,0.04c-0.19,0.04-0.37,0.07-0.56,0.12c-0.31,0.06-0.62,0.16-0.92,0.26c4.38-2.36,8.43-4.84,12.18-7.43
		c0.41,0.11,0.83,0.24,1.24,0.37c0.18,0.06,0.35,0.11,0.53,0.18c0.19,0.07,0.39,0.14,0.57,0.21c0.48,0.17,0.95,0.37,1.42,0.59
		c0.2,0.09,0.38,0.18,0.57,0.28c0.23,0.12,0.47,0.23,0.7,0.37c0.22,0.12,0.45,0.26,0.68,0.4
		C170.71,126.99,171.25,132.28,170.35,136.75z"/>
	<path class="st15" d="M149.7,128.1c0.54-0.05,1.08-0.06,1.63-0.02C150.78,128.05,150.24,128.06,149.7,128.1z"/>
	<path class="st16" d="M202.99,59.35c-1.84,7.16-4.69,15.22-9.08,23.52c-0.23-0.15-0.47-0.28-0.71-0.42
		c-4.96-2.8-10.39-4.6-16.15-3.66c-3,0.48-4.93-0.67-6.89-2.36c-2.91-2.53-3.4-5.7-1.5-9.07c0.29-0.52,0.65-1.01,0.9-1.54
		c0.64-1.42,0.17-3-1.08-3.76c-1.28-0.79-2.91-0.59-3.85,0.65c-3.37,4.38-4.48,10.77-0.54,15.87c1.05,1.36,2.39,2.51,3.36,3.52
		c-1.99,2.54-4.21,4.94-5.9,7.68c-4.17,6.78-2.34,13.54,4.54,17.54c1.22,0.72,2.54,1.3,3.88,1.76c1.68,0.58,3.27-0.25,3.81-1.8
		c0.55-1.58-0.2-3.04-1.8-3.84c-1.63-0.81-3.31-1.61-4.76-2.7c-1.78-1.33-2.26-3.28-1.71-5.46c1.63-6.41,8.39-11.25,14.99-10.72
		c3.79,0.3,7.3,1.55,10.53,3.37c-5.64,9.36-13.36,18.84-23.88,27.47c-0.64,0.53-1.28,1.05-1.95,1.57c-2.67-1.05-5.5-1.71-8.3-2.42
		c-1.79-0.45-3.25,0.6-3.6,2.32c-0.35,1.68,0.68,3.12,2.52,3.48c1.23,0.24,2.44,0.5,3.64,0.83c-3.75,2.59-7.81,5.08-12.18,7.43
		c-0.01,0-0.02,0-0.03,0.02c-0.51,0.17-1.02,0.39-1.53,0.65c-0.68,0.35-1.35,0.75-2,1.16c-0.09,0.06-0.18,0.11-0.26,0.17
		c-0.31,0.2-0.61,0.41-0.91,0.62c-1.35,0.93-2.67,1.94-4.02,2.87c-0.37,0.25-0.66,0.62-1.26,1.19c0-0.16-0.01-0.31-0.01-0.45
		c0-0.04,0-0.08,0-0.13c-0.01-0.24-0.02-0.45-0.03-0.65c0-0.21-0.01-0.41,0.02-0.59l0.02-0.13c0.09-0.63,0.31-1.25,0.49-1.86
		c3.33-11.3,6.64-22.6,9.97-33.9c5.3-18.04,10.61-36.08,15.95-54.12c0.41-1.42,0.83-2.86,1.26-4.28c0.39-1.32,1.27-2.49,1.89-3.75
		c0.39-0.77,0.78-1.56,1.05-2.38c1.01-3.04,3.4-4.34,6.64-3.55c2.81,0.7,4.33,2.24,4.53,4.56c0.04,0.51,0.02,1.05-0.06,1.62
		c-0.3,2.12-0.56,4.24-0.77,6.37c-0.42,4.31,1.79,8.29,5.61,10.27c1.44,0.74,3.16,0.28,4-1.08c0.86-1.37,0.46-3.13-1.06-4.07
		c-2-1.24-3.01-2.86-2.56-5.3c0.16-0.87,0.53-1.12,1.37-1.11c1.28,0,2.45,0.21,3.51,0.61c2,0.72,3.63,2.09,5,3.99
		c0.1,0.14,0.2,0.28,0.29,0.42c1.85,2.8,2.27,5.99,2.24,9.29c0,0.25-0.12,0.57-0.3,0.74c-1.67,1.7-3.22,3.57-5.1,4.99
		c-2.48,1.87-5.06,1.69-7.55-0.15c-1.02-0.77-1.91-1.72-2.79-2.65c-1.32-1.35-3-1.57-4.31-0.49c-1.35,1.14-1.46,2.91-0.19,4.4
		c2.74,3.19,5.89,5.71,10.3,6.06c3.25,0.26,6.18-0.72,8.63-2.72c2.04-1.68,3.85-3.67,5.6-5.66c0.69-0.79,1.16-0.82,1.94-0.36
		C202.88,59.27,202.94,59.31,202.99,59.35z"/>
	<path class="st17" d="M212.23,96.69c2.58-2.88,4.17-6.44,4.71-10.1c0.48-3.19,0.17-6.45-0.97-9.42c-0.43-1.14-0.98-2.25-1.66-3.28
		c-0.56-0.86-0.66-1.54-0.38-2.52c0.19-0.65,0.33-1.3,0.45-1.94c0.53-2.89,0.38-5.64-0.28-8.12c-0.49-1.82-1.26-3.49-2.24-4.95
		c-1.61-2.41-3.79-4.25-6.25-5.27c-0.09-0.03-0.18-0.1-0.27-0.17c-0.04-0.04-0.08-0.07-0.12-0.12c-0.08-0.09-0.16-0.2-0.22-0.31
		c-0.03-0.06-0.06-0.11-0.08-0.17c-0.01-0.01-0.01-0.02-0.02-0.03c-0.22,1.27-0.46,2.6-0.75,3.98c-0.34,1.63-0.73,3.32-1.19,5.07
		c0.14,0.09,0.29,0.2,0.42,0.3c0.13,0.1,0.25,0.2,0.37,0.31c0.03,0.02,0.05,0.05,0.07,0.07c0.11,0.1,0.22,0.21,0.32,0.33
		c0.13,0.12,0.25,0.26,0.35,0.4c0.13,0.17,0.26,0.36,0.38,0.54c0.08,0.11,0.15,0.23,0.21,0.35c0.09,0.17,0.18,0.34,0.27,0.52
		c0.15,0.32,0.29,0.67,0.4,1.01c0.11,0.36,0.2,0.73,0.27,1.11c0.04,0.18,0.07,0.39,0.09,0.57c0.13,1.07,0.07,2.19-0.19,3.3
		c-0.28,1.11-0.75,2.18-1.23,3.21c-0.99,2.14-0.7,3.88,1.02,5.5c3.84,3.59,3.9,10.26,0.33,13.8c-2.59-1.66-5.08-3.36-7.6-4.98
		c-0.49-0.32-0.99-0.64-1.48-0.94c-0.02-0.01-0.04-0.03-0.06-0.04c-0.5-0.31-1-0.62-1.51-0.93c-0.5-0.31-1.02-0.61-1.53-0.91
		c-0.89,1.68-1.84,3.36-2.86,5.06c0.04,0.03,0.08,0.04,0.12,0.07c0.42,0.23,0.82,0.49,1.22,0.74c3.26,2.05,6.3,4.46,9.41,6.73
		c0.33,0.25,0.67,0.7,0.73,1.09c1.46,9.53-1.27,17.53-8.77,23.76c-0.14,0.12-0.31,0.19-0.45,0.27c-4.34-2.64-5.59-7.8-2.99-12.28
		c0.41-0.71,0.91-1.39,1.38-2.07c1.03-1.52,0.8-3.25-0.59-4.27c-1.31-0.97-3.01-0.69-4.16,0.69c-5.72,6.87-5.31,15.06,1.06,21.35
		c0.32,0.32,0.64,0.64,1.21,1.21c-0.87,0.29-1.55,0.6-2.28,0.72c-2.28,0.35-3.53,1.46-3.96,3.77c-0.05,0.25-0.1,0.51-0.17,0.75
		c-0.63,2.7-1.91,4.98-4.34,6.55c-0.6,0.39-1.29,0.65-2.17,1.08c0.11-1.17,0.21-2.07,0.28-2.95c0.62-8.19-3.36-14.92-10.94-18.01
		c-0.14-0.06-0.28-0.11-0.42-0.16c-1.83,1.43-3.75,2.84-5.74,4.21c0.41,0.11,0.83,0.24,1.24,0.37c0.18,0.06,0.35,0.11,0.53,0.18
		c0.19,0.07,0.39,0.14,0.57,0.21c0.48,0.17,0.95,0.37,1.42,0.59c0.2,0.09,0.38,0.18,0.57,0.28c0.23,0.12,0.47,0.23,0.7,0.37
		c0.22,0.12,0.45,0.26,0.68,0.4c5.52,3.42,6.07,8.71,5.17,13.18c-0.17,0.82-0.53,0.94-1.25,0.62c-3.02-1.3-5.09-0.41-6.42,2.62
		c-0.49,1.13-1.11,2.23-1.82,3.23c-1.72,2.41-4.13,3.51-7.06,3.22c-3.72-0.37-7.19-1.57-10.3-3.67c-0.96-0.65-1.74-1.58-2.7-2.48
		c2.35-2.5,4.62-4.68,7.71-5.78c1.57-0.56,3.13-0.56,4.7,0.15c1.63,0.73,3.31,0.12,3.99-1.35c0.78-1.63,0.16-3.31-1.59-4.12
		c-0.86-0.39-1.74-0.7-2.61-0.88c-0.56-0.12-1.12-0.21-1.68-0.23c-0.55-0.04-1.09-0.04-1.63,0.02c-0.24,0.03-0.5,0.06-0.74,0.1
		c-0.06,0.01-0.13,0.02-0.18,0.04c-0.19,0.04-0.37,0.07-0.56,0.12c-0.31,0.06-0.62,0.16-0.92,0.26c-0.01,0-0.02,0-0.03,0.02
		c-0.51,0.17-1.02,0.39-1.53,0.65c-0.68,0.35-1.35,0.75-2,1.16c-0.09,0.06-0.18,0.11-0.26,0.17c-0.31,0.2-0.61,0.41-0.91,0.62
		c-1.35,0.93-2.67,1.94-4.02,2.87c-0.37,0.25-0.66,0.62-1.26,1.19c0-0.16-0.01-0.31-0.01-0.45c0-0.04,0-0.08,0-0.13
		c-0.01-0.24-0.02-0.45-0.03-0.65c0-0.21-0.01-0.41,0.02-0.59c-0.37,0.16-0.73,0.32-1.1,0.47c-1.33,0.58-2.69,1.14-4.07,1.68
		c-1.05,0.42-2.1,0.83-3.18,1.22c0.01,0.02,0,0.04,0.01,0.06c0.07,0.27,0.13,0.54,0.21,0.8c0.08,0.26,0.16,0.5,0.26,0.76
		c0.01,0.06,0.04,0.13,0.07,0.19c0.1,0.24,0.2,0.49,0.33,0.73c0,0.01,0.01,0.02,0.01,0.04c0.1,0.2,0.21,0.4,0.31,0.6l0.01,0
		c0.2,0.37,0.42,0.72,0.68,1.08c0.14,0.21,0.29,0.41,0.46,0.62l0.11,0.15c0.15,0.18,0.31,0.35,0.47,0.53
		c0.26,0.3,0.54,0.6,0.85,0.88c0.29,0.28,0.49,0.66,0.76,0.96c1.28,1.44,2.43,3.04,3.81,4.34c0.23,0.22,0.46,0.43,0.71,0.63
		c3.49,2.85,7.68,4.36,12.04,5.27c7.85,1.64,14.16-0.86,18.35-7.25c0.73-1.12,1.47-1.28,2.62-0.98c3.42,0.87,6.77,0.56,9.98-0.93
		c3.85-1.79,6.59-4.63,8.44-8.24c0.38-0.72,0.71-1.48,1.02-2.26c0.16-0.44,0.45-0.99,0.81-1.15c2.59-1.09,4.58-2.86,6.11-5.19
		c0.25-0.37,0.64-0.65,0.99-0.94c9.3-7.19,13.42-16.78,13.02-28.4C211.35,98.15,211.56,97.45,212.23,96.69z"/>
</g>
</svg>
