<?xml version="1.0" encoding="utf-8"?>
<!-- Generator: Adobe Illustrator 23.0.6, SVG Export Plug-In . SVG Version: 6.00 Build 0)  -->
<svg version="1.1" id="Layer_1" xmlns="http://www.w3.org/2000/svg" xmlns:xlink="http://www.w3.org/1999/xlink" x="0px" y="0px"
	 viewBox="0 0 235.28 235.28" style="enable-background:new 0 0 235.28 235.28;" xml:space="preserve">
<style type="text/css">
	.st0{opacity:0.55;fill:url(#SVGID_1_);}
	.st1{opacity:0.66;fill:url(#SVGID_2_);}
	.st2{opacity:0.73;fill:url(#SVGID_3_);}
	.st3{fill:#2DCDAE;}
	.st4{opacity:0.69;fill:#7F9CA3;}
	.st5{fill:#FBFBFB;}
	.st6{fill:#DBDBDB;}
	.st7{fill:#8B8B8B;}
	.st8{fill:#26B7D2;}
	.st9{fill:#3ECADD;}
	.st10{fill:#ECD29D;}
	.st11{fill:#827EF7;}
	.st12{fill:#F2E1BE;}
	.st13{fill:#3D3D3D;}
	.st14{fill:#9C9CEF;}
</style>
<linearGradient id="SVGID_1_" gradientUnits="userSpaceOnUse" x1="125.7447" y1="118.2666" x2="243.7968" y2="129.2935">
	<stop  offset="0" style="stop-color:#2DCDAE;stop-opacity:0.8"/>
	<stop  offset="1" style="stop-color:#26B7D2"/>
</linearGradient>
<path class="st0" d="M156.18,234.19c-3.81,0.63-7.76,0.95-11.81,0.94c-14.44-0.05-27.82-2.53-40.02-6.49
	c-1.98-57.71-13.81-137.6-63.27-148.82C51.06,69.49,63.44,57.19,77.8,40.5c17.29-20.11,37.83-31.8,57.01-37.03
	C141.25,32.43,166.6,154.35,156.18,234.19z"/>
<linearGradient id="SVGID_2_" gradientUnits="userSpaceOnUse" x1="202.3748" y1="129.5748" x2="17.5129" y2="71.846">
	<stop  offset="0" style="stop-color:#2DCDAE;stop-opacity:0.8"/>
	<stop  offset="1" style="stop-color:#26B7D2"/>
</linearGradient>
<path class="st1" d="M156.18,234.19c10.42-79.85-14.93-201.76-21.37-230.73C175.2-7.56,209.59,10.06,195.2,38
	c-10.91,21.19,0.95,63.85,15.06,100.3C226.75,180.91,199.32,227.1,156.18,234.19z"/>
<linearGradient id="SVGID_3_" gradientUnits="userSpaceOnUse" x1="135.1566" y1="168.1437" x2="4.1317" y2="138.955">
	<stop  offset="0" style="stop-color:#2DCDAE;stop-opacity:0.8"/>
	<stop  offset="1" style="stop-color:#26B7D2"/>
</linearGradient>
<path class="st2" d="M104.36,228.65c-28.12-9.14-49.95-26.2-63.9-39.72C27,175.89,17.58,159.12,14.38,140.65
	c-4.52-26.22,5.78-39.15,26.71-60.83C90.54,91.05,102.38,170.93,104.36,228.65z"/>
<g>
	<path class="st3" d="M144.8,43.19l31.75,115.57c1.96,7.13-2.27,14.56-9.4,16.52l-79.93,21.96c-7.13,1.96-14.56-2.27-16.52-9.4
		L38.95,72.27c-1.96-7.13,2.27-14.56,9.4-16.52l79.93-21.96C135.41,31.84,142.84,36.07,144.8,43.19z"/>
	<path class="st4" d="M139.72,52.26l28.16,102.49c1.23,4.48-1.4,9.11-5.88,10.34l-72.91,20.03c-4.48,1.23-9.11-1.4-10.34-5.88
		L50.59,76.74c-1.23-4.47,1.4-9.1,5.89-10.33l72.91-20.03C133.86,45.15,138.49,47.79,139.72,52.26z"/>
	<path class="st5" d="M126.23,46.08L128,45.6c4.48-1.23,9.11,1.4,10.34,5.88l28.16,102.49c1.23,4.48-1.4,9.11-5.88,10.34
		L87.7,184.34c-4.48,1.23-9.11-1.4-10.34-5.88L49.21,75.96c-1.23-4.48,1.4-9.11,5.88-10.34l1.75-0.48L126.23,46.08z M125.87,142.14
		c5.51-1.51,11.01-3.02,16.52-4.54c0.44-0.12,0.89-0.22,1.3-0.42c1.26-0.61,1.8-1.94,1.33-3.22c-0.44-1.21-1.63-1.87-2.96-1.62
		c-0.27,0.05-0.53,0.14-0.79,0.21c-11.1,3.05-22.2,6.1-33.3,9.15c-0.4,0.11-0.82,0.18-1.17,0.37c-1.06,0.58-1.61,1.49-1.38,2.72
		c0.23,1.27,1.03,2.04,2.33,2.11c0.57,0.03,1.18-0.12,1.74-0.27C114.95,145.14,120.41,143.64,125.87,142.14z M113.63,97.47
		c4.05-1.11,8.1-2.23,12.16-3.34c1.76-0.48,3.53-0.93,5.28-1.47c1.22-0.37,1.89-1.26,1.83-2.57c-0.06-1.23-0.72-2.12-1.92-2.35
		c-0.68-0.13-1.45,0.02-2.14,0.2c-8.95,2.43-17.89,4.9-26.83,7.35c-2.25,0.62-4.5,1.21-6.74,1.86c-1.61,0.46-2.39,1.62-2.13,3.03
		c0.3,1.63,1.74,2.42,3.57,1.92C102.36,100.57,108,99.02,113.63,97.47z M114.55,81.24c4.05-1.11,8.11-2.21,12.15-3.35
		c1.63-0.46,2.42-1.76,2.05-3.19c-0.52-2.05-3.13-2.87-5.28-0.41c-4.65,5.32-11.78,7.48-18.6,5.62c-3.71-1.01-5.8-0.13-5.95,2.12
		c-0.13,1.84,1.57,3.05,3.6,2.51C106.54,83.46,110.54,82.34,114.55,81.24z M125.4,120.93c-3.96,1.09-7.93,2.17-11.89,3.27
		c-1.83,0.51-2.67,1.77-2.23,3.29c0.52,1.78,2.4,2.39,4.71,1.18c6.73-3.51,14.14-5.28,21.7-5.93c2.57-0.22,3.78-1.63,3.31-3.42
		c-0.4-1.54-1.75-2.19-3.59-1.69C133.41,118.72,129.41,119.83,125.4,120.93z M79.26,100.2c-1.22-0.77-2.2-1.44-3.23-2.02
		c-1.53-0.87-3.06-0.53-3.81,0.79c-0.75,1.32-0.25,2.79,1.27,3.68c1.81,1.06,3.64,2.09,5.48,3.12c1.79,1,3.78,0.24,4.43-1.7
		c1.37-4.11,2.73-8.23,4.09-12.35c0.5-1.52,1.03-3.02,1.5-4.55c0.46-1.52-0.18-2.87-1.54-3.35c-1.42-0.51-2.75,0.19-3.34,1.76
		c-0.18,0.47-0.32,0.95-0.47,1.43C82.22,91.28,80.8,95.56,79.26,100.2z M91.55,144.74c-1.23-0.73-2.3-1.4-3.41-2.01
		c-1.49-0.81-2.92-0.44-3.67,0.9c-0.7,1.25-0.29,2.72,1.07,3.52c2,1.19,4.03,2.35,6.07,3.46c2.18,1.18,4.06-0.07,4.21-3.25
		c0.25-5.17,1.96-10.05,4.84-14.35c1.34-2,0.73-4-0.98-4.58c-1.4-0.47-2.78,0.24-3.32,1.82c-1.29,3.8-2.54,7.62-3.8,11.44
		C92.26,142.64,91.94,143.58,91.55,144.74z"/>
	<path class="st6" d="M125.87,142.14c-5.46,1.5-10.92,3.01-16.39,4.49c-0.57,0.15-1.17,0.3-1.74,0.27c-1.3-0.07-2.1-0.84-2.33-2.11
		c-0.23-1.23,0.32-2.14,1.38-2.72c0.35-0.19,0.78-0.26,1.17-0.37c11.1-3.05,22.2-6.1,33.3-9.15c0.26-0.07,0.53-0.16,0.79-0.21
		c1.33-0.25,2.53,0.4,2.96,1.62c0.46,1.27-0.07,2.61-1.33,3.22c-0.41,0.2-0.86,0.3-1.3,0.42
		C136.89,139.11,131.38,140.63,125.87,142.14z"/>
	<path class="st6" d="M113.63,97.47c-5.64,1.55-11.27,3.1-16.91,4.64c-1.84,0.5-3.27-0.29-3.57-1.92c-0.26-1.41,0.52-2.56,2.13-3.03
		c2.24-0.64,4.49-1.24,6.74-1.86c8.94-2.46,17.88-4.92,26.83-7.35c0.69-0.19,1.46-0.33,2.14-0.2c1.2,0.23,1.87,1.11,1.92,2.35
		c0.06,1.31-0.61,2.19-1.83,2.57c-1.75,0.53-3.52,0.98-5.28,1.47C121.74,95.24,117.69,96.36,113.63,97.47z"/>
	<path class="st7" d="M114.55,81.24c-4.01,1.1-8.01,2.22-12.03,3.3c-2.02,0.54-3.72-0.67-3.6-2.51c0.08-1.23,0.75-2.05,1.93-2.37
		c8.23-2.27,16.47-4.54,24.71-6.78c1.49-0.41,2.83,0.42,3.19,1.83c0.36,1.43-0.43,2.73-2.05,3.19
		C122.66,79.03,118.6,80.12,114.55,81.24z"/>
	<path class="st7" d="M125.4,120.93c4.01-1.1,8.01-2.21,12.02-3.3c1.84-0.5,3.19,0.14,3.59,1.69c0.39,1.5-0.39,2.73-2.17,3.22
		c-8.01,2.22-16.02,4.42-24.04,6.6c-1.75,0.48-3.1-0.2-3.52-1.66c-0.44-1.51,0.4-2.78,2.23-3.29
		C117.47,123.1,121.44,122.02,125.4,120.93z"/>
	<path class="st3" d="M79.26,100.2c1.54-4.63,2.96-8.91,4.38-13.19c0.16-0.48,0.3-0.96,0.47-1.43c0.6-1.57,1.92-2.26,3.34-1.76
		c1.35,0.48,2,1.83,1.54,3.35c-0.46,1.53-0.99,3.03-1.5,4.55c-1.36,4.12-2.72,8.23-4.09,12.34c-0.79,2.36-2.27,2.92-4.43,1.71
		c-1.83-1.03-3.66-2.06-5.48-3.12c-1.53-0.89-2.02-2.36-1.27-3.68c0.75-1.32,2.27-1.66,3.81-0.79
		C77.05,98.76,78.03,99.43,79.26,100.2z"/>
	<path class="st3" d="M91.55,144.74c0.39-1.16,0.7-2.1,1.02-3.04c1.26-3.81,2.51-7.63,3.8-11.44c0.54-1.58,1.91-2.3,3.32-1.82
		c1.39,0.47,2.06,1.88,1.54,3.46c-1.88,5.73-3.77,11.45-5.69,17.16c-0.63,1.89-2.18,2.49-3.91,1.55c-2.05-1.11-4.07-2.27-6.07-3.46
		c-1.36-0.81-1.77-2.27-1.07-3.52c0.74-1.34,2.18-1.71,3.67-0.9C89.25,143.34,90.33,144.01,91.55,144.74z"/>
	<path class="st8" d="M119.76,41.07l2.59,9.42c0.33,1.84-0.27,2.43-2.55,3.06L81.97,63.94C92.85,51.82,96.64,44.62,97.3,38.81
		l11.34-3.12C113.54,34.36,117.79,36.43,119.76,41.07z"/>
	<path class="st9" d="M97.3,38.81c-0.67,5.82-4.45,13.01-15.33,25.13l-16.31,4.48c-0.31,0.09-0.61,0.18-0.93,0.24
		c-1.24,0.27-2.2-0.17-2.67-1.28l-2.69-9.79c-0.01-0.02,0-0.06-0.01-0.09c-0.29-2.07,0.01-3.94,0.97-5.68
		c1.23-2.25,3.43-3.8,5.9-4.48c3.72-1.03,7.45-2.06,11.18-3.08l0.79-0.22c0.26-0.07,0.43-0.3,0.44-0.57
		c0.01-6.25,2.08-9.53,6.61-10.65c4.5-1.1,8.05,0.81,10.71,5.85c0.13,0.24,0.41,0.38,0.68,0.3L97.3,38.81z"/>
	<circle class="st5" cx="86.86" cy="39.47" r="3.18"/>
	<path class="st4" d="M160.61,100.75L164,113.1l-7.08,11.56l-18.69,7.31c-0.31,0.13-0.61-0.23-0.42-0.5l11.71-17.55L160.61,100.75z"
		/>
	<g>
		<path class="st10" d="M138.41,114.62l13.19,7.51l-9.16,6.63c-0.42-0.96-1.1-1.77-2.04-2.3c-1-0.57-2.14-0.73-3.25-0.55
			L138.41,114.62z"/>
		<path class="st11" d="M141.43,116.34l32.93-57.87l7.26,4.13c1.61,0.91,2.07,3.14,1.04,4.95l-31.05,54.58L141.43,116.34z"/>
		<path class="st12" d="M138.41,114.62l2.62,1.49l-2.68,9.74c-0.4-0.03-0.8,0-1.2,0.06"/>
		<path class="st13" d="M137.39,132.43l5.06-3.66c-0.42-0.96-1.11-1.77-2.04-2.3c-0.64-0.37-1.34-0.57-2.05-0.61
			c-0.4-0.03-0.8,0-1.2,0.06l-0.66,5.99C136.44,132.39,136.99,132.71,137.39,132.43z"/>
		<path class="st14" d="M138.41,114.62l31.05-54.58c1.03-1.81,3.19-2.55,4.79-1.63l0.1,0.06l-32.93,57.87L138.41,114.62z"/>
	</g>
</g>
<path class="st8" d="M214.78,159.88c-6.71-0.97-10.71,2.17-20.66,14.49s-19.57,19.85-20.46,26.03c-0.89,6.19-1.52,15.75,7.47,17.79
	s28.13,3.3,32.72-7.93s3.76-13.2,4.96-24.18S227.15,161.66,214.78,159.88z"/>
<path class="st3" d="M206.86,13.55c-23.57,5.26-33.89,10.35-31.95,24.81c0.07,0.46,0.16,0.92,0.29,1.37c0.08,0.31,0.19,0.61,0.3,0.9
	c6.5-3.79,15.07-9.24,20.9-14.68c0.5-0.47,1.06-0.08,0.65,0.46c-3.63,4.77-9.72,11.9-18,18.66c0.34,0.25,0.7,0.48,1.07,0.68
	c3.02,1.71,6.73,2.08,11.19,0.55c4.51-1.56,8.31-4.7,10.88-8.73c6.12-9.6,10.77-25.34,10.77-25.34
	C210.84,12.67,208.8,13.11,206.86,13.55z"/>
</svg>
