<svg xmlns="http://www.w3.org/2000/svg" width="569.25" height="295.08" viewBox="0 0 569.25 295.08">
  <defs>
    <style>
      .cls-1 {
        fill: #fff;
      }
    </style>
  </defs>
  <title>Top Logo_1</title>
  <g id="Layer_2" data-name="Layer 2">
    <g id="Layer_1-2" data-name="Layer 1">
      <g>
        <path class="cls-1" d="M0,249.49H4.89a9.49,9.49,0,0,1,4.85.95,3.32,3.32,0,0,1,1.51,3,3.85,3.85,0,0,1-.66,2.31,2.64,2.64,0,0,1-1.76,1.08V257A3.46,3.46,0,0,1,11,258.21a4.07,4.07,0,0,1,.66,2.43A4,4,0,0,1,10.09,264a6.71,6.71,0,0,1-4.21,1.21H0Zm3.33,6.22H5.26a3.5,3.5,0,0,0,2-.42,1.55,1.55,0,0,0,.61-1.38,1.39,1.39,0,0,0-.66-1.3,4.27,4.27,0,0,0-2.09-.39H3.33Zm0,2.64v4.1H5.5a3.22,3.22,0,0,0,2-.53,1.94,1.94,0,0,0,.66-1.61c0-1.31-.94-2-2.8-2Z"/>
        <path class="cls-1" d="M19.67,256,23,249.49h3.58l-5.21,9.59v6.12H18v-6l-5.21-9.7h3.61Z"/>
        <path class="cls-1" d="M43.5,260.83A4.09,4.09,0,0,1,42,264.19a6.68,6.68,0,0,1-4.25,1.22,10,10,0,0,1-4.45-.94v-3.1a18,18,0,0,0,2.69,1,8.05,8.05,0,0,0,2,.29,2.85,2.85,0,0,0,1.68-.42,1.43,1.43,0,0,0,.59-1.24,1.41,1.41,0,0,0-.26-.83,2.73,2.73,0,0,0-.76-.69,20.59,20.59,0,0,0-2-1.06,9.81,9.81,0,0,1-2.16-1.3,5,5,0,0,1-1.15-1.45,4.11,4.11,0,0,1-.43-1.94,4,4,0,0,1,1.41-3.27,5.86,5.86,0,0,1,3.91-1.19,8.91,8.91,0,0,1,2.33.29,15.44,15.44,0,0,1,2.33.81L42.35,253a17.54,17.54,0,0,0-2.08-.72,7,7,0,0,0-1.62-.2,2.11,2.11,0,0,0-1.45.44,1.42,1.42,0,0,0-.5,1.15,1.41,1.41,0,0,0,.2.77,2.45,2.45,0,0,0,.65.63,21.35,21.35,0,0,0,2.11,1.1,8.36,8.36,0,0,1,3,2.11A4.15,4.15,0,0,1,43.5,260.83Z"/>
        <path class="cls-1" d="M59.13,249.49v10.16a5.84,5.84,0,0,1-.78,3.05,5,5,0,0,1-2.25,2,8,8,0,0,1-3.48.7,6.7,6.7,0,0,1-4.71-1.55,5.51,5.51,0,0,1-1.68-4.25V249.49h3.32v9.62a4.06,4.06,0,0,0,.73,2.66,3.07,3.07,0,0,0,2.42.85,3,3,0,0,0,2.37-.86,4,4,0,0,0,.74-2.68v-9.59Z"/>
        <path class="cls-1" d="M69.62,265.2l-3.78-12.33h-.1c.14,2.51.21,4.18.21,5v7.31H63V249.49H67.5l3.72,12h.07l3.94-12h4.53V265.2h-3.1v-7.44c0-.35,0-.75,0-1.21s.06-1.68.15-3.65h-.1l-4,12.3Z"/>
        <path class="cls-1" d="M92.76,265.2H83.71V249.49h9.05v2.73H87v3.45h5.32v2.73H87v4.05h5.72Z"/>
        <path class="cls-1" d="M109.07,257.19a7.73,7.73,0,0,1-2.21,5.94q-2.2,2.07-6.38,2.07H96V249.49H101a8.32,8.32,0,0,1,6,2A7.46,7.46,0,0,1,109.07,257.19Zm-3.46.09q0-5.05-4.47-5.06H99.37v10.23h1.42C104,262.45,105.61,260.72,105.61,257.28Z"/>
        <path class="cls-1" d="M125.19,265.2h-3.32v-6.78h-6.22v6.78h-3.33V249.49h3.33v6.16h6.22v-6.16h3.32Z"/>
        <path class="cls-1" d="M138.77,265.2l-1.14-3.74H131.9l-1.14,3.74h-3.58l5.54-15.77h4.07l5.57,15.77Zm-1.94-6.54c-1.05-3.38-1.64-5.3-1.77-5.74s-.23-.8-.29-1.06q-.35,1.38-2,6.8Z"/>
        <path class="cls-1" d="M163.08,257.19a7.73,7.73,0,0,1-2.21,5.94q-2.2,2.07-6.38,2.07h-4.44V249.49H155a8.32,8.32,0,0,1,6,2A7.46,7.46,0,0,1,163.08,257.19Zm-3.46.09q0-5.05-4.47-5.06h-1.77v10.23h1.43C158,262.45,159.62,260.72,159.62,257.28Z"/>
        <path class="cls-1" d="M171,259.17a16.81,16.81,0,0,1,.83-5.33,13.52,13.52,0,0,1,2.4-4.35h2.69a15.51,15.51,0,0,0-2.29,4.56,17.18,17.18,0,0,0-.77,5.1,16.46,16.46,0,0,0,.79,5.09,15.23,15.23,0,0,0,2.25,4.44h-2.67a12.68,12.68,0,0,1-2.4-4.27A16.21,16.21,0,0,1,171,259.17Z"/>
        <path class="cls-1" d="M188.77,260.83a4.08,4.08,0,0,1-1.53,3.36,6.69,6.69,0,0,1-4.26,1.22,10,10,0,0,1-4.44-.94v-3.1a17.62,17.62,0,0,0,2.69,1,8.05,8.05,0,0,0,2,.29,2.85,2.85,0,0,0,1.68-.42,1.43,1.43,0,0,0,.59-1.24,1.41,1.41,0,0,0-.26-.83,2.88,2.88,0,0,0-.76-.69,20.59,20.59,0,0,0-2-1.06,9.81,9.81,0,0,1-2.16-1.3,4.85,4.85,0,0,1-1.15-1.45,4.11,4.11,0,0,1-.43-1.94,4,4,0,0,1,1.41-3.27,5.84,5.84,0,0,1,3.91-1.19,8.91,8.91,0,0,1,2.33.29,15.83,15.83,0,0,1,2.33.81L187.62,253a16.39,16.39,0,0,0-2.08-.72,6.89,6.89,0,0,0-1.61-.2,2.1,2.1,0,0,0-1.45.44,1.43,1.43,0,0,0-.51,1.15,1.41,1.41,0,0,0,.21.77,2.31,2.31,0,0,0,.65.63,20.17,20.17,0,0,0,2.11,1.1,8.36,8.36,0,0,1,3,2.11A4.15,4.15,0,0,1,188.77,260.83Z"/>
        <path class="cls-1" d="M204.65,257.19a7.73,7.73,0,0,1-2.21,5.94c-1.47,1.38-3.6,2.07-6.37,2.07h-4.45V249.49h4.93a8.32,8.32,0,0,1,6,2A7.46,7.46,0,0,1,204.65,257.19Zm-3.46.09q0-5.05-4.47-5.06H195v10.23h1.43C199.59,262.45,201.19,260.72,201.19,257.28Z"/>
        <path class="cls-1" d="M222.16,257.32a8.58,8.58,0,0,1-1.93,6,8.4,8.4,0,0,1-11.09,0,8.57,8.57,0,0,1-1.93-6,8.42,8.42,0,0,1,1.94-6,7.23,7.23,0,0,1,5.55-2.07,7.15,7.15,0,0,1,5.54,2.09A8.54,8.54,0,0,1,222.16,257.32Zm-11.46,0a6.55,6.55,0,0,0,1,4,3.5,3.5,0,0,0,3,1.33q4,0,4-5.3c0-3.54-1.32-5.3-4-5.3a3.51,3.51,0,0,0-3,1.33A6.49,6.49,0,0,0,210.7,257.32Z"/>
        <path class="cls-1" d="M232.06,265.2l-3.78-12.33h-.09c.13,2.51.2,4.18.2,5v7.31h-3V249.49H230l3.71,12h.07l3.94-12h4.53V265.2h-3.1v-7.44c0-.35,0-.75,0-1.21s0-1.68.14-3.65h-.1l-4,12.3Z"/>
        <path class="cls-1" d="M256,256.19c0,3.1-.66,5.41-2,6.93s-3.28,2.29-5.92,2.29a11,11,0,0,1-2.11-.15V262.6a7.77,7.77,0,0,0,1.89.22,6.59,6.59,0,0,0,2.74-.49,3.48,3.48,0,0,0,1.64-1.53,6.67,6.67,0,0,0,.65-2.89h-.12a3.67,3.67,0,0,1-1.44,1.42,4.62,4.62,0,0,1-2,.41,4.13,4.13,0,0,1-3.23-1.32,5.24,5.24,0,0,1-1.18-3.65,5.5,5.5,0,0,1,1.43-4,5.25,5.25,0,0,1,3.91-1.46,5.64,5.64,0,0,1,3,.81,5.34,5.34,0,0,1,2,2.37A9.08,9.08,0,0,1,256,256.19ZM250.29,252a2,2,0,0,0-1.61.71,3.12,3.12,0,0,0-.58,2,2.87,2.87,0,0,0,.53,1.81,1.92,1.92,0,0,0,1.6.66,2.48,2.48,0,0,0,1.73-.66,2,2,0,0,0,.72-1.52,3.52,3.52,0,0,0-.67-2.16A2.09,2.09,0,0,0,250.29,252Z"/>
        <path class="cls-1" d="M268.6,265.2h-11v-2.31l3.94-4c1.17-1.2,1.93-2,2.29-2.49a5.16,5.16,0,0,0,.77-1.28,3.2,3.2,0,0,0,.24-1.22,1.78,1.78,0,0,0-.52-1.41A2,2,0,0,0,263,252a4,4,0,0,0-1.78.42,8.94,8.94,0,0,0-1.79,1.19l-1.8-2.14a12,12,0,0,1,1.92-1.4,6.86,6.86,0,0,1,1.66-.62,8.45,8.45,0,0,1,2-.22,6,6,0,0,1,2.6.53,4.06,4.06,0,0,1,1.75,1.51,3.94,3.94,0,0,1,.63,2.21,5.56,5.56,0,0,1-.38,2,7.76,7.76,0,0,1-1.19,1.94,27.44,27.44,0,0,1-2.82,2.85l-2,1.9v.15h6.85Z"/>
        <path class="cls-1" d="M275.89,255.16a5.07,5.07,0,0,1,3.63,1.28,4.59,4.59,0,0,1,1.35,3.5,5.09,5.09,0,0,1-1.63,4.05,6.81,6.81,0,0,1-4.64,1.42,9,9,0,0,1-4.23-.85v-2.87a8.79,8.79,0,0,0,2,.74,8.67,8.67,0,0,0,2.13.28c2,0,3-.83,3-2.49s-1-2.37-3.14-2.37a8.48,8.48,0,0,0-1.26.11c-.46.08-.83.16-1.12.24l-1.32-.71.59-8h8.52v2.82h-5.61l-.29,3.08.38-.08A7.44,7.44,0,0,1,275.89,255.16Z"/>
        <path class="cls-1" d="M293.1,253a3.72,3.72,0,0,1-.89,2.51,4.64,4.64,0,0,1-2.5,1.41V257a5,5,0,0,1,2.87,1.15,3.22,3.22,0,0,1,1,2.48,4.21,4.21,0,0,1-1.64,3.53,7.6,7.6,0,0,1-4.7,1.26,11.33,11.33,0,0,1-4.53-.85v-2.82a10.6,10.6,0,0,0,2,.75,8.58,8.58,0,0,0,2.17.29,4.25,4.25,0,0,0,2.43-.56,2,2,0,0,0,.78-1.79,1.62,1.62,0,0,0-.9-1.57,6.64,6.64,0,0,0-2.88-.46h-1.19v-2.55h1.21a5.61,5.61,0,0,0,2.67-.48,1.73,1.73,0,0,0,.84-1.64c0-1.18-.74-1.78-2.23-1.78a5.11,5.11,0,0,0-1.57.26,7.55,7.55,0,0,0-1.78.89l-1.54-2.29a8.56,8.56,0,0,1,5.13-1.54,6.61,6.61,0,0,1,3.85,1A3.18,3.18,0,0,1,293.1,253Z"/>
        <path class="cls-1" d="M301,259.17a16,16,0,0,1-.83,5.26,12.49,12.49,0,0,1-2.4,4.25h-2.66a15.71,15.71,0,0,0,2.24-4.44,16.38,16.38,0,0,0,.8-5.09,16.87,16.87,0,0,0-.78-5.1,15.24,15.24,0,0,0-2.28-4.56h2.68a13.17,13.17,0,0,1,2.41,4.37A16.78,16.78,0,0,1,301,259.17Z"/>
        <path class="cls-1" d="M306.8,262.89a35.08,35.08,0,0,1-1.89,5.14h-2.37q.7-2.85,1.09-5.39h3Z"/>
        <path class="cls-1" d="M325.55,265.2l-1.14-3.74h-5.72l-1.14,3.74H314l5.54-15.77h4.08l5.56,15.77Zm-1.93-6.54c-1.05-3.38-1.65-5.3-1.78-5.74s-.23-.8-.28-1.06q-.36,1.38-2,6.8Z"/>
        <path class="cls-1" d="M331.12,265.2V249.49h3.33v13h6.37v2.75Z"/>
        <path class="cls-1" d="M353.16,265.2,352,261.46H346.3l-1.14,3.74h-3.59l5.54-15.77h4.07l5.57,15.77Zm-1.93-6.54c-1.06-3.38-1.65-5.3-1.78-5.74s-.23-.8-.29-1.06q-.35,1.38-2,6.8Z"/>
        <path class="cls-1" d="M372.66,265.2h-4.24l-6.83-11.88h-.09c.13,2.09.2,3.59.2,4.49v7.39h-3V249.49h4.2l6.83,11.76h.07c-.11-2-.16-3.48-.16-4.33v-7.43h3Z"/>
        <path class="cls-1" d="M390.54,265.2h-4.23l-6.83-11.88h-.1c.14,2.09.21,3.59.21,4.49v7.39h-3V249.49h4.2l6.82,11.76h.08c-.11-2-.16-3.48-.16-4.33v-7.43h3Z"/>
        <path class="cls-1" d="M404.11,265.2,403,261.46h-5.72l-1.14,3.74h-3.59l5.54-15.77h4.07l5.57,15.77Zm-1.93-6.54c-1.06-3.38-1.65-5.3-1.78-5.74s-.23-.8-.29-1.06q-.35,1.38-2,6.8Z"/>
        <path class="cls-1" d="M422.54,265.2h-3.32v-6.78H413v6.78h-3.33V249.49H413v6.16h6.22v-6.16h3.32Z"/>
        <path class="cls-1" d="M435.5,265.2h-3.28V249.49h9v2.73H435.5v4h5.33V259H435.5Z"/>
        <path class="cls-1" d="M448.92,259.17a16.54,16.54,0,0,1,.83-5.33,13.15,13.15,0,0,1,2.4-4.35h2.68a15.24,15.24,0,0,0-2.28,4.56,16.93,16.93,0,0,0,0,10.19,15.74,15.74,0,0,0,2.25,4.44h-2.66a12.7,12.7,0,0,1-2.41-4.27A16.21,16.21,0,0,1,448.92,259.17Z"/>
        <path class="cls-1" d="M467.08,265.2l-1.14-3.74h-5.72l-1.14,3.74h-3.59L461,249.43h4.07l5.57,15.77Zm-1.93-6.54c-1.06-3.38-1.65-5.3-1.78-5.74s-.23-.8-.29-1.06q-.34,1.38-2,6.8Z"/>
        <path class="cls-1" d="M475.92,265.2h-3.27V249.49h9v2.73h-5.73v4h5.33V259h-5.33Z"/>
        <path class="cls-1" d="M488.05,259.17v6h-3.33V249.49h4.58a7.78,7.78,0,0,1,4.73,1.17,4.13,4.13,0,0,1,1.54,3.54,4.22,4.22,0,0,1-.76,2.46,5,5,0,0,1-2.16,1.69q3.54,5.29,4.62,6.85h-3.7l-3.75-6Zm0-2.71h1.07a4.1,4.1,0,0,0,2.33-.52,1.88,1.88,0,0,0,.76-1.66,1.73,1.73,0,0,0-.77-1.59,4.73,4.73,0,0,0-2.38-.47h-1Z"/>
        <path class="cls-1" d="M508.86,265.2l-1.14-3.74H502l-1.14,3.74h-3.58l5.54-15.77h4.07l5.56,15.77Zm-1.94-6.54c-1.05-3.38-1.64-5.3-1.77-5.74s-.23-.8-.29-1.06c-.24.92-.91,3.19-2,6.8Z"/>
        <path class="cls-1" d="M524.24,256.19q0,4.65-2,6.93t-5.91,2.29a11.2,11.2,0,0,1-2.12-.15V262.6a7.77,7.77,0,0,0,1.89.22,6.59,6.59,0,0,0,2.74-.49,3.43,3.43,0,0,0,1.64-1.53,6.81,6.81,0,0,0,.66-2.89h-.13a3.67,3.67,0,0,1-1.44,1.42,4.54,4.54,0,0,1-2,.41,4.1,4.1,0,0,1-3.23-1.32,5.24,5.24,0,0,1-1.19-3.65,5.46,5.46,0,0,1,1.44-4,5.23,5.23,0,0,1,3.9-1.46,5.67,5.67,0,0,1,3,.81,5.26,5.26,0,0,1,2,2.37A8.92,8.92,0,0,1,524.24,256.19ZM518.56,252a2,2,0,0,0-1.61.71,3.12,3.12,0,0,0-.58,2,2.86,2.86,0,0,0,.52,1.81,1.93,1.93,0,0,0,1.6.66,2.46,2.46,0,0,0,1.73-.66,2,2,0,0,0,.72-1.52,3.45,3.45,0,0,0-.67-2.16A2.09,2.09,0,0,0,518.56,252Z"/>
        <path class="cls-1" d="M536.86,265.2h-11v-2.31l4-4c1.16-1.2,1.93-2,2.28-2.49a5.56,5.56,0,0,0,.78-1.28,3.39,3.39,0,0,0,.23-1.22,1.78,1.78,0,0,0-.52-1.41,2,2,0,0,0-1.39-.46,4,4,0,0,0-1.77.42,8.94,8.94,0,0,0-1.79,1.19l-1.81-2.14a12,12,0,0,1,1.92-1.4,6.93,6.93,0,0,1,1.67-.62,8.33,8.33,0,0,1,2-.22,6,6,0,0,1,2.6.53,4.17,4.17,0,0,1,1.75,1.51,4,4,0,0,1,.62,2.21,5.56,5.56,0,0,1-.38,2,7.7,7.7,0,0,1-1.18,1.94,28.53,28.53,0,0,1-2.82,2.85l-2,1.9v.15h6.84Z"/>
        <path class="cls-1" d="M546.65,265.2h-3.32v-9.09l0-1.5,0-1.63c-.55.55-.93.92-1.14,1.09l-1.81,1.45-1.6-2,5.06-4h2.73Z"/>
        <path class="cls-1" d="M561.36,253a3.67,3.67,0,0,1-.89,2.51,4.6,4.6,0,0,1-2.5,1.41V257a5,5,0,0,1,2.88,1.15,3.26,3.26,0,0,1,1,2.48,4.19,4.19,0,0,1-1.65,3.53,7.57,7.57,0,0,1-4.69,1.26,11.26,11.26,0,0,1-4.53-.85v-2.82a10.25,10.25,0,0,0,2,.75,8.64,8.64,0,0,0,2.17.29,4.23,4.23,0,0,0,2.43-.56,2.05,2.05,0,0,0,.79-1.79,1.62,1.62,0,0,0-.91-1.57,6.64,6.64,0,0,0-2.88-.46h-1.19v-2.55h1.22a5.67,5.67,0,0,0,2.67-.48,1.73,1.73,0,0,0,.84-1.64c0-1.18-.75-1.78-2.24-1.78a5.16,5.16,0,0,0-1.57.26,7.75,7.75,0,0,0-1.78.89L551,250.81a8.53,8.53,0,0,1,5.12-1.54,6.59,6.59,0,0,1,3.85,1A3.18,3.18,0,0,1,561.36,253Z"/>
        <path class="cls-1" d="M569.25,259.17a16.29,16.29,0,0,1-.83,5.26,12.83,12.83,0,0,1-2.4,4.25h-2.67a15.47,15.47,0,0,0,2.25-4.44,16.37,16.37,0,0,0,.79-5.09,17.18,17.18,0,0,0-.77-5.1,15.51,15.51,0,0,0-2.29-4.56H566a13.15,13.15,0,0,1,2.4,4.37A16.78,16.78,0,0,1,569.25,259.17Z"/>
        <path class="cls-1" d="M161.1,291.6h-4l-1.23-1.22a8,8,0,0,1-4.65,1.43,6.56,6.56,0,0,1-4.15-1.2,3.91,3.91,0,0,1-1.54-3.26,4.69,4.69,0,0,1,.65-2.51,6.14,6.14,0,0,1,2.23-1.93,6.91,6.91,0,0,1-1.17-1.77,4.65,4.65,0,0,1-.37-1.84,3.21,3.21,0,0,1,1.26-2.64,5.23,5.23,0,0,1,3.34-1,5.15,5.15,0,0,1,3.2.92,3,3,0,0,1,1.2,2.49,4,4,0,0,1-.75,2.34,7.42,7.42,0,0,1-2.39,2l3,3a13.1,13.1,0,0,0,1.32-3.24h3.42A15.65,15.65,0,0,1,159.4,286a12.77,12.77,0,0,1-1.53,2.45ZM148.93,287a1.77,1.77,0,0,0,.69,1.47,2.76,2.76,0,0,0,1.78.55,4.69,4.69,0,0,0,2.44-.65l-3.57-3.55a4.81,4.81,0,0,0-1,1A2,2,0,0,0,148.93,287Zm3.86-7.61a1.12,1.12,0,0,0-.39-.9,1.49,1.49,0,0,0-1-.33,1.75,1.75,0,0,0-1.13.34,1.2,1.2,0,0,0-.42,1,3.3,3.3,0,0,0,1,2.09,6.62,6.62,0,0,0,1.42-1A1.6,1.6,0,0,0,152.79,279.43Z"/>
        <path class="cls-1" d="M181.42,291.6h-3.78L173.53,285l-1.41,1v5.61h-3.33V275.89h3.33v7.19l1.31-1.85,4.26-5.34h3.69l-5.48,6.95Z"/>
        <path class="cls-1" d="M196.27,291.6H193v-6.78h-6.22v6.78H183.4V275.89h3.33v6.16H193v-6.16h3.32Z"/>
        <path class="cls-1" d="M209.85,291.6l-1.14-3.74H203l-1.13,3.74h-3.59l5.54-15.77h4.07l5.57,15.77Zm-1.93-6.53q-1.59-5.08-1.78-5.75c-.14-.45-.23-.8-.29-1.05q-.34,1.37-2,6.8Z"/>
        <path class="cls-1" d="M224.37,275.89h3.36L222.4,291.6h-3.64l-5.32-15.71h3.36l2.95,9.35q.25.83.51,1.92c.18.74.29,1.25.33,1.54a27.35,27.35,0,0,1,.81-3.46Z"/>
        <path class="cls-1" d="M238.76,291.6h-9V275.89h9v2.73H233v3.45h5.32v2.73H233v4.05h5.72Z"/>
        <path class="cls-1" d="M251.08,291.6H242V275.89h9.05v2.73h-5.72v3.45h5.32v2.73h-5.32v4.05h5.72Z"/>
        <path class="cls-1" d="M257.68,285.57v6h-3.33V275.89h4.58a7.84,7.84,0,0,1,4.74,1.17,4.65,4.65,0,0,1,.77,6,5,5,0,0,1-2.16,1.69c2.36,3.53,3.9,5.82,4.62,6.85h-3.69l-3.75-6Zm0-2.71h1.08a4.12,4.12,0,0,0,2.33-.52,1.89,1.89,0,0,0,.75-1.66,1.73,1.73,0,0,0-.77-1.59,4.7,4.7,0,0,0-2.38-.47h-1Z"/>
        <path class="cls-1" d="M288.52,291.6h-4.23l-6.83-11.88h-.1c.14,2.09.21,3.59.21,4.49v7.39h-3V275.89h4.2l6.82,11.76h.08c-.11-2-.16-3.48-.16-4.33v-7.43h3Z"/>
        <path class="cls-1" d="M297.1,285.57a16.54,16.54,0,0,1,.83-5.33,13.15,13.15,0,0,1,2.4-4.35H303a15.27,15.27,0,0,0-2.29,4.56,16.93,16.93,0,0,0,0,10.19,15.74,15.74,0,0,0,2.25,4.44h-2.66a12.87,12.87,0,0,1-2.41-4.27A16.21,16.21,0,0,1,297.1,285.57Z"/>
        <path class="cls-1" d="M318.28,291.6H314.5L310.38,285l-1.4,1v5.61h-3.33V275.89H309v7.19l1.31-1.85,4.25-5.34h3.7l-5.48,6.95Z"/>
        <path class="cls-1" d="M334.19,291.6H330l-6.84-11.88H323c.13,2.09.2,3.59.2,4.49v7.39h-3V275.89h4.2l6.82,11.76h.07c-.1-2-.16-3.48-.16-4.33v-7.43h3Z"/>
        <path class="cls-1" d="M347.76,291.6l-1.14-3.74h-5.73l-1.14,3.74h-3.58l5.54-15.77h4.07l5.56,15.77Zm-1.94-6.53q-1.57-5.08-1.78-5.75c-.13-.45-.22-.8-.28-1.05-.24.91-.91,3.18-2,6.8Z"/>
        <path class="cls-1" d="M356.65,285.57v6h-3.33V275.89h4.58a7.78,7.78,0,0,1,4.73,1.17,4.64,4.64,0,0,1,.78,6,5,5,0,0,1-2.16,1.69c2.36,3.53,3.9,5.82,4.62,6.85h-3.7l-3.75-6Zm0-2.71h1.08a4.12,4.12,0,0,0,2.33-.52,1.89,1.89,0,0,0,.75-1.66,1.73,1.73,0,0,0-.77-1.59,4.73,4.73,0,0,0-2.38-.47h-1Z"/>
        <path class="cls-1" d="M377.64,283.74q0,4.13-1.35,6.09a5.24,5.24,0,0,1-8.25-.06,10.8,10.8,0,0,1-1.38-6q0-4.15,1.35-6.12a5.2,5.2,0,0,1,8.24.09A10.75,10.75,0,0,1,377.64,283.74Zm-7.68,0a12.36,12.36,0,0,0,.5,4.15,1.73,1.73,0,0,0,1.68,1.25,1.77,1.77,0,0,0,1.68-1.27,12,12,0,0,0,.51-4.13,11.79,11.79,0,0,0-.52-4.15,1.75,1.75,0,0,0-1.67-1.26,1.72,1.72,0,0,0-1.67,1.26A12.09,12.09,0,0,0,370,283.74Z"/>
        <path class="cls-1" d="M389.67,279.4a3.67,3.67,0,0,1-.89,2.51,4.6,4.6,0,0,1-2.5,1.41v.07a5,5,0,0,1,2.88,1.15,3.25,3.25,0,0,1,1,2.48,4.18,4.18,0,0,1-1.64,3.53,7.57,7.57,0,0,1-4.69,1.26,11.35,11.35,0,0,1-4.54-.85v-2.82a10,10,0,0,0,2,.75,8.64,8.64,0,0,0,2.17.29,4.23,4.23,0,0,0,2.43-.56,2,2,0,0,0,.78-1.79,1.62,1.62,0,0,0-.9-1.57,6.64,6.64,0,0,0-2.88-.46h-1.19v-2.55h1.21a5.61,5.61,0,0,0,2.67-.48,1.71,1.71,0,0,0,.85-1.64c0-1.18-.75-1.78-2.24-1.78a5.16,5.16,0,0,0-1.57.26,7.55,7.55,0,0,0-1.78.89l-1.54-2.29a8.58,8.58,0,0,1,5.13-1.54,6.61,6.61,0,0,1,3.85,1A3.18,3.18,0,0,1,389.67,279.4Z"/>
        <path class="cls-1" d="M403.2,288.34h-1.89v3.26h-3.25v-3.26h-6.7V286l6.88-10.14h3.07v9.87h1.89Zm-5.14-2.58V283.1c0-.44,0-1.09.06-1.93s.06-1.34.08-1.48h-.08a12.71,12.71,0,0,1-1,1.72l-2.88,4.35Z"/>
        <path class="cls-1" d="M415.75,288.34h-1.89v3.26h-3.24v-3.26h-6.7V286l6.88-10.14h3.06v9.87h1.89Zm-5.13-2.58V283.1c0-.44,0-1.09.05-1.93s.07-1.34.09-1.48h-.09a11.64,11.64,0,0,1-.95,1.72l-2.88,4.35Z"/>
        <path class="cls-1" d="M422.67,285.57a16,16,0,0,1-.83,5.26,12.83,12.83,0,0,1-2.4,4.25h-2.67a15.55,15.55,0,0,0,2.25-4.43,16.48,16.48,0,0,0,.79-5.1,16.86,16.86,0,0,0-.77-5.1,15.27,15.27,0,0,0-2.29-4.56h2.69a13.35,13.35,0,0,1,2.41,4.37A16.78,16.78,0,0,1,422.67,285.57Z"/>
      </g>
      <g>
        <path class="cls-1" d="M70.78,178.33v11.43H62.29V158.35H72.58q12.81,0,12.81,9.28,0,5.46-5.33,8.44l9.15,13.69H79.59l-6.66-11.43Zm0-6.38h1.59c3,0,4.45-1.31,4.45-3.93,0-2.16-1.46-3.25-4.36-3.25H70.78Z"/>
        <path class="cls-1" d="M110.72,189.76H92.07V158.35h18.65v6.81H100.56v4.94H110v6.81h-9.41v5.93h10.16Z"/>
        <path class="cls-1" d="M130.21,164.86a5.42,5.42,0,0,0-4.73,2.48,12,12,0,0,0-1.7,6.84q0,9.07,6.9,9.07a14,14,0,0,0,4-.58,40.31,40.31,0,0,0,3.93-1.4v7.18a21.78,21.78,0,0,1-8.9,1.74q-7.11,0-10.9-4.12t-3.79-11.93a18.94,18.94,0,0,1,1.84-8.57,13.08,13.08,0,0,1,5.28-5.68,15.91,15.91,0,0,1,8.11-2,22.37,22.37,0,0,1,9.73,2.21l-2.6,6.68a29.5,29.5,0,0,0-3.48-1.37A12.19,12.19,0,0,0,130.21,164.86Z"/>
        <path class="cls-1" d="M156,170l5.41-11.64h9.2l-10.34,19.14v12.27h-8.55v-12l-10.33-19.4h9.24Z"/>
        <path class="cls-1" d="M188,164.86a5.42,5.42,0,0,0-4.73,2.48,12,12,0,0,0-1.7,6.84q0,9.07,6.9,9.07a14,14,0,0,0,4-.58,40.31,40.31,0,0,0,3.93-1.4v7.18a21.76,21.76,0,0,1-8.89,1.74q-7.11,0-10.91-4.12t-3.79-11.93a18.94,18.94,0,0,1,1.84-8.57,13.08,13.08,0,0,1,5.28-5.68,15.93,15.93,0,0,1,8.11-2,22.45,22.45,0,0,1,9.74,2.21l-2.6,6.68a29.5,29.5,0,0,0-3.48-1.37A12.26,12.26,0,0,0,188,164.86Z"/>
        <path class="cls-1" d="M202.54,189.76V158.35H211v24.56h12.1v6.85Z"/>
        <path class="cls-1" d="M228.15,189.76V158.35h8.53v31.41Z"/>
        <path class="cls-1" d="M273.38,189.76H262.25l-11.47-22.13h-.2q.4,5.22.41,8v14.16h-7.52V158.35h11.09L266,180.18h.13q-.3-4.76-.3-7.63v-14.2h7.56Z"/>
        <path class="cls-1" d="M292.78,171.37h13.55V188.3a37.23,37.23,0,0,1-12.13,1.89q-7.27,0-11.23-4.21t-4-12q0-7.6,4.34-11.84t12.16-4.23a27,27,0,0,1,5.59.56,22.85,22.85,0,0,1,4.59,1.42L303,166.54a16.53,16.53,0,0,0-7.45-1.68,7.11,7.11,0,0,0-5.75,2.42q-2,2.41-2,6.9c0,2.94.62,5.18,1.84,6.72a6.36,6.36,0,0,0,5.29,2.31,15.32,15.32,0,0,0,3.49-.37v-4.92h-5.61Z"/>
        <path class="cls-1" d="M342.81,189.76H324.17V158.35h18.64v6.81H332.65v4.94h9.41v6.81h-9.41v5.93h10.16Z"/>
        <path class="cls-1" d="M376.61,189.76h-9.82l-6.12-9.82-6.06,9.82H345l10.42-16.07-9.8-15.34H355l5.67,9.71,5.46-9.71h9.69l-9.95,16Z"/>
        <path class="cls-1" d="M402.93,168.34q0,5.26-3.11,8.13T391,179.34h-2.38v10.42h-8.49V158.35H391q6,0,8.94,2.6A9.28,9.28,0,0,1,402.93,168.34Zm-14.31,4.08h1.55a4.23,4.23,0,0,0,3-1.07,3.92,3.92,0,0,0,1.12-3q0-3.18-3.52-3.18h-2.19Z"/>
        <path class="cls-1" d="M416.42,178.33v11.43h-8.49V158.35h10.3q12.79,0,12.8,9.28,0,5.46-5.33,8.44l9.15,13.69h-9.62l-6.66-11.43Zm0-6.38H418q4.46,0,4.45-3.93c0-2.16-1.46-3.25-4.36-3.25h-1.68Z"/>
        <path class="cls-1" d="M456.36,189.76H437.71V158.35h18.65v6.81H446.2v4.94h9.41v6.81H446.2v5.93h10.16Z"/>
        <path class="cls-1" d="M482.4,180.22a9.33,9.33,0,0,1-1.48,5.19,9.69,9.69,0,0,1-4.28,3.52,15.81,15.81,0,0,1-6.55,1.26,26.88,26.88,0,0,1-5.27-.44,19.46,19.46,0,0,1-4.42-1.54v-7.56a25.6,25.6,0,0,0,5.05,1.95,19,19,0,0,0,4.81.69,4.66,4.66,0,0,0,2.77-.65,2,2,0,0,0,.88-1.69,1.92,1.92,0,0,0-.35-1.13,4.28,4.28,0,0,0-1.14-1,45.14,45.14,0,0,0-4.18-2,20.25,20.25,0,0,1-4.61-2.71,8.42,8.42,0,0,1-2.28-3,10.05,10.05,0,0,1-.74-4,8.06,8.06,0,0,1,3.16-6.76q3.17-2.43,8.68-2.43a24.28,24.28,0,0,1,9.95,2.26l-2.6,6.55a18.79,18.79,0,0,0-7.61-2,3.92,3.92,0,0,0-2.4.58,1.77,1.77,0,0,0-.75,1.44,2.06,2.06,0,0,0,.95,1.65,36.3,36.3,0,0,0,5.19,2.67,14.2,14.2,0,0,1,5.64,3.92A8.51,8.51,0,0,1,482.4,180.22Z"/>
        <path class="cls-1" d="M507.79,180.22a9.25,9.25,0,0,1-1.48,5.19,9.66,9.66,0,0,1-4.27,3.52,15.86,15.86,0,0,1-6.56,1.26,26.77,26.77,0,0,1-5.26-.44,19.53,19.53,0,0,1-4.43-1.54v-7.56a25.6,25.6,0,0,0,5,1.95,19,19,0,0,0,4.81.69,4.69,4.69,0,0,0,2.78-.65,2,2,0,0,0,.88-1.69,1.86,1.86,0,0,0-.36-1.13,4,4,0,0,0-1.14-1,44.42,44.42,0,0,0-4.17-2,20,20,0,0,1-4.61-2.71,8.2,8.2,0,0,1-2.28-3,10.05,10.05,0,0,1-.74-4,8,8,0,0,1,3.16-6.76q3.15-2.43,8.68-2.43a24.24,24.24,0,0,1,9.94,2.26l-2.6,6.55a18.75,18.75,0,0,0-7.6-2,3.94,3.94,0,0,0-2.41.58,1.77,1.77,0,0,0-.75,1.44,2.07,2.07,0,0,0,1,1.65,35.36,35.36,0,0,0,5.18,2.67,14.2,14.2,0,0,1,5.64,3.92A8.44,8.44,0,0,1,507.79,180.22Z"/>
      </g>
      <g>
        <g>
          <path class="cls-1" d="M218.68,79.37v44.68H185.5V1.26h40.23q50.06,0,50.06,36.28,0,21.33-20.83,33l35.78,53.5H253.11l-26-44.68Zm0-25h6.21q17.38,0,17.39-15.37,0-12.67-17.05-12.68h-6.55Z"/>
          <path class="cls-1" d="M374.81,124.05h-72.9V1.26h72.9V27.88H335.08V47.2h36.79V73.82H335.08V97h39.73Z"/>
          <path class="cls-1" d="M506.91,124.05H468.53L444.6,85.67l-23.69,38.38H383.37L424.1,61.23l-38.29-60h36.78l22.17,38,21.34-38H504L465.09,63.83Z"/>
        </g>
        <path class="cls-1" d="M141.83,8.07c-67.41,31.75-95,54-79.43,96.26a30.3,30.3,0,0,0,1.81,3.92,26.74,26.74,0,0,0,1.52,2.52c17-15.8,39.13-38,53-58.3,1.2-1.74,3.13-.95,2.27.94a345.28,345.28,0,0,1-41.61,68.31,33.61,33.61,0,0,0,3.67,1.33c10.24,3.1,21.67,1.73,34.06-5.89A65.35,65.35,0,0,0,144,83.55C156,50.53,159.31,0,159.31,0Q150.16,4.14,141.83,8.07Z"/>
      </g>
    </g>
  </g>
</svg>
