<?xml version="1.0" encoding="utf-8"?>
<!-- Generator: Adobe Illustrator 23.0.6, SVG Export Plug-In . SVG Version: 6.00 Build 0)  -->
<svg version="1.1" id="Layer_1" xmlns="http://www.w3.org/2000/svg" xmlns:xlink="http://www.w3.org/1999/xlink" x="0px" y="0px"
	 viewBox="0 0 568 700" style="enable-background:new 0 0 568 700;" xml:space="preserve">
<style type="text/css">
	.st0{fill:#FFFFFF;}
</style>
<path class="st0" d="M469.92,45.36C91.25,223.7-63.94,348.79,23.71,586.12c2.86,7.57,6.26,14.98,10.16,22.05
	c2.58,4.88,5.44,9.56,8.53,14.12c95.47-88.75,219.85-213.41,297.86-327.51c6.75-9.8,17.62-5.33,12.78,5.29
	c-43.3,94.37-119.22,238.13-233.77,383.77c6.76,2.91,13.68,5.38,20.62,7.45c57.51,17.45,121.72,9.73,191.32-33.07
	c70.46-43.42,122.7-110.95,150.86-188.81C549.24,283.9,568.13,0,568.13,0C533.85,15.48,501.1,30.55,469.92,45.36z"/>
</svg>
